<?xml version="1.0" encoding="utf-8" standalone="no"?>
<!DOCTYPE svg PUBLIC "-//W3C//DTD SVG 1.1//EN"
  "http://www.w3.org/Graphics/SVG/1.1/DTD/svg11.dtd">
<svg xmlns:xlink="http://www.w3.org/1999/xlink" width="338.284687pt" height="245.381563pt" viewBox="0 0 338.284687 245.381563" xmlns="http://www.w3.org/2000/svg" version="1.1">
 <metadata>
  <rdf:RDF xmlns:dc="http://purl.org/dc/elements/1.1/" xmlns:cc="http://creativecommons.org/ns#" xmlns:rdf="http://www.w3.org/1999/02/22-rdf-syntax-ns#">
   <cc:Work>
    <dc:type rdf:resource="http://purl.org/dc/dcmitype/StillImage"/>
    <dc:date>2025-10-20T10:52:24.014819</dc:date>
    <dc:format>image/svg+xml</dc:format>
    <dc:creator>
     <cc:Agent>
      <dc:title>Matplotlib v3.7.1, https://matplotlib.org/</dc:title>
     </cc:Agent>
    </dc:creator>
   </cc:Work>
  </rdf:RDF>
 </metadata>
 <defs>
  <style type="text/css">*{stroke-linejoin: round; stroke-linecap: butt}</style>
 </defs>
 <g id="figure_1">
  <g id="patch_1">
   <path d="M -0 245.381563 
L 338.284687 245.381563 
L 338.284687 0 
L -0 0 
z
" style="fill: #ffffff"/>
  </g>
  <g id="axes_1">
   <g id="patch_2">
    <path d="M 46.574063 201.24 
L 241.874063 201.24 
L 241.874063 7.2 
L 46.574063 7.2 
z
" style="fill: #ffffff"/>
   </g>
   <g id="PolyCollection_1">
    <defs>
     <path id="m2606ae2b0f" d="M 59.285897 -68.035596 
L 59.285897 -52.961562 
L 77.364481 -56.906258 
L 88.80109 -58.548262 
L 97.642422 -63.756063 
L 104.44325 -66.886693 
L 110.783789 -69.795798 
L 116.64395 -75.945407 
L 122.937778 -81.612792 
L 132.080627 -92.94168 
L 148.422451 -119.358918 
L 148.422451 -229.361562 
L 148.422451 -229.361562 
L 132.080627 -154.891028 
L 122.937778 -134.621846 
L 116.64395 -116.147381 
L 110.783789 -108.514696 
L 104.44325 -100.261501 
L 97.642422 -93.449985 
L 88.80109 -82.381133 
L 77.364481 -76.233077 
L 59.285897 -68.035596 
z
" style="stroke: #6cafe2; stroke-opacity: 0.2"/>
    </defs>
    <g clip-path="url(#p467d60cb82)">
     <use xlink:href="#m2606ae2b0f" x="0" y="245.381563" style="fill: #6cafe2; fill-opacity: 0.2; stroke: #6cafe2; stroke-opacity: 0.2"/>
    </g>
   </g>
   <g id="PolyCollection_2">
    <defs>
     <path id="mb396fbf09a" d="M 120.725143 -68.921468 
L 120.725143 -54.137324 
L 140.612681 -55.969 
L 153.094657 -59.340242 
L 162.284685 -60.632981 
L 171.645778 -64.815736 
L 178.975587 -68.2549 
L 187.028859 -74.268887 
L 195.186376 -79.910857 
L 203.996035 -84.255204 
L 218.799652 -106.881237 
L 218.799652 -191.784798 
L 218.799652 -191.784798 
L 203.996035 -144.863425 
L 195.186376 -130.344976 
L 187.028859 -117.364318 
L 178.975587 -105.630673 
L 171.645778 -94.934615 
L 162.284685 -85.431188 
L 153.094657 -78.001492 
L 140.612681 -74.2094 
L 120.725143 -68.921468 
z
" style="stroke: #e26ca5; stroke-opacity: 0.2"/>
    </defs>
    <g clip-path="url(#p467d60cb82)">
     <use xlink:href="#mb396fbf09a" x="0" y="245.381563" style="fill: #e26ca5; fill-opacity: 0.2; stroke: #e26ca5; stroke-opacity: 0.2"/>
    </g>
   </g>
   <g id="matplotlib.axis_1">
    <g id="xtick_1">
     <g id="line2d_1">
      <defs>
       <path id="m5cc7cdb1bd" d="M 0 0 
L 0 3.5 
" style="stroke: #000000; stroke-width: 0.8"/>
      </defs>
      <g>
       <use xlink:href="#m5cc7cdb1bd" x="66.604832" y="201.24" style="stroke: #000000; stroke-width: 0.8"/>
      </g>
     </g>
     <g id="text_1">
      <!-- 20 -->
      <g transform="translate(58.819519 218.260938) scale(0.14 -0.14)">
       <defs>
        <path id="ArialMT-32" d="M 3222 541 
L 3222 0 
L 194 0 
Q 188 203 259 391 
Q 375 700 629 1000 
Q 884 1300 1366 1694 
Q 2113 2306 2375 2664 
Q 2638 3022 2638 3341 
Q 2638 3675 2398 3904 
Q 2159 4134 1775 4134 
Q 1369 4134 1125 3890 
Q 881 3647 878 3216 
L 300 3275 
Q 359 3922 746 4261 
Q 1134 4600 1788 4600 
Q 2447 4600 2831 4234 
Q 3216 3869 3216 3328 
Q 3216 3053 3103 2787 
Q 2991 2522 2730 2228 
Q 2469 1934 1863 1422 
Q 1356 997 1212 845 
Q 1069 694 975 541 
L 3222 541 
z
" transform="scale(0.015625)"/>
        <path id="ArialMT-30" d="M 266 2259 
Q 266 3072 433 3567 
Q 600 4063 929 4331 
Q 1259 4600 1759 4600 
Q 2128 4600 2406 4451 
Q 2684 4303 2865 4023 
Q 3047 3744 3150 3342 
Q 3253 2941 3253 2259 
Q 3253 1453 3087 958 
Q 2922 463 2592 192 
Q 2263 -78 1759 -78 
Q 1097 -78 719 397 
Q 266 969 266 2259 
z
M 844 2259 
Q 844 1131 1108 757 
Q 1372 384 1759 384 
Q 2147 384 2411 759 
Q 2675 1134 2675 2259 
Q 2675 3391 2411 3762 
Q 2147 4134 1753 4134 
Q 1366 4134 1134 3806 
Q 844 3388 844 2259 
z
" transform="scale(0.015625)"/>
       </defs>
       <use xlink:href="#ArialMT-32"/>
       <use xlink:href="#ArialMT-30" x="55.615234"/>
      </g>
     </g>
    </g>
    <g id="xtick_2">
     <g id="line2d_2">
      <g>
       <use xlink:href="#m5cc7cdb1bd" x="116.681755" y="201.24" style="stroke: #000000; stroke-width: 0.8"/>
      </g>
     </g>
     <g id="text_2">
      <!-- 30 -->
      <g transform="translate(108.896442 218.260938) scale(0.14 -0.14)">
       <defs>
        <path id="ArialMT-33" d="M 269 1209 
L 831 1284 
Q 928 806 1161 595 
Q 1394 384 1728 384 
Q 2125 384 2398 659 
Q 2672 934 2672 1341 
Q 2672 1728 2419 1979 
Q 2166 2231 1775 2231 
Q 1616 2231 1378 2169 
L 1441 2663 
Q 1497 2656 1531 2656 
Q 1891 2656 2178 2843 
Q 2466 3031 2466 3422 
Q 2466 3731 2256 3934 
Q 2047 4138 1716 4138 
Q 1388 4138 1169 3931 
Q 950 3725 888 3313 
L 325 3413 
Q 428 3978 793 4289 
Q 1159 4600 1703 4600 
Q 2078 4600 2393 4439 
Q 2709 4278 2876 4000 
Q 3044 3722 3044 3409 
Q 3044 3113 2884 2869 
Q 2725 2625 2413 2481 
Q 2819 2388 3044 2092 
Q 3269 1797 3269 1353 
Q 3269 753 2831 336 
Q 2394 -81 1725 -81 
Q 1122 -81 723 278 
Q 325 638 269 1209 
z
" transform="scale(0.015625)"/>
       </defs>
       <use xlink:href="#ArialMT-33"/>
       <use xlink:href="#ArialMT-30" x="55.615234"/>
      </g>
     </g>
    </g>
    <g id="xtick_3">
     <g id="line2d_3">
      <g>
       <use xlink:href="#m5cc7cdb1bd" x="166.758678" y="201.24" style="stroke: #000000; stroke-width: 0.8"/>
      </g>
     </g>
     <g id="text_3">
      <!-- 40 -->
      <g transform="translate(158.973365 218.260938) scale(0.14 -0.14)">
       <defs>
        <path id="ArialMT-34" d="M 2069 0 
L 2069 1097 
L 81 1097 
L 81 1613 
L 2172 4581 
L 2631 4581 
L 2631 1613 
L 3250 1613 
L 3250 1097 
L 2631 1097 
L 2631 0 
L 2069 0 
z
M 2069 1613 
L 2069 3678 
L 634 1613 
L 2069 1613 
z
" transform="scale(0.015625)"/>
       </defs>
       <use xlink:href="#ArialMT-34"/>
       <use xlink:href="#ArialMT-30" x="55.615234"/>
      </g>
     </g>
    </g>
    <g id="xtick_4">
     <g id="line2d_4">
      <g>
       <use xlink:href="#m5cc7cdb1bd" x="216.835601" y="201.24" style="stroke: #000000; stroke-width: 0.8"/>
      </g>
     </g>
     <g id="text_4">
      <!-- 50 -->
      <g transform="translate(209.050288 218.260938) scale(0.14 -0.14)">
       <defs>
        <path id="ArialMT-35" d="M 266 1200 
L 856 1250 
Q 922 819 1161 601 
Q 1400 384 1738 384 
Q 2144 384 2425 690 
Q 2706 997 2706 1503 
Q 2706 1984 2436 2262 
Q 2166 2541 1728 2541 
Q 1456 2541 1237 2417 
Q 1019 2294 894 2097 
L 366 2166 
L 809 4519 
L 3088 4519 
L 3088 3981 
L 1259 3981 
L 1013 2750 
Q 1425 3038 1878 3038 
Q 2478 3038 2890 2622 
Q 3303 2206 3303 1553 
Q 3303 931 2941 478 
Q 2500 -78 1738 -78 
Q 1113 -78 717 272 
Q 322 622 266 1200 
z
" transform="scale(0.015625)"/>
       </defs>
       <use xlink:href="#ArialMT-35"/>
       <use xlink:href="#ArialMT-30" x="55.615234"/>
      </g>
     </g>
    </g>
    <g id="text_5">
     <!-- Body fat percentage (%) -->
     <g transform="translate(68.743281 235.235) scale(0.14 -0.14)">
      <defs>
       <path id="ArialMT-42" d="M 469 0 
L 469 4581 
L 2188 4581 
Q 2713 4581 3030 4442 
Q 3347 4303 3526 4014 
Q 3706 3725 3706 3409 
Q 3706 3116 3547 2856 
Q 3388 2597 3066 2438 
Q 3481 2316 3704 2022 
Q 3928 1728 3928 1328 
Q 3928 1006 3792 729 
Q 3656 453 3456 303 
Q 3256 153 2954 76 
Q 2653 0 2216 0 
L 469 0 
z
M 1075 2656 
L 2066 2656 
Q 2469 2656 2644 2709 
Q 2875 2778 2992 2937 
Q 3109 3097 3109 3338 
Q 3109 3566 3000 3739 
Q 2891 3913 2687 3977 
Q 2484 4041 1991 4041 
L 1075 4041 
L 1075 2656 
z
M 1075 541 
L 2216 541 
Q 2509 541 2628 563 
Q 2838 600 2978 687 
Q 3119 775 3209 942 
Q 3300 1109 3300 1328 
Q 3300 1584 3169 1773 
Q 3038 1963 2805 2039 
Q 2572 2116 2134 2116 
L 1075 2116 
L 1075 541 
z
" transform="scale(0.015625)"/>
       <path id="ArialMT-6f" d="M 213 1659 
Q 213 2581 725 3025 
Q 1153 3394 1769 3394 
Q 2453 3394 2887 2945 
Q 3322 2497 3322 1706 
Q 3322 1066 3130 698 
Q 2938 331 2570 128 
Q 2203 -75 1769 -75 
Q 1072 -75 642 372 
Q 213 819 213 1659 
z
M 791 1659 
Q 791 1022 1069 705 
Q 1347 388 1769 388 
Q 2188 388 2466 706 
Q 2744 1025 2744 1678 
Q 2744 2294 2464 2611 
Q 2184 2928 1769 2928 
Q 1347 2928 1069 2612 
Q 791 2297 791 1659 
z
" transform="scale(0.015625)"/>
       <path id="ArialMT-64" d="M 2575 0 
L 2575 419 
Q 2259 -75 1647 -75 
Q 1250 -75 917 144 
Q 584 363 401 755 
Q 219 1147 219 1656 
Q 219 2153 384 2558 
Q 550 2963 881 3178 
Q 1213 3394 1622 3394 
Q 1922 3394 2156 3267 
Q 2391 3141 2538 2938 
L 2538 4581 
L 3097 4581 
L 3097 0 
L 2575 0 
z
M 797 1656 
Q 797 1019 1065 703 
Q 1334 388 1700 388 
Q 2069 388 2326 689 
Q 2584 991 2584 1609 
Q 2584 2291 2321 2609 
Q 2059 2928 1675 2928 
Q 1300 2928 1048 2622 
Q 797 2316 797 1656 
z
" transform="scale(0.015625)"/>
       <path id="ArialMT-79" d="M 397 -1278 
L 334 -750 
Q 519 -800 656 -800 
Q 844 -800 956 -737 
Q 1069 -675 1141 -563 
Q 1194 -478 1313 -144 
Q 1328 -97 1363 -6 
L 103 3319 
L 709 3319 
L 1400 1397 
Q 1534 1031 1641 628 
Q 1738 1016 1872 1384 
L 2581 3319 
L 3144 3319 
L 1881 -56 
Q 1678 -603 1566 -809 
Q 1416 -1088 1222 -1217 
Q 1028 -1347 759 -1347 
Q 597 -1347 397 -1278 
z
" transform="scale(0.015625)"/>
       <path id="ArialMT-20" transform="scale(0.015625)"/>
       <path id="ArialMT-66" d="M 556 0 
L 556 2881 
L 59 2881 
L 59 3319 
L 556 3319 
L 556 3672 
Q 556 4006 616 4169 
Q 697 4388 901 4523 
Q 1106 4659 1475 4659 
Q 1713 4659 2000 4603 
L 1916 4113 
Q 1741 4144 1584 4144 
Q 1328 4144 1222 4034 
Q 1116 3925 1116 3625 
L 1116 3319 
L 1763 3319 
L 1763 2881 
L 1116 2881 
L 1116 0 
L 556 0 
z
" transform="scale(0.015625)"/>
       <path id="ArialMT-61" d="M 2588 409 
Q 2275 144 1986 34 
Q 1697 -75 1366 -75 
Q 819 -75 525 192 
Q 231 459 231 875 
Q 231 1119 342 1320 
Q 453 1522 633 1644 
Q 813 1766 1038 1828 
Q 1203 1872 1538 1913 
Q 2219 1994 2541 2106 
Q 2544 2222 2544 2253 
Q 2544 2597 2384 2738 
Q 2169 2928 1744 2928 
Q 1347 2928 1158 2789 
Q 969 2650 878 2297 
L 328 2372 
Q 403 2725 575 2942 
Q 747 3159 1072 3276 
Q 1397 3394 1825 3394 
Q 2250 3394 2515 3294 
Q 2781 3194 2906 3042 
Q 3031 2891 3081 2659 
Q 3109 2516 3109 2141 
L 3109 1391 
Q 3109 606 3145 398 
Q 3181 191 3288 0 
L 2700 0 
Q 2613 175 2588 409 
z
M 2541 1666 
Q 2234 1541 1622 1453 
Q 1275 1403 1131 1340 
Q 988 1278 909 1158 
Q 831 1038 831 891 
Q 831 666 1001 516 
Q 1172 366 1500 366 
Q 1825 366 2078 508 
Q 2331 650 2450 897 
Q 2541 1088 2541 1459 
L 2541 1666 
z
" transform="scale(0.015625)"/>
       <path id="ArialMT-74" d="M 1650 503 
L 1731 6 
Q 1494 -44 1306 -44 
Q 1000 -44 831 53 
Q 663 150 594 308 
Q 525 466 525 972 
L 525 2881 
L 113 2881 
L 113 3319 
L 525 3319 
L 525 4141 
L 1084 4478 
L 1084 3319 
L 1650 3319 
L 1650 2881 
L 1084 2881 
L 1084 941 
Q 1084 700 1114 631 
Q 1144 563 1211 522 
Q 1278 481 1403 481 
Q 1497 481 1650 503 
z
" transform="scale(0.015625)"/>
       <path id="ArialMT-70" d="M 422 -1272 
L 422 3319 
L 934 3319 
L 934 2888 
Q 1116 3141 1344 3267 
Q 1572 3394 1897 3394 
Q 2322 3394 2647 3175 
Q 2972 2956 3137 2557 
Q 3303 2159 3303 1684 
Q 3303 1175 3120 767 
Q 2938 359 2589 142 
Q 2241 -75 1856 -75 
Q 1575 -75 1351 44 
Q 1128 163 984 344 
L 984 -1272 
L 422 -1272 
z
M 931 1641 
Q 931 1000 1190 694 
Q 1450 388 1819 388 
Q 2194 388 2461 705 
Q 2728 1022 2728 1688 
Q 2728 2322 2467 2637 
Q 2206 2953 1844 2953 
Q 1484 2953 1207 2617 
Q 931 2281 931 1641 
z
" transform="scale(0.015625)"/>
       <path id="ArialMT-65" d="M 2694 1069 
L 3275 997 
Q 3138 488 2766 206 
Q 2394 -75 1816 -75 
Q 1088 -75 661 373 
Q 234 822 234 1631 
Q 234 2469 665 2931 
Q 1097 3394 1784 3394 
Q 2450 3394 2872 2941 
Q 3294 2488 3294 1666 
Q 3294 1616 3291 1516 
L 816 1516 
Q 847 969 1125 678 
Q 1403 388 1819 388 
Q 2128 388 2347 550 
Q 2566 713 2694 1069 
z
M 847 1978 
L 2700 1978 
Q 2663 2397 2488 2606 
Q 2219 2931 1791 2931 
Q 1403 2931 1139 2672 
Q 875 2413 847 1978 
z
" transform="scale(0.015625)"/>
       <path id="ArialMT-72" d="M 416 0 
L 416 3319 
L 922 3319 
L 922 2816 
Q 1116 3169 1280 3281 
Q 1444 3394 1641 3394 
Q 1925 3394 2219 3213 
L 2025 2691 
Q 1819 2813 1613 2813 
Q 1428 2813 1281 2702 
Q 1134 2591 1072 2394 
Q 978 2094 978 1738 
L 978 0 
L 416 0 
z
" transform="scale(0.015625)"/>
       <path id="ArialMT-63" d="M 2588 1216 
L 3141 1144 
Q 3050 572 2676 248 
Q 2303 -75 1759 -75 
Q 1078 -75 664 370 
Q 250 816 250 1647 
Q 250 2184 428 2587 
Q 606 2991 970 3192 
Q 1334 3394 1763 3394 
Q 2303 3394 2647 3120 
Q 2991 2847 3088 2344 
L 2541 2259 
Q 2463 2594 2264 2762 
Q 2066 2931 1784 2931 
Q 1359 2931 1093 2626 
Q 828 2322 828 1663 
Q 828 994 1084 691 
Q 1341 388 1753 388 
Q 2084 388 2306 591 
Q 2528 794 2588 1216 
z
" transform="scale(0.015625)"/>
       <path id="ArialMT-6e" d="M 422 0 
L 422 3319 
L 928 3319 
L 928 2847 
Q 1294 3394 1984 3394 
Q 2284 3394 2536 3286 
Q 2788 3178 2913 3003 
Q 3038 2828 3088 2588 
Q 3119 2431 3119 2041 
L 3119 0 
L 2556 0 
L 2556 2019 
Q 2556 2363 2490 2533 
Q 2425 2703 2258 2804 
Q 2091 2906 1866 2906 
Q 1506 2906 1245 2678 
Q 984 2450 984 1813 
L 984 0 
L 422 0 
z
" transform="scale(0.015625)"/>
       <path id="ArialMT-67" d="M 319 -275 
L 866 -356 
Q 900 -609 1056 -725 
Q 1266 -881 1628 -881 
Q 2019 -881 2231 -725 
Q 2444 -569 2519 -288 
Q 2563 -116 2559 434 
Q 2191 0 1641 0 
Q 956 0 581 494 
Q 206 988 206 1678 
Q 206 2153 378 2554 
Q 550 2956 876 3175 
Q 1203 3394 1644 3394 
Q 2231 3394 2613 2919 
L 2613 3319 
L 3131 3319 
L 3131 450 
Q 3131 -325 2973 -648 
Q 2816 -972 2473 -1159 
Q 2131 -1347 1631 -1347 
Q 1038 -1347 672 -1080 
Q 306 -813 319 -275 
z
M 784 1719 
Q 784 1066 1043 766 
Q 1303 466 1694 466 
Q 2081 466 2343 764 
Q 2606 1063 2606 1700 
Q 2606 2309 2336 2618 
Q 2066 2928 1684 2928 
Q 1309 2928 1046 2623 
Q 784 2319 784 1719 
z
" transform="scale(0.015625)"/>
       <path id="ArialMT-28" d="M 1497 -1347 
Q 1031 -759 709 28 
Q 388 816 388 1659 
Q 388 2403 628 3084 
Q 909 3875 1497 4659 
L 1900 4659 
Q 1522 4009 1400 3731 
Q 1209 3300 1100 2831 
Q 966 2247 966 1656 
Q 966 153 1900 -1347 
L 1497 -1347 
z
" transform="scale(0.015625)"/>
       <path id="ArialMT-25" d="M 372 3481 
Q 372 3972 619 4315 
Q 866 4659 1334 4659 
Q 1766 4659 2048 4351 
Q 2331 4044 2331 3447 
Q 2331 2866 2045 2552 
Q 1759 2238 1341 2238 
Q 925 2238 648 2547 
Q 372 2856 372 3481 
z
M 1350 4272 
Q 1141 4272 1002 4090 
Q 863 3909 863 3425 
Q 863 2984 1003 2804 
Q 1144 2625 1350 2625 
Q 1563 2625 1702 2806 
Q 1841 2988 1841 3469 
Q 1841 3913 1700 4092 
Q 1559 4272 1350 4272 
z
M 1353 -169 
L 3859 4659 
L 4316 4659 
L 1819 -169 
L 1353 -169 
z
M 3334 1075 
Q 3334 1569 3581 1911 
Q 3828 2253 4300 2253 
Q 4731 2253 5014 1945 
Q 5297 1638 5297 1041 
Q 5297 459 5011 145 
Q 4725 -169 4303 -169 
Q 3888 -169 3611 142 
Q 3334 453 3334 1075 
z
M 4316 1866 
Q 4103 1866 3964 1684 
Q 3825 1503 3825 1019 
Q 3825 581 3965 400 
Q 4106 219 4313 219 
Q 4528 219 4667 400 
Q 4806 581 4806 1063 
Q 4806 1506 4665 1686 
Q 4525 1866 4316 1866 
z
" transform="scale(0.015625)"/>
       <path id="ArialMT-29" d="M 791 -1347 
L 388 -1347 
Q 1322 153 1322 1656 
Q 1322 2244 1188 2822 
Q 1081 3291 891 3722 
Q 769 4003 388 4659 
L 791 4659 
Q 1378 3875 1659 3084 
Q 1900 2403 1900 1659 
Q 1900 816 1576 28 
Q 1253 -759 791 -1347 
z
" transform="scale(0.015625)"/>
      </defs>
      <use xlink:href="#ArialMT-42"/>
      <use xlink:href="#ArialMT-6f" x="66.699219"/>
      <use xlink:href="#ArialMT-64" x="122.314453"/>
      <use xlink:href="#ArialMT-79" x="177.929688"/>
      <use xlink:href="#ArialMT-20" x="227.929688"/>
      <use xlink:href="#ArialMT-66" x="255.712891"/>
      <use xlink:href="#ArialMT-61" x="283.496094"/>
      <use xlink:href="#ArialMT-74" x="339.111328"/>
      <use xlink:href="#ArialMT-20" x="366.894531"/>
      <use xlink:href="#ArialMT-70" x="394.677734"/>
      <use xlink:href="#ArialMT-65" x="450.292969"/>
      <use xlink:href="#ArialMT-72" x="505.908203"/>
      <use xlink:href="#ArialMT-63" x="539.208984"/>
      <use xlink:href="#ArialMT-65" x="589.208984"/>
      <use xlink:href="#ArialMT-6e" x="644.824219"/>
      <use xlink:href="#ArialMT-74" x="700.439453"/>
      <use xlink:href="#ArialMT-61" x="728.222656"/>
      <use xlink:href="#ArialMT-67" x="783.837891"/>
      <use xlink:href="#ArialMT-65" x="839.453125"/>
      <use xlink:href="#ArialMT-20" x="895.068359"/>
      <use xlink:href="#ArialMT-28" x="922.851562"/>
      <use xlink:href="#ArialMT-25" x="956.152344"/>
      <use xlink:href="#ArialMT-29" x="1045.068359"/>
     </g>
    </g>
   </g>
   <g id="matplotlib.axis_2">
    <g id="ytick_1">
     <g id="line2d_5">
      <defs>
       <path id="m7aaaa9855e" d="M 0 0 
L -3.5 0 
" style="stroke: #000000; stroke-width: 0.8"/>
      </defs>
      <g>
       <use xlink:href="#m7aaaa9855e" x="46.574063" y="170.604814" style="stroke: #000000; stroke-width: 0.8"/>
      </g>
     </g>
     <g id="text_6">
      <!-- 2 -->
      <g transform="translate(31.78875 175.615283) scale(0.14 -0.14)">
       <use xlink:href="#ArialMT-32"/>
      </g>
     </g>
    </g>
    <g id="ytick_2">
     <g id="line2d_6">
      <g>
       <use xlink:href="#m7aaaa9855e" x="46.574063" y="134.646082" style="stroke: #000000; stroke-width: 0.8"/>
      </g>
     </g>
     <g id="text_7">
      <!-- 4 -->
      <g transform="translate(31.78875 139.65655) scale(0.14 -0.14)">
       <use xlink:href="#ArialMT-34"/>
      </g>
     </g>
    </g>
    <g id="ytick_3">
     <g id="line2d_7">
      <g>
       <use xlink:href="#m7aaaa9855e" x="46.574063" y="98.68735" style="stroke: #000000; stroke-width: 0.8"/>
      </g>
     </g>
     <g id="text_8">
      <!-- 6 -->
      <g transform="translate(31.78875 103.697818) scale(0.14 -0.14)">
       <defs>
        <path id="ArialMT-36" d="M 3184 3459 
L 2625 3416 
Q 2550 3747 2413 3897 
Q 2184 4138 1850 4138 
Q 1581 4138 1378 3988 
Q 1113 3794 959 3422 
Q 806 3050 800 2363 
Q 1003 2672 1297 2822 
Q 1591 2972 1913 2972 
Q 2475 2972 2870 2558 
Q 3266 2144 3266 1488 
Q 3266 1056 3080 686 
Q 2894 316 2569 119 
Q 2244 -78 1831 -78 
Q 1128 -78 684 439 
Q 241 956 241 2144 
Q 241 3472 731 4075 
Q 1159 4600 1884 4600 
Q 2425 4600 2770 4297 
Q 3116 3994 3184 3459 
z
M 888 1484 
Q 888 1194 1011 928 
Q 1134 663 1356 523 
Q 1578 384 1822 384 
Q 2178 384 2434 671 
Q 2691 959 2691 1453 
Q 2691 1928 2437 2201 
Q 2184 2475 1800 2475 
Q 1419 2475 1153 2201 
Q 888 1928 888 1484 
z
" transform="scale(0.015625)"/>
       </defs>
       <use xlink:href="#ArialMT-36"/>
      </g>
     </g>
    </g>
    <g id="ytick_4">
     <g id="line2d_8">
      <g>
       <use xlink:href="#m7aaaa9855e" x="46.574063" y="62.728617" style="stroke: #000000; stroke-width: 0.8"/>
      </g>
     </g>
     <g id="text_9">
      <!-- 8 -->
      <g transform="translate(31.78875 67.739086) scale(0.14 -0.14)">
       <defs>
        <path id="ArialMT-38" d="M 1131 2484 
Q 781 2613 612 2850 
Q 444 3088 444 3419 
Q 444 3919 803 4259 
Q 1163 4600 1759 4600 
Q 2359 4600 2725 4251 
Q 3091 3903 3091 3403 
Q 3091 3084 2923 2848 
Q 2756 2613 2416 2484 
Q 2838 2347 3058 2040 
Q 3278 1734 3278 1309 
Q 3278 722 2862 322 
Q 2447 -78 1769 -78 
Q 1091 -78 675 323 
Q 259 725 259 1325 
Q 259 1772 486 2073 
Q 713 2375 1131 2484 
z
M 1019 3438 
Q 1019 3113 1228 2906 
Q 1438 2700 1772 2700 
Q 2097 2700 2305 2904 
Q 2513 3109 2513 3406 
Q 2513 3716 2298 3927 
Q 2084 4138 1766 4138 
Q 1444 4138 1231 3931 
Q 1019 3725 1019 3438 
z
M 838 1322 
Q 838 1081 952 856 
Q 1066 631 1291 507 
Q 1516 384 1775 384 
Q 2178 384 2440 643 
Q 2703 903 2703 1303 
Q 2703 1709 2433 1975 
Q 2163 2241 1756 2241 
Q 1359 2241 1098 1978 
Q 838 1716 838 1322 
z
" transform="scale(0.015625)"/>
       </defs>
       <use xlink:href="#ArialMT-38"/>
      </g>
     </g>
    </g>
    <g id="ytick_5">
     <g id="line2d_9">
      <g>
       <use xlink:href="#m7aaaa9855e" x="46.574063" y="26.769885" style="stroke: #000000; stroke-width: 0.8"/>
      </g>
     </g>
     <g id="text_10">
      <!-- 10 -->
      <g transform="translate(24.003438 31.780354) scale(0.14 -0.14)">
       <defs>
        <path id="ArialMT-31" d="M 2384 0 
L 1822 0 
L 1822 3584 
Q 1619 3391 1289 3197 
Q 959 3003 697 2906 
L 697 3450 
Q 1169 3672 1522 3987 
Q 1875 4303 2022 4600 
L 2384 4600 
L 2384 0 
z
" transform="scale(0.015625)"/>
       </defs>
       <use xlink:href="#ArialMT-31"/>
       <use xlink:href="#ArialMT-30" x="55.615234"/>
      </g>
     </g>
    </g>
    <g id="text_11">
     <!-- HOMA-IR -->
     <g transform="translate(17.220938 134.550781) rotate(-90) scale(0.14 -0.14)">
      <defs>
       <path id="ArialMT-48" d="M 513 0 
L 513 4581 
L 1119 4581 
L 1119 2700 
L 3500 2700 
L 3500 4581 
L 4106 4581 
L 4106 0 
L 3500 0 
L 3500 2159 
L 1119 2159 
L 1119 0 
L 513 0 
z
" transform="scale(0.015625)"/>
       <path id="ArialMT-4f" d="M 309 2231 
Q 309 3372 921 4017 
Q 1534 4663 2503 4663 
Q 3138 4663 3647 4359 
Q 4156 4056 4423 3514 
Q 4691 2972 4691 2284 
Q 4691 1588 4409 1038 
Q 4128 488 3612 205 
Q 3097 -78 2500 -78 
Q 1853 -78 1343 234 
Q 834 547 571 1087 
Q 309 1628 309 2231 
z
M 934 2222 
Q 934 1394 1379 917 
Q 1825 441 2497 441 
Q 3181 441 3623 922 
Q 4066 1403 4066 2288 
Q 4066 2847 3877 3264 
Q 3688 3681 3323 3911 
Q 2959 4141 2506 4141 
Q 1863 4141 1398 3698 
Q 934 3256 934 2222 
z
" transform="scale(0.015625)"/>
       <path id="ArialMT-4d" d="M 475 0 
L 475 4581 
L 1388 4581 
L 2472 1338 
Q 2622 884 2691 659 
Q 2769 909 2934 1394 
L 4031 4581 
L 4847 4581 
L 4847 0 
L 4263 0 
L 4263 3834 
L 2931 0 
L 2384 0 
L 1059 3900 
L 1059 0 
L 475 0 
z
" transform="scale(0.015625)"/>
       <path id="ArialMT-41" d="M -9 0 
L 1750 4581 
L 2403 4581 
L 4278 0 
L 3588 0 
L 3053 1388 
L 1138 1388 
L 634 0 
L -9 0 
z
M 1313 1881 
L 2866 1881 
L 2388 3150 
Q 2169 3728 2063 4100 
Q 1975 3659 1816 3225 
L 1313 1881 
z
" transform="scale(0.015625)"/>
       <path id="ArialMT-2d" d="M 203 1375 
L 203 1941 
L 1931 1941 
L 1931 1375 
L 203 1375 
z
" transform="scale(0.015625)"/>
       <path id="ArialMT-49" d="M 597 0 
L 597 4581 
L 1203 4581 
L 1203 0 
L 597 0 
z
" transform="scale(0.015625)"/>
       <path id="ArialMT-52" d="M 503 0 
L 503 4581 
L 2534 4581 
Q 3147 4581 3465 4457 
Q 3784 4334 3975 4021 
Q 4166 3709 4166 3331 
Q 4166 2844 3850 2509 
Q 3534 2175 2875 2084 
Q 3116 1969 3241 1856 
Q 3506 1613 3744 1247 
L 4541 0 
L 3778 0 
L 3172 953 
Q 2906 1366 2734 1584 
Q 2563 1803 2427 1890 
Q 2291 1978 2150 2013 
Q 2047 2034 1813 2034 
L 1109 2034 
L 1109 0 
L 503 0 
z
M 1109 2559 
L 2413 2559 
Q 2828 2559 3062 2645 
Q 3297 2731 3419 2920 
Q 3541 3109 3541 3331 
Q 3541 3656 3305 3865 
Q 3069 4075 2559 4075 
L 1109 4075 
L 1109 2559 
z
" transform="scale(0.015625)"/>
      </defs>
      <use xlink:href="#ArialMT-48"/>
      <use xlink:href="#ArialMT-4f" x="72.216797"/>
      <use xlink:href="#ArialMT-4d" x="150"/>
      <use xlink:href="#ArialMT-41" x="233.300781"/>
      <use xlink:href="#ArialMT-2d" x="300"/>
      <use xlink:href="#ArialMT-49" x="333.300781"/>
      <use xlink:href="#ArialMT-52" x="361.083984"/>
     </g>
    </g>
   </g>
   <g id="line2d_10">
    <path d="M 59.285897 185.527688 
L 77.364481 181.148935 
L 88.80109 176.853642 
L 97.642422 171.011458 
L 104.44325 164.667628 
L 110.783789 159.793888 
L 116.64395 149.391825 
L 122.937778 145.884739 
L 132.080627 128.60901 
L 148.422451 86.298013 
" clip-path="url(#p467d60cb82)" style="fill: none; stroke: #6cafe2; stroke-width: 0.5; stroke-linecap: square"/>
    <defs>
     <path id="m29008eaa0e" d="M -3 3 
L 3 3 
L 3 -3 
L -3 -3 
z
" style="stroke: #ffffff; stroke-width: 0.75; stroke-linejoin: miter"/>
    </defs>
    <g clip-path="url(#p467d60cb82)">
     <use xlink:href="#m29008eaa0e" x="59.285897" y="185.527688" style="fill: #6cafe2; stroke: #ffffff; stroke-width: 0.75; stroke-linejoin: miter"/>
     <use xlink:href="#m29008eaa0e" x="77.364481" y="181.148935" style="fill: #6cafe2; stroke: #ffffff; stroke-width: 0.75; stroke-linejoin: miter"/>
     <use xlink:href="#m29008eaa0e" x="88.80109" y="176.853642" style="fill: #6cafe2; stroke: #ffffff; stroke-width: 0.75; stroke-linejoin: miter"/>
     <use xlink:href="#m29008eaa0e" x="97.642422" y="171.011458" style="fill: #6cafe2; stroke: #ffffff; stroke-width: 0.75; stroke-linejoin: miter"/>
     <use xlink:href="#m29008eaa0e" x="104.44325" y="164.667628" style="fill: #6cafe2; stroke: #ffffff; stroke-width: 0.75; stroke-linejoin: miter"/>
     <use xlink:href="#m29008eaa0e" x="110.783789" y="159.793888" style="fill: #6cafe2; stroke: #ffffff; stroke-width: 0.75; stroke-linejoin: miter"/>
     <use xlink:href="#m29008eaa0e" x="116.64395" y="149.391825" style="fill: #6cafe2; stroke: #ffffff; stroke-width: 0.75; stroke-linejoin: miter"/>
     <use xlink:href="#m29008eaa0e" x="122.937778" y="145.884739" style="fill: #6cafe2; stroke: #ffffff; stroke-width: 0.75; stroke-linejoin: miter"/>
     <use xlink:href="#m29008eaa0e" x="132.080627" y="128.60901" style="fill: #6cafe2; stroke: #ffffff; stroke-width: 0.75; stroke-linejoin: miter"/>
     <use xlink:href="#m29008eaa0e" x="148.422451" y="86.298013" style="fill: #6cafe2; stroke: #ffffff; stroke-width: 0.75; stroke-linejoin: miter"/>
    </g>
   </g>
   <g id="line2d_11">
    <path d="M 120.725143 185.581626 
L 140.612681 181.673888 
L 153.094657 177.055189 
L 162.284685 175.129399 
L 171.645778 168.012234 
L 178.975587 162.942052 
L 187.028859 154.854001 
L 195.186376 144.847707 
L 203.996035 133.802605 
L 218.799652 103.585284 
" clip-path="url(#p467d60cb82)" style="fill: none; stroke-dasharray: 2,0.75; stroke-dashoffset: 0; stroke: #e26ca5; stroke-width: 0.5"/>
    <defs>
     <path id="m494b24caf9" d="M 0 3 
C 0.795609 3 1.55874 2.683901 2.12132 2.12132 
C 2.683901 1.55874 3 0.795609 3 0 
C 3 -0.795609 2.683901 -1.55874 2.12132 -2.12132 
C 1.55874 -2.683901 0.795609 -3 0 -3 
C -0.795609 -3 -1.55874 -2.683901 -2.12132 -2.12132 
C -2.683901 -1.55874 -3 -0.795609 -3 0 
C -3 0.795609 -2.683901 1.55874 -2.12132 2.12132 
C -1.55874 2.683901 -0.795609 3 0 3 
z
" style="stroke: #ffffff; stroke-width: 0.75"/>
    </defs>
    <g clip-path="url(#p467d60cb82)">
     <use xlink:href="#m494b24caf9" x="120.725143" y="185.581626" style="fill: #e26ca5; stroke: #ffffff; stroke-width: 0.75"/>
     <use xlink:href="#m494b24caf9" x="140.612681" y="181.673888" style="fill: #e26ca5; stroke: #ffffff; stroke-width: 0.75"/>
     <use xlink:href="#m494b24caf9" x="153.094657" y="177.055189" style="fill: #e26ca5; stroke: #ffffff; stroke-width: 0.75"/>
     <use xlink:href="#m494b24caf9" x="162.284685" y="175.129399" style="fill: #e26ca5; stroke: #ffffff; stroke-width: 0.75"/>
     <use xlink:href="#m494b24caf9" x="171.645778" y="168.012234" style="fill: #e26ca5; stroke: #ffffff; stroke-width: 0.75"/>
     <use xlink:href="#m494b24caf9" x="178.975587" y="162.942052" style="fill: #e26ca5; stroke: #ffffff; stroke-width: 0.75"/>
     <use xlink:href="#m494b24caf9" x="187.028859" y="154.854001" style="fill: #e26ca5; stroke: #ffffff; stroke-width: 0.75"/>
     <use xlink:href="#m494b24caf9" x="195.186376" y="144.847707" style="fill: #e26ca5; stroke: #ffffff; stroke-width: 0.75"/>
     <use xlink:href="#m494b24caf9" x="203.996035" y="133.802605" style="fill: #e26ca5; stroke: #ffffff; stroke-width: 0.75"/>
     <use xlink:href="#m494b24caf9" x="218.799652" y="103.585284" style="fill: #e26ca5; stroke: #ffffff; stroke-width: 0.75"/>
    </g>
   </g>
   <g id="line2d_12"/>
   <g id="line2d_13"/>
   <g id="line2d_14">
    <path d="M 56.589447 187.69631 
L 58.07724 187.091349 
L 59.55429 186.485899 
L 61.020714 185.88004 
L 62.476627 185.273848 
L 63.922139 184.667392 
L 65.357364 184.060735 
L 66.782409 183.453935 
L 68.197384 182.847047 
L 69.602394 182.240121 
L 70.997544 181.633203 
L 72.382938 181.026335 
L 73.758678 180.419556 
L 75.124864 179.812904 
L 76.481595 179.206411 
L 77.82897 178.60011 
L 79.167084 177.994028 
L 80.496033 177.388194 
L 81.815911 176.78263 
L 83.12681 176.177361 
L 84.428821 175.572408 
L 85.722035 174.96779 
L 87.006541 174.363525 
L 88.282426 173.75963 
L 89.549776 173.156122 
L 90.808678 172.553013 
L 92.059215 171.950318 
L 93.30147 171.348049 
L 94.535525 170.746217 
L 95.761461 170.144833 
L 96.979359 169.543906 
L 98.189296 168.943444 
L 99.391351 168.343457 
L 100.585601 167.743952 
L 101.772121 167.144935 
L 102.950986 166.546413 
L 104.122269 165.948391 
L 105.286045 165.350875 
L 106.442384 164.75387 
L 107.591358 164.157378 
L 108.733037 163.561405 
L 109.86749 162.965954 
L 110.994786 162.371028 
L 112.114991 161.776629 
L 113.228174 161.18276 
L 114.334399 160.589423 
L 115.433732 159.99662 
L 116.526236 159.404352 
L 117.611976 158.81262 
L 118.691014 158.221426 
L 119.763412 157.63077 
L 120.82923 157.040654 
L 121.88853 156.451076 
L 122.94137 155.862038 
L 123.98781 155.273539 
L 125.027909 154.68558 
L 126.061722 154.09816 
L 127.089308 153.511278 
L 128.110722 152.924935 
L 129.12602 152.339129 
L 130.135257 151.753859 
L 131.138486 151.169125 
L 132.135761 150.584926 
L 133.127135 150.00126 
L 134.11266 149.418126 
L 135.092388 148.835524 
L 136.06637 148.25345 
L 137.034656 147.671905 
L 137.997296 147.090887 
L 138.95434 146.510393 
L 139.905835 145.930423 
L 140.85183 145.350974 
L 141.792373 144.772045 
L 142.727511 144.193634 
L 143.657289 143.61574 
L 144.581755 143.038359 
L 145.500953 142.461491 
L 146.414928 141.885133 
L 147.323725 141.309283 
L 148.227387 140.733939 
L 149.125958 140.1591 
L 150.019482 139.584762 
L 150.907999 139.010924 
L 151.791553 138.437584 
L 152.670184 137.86474 
L 153.543934 137.292389 
L 154.412844 136.720529 
L 155.276952 136.149158 
L 156.1363 135.578273 
L 156.990926 135.007873 
L 157.84087 134.437955 
L 158.686168 133.868517 
L 159.526861 133.299556 
L 160.362984 132.731071 
L 161.194575 132.163059 
L 162.021672 131.595517 
L 162.844309 131.028444 
L 163.662524 130.461836 
L 164.476352 129.895693 
L 165.285827 129.33001 
" clip-path="url(#p467d60cb82)" style="fill: none; stroke: #6cafe2; stroke-width: 2; stroke-linecap: square"/>
   </g>
   <g id="line2d_15">
    <path d="M 116.681755 187.69631 
L 118.793432 187.091349 
L 120.87982 186.485899 
L 122.94137 185.88004 
L 124.978523 185.273848 
L 126.99171 184.667392 
L 128.98135 184.060735 
L 130.947855 183.453935 
L 132.891626 182.847047 
L 134.813055 182.240121 
L 136.712524 181.633203 
L 138.590409 181.026335 
L 140.447074 180.419556 
L 142.282878 179.812904 
L 144.098171 179.206411 
L 145.893293 178.60011 
L 147.66858 177.994028 
L 149.424358 177.388194 
L 151.160948 176.78263 
L 152.878661 176.177361 
L 154.577805 175.572408 
L 156.258678 174.96779 
L 157.921574 174.363525 
L 159.566779 173.75963 
L 161.194575 173.156122 
L 162.805237 172.553013 
L 164.399032 171.950318 
L 165.976226 171.348049 
L 167.537076 170.746217 
L 169.081834 170.144833 
L 170.610749 169.543906 
L 172.124062 168.943444 
L 173.622013 168.343457 
L 175.104832 167.743952 
L 176.572748 167.144935 
L 178.025986 166.546413 
L 179.464763 165.948391 
L 180.889295 165.350875 
L 182.299792 164.75387 
L 183.696461 164.157378 
L 185.079503 163.561405 
L 186.449119 162.965954 
L 187.805501 162.371028 
L 189.148841 161.776629 
L 190.479326 161.18276 
L 191.797139 160.589423 
L 193.102462 159.99662 
L 194.39547 159.404352 
L 195.676338 158.81262 
L 196.945234 158.221426 
L 198.202327 157.63077 
L 199.44778 157.040654 
L 200.681755 156.451076 
L 201.904408 155.862038 
L 203.115896 155.273539 
L 204.31637 154.68558 
L 205.50598 154.09816 
L 206.684873 153.511278 
L 207.853193 152.924935 
L 209.011082 152.339129 
L 210.158678 151.753859 
L 211.296118 151.169125 
L 212.423537 150.584926 
L 213.541067 150.00126 
L 214.648836 149.418126 
L 215.746972 148.835524 
L 216.835601 148.25345 
L 217.914845 147.671905 
L 218.984825 147.090887 
L 220.04566 146.510393 
L 221.097467 145.930423 
L 222.14036 145.350974 
L 223.174452 144.772045 
L 224.199854 144.193634 
L 225.216676 143.61574 
L 226.225024 143.038359 
L 227.225004 142.461491 
L 228.21672 141.885133 
L 229.200273 141.309283 
L 230.175765 140.733939 
L 231.143293 140.1591 
L 232.102956 139.584762 
L 233.054847 139.010924 
L 233.999062 138.437584 
L 234.935694 137.86474 
L 235.864832 137.292389 
L 236.786566 136.720529 
L 237.700986 136.149158 
L 238.608176 135.578273 
L 239.508224 135.007873 
L 240.401212 134.437955 
L 241.287224 133.868517 
L 242.16634 133.299556 
L 243.038642 132.731071 
L 243.904208 132.163059 
L 244.763116 131.595517 
L 245.615442 131.028444 
L 246.461262 130.461836 
L 247.300649 129.895693 
L 248.133678 129.33001 
" clip-path="url(#p467d60cb82)" style="fill: none; stroke: #e26ca5; stroke-width: 2; stroke-linecap: square"/>
   </g>
   <g id="patch_3">
    <path d="M 46.574063 201.24 
L 46.574063 7.2 
" style="fill: none; stroke: #000000; stroke-width: 0.8; stroke-linejoin: miter; stroke-linecap: square"/>
   </g>
   <g id="patch_4">
    <path d="M 46.574063 201.24 
L 241.874062 201.24 
" style="fill: none; stroke: #000000; stroke-width: 0.8; stroke-linejoin: miter; stroke-linecap: square"/>
   </g>
   <g id="legend_1">
    <g id="line2d_16">
     <path d="M 252.674063 22.389375 
L 264.674063 22.389375 
L 276.674063 22.389375 
" style="fill: none; stroke: #6cafe2; stroke-width: 0.5; stroke-linecap: square"/>
     <g>
      <use xlink:href="#m29008eaa0e" x="264.674063" y="22.389375" style="fill: #6cafe2; stroke: #ffffff; stroke-width: 0.75; stroke-linejoin: miter"/>
     </g>
    </g>
    <g id="text_12">
     <!-- Male -->
     <g transform="translate(286.274063 26.589375) scale(0.12 -0.12)">
      <defs>
       <path id="ArialMT-6c" d="M 409 0 
L 409 4581 
L 972 4581 
L 972 0 
L 409 0 
z
" transform="scale(0.015625)"/>
      </defs>
      <use xlink:href="#ArialMT-4d"/>
      <use xlink:href="#ArialMT-61" x="83.300781"/>
      <use xlink:href="#ArialMT-6c" x="138.916016"/>
      <use xlink:href="#ArialMT-65" x="161.132812"/>
     </g>
    </g>
    <g id="line2d_17">
     <path d="M 252.674063 39.36375 
L 264.674063 39.36375 
L 276.674063 39.36375 
" style="fill: none; stroke-dasharray: 2,0.75; stroke-dashoffset: 0; stroke: #e26ca5; stroke-width: 0.5"/>
     <g>
      <use xlink:href="#m494b24caf9" x="264.674063" y="39.36375" style="fill: #e26ca5; stroke: #ffffff; stroke-width: 0.75"/>
     </g>
    </g>
    <g id="text_13">
     <!-- Female -->
     <g transform="translate(286.274063 43.56375) scale(0.12 -0.12)">
      <defs>
       <path id="ArialMT-46" d="M 525 0 
L 525 4581 
L 3616 4581 
L 3616 4041 
L 1131 4041 
L 1131 2622 
L 3281 2622 
L 3281 2081 
L 1131 2081 
L 1131 0 
L 525 0 
z
" transform="scale(0.015625)"/>
       <path id="ArialMT-6d" d="M 422 0 
L 422 3319 
L 925 3319 
L 925 2853 
Q 1081 3097 1340 3245 
Q 1600 3394 1931 3394 
Q 2300 3394 2536 3241 
Q 2772 3088 2869 2813 
Q 3263 3394 3894 3394 
Q 4388 3394 4653 3120 
Q 4919 2847 4919 2278 
L 4919 0 
L 4359 0 
L 4359 2091 
Q 4359 2428 4304 2576 
Q 4250 2725 4106 2815 
Q 3963 2906 3769 2906 
Q 3419 2906 3187 2673 
Q 2956 2441 2956 1928 
L 2956 0 
L 2394 0 
L 2394 2156 
Q 2394 2531 2256 2718 
Q 2119 2906 1806 2906 
Q 1569 2906 1367 2781 
Q 1166 2656 1075 2415 
Q 984 2175 984 1722 
L 984 0 
L 422 0 
z
" transform="scale(0.015625)"/>
      </defs>
      <use xlink:href="#ArialMT-46"/>
      <use xlink:href="#ArialMT-65" x="61.083984"/>
      <use xlink:href="#ArialMT-6d" x="116.699219"/>
      <use xlink:href="#ArialMT-61" x="200"/>
      <use xlink:href="#ArialMT-6c" x="255.615234"/>
      <use xlink:href="#ArialMT-65" x="277.832031"/>
     </g>
    </g>
    <g id="line2d_18">
     <path d="M 252.674063 56.338125 
L 264.674063 56.338125 
L 276.674063 56.338125 
" style="fill: none; stroke: #6cafe2; stroke-width: 2; stroke-linecap: square"/>
    </g>
    <g id="text_14">
     <!-- Male -->
     <g transform="translate(286.274063 60.538125) scale(0.12 -0.12)">
      <use xlink:href="#ArialMT-4d"/>
      <use xlink:href="#ArialMT-61" x="83.300781"/>
      <use xlink:href="#ArialMT-6c" x="138.916016"/>
      <use xlink:href="#ArialMT-65" x="161.132812"/>
     </g>
    </g>
    <g id="line2d_19">
     <path d="M 252.674063 73.3125 
L 264.674063 73.3125 
L 276.674063 73.3125 
" style="fill: none; stroke: #e26ca5; stroke-width: 2; stroke-linecap: square"/>
    </g>
    <g id="text_15">
     <!-- Female -->
     <g transform="translate(286.274063 77.5125) scale(0.12 -0.12)">
      <use xlink:href="#ArialMT-46"/>
      <use xlink:href="#ArialMT-65" x="61.083984"/>
      <use xlink:href="#ArialMT-6d" x="116.699219"/>
      <use xlink:href="#ArialMT-61" x="200"/>
      <use xlink:href="#ArialMT-6c" x="255.615234"/>
      <use xlink:href="#ArialMT-65" x="277.832031"/>
     </g>
    </g>
   </g>
  </g>
 </g>
 <defs>
  <clipPath id="p467d60cb82">
   <rect x="46.574063" y="7.2" width="195.3" height="194.04"/>
  </clipPath>
 </defs>
</svg>
