<?xml version="1.0" encoding="utf-8" standalone="no"?>
<!DOCTYPE svg PUBLIC "-//W3C//DTD SVG 1.1//EN"
  "http://www.w3.org/Graphics/SVG/1.1/DTD/svg11.dtd">
<svg xmlns:xlink="http://www.w3.org/1999/xlink" width="495.50825pt" height="350.848219pt" viewBox="0 0 495.50825 350.848219" xmlns="http://www.w3.org/2000/svg" version="1.1">
 <metadata>
  <rdf:RDF xmlns:dc="http://purl.org/dc/elements/1.1/" xmlns:cc="http://creativecommons.org/ns#" xmlns:rdf="http://www.w3.org/1999/02/22-rdf-syntax-ns#">
   <cc:Work>
    <dc:type rdf:resource="http://purl.org/dc/dcmitype/StillImage"/>
    <dc:date>2025-10-20T09:41:37.460943</dc:date>
    <dc:format>image/svg+xml</dc:format>
    <dc:creator>
     <cc:Agent>
      <dc:title>Matplotlib v3.7.1, https://matplotlib.org/</dc:title>
     </cc:Agent>
    </dc:creator>
   </cc:Work>
  </rdf:RDF>
 </metadata>
 <defs>
  <style type="text/css">*{stroke-linejoin: round; stroke-linecap: butt}</style>
 </defs>
 <g id="figure_1">
  <g id="patch_1">
   <path d="M 0 350.848219 
L 495.50825 350.848219 
L 495.50825 0 
L 0 0 
z
" style="fill: #ffffff"/>
  </g>
  <g id="axes_1">
   <g id="patch_2">
    <path d="M 41.245312 139.602906 
L 236.147312 139.602906 
L 236.147312 10.778906 
L 41.245312 10.778906 
z
" style="fill: #ffffff"/>
   </g>
   <g id="matplotlib.axis_1">
    <g id="xtick_1">
     <g id="line2d_1">
      <defs>
       <path id="mb946759361" d="M 0 0 
L 0 3.5 
" style="stroke: #000000; stroke-width: 0.8"/>
      </defs>
      <g>
       <use xlink:href="#mb946759361" x="41.245312" y="139.602906" style="stroke: #000000; stroke-width: 0.8"/>
      </g>
     </g>
     <g id="text_1">
      <!-- 0 -->
      <g transform="translate(38.464844 153.760719) scale(0.1 -0.1)">
       <defs>
        <path id="ArialMT-30" d="M 266 2259 
Q 266 3072 433 3567 
Q 600 4063 929 4331 
Q 1259 4600 1759 4600 
Q 2128 4600 2406 4451 
Q 2684 4303 2865 4023 
Q 3047 3744 3150 3342 
Q 3253 2941 3253 2259 
Q 3253 1453 3087 958 
Q 2922 463 2592 192 
Q 2263 -78 1759 -78 
Q 1097 -78 719 397 
Q 266 969 266 2259 
z
M 844 2259 
Q 844 1131 1108 757 
Q 1372 384 1759 384 
Q 2147 384 2411 759 
Q 2675 1134 2675 2259 
Q 2675 3391 2411 3762 
Q 2147 4134 1753 4134 
Q 1366 4134 1134 3806 
Q 844 3388 844 2259 
z
" transform="scale(0.015625)"/>
       </defs>
       <use xlink:href="#ArialMT-30"/>
      </g>
     </g>
    </g>
    <g id="xtick_2">
     <g id="line2d_2">
      <g>
       <use xlink:href="#mb946759361" x="80.225713" y="139.602906" style="stroke: #000000; stroke-width: 0.8"/>
      </g>
     </g>
     <g id="text_2">
      <!-- 2 -->
      <g transform="translate(77.445244 153.760719) scale(0.1 -0.1)">
       <defs>
        <path id="ArialMT-32" d="M 3222 541 
L 3222 0 
L 194 0 
Q 188 203 259 391 
Q 375 700 629 1000 
Q 884 1300 1366 1694 
Q 2113 2306 2375 2664 
Q 2638 3022 2638 3341 
Q 2638 3675 2398 3904 
Q 2159 4134 1775 4134 
Q 1369 4134 1125 3890 
Q 881 3647 878 3216 
L 300 3275 
Q 359 3922 746 4261 
Q 1134 4600 1788 4600 
Q 2447 4600 2831 4234 
Q 3216 3869 3216 3328 
Q 3216 3053 3103 2787 
Q 2991 2522 2730 2228 
Q 2469 1934 1863 1422 
Q 1356 997 1212 845 
Q 1069 694 975 541 
L 3222 541 
z
" transform="scale(0.015625)"/>
       </defs>
       <use xlink:href="#ArialMT-32"/>
      </g>
     </g>
    </g>
    <g id="xtick_3">
     <g id="line2d_3">
      <g>
       <use xlink:href="#mb946759361" x="119.206113" y="139.602906" style="stroke: #000000; stroke-width: 0.8"/>
      </g>
     </g>
     <g id="text_3">
      <!-- 4 -->
      <g transform="translate(116.425644 153.760719) scale(0.1 -0.1)">
       <defs>
        <path id="ArialMT-34" d="M 2069 0 
L 2069 1097 
L 81 1097 
L 81 1613 
L 2172 4581 
L 2631 4581 
L 2631 1613 
L 3250 1613 
L 3250 1097 
L 2631 1097 
L 2631 0 
L 2069 0 
z
M 2069 1613 
L 2069 3678 
L 634 1613 
L 2069 1613 
z
" transform="scale(0.015625)"/>
       </defs>
       <use xlink:href="#ArialMT-34"/>
      </g>
     </g>
    </g>
    <g id="xtick_4">
     <g id="line2d_4">
      <g>
       <use xlink:href="#mb946759361" x="158.186512" y="139.602906" style="stroke: #000000; stroke-width: 0.8"/>
      </g>
     </g>
     <g id="text_4">
      <!-- 6 -->
      <g transform="translate(155.406044 153.760719) scale(0.1 -0.1)">
       <defs>
        <path id="ArialMT-36" d="M 3184 3459 
L 2625 3416 
Q 2550 3747 2413 3897 
Q 2184 4138 1850 4138 
Q 1581 4138 1378 3988 
Q 1113 3794 959 3422 
Q 806 3050 800 2363 
Q 1003 2672 1297 2822 
Q 1591 2972 1913 2972 
Q 2475 2972 2870 2558 
Q 3266 2144 3266 1488 
Q 3266 1056 3080 686 
Q 2894 316 2569 119 
Q 2244 -78 1831 -78 
Q 1128 -78 684 439 
Q 241 956 241 2144 
Q 241 3472 731 4075 
Q 1159 4600 1884 4600 
Q 2425 4600 2770 4297 
Q 3116 3994 3184 3459 
z
M 888 1484 
Q 888 1194 1011 928 
Q 1134 663 1356 523 
Q 1578 384 1822 384 
Q 2178 384 2434 671 
Q 2691 959 2691 1453 
Q 2691 1928 2437 2201 
Q 2184 2475 1800 2475 
Q 1419 2475 1153 2201 
Q 888 1928 888 1484 
z
" transform="scale(0.015625)"/>
       </defs>
       <use xlink:href="#ArialMT-36"/>
      </g>
     </g>
    </g>
    <g id="xtick_5">
     <g id="line2d_5">
      <g>
       <use xlink:href="#mb946759361" x="197.166913" y="139.602906" style="stroke: #000000; stroke-width: 0.8"/>
      </g>
     </g>
     <g id="text_5">
      <!-- 8 -->
      <g transform="translate(194.386444 153.760719) scale(0.1 -0.1)">
       <defs>
        <path id="ArialMT-38" d="M 1131 2484 
Q 781 2613 612 2850 
Q 444 3088 444 3419 
Q 444 3919 803 4259 
Q 1163 4600 1759 4600 
Q 2359 4600 2725 4251 
Q 3091 3903 3091 3403 
Q 3091 3084 2923 2848 
Q 2756 2613 2416 2484 
Q 2838 2347 3058 2040 
Q 3278 1734 3278 1309 
Q 3278 722 2862 322 
Q 2447 -78 1769 -78 
Q 1091 -78 675 323 
Q 259 725 259 1325 
Q 259 1772 486 2073 
Q 713 2375 1131 2484 
z
M 1019 3438 
Q 1019 3113 1228 2906 
Q 1438 2700 1772 2700 
Q 2097 2700 2305 2904 
Q 2513 3109 2513 3406 
Q 2513 3716 2298 3927 
Q 2084 4138 1766 4138 
Q 1444 4138 1231 3931 
Q 1019 3725 1019 3438 
z
M 838 1322 
Q 838 1081 952 856 
Q 1066 631 1291 507 
Q 1516 384 1775 384 
Q 2178 384 2440 643 
Q 2703 903 2703 1303 
Q 2703 1709 2433 1975 
Q 2163 2241 1756 2241 
Q 1359 2241 1098 1978 
Q 838 1716 838 1322 
z
" transform="scale(0.015625)"/>
       </defs>
       <use xlink:href="#ArialMT-38"/>
      </g>
     </g>
    </g>
    <g id="xtick_6">
     <g id="line2d_6">
      <g>
       <use xlink:href="#mb946759361" x="236.147312" y="139.602906" style="stroke: #000000; stroke-width: 0.8"/>
      </g>
     </g>
     <g id="text_6">
      <!-- 10 -->
      <g transform="translate(230.586375 153.760719) scale(0.1 -0.1)">
       <defs>
        <path id="ArialMT-31" d="M 2384 0 
L 1822 0 
L 1822 3584 
Q 1619 3391 1289 3197 
Q 959 3003 697 2906 
L 697 3450 
Q 1169 3672 1522 3987 
Q 1875 4303 2022 4600 
L 2384 4600 
L 2384 0 
z
" transform="scale(0.015625)"/>
       </defs>
       <use xlink:href="#ArialMT-31"/>
       <use xlink:href="#ArialMT-30" x="55.615234"/>
      </g>
     </g>
    </g>
    <g id="text_7">
     <!-- $[M_1]$ -->
     <g transform="translate(128.096312 167.060719) scale(0.1 -0.1)">
      <defs>
       <path id="DejaVuSans-5b" d="M 550 4863 
L 1875 4863 
L 1875 4416 
L 1125 4416 
L 1125 -397 
L 1875 -397 
L 1875 -844 
L 550 -844 
L 550 4863 
z
" transform="scale(0.015625)"/>
       <path id="DejaVuSans-Oblique-4d" d="M 1081 4666 
L 2028 4666 
L 2572 1522 
L 4378 4666 
L 5350 4666 
L 4441 0 
L 3828 0 
L 4622 4091 
L 2791 897 
L 2175 897 
L 1581 4103 
L 788 0 
L 172 0 
L 1081 4666 
z
" transform="scale(0.015625)"/>
       <path id="DejaVuSans-31" d="M 794 531 
L 1825 531 
L 1825 4091 
L 703 3866 
L 703 4441 
L 1819 4666 
L 2450 4666 
L 2450 531 
L 3481 531 
L 3481 0 
L 794 0 
L 794 531 
z
" transform="scale(0.015625)"/>
       <path id="DejaVuSans-5d" d="M 1947 4863 
L 1947 -844 
L 622 -844 
L 622 -397 
L 1369 -397 
L 1369 4416 
L 622 4416 
L 622 4863 
L 1947 4863 
z
" transform="scale(0.015625)"/>
      </defs>
      <use xlink:href="#DejaVuSans-5b" transform="translate(0 0.015625)"/>
      <use xlink:href="#DejaVuSans-Oblique-4d" transform="translate(39.013672 0.015625)"/>
      <use xlink:href="#DejaVuSans-31" transform="translate(125.292969 -16.390625) scale(0.7)"/>
      <use xlink:href="#DejaVuSans-5d" transform="translate(172.563477 0.015625)"/>
     </g>
    </g>
   </g>
   <g id="matplotlib.axis_2">
    <g id="ytick_1">
     <g id="line2d_7">
      <defs>
       <path id="mf2e9b61ab2" d="M 0 0 
L -3.5 0 
" style="stroke: #000000; stroke-width: 0.8"/>
      </defs>
      <g>
       <use xlink:href="#mf2e9b61ab2" x="41.245312" y="139.602906" style="stroke: #000000; stroke-width: 0.8"/>
      </g>
     </g>
     <g id="text_8">
      <!-- 0.0 -->
      <g transform="translate(20.345312 143.181812) scale(0.1 -0.1)">
       <defs>
        <path id="ArialMT-2e" d="M 581 0 
L 581 641 
L 1222 641 
L 1222 0 
L 581 0 
z
" transform="scale(0.015625)"/>
       </defs>
       <use xlink:href="#ArialMT-30"/>
       <use xlink:href="#ArialMT-2e" x="55.615234"/>
       <use xlink:href="#ArialMT-30" x="83.398438"/>
      </g>
     </g>
    </g>
    <g id="ytick_2">
     <g id="line2d_8">
      <g>
       <use xlink:href="#mf2e9b61ab2" x="41.245312" y="96.661573" style="stroke: #000000; stroke-width: 0.8"/>
      </g>
     </g>
     <g id="text_9">
      <!-- 0.1 -->
      <g transform="translate(20.345312 100.240479) scale(0.1 -0.1)">
       <use xlink:href="#ArialMT-30"/>
       <use xlink:href="#ArialMT-2e" x="55.615234"/>
       <use xlink:href="#ArialMT-31" x="83.398438"/>
      </g>
     </g>
    </g>
    <g id="ytick_3">
     <g id="line2d_9">
      <g>
       <use xlink:href="#mf2e9b61ab2" x="41.245312" y="53.72024" style="stroke: #000000; stroke-width: 0.8"/>
      </g>
     </g>
     <g id="text_10">
      <!-- 0.2 -->
      <g transform="translate(20.345312 57.299146) scale(0.1 -0.1)">
       <use xlink:href="#ArialMT-30"/>
       <use xlink:href="#ArialMT-2e" x="55.615234"/>
       <use xlink:href="#ArialMT-32" x="83.398438"/>
      </g>
     </g>
    </g>
    <g id="ytick_4">
     <g id="line2d_10">
      <g>
       <use xlink:href="#mf2e9b61ab2" x="41.245312" y="10.778906" style="stroke: #000000; stroke-width: 0.8"/>
      </g>
     </g>
     <g id="text_11">
      <!-- 0.3 -->
      <g transform="translate(20.345312 14.357812) scale(0.1 -0.1)">
       <defs>
        <path id="ArialMT-33" d="M 269 1209 
L 831 1284 
Q 928 806 1161 595 
Q 1394 384 1728 384 
Q 2125 384 2398 659 
Q 2672 934 2672 1341 
Q 2672 1728 2419 1979 
Q 2166 2231 1775 2231 
Q 1616 2231 1378 2169 
L 1441 2663 
Q 1497 2656 1531 2656 
Q 1891 2656 2178 2843 
Q 2466 3031 2466 3422 
Q 2466 3731 2256 3934 
Q 2047 4138 1716 4138 
Q 1388 4138 1169 3931 
Q 950 3725 888 3313 
L 325 3413 
Q 428 3978 793 4289 
Q 1159 4600 1703 4600 
Q 2078 4600 2393 4439 
Q 2709 4278 2876 4000 
Q 3044 3722 3044 3409 
Q 3044 3113 2884 2869 
Q 2725 2625 2413 2481 
Q 2819 2388 3044 2092 
Q 3269 1797 3269 1353 
Q 3269 753 2831 336 
Q 2394 -81 1725 -81 
Q 1122 -81 723 278 
Q 325 638 269 1209 
z
" transform="scale(0.015625)"/>
       </defs>
       <use xlink:href="#ArialMT-30"/>
       <use xlink:href="#ArialMT-2e" x="55.615234"/>
       <use xlink:href="#ArialMT-33" x="83.398438"/>
      </g>
     </g>
    </g>
    <g id="text_12">
     <!-- $v_1$ -->
     <g transform="translate(14.357812 80.540906) rotate(-90) scale(0.1 -0.1)">
      <defs>
       <path id="DejaVuSans-Oblique-76" d="M 459 3500 
L 1069 3500 
L 1581 525 
L 3256 3500 
L 3866 3500 
L 1875 0 
L 1100 0 
L 459 3500 
z
" transform="scale(0.015625)"/>
      </defs>
      <use xlink:href="#DejaVuSans-Oblique-76" transform="translate(0 0.3125)"/>
      <use xlink:href="#DejaVuSans-31" transform="translate(59.179688 -16.09375) scale(0.7)"/>
     </g>
    </g>
   </g>
   <g id="line2d_11">
    <path d="M 41.245312 139.602906 
L 43.21402 131.723763 
L 45.182727 125.168845 
L 47.151434 119.630193 
L 49.120141 114.88847 
L 51.088848 110.783219 
L 53.057555 107.194353 
L 55.026262 104.030204 
L 56.994969 101.219592 
L 58.963676 98.706398 
L 60.932383 96.445787 
L 62.90109 94.401503 
L 64.869797 92.543911 
L 66.838504 90.848554 
L 68.807211 89.295068 
L 70.775919 87.86636 
L 72.744626 86.547977 
L 74.713333 85.327615 
L 76.68204 84.194734 
L 78.650747 83.140253 
L 80.619454 82.156306 
L 82.588161 81.236045 
L 84.556868 80.373481 
L 86.525575 79.563352 
L 88.494282 78.801018 
L 90.462989 78.082371 
L 92.431696 77.40376 
L 94.400403 76.761931 
L 96.36911 76.15397 
L 98.337818 75.577268 
L 100.306525 75.029473 
L 102.275232 74.508465 
L 104.243939 74.012326 
L 106.212646 73.539317 
L 108.181353 73.087857 
L 110.15006 72.656507 
L 112.118767 72.243952 
L 114.087474 71.84899 
L 116.056181 71.470519 
L 118.024888 71.107528 
L 119.993595 70.759085 
L 121.962302 70.424334 
L 123.931009 70.102482 
L 125.899717 69.792799 
L 127.868424 69.494607 
L 129.837131 69.207278 
L 131.805838 68.930229 
L 133.774545 68.662918 
L 135.743252 68.404841 
L 137.711959 68.155527 
L 139.680666 67.914537 
L 141.649373 67.681461 
L 143.61808 67.455916 
L 145.586787 67.237543 
L 147.555494 67.026005 
L 149.524201 66.820985 
L 151.492908 66.622188 
L 153.461616 66.429334 
L 155.430323 66.24216 
L 157.39903 66.06042 
L 159.367737 65.883879 
L 161.336444 65.712319 
L 163.305151 65.54553 
L 165.273858 65.383318 
L 167.242565 65.225495 
L 169.211272 65.071887 
L 171.179979 64.922327 
L 173.148686 64.776656 
L 175.117393 64.634725 
L 177.0861 64.496392 
L 179.054807 64.361521 
L 181.023515 64.229985 
L 182.992222 64.101661 
L 184.960929 63.976433 
L 186.929636 63.85419 
L 188.898343 63.734826 
L 190.86705 63.618242 
L 192.835757 63.504341 
L 194.804464 63.393031 
L 196.773171 63.284226 
L 198.741878 63.177841 
L 200.710585 63.073797 
L 202.679292 62.972018 
L 204.647999 62.872429 
L 206.616706 62.774962 
L 208.585414 62.679548 
L 210.554121 62.586125 
L 212.522828 62.49463 
L 214.491535 62.405004 
L 216.460242 62.31719 
L 218.428949 62.231134 
L 220.397656 62.146785 
L 222.366363 62.06409 
L 224.33507 61.983003 
L 226.303777 61.903477 
L 228.272484 61.825467 
L 230.241191 61.748931 
L 232.209898 61.673826 
L 234.178605 61.600114 
L 236.147312 61.527755 
" clip-path="url(#p4d7b7c349d)" style="fill: none; stroke: #000000; stroke-width: 2; stroke-linecap: square"/>
   </g>
   <g id="line2d_12">
    <path d="M 41.245312 53.72024 
L 236.147312 53.72024 
" clip-path="url(#p4d7b7c349d)" style="fill: none; stroke-dasharray: 3.7,1.6; stroke-dashoffset: 0; stroke: #808080"/>
   </g>
   <g id="patch_3">
    <path d="M 41.245312 139.602906 
L 41.245312 10.778906 
" style="fill: none; stroke: #000000; stroke-width: 0.8; stroke-linejoin: miter; stroke-linecap: square"/>
   </g>
   <g id="patch_4">
    <path d="M 41.245312 139.602906 
L 236.147312 139.602906 
" style="fill: none; stroke: #000000; stroke-width: 0.8; stroke-linejoin: miter; stroke-linecap: square"/>
   </g>
  </g>
  <g id="axes_2">
   <g id="patch_5">
    <path d="M 287.845313 139.602906 
L 482.747313 139.602906 
L 482.747313 10.778906 
L 287.845313 10.778906 
z
" style="fill: #ffffff"/>
   </g>
   <g id="matplotlib.axis_3">
    <g id="xtick_7">
     <g id="line2d_13">
      <g>
       <use xlink:href="#mb946759361" x="287.845313" y="139.602906" style="stroke: #000000; stroke-width: 0.8"/>
      </g>
     </g>
     <g id="text_13">
      <!-- 0 -->
      <g transform="translate(285.064844 153.760719) scale(0.1 -0.1)">
       <use xlink:href="#ArialMT-30"/>
      </g>
     </g>
    </g>
    <g id="xtick_8">
     <g id="line2d_14">
      <g>
       <use xlink:href="#mb946759361" x="326.825713" y="139.602906" style="stroke: #000000; stroke-width: 0.8"/>
      </g>
     </g>
     <g id="text_14">
      <!-- 2 -->
      <g transform="translate(324.045244 153.760719) scale(0.1 -0.1)">
       <use xlink:href="#ArialMT-32"/>
      </g>
     </g>
    </g>
    <g id="xtick_9">
     <g id="line2d_15">
      <g>
       <use xlink:href="#mb946759361" x="365.806113" y="139.602906" style="stroke: #000000; stroke-width: 0.8"/>
      </g>
     </g>
     <g id="text_15">
      <!-- 4 -->
      <g transform="translate(363.025644 153.760719) scale(0.1 -0.1)">
       <use xlink:href="#ArialMT-34"/>
      </g>
     </g>
    </g>
    <g id="xtick_10">
     <g id="line2d_16">
      <g>
       <use xlink:href="#mb946759361" x="404.786513" y="139.602906" style="stroke: #000000; stroke-width: 0.8"/>
      </g>
     </g>
     <g id="text_16">
      <!-- 6 -->
      <g transform="translate(402.006044 153.760719) scale(0.1 -0.1)">
       <use xlink:href="#ArialMT-36"/>
      </g>
     </g>
    </g>
    <g id="xtick_11">
     <g id="line2d_17">
      <g>
       <use xlink:href="#mb946759361" x="443.766913" y="139.602906" style="stroke: #000000; stroke-width: 0.8"/>
      </g>
     </g>
     <g id="text_17">
      <!-- 8 -->
      <g transform="translate(440.986444 153.760719) scale(0.1 -0.1)">
       <use xlink:href="#ArialMT-38"/>
      </g>
     </g>
    </g>
    <g id="xtick_12">
     <g id="line2d_18">
      <g>
       <use xlink:href="#mb946759361" x="482.747313" y="139.602906" style="stroke: #000000; stroke-width: 0.8"/>
      </g>
     </g>
     <g id="text_18">
      <!-- 10 -->
      <g transform="translate(477.186375 153.760719) scale(0.1 -0.1)">
       <use xlink:href="#ArialMT-31"/>
       <use xlink:href="#ArialMT-30" x="55.615234"/>
      </g>
     </g>
    </g>
    <g id="text_19">
     <!-- $[M_2]$ -->
     <g transform="translate(374.696312 167.060719) scale(0.1 -0.1)">
      <defs>
       <path id="DejaVuSans-32" d="M 1228 531 
L 3431 531 
L 3431 0 
L 469 0 
L 469 531 
Q 828 903 1448 1529 
Q 2069 2156 2228 2338 
Q 2531 2678 2651 2914 
Q 2772 3150 2772 3378 
Q 2772 3750 2511 3984 
Q 2250 4219 1831 4219 
Q 1534 4219 1204 4116 
Q 875 4013 500 3803 
L 500 4441 
Q 881 4594 1212 4672 
Q 1544 4750 1819 4750 
Q 2544 4750 2975 4387 
Q 3406 4025 3406 3419 
Q 3406 3131 3298 2873 
Q 3191 2616 2906 2266 
Q 2828 2175 2409 1742 
Q 1991 1309 1228 531 
z
" transform="scale(0.015625)"/>
      </defs>
      <use xlink:href="#DejaVuSans-5b" transform="translate(0 0.015625)"/>
      <use xlink:href="#DejaVuSans-Oblique-4d" transform="translate(39.013672 0.015625)"/>
      <use xlink:href="#DejaVuSans-32" transform="translate(125.292969 -16.390625) scale(0.7)"/>
      <use xlink:href="#DejaVuSans-5d" transform="translate(172.563477 0.015625)"/>
     </g>
    </g>
   </g>
   <g id="matplotlib.axis_4">
    <g id="ytick_5">
     <g id="line2d_19">
      <g>
       <use xlink:href="#mf2e9b61ab2" x="287.845313" y="139.602906" style="stroke: #000000; stroke-width: 0.8"/>
      </g>
     </g>
     <g id="text_20">
      <!-- 0.0 -->
      <g transform="translate(266.945313 143.181812) scale(0.1 -0.1)">
       <use xlink:href="#ArialMT-30"/>
       <use xlink:href="#ArialMT-2e" x="55.615234"/>
       <use xlink:href="#ArialMT-30" x="83.398438"/>
      </g>
     </g>
    </g>
    <g id="ytick_6">
     <g id="line2d_20">
      <g>
       <use xlink:href="#mf2e9b61ab2" x="287.845313" y="96.661573" style="stroke: #000000; stroke-width: 0.8"/>
      </g>
     </g>
     <g id="text_21">
      <!-- 0.1 -->
      <g transform="translate(266.945313 100.240479) scale(0.1 -0.1)">
       <use xlink:href="#ArialMT-30"/>
       <use xlink:href="#ArialMT-2e" x="55.615234"/>
       <use xlink:href="#ArialMT-31" x="83.398438"/>
      </g>
     </g>
    </g>
    <g id="ytick_7">
     <g id="line2d_21">
      <g>
       <use xlink:href="#mf2e9b61ab2" x="287.845313" y="53.72024" style="stroke: #000000; stroke-width: 0.8"/>
      </g>
     </g>
     <g id="text_22">
      <!-- 0.2 -->
      <g transform="translate(266.945313 57.299146) scale(0.1 -0.1)">
       <use xlink:href="#ArialMT-30"/>
       <use xlink:href="#ArialMT-2e" x="55.615234"/>
       <use xlink:href="#ArialMT-32" x="83.398438"/>
      </g>
     </g>
    </g>
    <g id="ytick_8">
     <g id="line2d_22">
      <g>
       <use xlink:href="#mf2e9b61ab2" x="287.845313" y="10.778906" style="stroke: #000000; stroke-width: 0.8"/>
      </g>
     </g>
     <g id="text_23">
      <!-- 0.3 -->
      <g transform="translate(266.945313 14.357812) scale(0.1 -0.1)">
       <use xlink:href="#ArialMT-30"/>
       <use xlink:href="#ArialMT-2e" x="55.615234"/>
       <use xlink:href="#ArialMT-33" x="83.398438"/>
      </g>
     </g>
    </g>
    <g id="text_24">
     <!-- $v_1$ -->
     <g transform="translate(260.957813 80.540906) rotate(-90) scale(0.1 -0.1)">
      <use xlink:href="#DejaVuSans-Oblique-76" transform="translate(0 0.3125)"/>
      <use xlink:href="#DejaVuSans-31" transform="translate(59.179688 -16.09375) scale(0.7)"/>
     </g>
    </g>
   </g>
   <g id="line2d_23">
    <path d="M 287.845313 53.72024 
L 289.81402 61.599383 
L 291.782727 68.154301 
L 293.751434 73.692953 
L 295.720141 78.434676 
L 297.688848 82.539926 
L 299.657555 86.128793 
L 301.626262 89.292942 
L 303.594969 92.103554 
L 305.563676 94.616748 
L 307.532383 96.877359 
L 309.50109 98.921643 
L 311.469797 100.779235 
L 313.438504 102.474592 
L 315.407211 104.028078 
L 317.375919 105.456786 
L 319.344626 106.775169 
L 321.313333 107.995531 
L 323.28204 109.128412 
L 325.250747 110.182892 
L 327.219454 111.166839 
L 329.188161 112.0871 
L 331.156868 112.949665 
L 333.125575 113.759794 
L 335.094282 114.522127 
L 337.062989 115.240774 
L 339.031696 115.919385 
L 341.000403 116.561215 
L 342.96911 117.169175 
L 344.937818 117.745878 
L 346.906525 118.293673 
L 348.875232 118.814681 
L 350.843939 119.31082 
L 352.812646 119.783829 
L 354.781353 120.235289 
L 356.75006 120.666639 
L 358.718767 121.079194 
L 360.687474 121.474156 
L 362.656181 121.852627 
L 364.624888 122.215618 
L 366.593595 122.564061 
L 368.562302 122.898812 
L 370.531009 123.220663 
L 372.499717 123.530347 
L 374.468424 123.828539 
L 376.437131 124.115868 
L 378.405838 124.392917 
L 380.374545 124.660228 
L 382.343252 124.918305 
L 384.311959 125.167619 
L 386.280666 125.408609 
L 388.249373 125.641685 
L 390.21808 125.867229 
L 392.186787 126.085603 
L 394.155494 126.297141 
L 396.124201 126.50216 
L 398.092908 126.700958 
L 400.061616 126.893812 
L 402.030323 127.080986 
L 403.99903 127.262726 
L 405.967737 127.439267 
L 407.936444 127.610827 
L 409.905151 127.777616 
L 411.873858 127.939828 
L 413.842565 128.09765 
L 415.811272 128.251259 
L 417.779979 128.400819 
L 419.748686 128.54649 
L 421.717393 128.688421 
L 423.6861 128.826754 
L 425.654807 128.961625 
L 427.623515 129.093161 
L 429.592222 129.221485 
L 431.560929 129.346713 
L 433.529636 129.468956 
L 435.498343 129.58832 
L 437.46705 129.704904 
L 439.435757 129.818805 
L 441.404464 129.930114 
L 443.373171 130.03892 
L 445.341878 130.145304 
L 447.310585 130.249348 
L 449.279292 130.351128 
L 451.247999 130.450717 
L 453.216706 130.548184 
L 455.185414 130.643598 
L 457.154121 130.737021 
L 459.122828 130.828516 
L 461.091535 130.918142 
L 463.060242 131.005956 
L 465.028949 131.092011 
L 466.997656 131.176361 
L 468.966363 131.259055 
L 470.93507 131.340142 
L 472.903777 131.419669 
L 474.872484 131.497678 
L 476.841191 131.574215 
L 478.809898 131.64932 
L 480.778605 131.723032 
L 482.747313 131.795391 
" clip-path="url(#pd003b9ff06)" style="fill: none; stroke: #000000; stroke-width: 2; stroke-linecap: square"/>
   </g>
   <g id="line2d_24">
    <path d="M 287.845313 53.72024 
L 482.747313 53.72024 
" clip-path="url(#pd003b9ff06)" style="fill: none; stroke-dasharray: 3.7,1.6; stroke-dashoffset: 0; stroke: #808080"/>
   </g>
   <g id="patch_6">
    <path d="M 287.845313 139.602906 
L 287.845313 10.778906 
" style="fill: none; stroke: #000000; stroke-width: 0.8; stroke-linejoin: miter; stroke-linecap: square"/>
   </g>
   <g id="patch_7">
    <path d="M 287.845313 139.602906 
L 482.747313 139.602906 
" style="fill: none; stroke: #000000; stroke-width: 0.8; stroke-linejoin: miter; stroke-linecap: square"/>
   </g>
  </g>
  <g id="axes_3">
   <g id="patch_8">
    <path d="M 41.245312 314.202906 
L 236.147312 314.202906 
L 236.147312 185.378906 
L 41.245312 185.378906 
z
" style="fill: #ffffff"/>
   </g>
   <g id="matplotlib.axis_5">
    <g id="xtick_13">
     <g id="line2d_25">
      <g>
       <use xlink:href="#mb946759361" x="41.245312" y="314.202906" style="stroke: #000000; stroke-width: 0.8"/>
      </g>
     </g>
     <g id="text_25">
      <!-- 0 -->
      <g transform="translate(38.464844 328.360719) scale(0.1 -0.1)">
       <use xlink:href="#ArialMT-30"/>
      </g>
     </g>
    </g>
    <g id="xtick_14">
     <g id="line2d_26">
      <g>
       <use xlink:href="#mb946759361" x="80.225713" y="314.202906" style="stroke: #000000; stroke-width: 0.8"/>
      </g>
     </g>
     <g id="text_26">
      <!-- 2 -->
      <g transform="translate(77.445244 328.360719) scale(0.1 -0.1)">
       <use xlink:href="#ArialMT-32"/>
      </g>
     </g>
    </g>
    <g id="xtick_15">
     <g id="line2d_27">
      <g>
       <use xlink:href="#mb946759361" x="119.206113" y="314.202906" style="stroke: #000000; stroke-width: 0.8"/>
      </g>
     </g>
     <g id="text_27">
      <!-- 4 -->
      <g transform="translate(116.425644 328.360719) scale(0.1 -0.1)">
       <use xlink:href="#ArialMT-34"/>
      </g>
     </g>
    </g>
    <g id="xtick_16">
     <g id="line2d_28">
      <g>
       <use xlink:href="#mb946759361" x="158.186512" y="314.202906" style="stroke: #000000; stroke-width: 0.8"/>
      </g>
     </g>
     <g id="text_28">
      <!-- 6 -->
      <g transform="translate(155.406044 328.360719) scale(0.1 -0.1)">
       <use xlink:href="#ArialMT-36"/>
      </g>
     </g>
    </g>
    <g id="xtick_17">
     <g id="line2d_29">
      <g>
       <use xlink:href="#mb946759361" x="197.166913" y="314.202906" style="stroke: #000000; stroke-width: 0.8"/>
      </g>
     </g>
     <g id="text_29">
      <!-- 8 -->
      <g transform="translate(194.386444 328.360719) scale(0.1 -0.1)">
       <use xlink:href="#ArialMT-38"/>
      </g>
     </g>
    </g>
    <g id="xtick_18">
     <g id="line2d_30">
      <g>
       <use xlink:href="#mb946759361" x="236.147312" y="314.202906" style="stroke: #000000; stroke-width: 0.8"/>
      </g>
     </g>
     <g id="text_30">
      <!-- 10 -->
      <g transform="translate(230.586375 328.360719) scale(0.1 -0.1)">
       <use xlink:href="#ArialMT-31"/>
       <use xlink:href="#ArialMT-30" x="55.615234"/>
      </g>
     </g>
    </g>
    <g id="text_31">
     <!-- $[M_1]$ -->
     <g transform="translate(128.096312 341.660719) scale(0.1 -0.1)">
      <use xlink:href="#DejaVuSans-5b" transform="translate(0 0.015625)"/>
      <use xlink:href="#DejaVuSans-Oblique-4d" transform="translate(39.013672 0.015625)"/>
      <use xlink:href="#DejaVuSans-31" transform="translate(125.292969 -16.390625) scale(0.7)"/>
      <use xlink:href="#DejaVuSans-5d" transform="translate(172.563477 0.015625)"/>
     </g>
    </g>
   </g>
   <g id="matplotlib.axis_6">
    <g id="ytick_9">
     <g id="line2d_31">
      <g>
       <use xlink:href="#mf2e9b61ab2" x="41.245312" y="314.202906" style="stroke: #000000; stroke-width: 0.8"/>
      </g>
     </g>
     <g id="text_32">
      <!-- 0.0 -->
      <g transform="translate(20.345312 317.781812) scale(0.1 -0.1)">
       <use xlink:href="#ArialMT-30"/>
       <use xlink:href="#ArialMT-2e" x="55.615234"/>
       <use xlink:href="#ArialMT-30" x="83.398438"/>
      </g>
     </g>
    </g>
    <g id="ytick_10">
     <g id="line2d_32">
      <g>
       <use xlink:href="#mf2e9b61ab2" x="41.245312" y="249.790906" style="stroke: #000000; stroke-width: 0.8"/>
      </g>
     </g>
     <g id="text_33">
      <!-- 0.5 -->
      <g transform="translate(20.345312 253.369812) scale(0.1 -0.1)">
       <defs>
        <path id="ArialMT-35" d="M 266 1200 
L 856 1250 
Q 922 819 1161 601 
Q 1400 384 1738 384 
Q 2144 384 2425 690 
Q 2706 997 2706 1503 
Q 2706 1984 2436 2262 
Q 2166 2541 1728 2541 
Q 1456 2541 1237 2417 
Q 1019 2294 894 2097 
L 366 2166 
L 809 4519 
L 3088 4519 
L 3088 3981 
L 1259 3981 
L 1013 2750 
Q 1425 3038 1878 3038 
Q 2478 3038 2890 2622 
Q 3303 2206 3303 1553 
Q 3303 931 2941 478 
Q 2500 -78 1738 -78 
Q 1113 -78 717 272 
Q 322 622 266 1200 
z
" transform="scale(0.015625)"/>
       </defs>
       <use xlink:href="#ArialMT-30"/>
       <use xlink:href="#ArialMT-2e" x="55.615234"/>
       <use xlink:href="#ArialMT-35" x="83.398438"/>
      </g>
     </g>
    </g>
    <g id="ytick_11">
     <g id="line2d_33">
      <g>
       <use xlink:href="#mf2e9b61ab2" x="41.245312" y="185.378906" style="stroke: #000000; stroke-width: 0.8"/>
      </g>
     </g>
     <g id="text_34">
      <!-- 1.0 -->
      <g transform="translate(20.345312 188.957812) scale(0.1 -0.1)">
       <use xlink:href="#ArialMT-31"/>
       <use xlink:href="#ArialMT-2e" x="55.615234"/>
       <use xlink:href="#ArialMT-30" x="83.398438"/>
      </g>
     </g>
    </g>
    <g id="text_35">
     <!-- $v_2$ -->
     <g transform="translate(14.357812 255.140906) rotate(-90) scale(0.1 -0.1)">
      <use xlink:href="#DejaVuSans-Oblique-76" transform="translate(0 0.3125)"/>
      <use xlink:href="#DejaVuSans-32" transform="translate(59.179688 -16.09375) scale(0.7)"/>
     </g>
    </g>
   </g>
   <g id="line2d_34">
    <path d="M 41.245312 185.378906 
L 43.21402 197.197622 
L 45.182727 207.029999 
L 47.151434 215.337976 
L 49.120141 222.450561 
L 51.088848 228.608436 
L 53.057555 233.991736 
L 55.026262 238.73796 
L 56.994969 242.953878 
L 58.963676 246.723668 
L 60.932383 250.114585 
L 62.90109 253.181012 
L 64.869797 255.967399 
L 66.838504 258.510435 
L 68.807211 260.840664 
L 70.775919 262.983726 
L 72.744626 264.9613 
L 74.713333 266.791843 
L 76.68204 268.491164 
L 78.650747 270.072885 
L 80.619454 271.548806 
L 82.588161 272.929198 
L 84.556868 274.223044 
L 86.525575 275.438238 
L 88.494282 276.581738 
L 90.462989 277.659709 
L 92.431696 278.677625 
L 94.400403 279.64037 
L 96.36911 280.55231 
L 98.337818 281.417364 
L 100.306525 282.239057 
L 102.275232 283.020569 
L 104.243939 283.764777 
L 106.212646 284.474291 
L 108.181353 285.15148 
L 110.15006 285.798505 
L 112.118767 286.417338 
L 114.087474 287.00978 
L 116.056181 287.577487 
L 118.024888 288.121974 
L 119.993595 288.644638 
L 121.962302 289.146765 
L 123.931009 289.629542 
L 125.899717 290.094067 
L 127.868424 290.541355 
L 129.837131 290.972349 
L 131.805838 291.387922 
L 133.774545 291.788889 
L 135.743252 292.176005 
L 137.711959 292.549976 
L 139.680666 292.911461 
L 141.649373 293.261074 
L 143.61808 293.599391 
L 145.586787 293.926951 
L 147.555494 294.244258 
L 149.524201 294.551788 
L 151.492908 294.849984 
L 153.461616 295.139265 
L 155.430323 295.420026 
L 157.39903 295.692636 
L 159.367737 295.957447 
L 161.336444 296.214788 
L 163.305151 296.46497 
L 165.273858 296.708289 
L 167.242565 296.945023 
L 169.211272 297.175435 
L 171.179979 297.399776 
L 173.148686 297.618282 
L 175.117393 297.831178 
L 177.0861 298.038678 
L 179.054807 298.240984 
L 181.023515 298.438288 
L 182.992222 298.630774 
L 184.960929 298.818617 
L 186.929636 299.001981 
L 188.898343 299.181026 
L 190.86705 299.355903 
L 192.835757 299.526754 
L 194.804464 299.693719 
L 196.773171 299.856926 
L 198.741878 300.016504 
L 200.710585 300.17257 
L 202.679292 300.325239 
L 204.647999 300.474622 
L 206.616706 300.620823 
L 208.585414 300.763943 
L 210.554121 300.904078 
L 212.522828 301.041321 
L 214.491535 301.17576 
L 216.460242 301.307481 
L 218.428949 301.436564 
L 220.397656 301.563089 
L 222.366363 301.68713 
L 224.33507 301.80876 
L 226.303777 301.92805 
L 228.272484 302.045064 
L 230.241191 302.159869 
L 232.209898 302.272526 
L 234.178605 302.383095 
L 236.147312 302.491634 
" clip-path="url(#p2c6c0d1d8a)" style="fill: none; stroke: #000000; stroke-width: 2; stroke-linecap: square"/>
   </g>
   <g id="line2d_35">
    <path d="M 41.245312 185.378906 
L 236.147312 185.378906 
" clip-path="url(#p2c6c0d1d8a)" style="fill: none; stroke-dasharray: 3.7,1.6; stroke-dashoffset: 0; stroke: #808080"/>
   </g>
   <g id="patch_9">
    <path d="M 41.245312 314.202906 
L 41.245312 185.378906 
" style="fill: none; stroke: #000000; stroke-width: 0.8; stroke-linejoin: miter; stroke-linecap: square"/>
   </g>
   <g id="patch_10">
    <path d="M 41.245312 314.202906 
L 236.147312 314.202906 
" style="fill: none; stroke: #000000; stroke-width: 0.8; stroke-linejoin: miter; stroke-linecap: square"/>
   </g>
  </g>
  <g id="axes_4">
   <g id="patch_11">
    <path d="M 287.845313 314.202906 
L 482.747313 314.202906 
L 482.747313 185.378906 
L 287.845313 185.378906 
z
" style="fill: #ffffff"/>
   </g>
   <g id="matplotlib.axis_7">
    <g id="xtick_19">
     <g id="line2d_36">
      <g>
       <use xlink:href="#mb946759361" x="287.845313" y="314.202906" style="stroke: #000000; stroke-width: 0.8"/>
      </g>
     </g>
     <g id="text_36">
      <!-- 0 -->
      <g transform="translate(285.064844 328.360719) scale(0.1 -0.1)">
       <use xlink:href="#ArialMT-30"/>
      </g>
     </g>
    </g>
    <g id="xtick_20">
     <g id="line2d_37">
      <g>
       <use xlink:href="#mb946759361" x="326.825713" y="314.202906" style="stroke: #000000; stroke-width: 0.8"/>
      </g>
     </g>
     <g id="text_37">
      <!-- 2 -->
      <g transform="translate(324.045244 328.360719) scale(0.1 -0.1)">
       <use xlink:href="#ArialMT-32"/>
      </g>
     </g>
    </g>
    <g id="xtick_21">
     <g id="line2d_38">
      <g>
       <use xlink:href="#mb946759361" x="365.806113" y="314.202906" style="stroke: #000000; stroke-width: 0.8"/>
      </g>
     </g>
     <g id="text_38">
      <!-- 4 -->
      <g transform="translate(363.025644 328.360719) scale(0.1 -0.1)">
       <use xlink:href="#ArialMT-34"/>
      </g>
     </g>
    </g>
    <g id="xtick_22">
     <g id="line2d_39">
      <g>
       <use xlink:href="#mb946759361" x="404.786513" y="314.202906" style="stroke: #000000; stroke-width: 0.8"/>
      </g>
     </g>
     <g id="text_39">
      <!-- 6 -->
      <g transform="translate(402.006044 328.360719) scale(0.1 -0.1)">
       <use xlink:href="#ArialMT-36"/>
      </g>
     </g>
    </g>
    <g id="xtick_23">
     <g id="line2d_40">
      <g>
       <use xlink:href="#mb946759361" x="443.766913" y="314.202906" style="stroke: #000000; stroke-width: 0.8"/>
      </g>
     </g>
     <g id="text_40">
      <!-- 8 -->
      <g transform="translate(440.986444 328.360719) scale(0.1 -0.1)">
       <use xlink:href="#ArialMT-38"/>
      </g>
     </g>
    </g>
    <g id="xtick_24">
     <g id="line2d_41">
      <g>
       <use xlink:href="#mb946759361" x="482.747313" y="314.202906" style="stroke: #000000; stroke-width: 0.8"/>
      </g>
     </g>
     <g id="text_41">
      <!-- 10 -->
      <g transform="translate(477.186375 328.360719) scale(0.1 -0.1)">
       <use xlink:href="#ArialMT-31"/>
       <use xlink:href="#ArialMT-30" x="55.615234"/>
      </g>
     </g>
    </g>
    <g id="text_42">
     <!-- $[M_2]$ -->
     <g transform="translate(374.696312 341.660719) scale(0.1 -0.1)">
      <use xlink:href="#DejaVuSans-5b" transform="translate(0 0.015625)"/>
      <use xlink:href="#DejaVuSans-Oblique-4d" transform="translate(39.013672 0.015625)"/>
      <use xlink:href="#DejaVuSans-32" transform="translate(125.292969 -16.390625) scale(0.7)"/>
      <use xlink:href="#DejaVuSans-5d" transform="translate(172.563477 0.015625)"/>
     </g>
    </g>
   </g>
   <g id="matplotlib.axis_8">
    <g id="ytick_12">
     <g id="line2d_42">
      <g>
       <use xlink:href="#mf2e9b61ab2" x="287.845313" y="314.202906" style="stroke: #000000; stroke-width: 0.8"/>
      </g>
     </g>
     <g id="text_43">
      <!-- 0.0 -->
      <g transform="translate(266.945313 317.781812) scale(0.1 -0.1)">
       <use xlink:href="#ArialMT-30"/>
       <use xlink:href="#ArialMT-2e" x="55.615234"/>
       <use xlink:href="#ArialMT-30" x="83.398438"/>
      </g>
     </g>
    </g>
    <g id="ytick_13">
     <g id="line2d_43">
      <g>
       <use xlink:href="#mf2e9b61ab2" x="287.845313" y="249.790906" style="stroke: #000000; stroke-width: 0.8"/>
      </g>
     </g>
     <g id="text_44">
      <!-- 0.5 -->
      <g transform="translate(266.945313 253.369812) scale(0.1 -0.1)">
       <use xlink:href="#ArialMT-30"/>
       <use xlink:href="#ArialMT-2e" x="55.615234"/>
       <use xlink:href="#ArialMT-35" x="83.398438"/>
      </g>
     </g>
    </g>
    <g id="ytick_14">
     <g id="line2d_44">
      <g>
       <use xlink:href="#mf2e9b61ab2" x="287.845313" y="185.378906" style="stroke: #000000; stroke-width: 0.8"/>
      </g>
     </g>
     <g id="text_45">
      <!-- 1.0 -->
      <g transform="translate(266.945313 188.957812) scale(0.1 -0.1)">
       <use xlink:href="#ArialMT-31"/>
       <use xlink:href="#ArialMT-2e" x="55.615234"/>
       <use xlink:href="#ArialMT-30" x="83.398438"/>
      </g>
     </g>
    </g>
    <g id="text_46">
     <!-- $v_2$ -->
     <g transform="translate(260.957813 255.140906) rotate(-90) scale(0.1 -0.1)">
      <use xlink:href="#DejaVuSans-Oblique-76" transform="translate(0 0.3125)"/>
      <use xlink:href="#DejaVuSans-32" transform="translate(59.179688 -16.09375) scale(0.7)"/>
     </g>
    </g>
   </g>
   <g id="line2d_45">
    <path d="M 287.845313 314.202906 
L 289.81402 302.384191 
L 291.782727 292.551814 
L 293.751434 284.243836 
L 295.720141 277.131252 
L 297.688848 270.973376 
L 299.657555 265.590076 
L 301.626262 260.843853 
L 303.594969 256.627934 
L 305.563676 252.858144 
L 307.532383 249.467228 
L 309.50109 246.400801 
L 311.469797 243.614413 
L 313.438504 241.071378 
L 315.407211 238.741149 
L 317.375919 236.598087 
L 319.344626 234.620512 
L 321.313333 232.789969 
L 323.28204 231.090648 
L 325.250747 229.508927 
L 327.219454 228.033007 
L 329.188161 226.652615 
L 331.156868 225.358768 
L 333.125575 224.143575 
L 335.094282 223.000074 
L 337.062989 221.922104 
L 339.031696 220.904188 
L 341.000403 219.941443 
L 342.96911 219.029503 
L 344.937818 218.164449 
L 346.906525 217.342756 
L 348.875232 216.561244 
L 350.843939 215.817035 
L 352.812646 215.107522 
L 354.781353 214.430332 
L 356.75006 213.783307 
L 358.718767 213.164475 
L 360.687474 212.572032 
L 362.656181 212.004326 
L 364.624888 211.459839 
L 366.593595 210.937175 
L 368.562302 210.435048 
L 370.531009 209.95227 
L 372.499717 209.487746 
L 374.468424 209.040457 
L 376.437131 208.609464 
L 378.405838 208.19389 
L 380.374545 207.792924 
L 382.343252 207.405808 
L 384.311959 207.031837 
L 386.280666 206.670352 
L 388.249373 206.320739 
L 390.21808 205.982422 
L 392.186787 205.654862 
L 394.155494 205.337554 
L 396.124201 205.030025 
L 398.092908 204.731829 
L 400.061616 204.442548 
L 402.030323 204.161787 
L 403.99903 203.889176 
L 405.967737 203.624365 
L 407.936444 203.367025 
L 409.905151 203.116842 
L 411.873858 202.873524 
L 413.842565 202.63679 
L 415.811272 202.406378 
L 417.779979 202.182037 
L 419.748686 201.96353 
L 421.717393 201.750634 
L 423.6861 201.543134 
L 425.654807 201.340829 
L 427.623515 201.143524 
L 429.592222 200.951038 
L 431.560929 200.763196 
L 433.529636 200.579831 
L 435.498343 200.400786 
L 437.46705 200.22591 
L 439.435757 200.055058 
L 441.404464 199.888094 
L 443.373171 199.724886 
L 445.341878 199.565309 
L 447.310585 199.409243 
L 449.279292 199.256573 
L 451.247999 199.10719 
L 453.216706 198.960989 
L 455.185414 198.817869 
L 457.154121 198.677734 
L 459.122828 198.540491 
L 461.091535 198.406052 
L 463.060242 198.274332 
L 465.028949 198.145249 
L 466.997656 198.018724 
L 468.966363 197.894683 
L 470.93507 197.773052 
L 472.903777 197.653763 
L 474.872484 197.536748 
L 476.841191 197.421943 
L 478.809898 197.309286 
L 480.778605 197.198717 
L 482.747313 197.090179 
" clip-path="url(#p1d2a234af2)" style="fill: none; stroke: #000000; stroke-width: 2; stroke-linecap: square"/>
   </g>
   <g id="line2d_46">
    <path d="M 287.845313 185.378906 
L 482.747313 185.378906 
" clip-path="url(#p1d2a234af2)" style="fill: none; stroke-dasharray: 3.7,1.6; stroke-dashoffset: 0; stroke: #808080"/>
   </g>
   <g id="patch_12">
    <path d="M 287.845313 314.202906 
L 287.845313 185.378906 
" style="fill: none; stroke: #000000; stroke-width: 0.8; stroke-linejoin: miter; stroke-linecap: square"/>
   </g>
   <g id="patch_13">
    <path d="M 287.845313 314.202906 
L 482.747313 314.202906 
" style="fill: none; stroke: #000000; stroke-width: 0.8; stroke-linejoin: miter; stroke-linecap: square"/>
   </g>
  </g>
 </g>
 <defs>
  <clipPath id="p4d7b7c349d">
   <rect x="41.245312" y="10.778906" width="194.902" height="128.824"/>
  </clipPath>
  <clipPath id="pd003b9ff06">
   <rect x="287.845313" y="10.778906" width="194.902" height="128.824"/>
  </clipPath>
  <clipPath id="p2c6c0d1d8a">
   <rect x="41.245312" y="185.378906" width="194.902" height="128.824"/>
  </clipPath>
  <clipPath id="p1d2a234af2">
   <rect x="287.845313" y="185.378906" width="194.902" height="128.824"/>
  </clipPath>
 </defs>
</svg>
