<?xml version="1.0" encoding="utf-8" standalone="no"?>
<!DOCTYPE svg PUBLIC "-//W3C//DTD SVG 1.1//EN"
  "http://www.w3.org/Graphics/SVG/1.1/DTD/svg11.dtd">
<svg xmlns:xlink="http://www.w3.org/1999/xlink" width="463.7pt" height="282.71875pt" viewBox="0 0 463.7 282.71875" xmlns="http://www.w3.org/2000/svg" version="1.1">
 <metadata>
  <rdf:RDF xmlns:dc="http://purl.org/dc/elements/1.1/" xmlns:cc="http://creativecommons.org/ns#" xmlns:rdf="http://www.w3.org/1999/02/22-rdf-syntax-ns#">
   <cc:Work>
    <dc:type rdf:resource="http://purl.org/dc/dcmitype/StillImage"/>
    <dc:date>2025-10-20T09:41:38.251216</dc:date>
    <dc:format>image/svg+xml</dc:format>
    <dc:creator>
     <cc:Agent>
      <dc:title>Matplotlib v3.7.1, https://matplotlib.org/</dc:title>
     </cc:Agent>
    </dc:creator>
   </cc:Work>
  </rdf:RDF>
 </metadata>
 <defs>
  <style type="text/css">*{stroke-linejoin: round; stroke-linecap: butt}</style>
 </defs>
 <g id="figure_1">
  <g id="patch_1">
   <path d="M 0 282.71875 
L 463.7 282.71875 
L 463.7 0 
L 0 0 
z
" style="fill: #ffffff"/>
  </g>
  <g id="axes_1">
   <g id="patch_2">
    <path d="M 51.195 234.68625 
L 274.395 234.68625 
L 274.395 12.92625 
L 51.195 12.92625 
z
" style="fill: #ffffff"/>
   </g>
   <g id="PathCollection_1">
    <path d="M 56.229597 231.158964 
C 57.555612 231.158964 58.827496 230.632132 59.765131 229.694498 
C 60.702765 228.756863 61.229597 227.484979 61.229597 226.158964 
C 61.229597 224.832948 60.702765 223.561065 59.765131 222.62343 
C 58.827496 221.685796 57.555612 221.158964 56.229597 221.158964 
C 54.903581 221.158964 53.631698 221.685796 52.694063 222.62343 
C 51.756428 223.561065 51.229597 224.832948 51.229597 226.158964 
C 51.229597 227.484979 51.756428 228.756863 52.694063 229.694498 
C 53.631698 230.632132 54.903581 231.158964 56.229597 231.158964 
z
" clip-path="url(#pfe45a4e0bc)" style="fill: #b8860b; stroke: #ffffff; stroke-width: 0.8"/>
    <path d="M 84.410204 181.578752 
L 86.910204 179.078752 
L 89.410204 181.578752 
L 91.910204 179.078752 
L 89.410204 176.578752 
L 91.910204 174.078752 
L 89.410204 171.578752 
L 86.910204 174.078752 
L 84.410204 171.578752 
L 81.910204 174.078752 
L 84.410204 176.578752 
L 81.910204 179.078752 
z
" clip-path="url(#pfe45a4e0bc)" style="fill: #b8860b; stroke: #ffffff; stroke-width: 0.8"/>
    <path d="M 57.898258 229.831146 
C 59.224273 229.831146 60.496157 229.304314 61.433791 228.36668 
C 62.371426 227.429045 62.898258 226.157162 62.898258 224.831146 
C 62.898258 223.505131 62.371426 222.233247 61.433791 221.295612 
C 60.496157 220.357978 59.224273 219.831146 57.898258 219.831146 
C 56.572242 219.831146 55.300358 220.357978 54.362724 221.295612 
C 53.425089 222.233247 52.898258 223.505131 52.898258 224.831146 
C 52.898258 226.157162 53.425089 227.429045 54.362724 228.36668 
C 55.300358 229.304314 56.572242 229.831146 57.898258 229.831146 
z
" clip-path="url(#pfe45a4e0bc)" style="fill: #b8860b; stroke: #ffffff; stroke-width: 0.8"/>
    <path d="M 82.096019 173.0019 
L 84.596019 170.5019 
L 87.096019 173.0019 
L 89.596019 170.5019 
L 87.096019 168.0019 
L 89.596019 165.5019 
L 87.096019 163.0019 
L 84.596019 165.5019 
L 82.096019 163.0019 
L 79.596019 165.5019 
L 82.096019 168.0019 
L 79.596019 170.5019 
z
" clip-path="url(#pfe45a4e0bc)" style="fill: #b8860b; stroke: #ffffff; stroke-width: 0.8"/>
    <path d="M 59.050807 225.044923 
C 60.376823 225.044923 61.648706 224.518091 62.586341 223.580456 
C 63.523976 222.642822 64.050807 221.370938 64.050807 220.044923 
C 64.050807 218.718907 63.523976 217.447023 62.586341 216.509389 
C 61.648706 215.571754 60.376823 215.044923 59.050807 215.044923 
C 57.724792 215.044923 56.452908 215.571754 55.515273 216.509389 
C 54.577639 217.447023 54.050807 218.718907 54.050807 220.044923 
C 54.050807 221.370938 54.577639 222.642822 55.515273 223.580456 
C 56.452908 224.518091 57.724792 225.044923 59.050807 225.044923 
z
" clip-path="url(#pfe45a4e0bc)" style="fill: #b8860b; stroke: #ffffff; stroke-width: 0.8"/>
    <path d="M 76.057376 173.759224 
L 78.557376 171.259224 
L 81.057376 173.759224 
L 83.557376 171.259224 
L 81.057376 168.759224 
L 83.557376 166.259224 
L 81.057376 163.759224 
L 78.557376 166.259224 
L 76.057376 163.759224 
L 73.557376 166.259224 
L 76.057376 168.759224 
L 73.557376 171.259224 
z
" clip-path="url(#pfe45a4e0bc)" style="fill: #b8860b; stroke: #ffffff; stroke-width: 0.8"/>
    <path d="M 107.328985 171.537193 
C 108.655001 171.537193 109.926885 171.010361 110.864519 170.072727 
C 111.802154 169.135092 112.328985 167.863209 112.328985 166.537193 
C 112.328985 165.211178 111.802154 163.939294 110.864519 163.001659 
C 109.926885 162.064025 108.655001 161.537193 107.328985 161.537193 
C 106.00297 161.537193 104.731086 162.064025 103.793451 163.001659 
C 102.855817 163.939294 102.328985 165.211178 102.328985 166.537193 
C 102.328985 167.863209 102.855817 169.135092 103.793451 170.072727 
C 104.731086 171.010361 106.00297 171.537193 107.328985 171.537193 
z
" clip-path="url(#pfe45a4e0bc)" style="fill: #b22222; stroke: #ffffff; stroke-width: 0.8"/>
    <path d="M 177.464073 96.6828 
L 179.964073 94.1828 
L 182.464073 96.6828 
L 184.964073 94.1828 
L 182.464073 91.6828 
L 184.964073 89.1828 
L 182.464073 86.6828 
L 179.964073 89.1828 
L 177.464073 86.6828 
L 174.964073 89.1828 
L 177.464073 91.6828 
L 174.964073 94.1828 
z
" clip-path="url(#pfe45a4e0bc)" style="fill: #b22222; stroke: #ffffff; stroke-width: 0.8"/>
    <path d="M 114.692689 185.889139 
C 116.018705 185.889139 117.290588 185.362307 118.228223 184.424672 
C 119.165857 183.487038 119.692689 182.215154 119.692689 180.889139 
C 119.692689 179.563123 119.165857 178.291239 118.228223 177.353605 
C 117.290588 176.41597 116.018705 175.889139 114.692689 175.889139 
C 113.366674 175.889139 112.09479 176.41597 111.157155 177.353605 
C 110.219521 178.291239 109.692689 179.563123 109.692689 180.889139 
C 109.692689 182.215154 110.219521 183.487038 111.157155 184.424672 
C 112.09479 185.362307 113.366674 185.889139 114.692689 185.889139 
z
" clip-path="url(#pfe45a4e0bc)" style="fill: #b22222; stroke: #ffffff; stroke-width: 0.8"/>
    <path d="M 186.878649 113.614638 
L 189.378649 111.114638 
L 191.878649 113.614638 
L 194.378649 111.114638 
L 191.878649 108.614638 
L 194.378649 106.114638 
L 191.878649 103.614638 
L 189.378649 106.114638 
L 186.878649 103.614638 
L 184.378649 106.114638 
L 186.878649 108.614638 
L 184.378649 111.114638 
z
" clip-path="url(#pfe45a4e0bc)" style="fill: #b22222; stroke: #ffffff; stroke-width: 0.8"/>
    <path d="M 95.130784 193.916704 
C 96.456799 193.916704 97.728683 193.389872 98.666318 192.452238 
C 99.603952 191.514603 100.130784 190.242719 100.130784 188.916704 
C 100.130784 187.590688 99.603952 186.318805 98.666318 185.38117 
C 97.728683 184.443535 96.456799 183.916704 95.130784 183.916704 
C 93.804768 183.916704 92.532884 184.443535 91.59525 185.38117 
C 90.657615 186.318805 90.130784 187.590688 90.130784 188.916704 
C 90.130784 190.242719 90.657615 191.514603 91.59525 192.452238 
C 92.532884 193.389872 93.804768 193.916704 95.130784 193.916704 
z
" clip-path="url(#pfe45a4e0bc)" style="fill: #b22222; stroke: #ffffff; stroke-width: 0.8"/>
    <path d="M 213.54551 121.959347 
L 216.04551 119.459347 
L 218.54551 121.959347 
L 221.04551 119.459347 
L 218.54551 116.959347 
L 221.04551 114.459347 
L 218.54551 111.959347 
L 216.04551 114.459347 
L 213.54551 111.959347 
L 211.04551 114.459347 
L 213.54551 116.959347 
L 211.04551 119.459347 
z
" clip-path="url(#pfe45a4e0bc)" style="fill: #b22222; stroke: #ffffff; stroke-width: 0.8"/>
    <path d="M 101.057302 185.396926 
C 102.383317 185.396926 103.655201 184.870094 104.592836 183.93246 
C 105.53047 182.994825 106.057302 181.722941 106.057302 180.396926 
C 106.057302 179.07091 105.53047 177.799026 104.592836 176.861392 
C 103.655201 175.923757 102.383317 175.396926 101.057302 175.396926 
C 99.731286 175.396926 98.459402 175.923757 97.521768 176.861392 
C 96.584133 177.799026 96.057302 179.07091 96.057302 180.396926 
C 96.057302 181.722941 96.584133 182.994825 97.521768 183.93246 
C 98.459402 184.870094 99.731286 185.396926 101.057302 185.396926 
z
" clip-path="url(#pfe45a4e0bc)" style="fill: #b22222; stroke: #ffffff; stroke-width: 0.8"/>
    <path d="M 172.127096 114.119408 
L 174.627096 111.619408 
L 177.127096 114.119408 
L 179.627096 111.619408 
L 177.127096 109.119408 
L 179.627096 106.619408 
L 177.127096 104.119408 
L 174.627096 106.619408 
L 172.127096 104.119408 
L 169.627096 106.619408 
L 172.127096 109.119408 
L 169.627096 111.619408 
z
" clip-path="url(#pfe45a4e0bc)" style="fill: #b22222; stroke: #ffffff; stroke-width: 0.8"/>
    <path d="M 85.906914 183.244254 
C 87.23293 183.244254 88.504814 182.717422 89.442448 181.779788 
C 90.380083 180.842153 90.906914 179.570269 90.906914 178.244254 
C 90.906914 176.918238 90.380083 175.646355 89.442448 174.70872 
C 88.504814 173.771086 87.23293 173.244254 85.906914 173.244254 
C 84.580899 173.244254 83.309015 173.771086 82.371381 174.70872 
C 81.433746 175.646355 80.906914 176.918238 80.906914 178.244254 
C 80.906914 179.570269 81.433746 180.842153 82.371381 181.779788 
C 83.309015 182.717422 84.580899 183.244254 85.906914 183.244254 
z
" clip-path="url(#pfe45a4e0bc)" style="fill: #f08080; stroke: #ffffff; stroke-width: 0.8"/>
    <path d="M 100.435239 170.829456 
L 102.935239 168.329456 
L 105.435239 170.829456 
L 107.935239 168.329456 
L 105.435239 165.829456 
L 107.935239 163.329456 
L 105.435239 160.829456 
L 102.935239 163.329456 
L 100.435239 160.829456 
L 97.935239 163.329456 
L 100.435239 165.829456 
L 97.935239 168.329456 
z
" clip-path="url(#pfe45a4e0bc)" style="fill: #f08080; stroke: #ffffff; stroke-width: 0.8"/>
    <path d="M 87.545799 186.046852 
C 88.871815 186.046852 90.143698 185.520021 91.081333 184.582386 
C 92.018967 183.644752 92.545799 182.372868 92.545799 181.046852 
C 92.545799 179.720837 92.018967 178.448953 91.081333 177.511318 
C 90.143698 176.573684 88.871815 176.046852 87.545799 176.046852 
C 86.219784 176.046852 84.9479 176.573684 84.010265 177.511318 
C 83.072631 178.448953 82.545799 179.720837 82.545799 181.046852 
C 82.545799 182.372868 83.072631 183.644752 84.010265 184.582386 
C 84.9479 185.520021 86.219784 186.046852 87.545799 186.046852 
z
" clip-path="url(#pfe45a4e0bc)" style="fill: #f08080; stroke: #ffffff; stroke-width: 0.8"/>
    <path d="M 104.077741 183.960475 
L 106.577741 181.460475 
L 109.077741 183.960475 
L 111.577741 181.460475 
L 109.077741 178.960475 
L 111.577741 176.460475 
L 109.077741 173.960475 
L 106.577741 176.460475 
L 104.077741 173.960475 
L 101.577741 176.460475 
L 104.077741 178.960475 
L 101.577741 181.460475 
z
" clip-path="url(#pfe45a4e0bc)" style="fill: #f08080; stroke: #ffffff; stroke-width: 0.8"/>
    <path d="M 97.691602 177.276134 
C 99.017618 177.276134 100.289501 176.749302 101.227136 175.811668 
C 102.16477 174.874033 102.691602 173.602149 102.691602 172.276134 
C 102.691602 170.950118 102.16477 169.678235 101.227136 168.7406 
C 100.289501 167.802965 99.017618 167.276134 97.691602 167.276134 
C 96.365587 167.276134 95.093703 167.802965 94.156068 168.7406 
C 93.218434 169.678235 92.691602 170.950118 92.691602 172.276134 
C 92.691602 173.602149 93.218434 174.874033 94.156068 175.811668 
C 95.093703 176.749302 96.365587 177.276134 97.691602 177.276134 
z
" clip-path="url(#pfe45a4e0bc)" style="fill: #f08080; stroke: #ffffff; stroke-width: 0.8"/>
    <path d="M 115.610576 188.871735 
L 118.110576 186.371735 
L 120.610576 188.871735 
L 123.110576 186.371735 
L 120.610576 183.871735 
L 123.110576 181.371735 
L 120.610576 178.871735 
L 118.110576 181.371735 
L 115.610576 178.871735 
L 113.110576 181.371735 
L 115.610576 183.871735 
L 113.110576 186.371735 
z
" clip-path="url(#pfe45a4e0bc)" style="fill: #f08080; stroke: #ffffff; stroke-width: 0.8"/>
    <path d="M 100.310046 185.599429 
C 101.636062 185.599429 102.907946 185.072597 103.84558 184.134963 
C 104.783215 183.197328 105.310046 181.925444 105.310046 180.599429 
C 105.310046 179.273413 104.783215 178.001529 103.84558 177.063895 
C 102.907946 176.12626 101.636062 175.599429 100.310046 175.599429 
C 98.984031 175.599429 97.712147 176.12626 96.774512 177.063895 
C 95.836878 178.001529 95.310046 179.273413 95.310046 180.599429 
C 95.310046 181.925444 95.836878 183.197328 96.774512 184.134963 
C 97.712147 185.072597 98.984031 185.599429 100.310046 185.599429 
z
" clip-path="url(#pfe45a4e0bc)" style="fill: #f08080; stroke: #ffffff; stroke-width: 0.8"/>
    <path d="M 88.68768 186.761597 
L 91.18768 184.261597 
L 93.68768 186.761597 
L 96.18768 184.261597 
L 93.68768 181.761597 
L 96.18768 179.261597 
L 93.68768 176.761597 
L 91.18768 179.261597 
L 88.68768 176.761597 
L 86.18768 179.261597 
L 88.68768 181.761597 
L 86.18768 184.261597 
z
" clip-path="url(#pfe45a4e0bc)" style="fill: #f08080; stroke: #ffffff; stroke-width: 0.8"/>
   </g>
   <g id="matplotlib.axis_1">
    <g id="xtick_1">
     <g id="line2d_1">
      <defs>
       <path id="m6dce3ae928" d="M 0 0 
L 0 3.5 
" style="stroke: #000000; stroke-width: 0.8"/>
      </defs>
      <g>
       <use xlink:href="#m6dce3ae928" x="51.195" y="234.68625" style="stroke: #000000; stroke-width: 0.8"/>
      </g>
     </g>
     <g id="text_1">
      <!-- 0 -->
      <g transform="translate(46.74625 253.13875) scale(0.16 -0.16)">
       <defs>
        <path id="ArialMT-30" d="M 266 2259 
Q 266 3072 433 3567 
Q 600 4063 929 4331 
Q 1259 4600 1759 4600 
Q 2128 4600 2406 4451 
Q 2684 4303 2865 4023 
Q 3047 3744 3150 3342 
Q 3253 2941 3253 2259 
Q 3253 1453 3087 958 
Q 2922 463 2592 192 
Q 2263 -78 1759 -78 
Q 1097 -78 719 397 
Q 266 969 266 2259 
z
M 844 2259 
Q 844 1131 1108 757 
Q 1372 384 1759 384 
Q 2147 384 2411 759 
Q 2675 1134 2675 2259 
Q 2675 3391 2411 3762 
Q 2147 4134 1753 4134 
Q 1366 4134 1134 3806 
Q 844 3388 844 2259 
z
" transform="scale(0.015625)"/>
       </defs>
       <use xlink:href="#ArialMT-30"/>
      </g>
     </g>
    </g>
    <g id="xtick_2">
     <g id="line2d_2">
      <g>
       <use xlink:href="#m6dce3ae928" x="125.595" y="234.68625" style="stroke: #000000; stroke-width: 0.8"/>
      </g>
     </g>
     <g id="text_2">
      <!-- 20 -->
      <g transform="translate(116.6975 253.13875) scale(0.16 -0.16)">
       <defs>
        <path id="ArialMT-32" d="M 3222 541 
L 3222 0 
L 194 0 
Q 188 203 259 391 
Q 375 700 629 1000 
Q 884 1300 1366 1694 
Q 2113 2306 2375 2664 
Q 2638 3022 2638 3341 
Q 2638 3675 2398 3904 
Q 2159 4134 1775 4134 
Q 1369 4134 1125 3890 
Q 881 3647 878 3216 
L 300 3275 
Q 359 3922 746 4261 
Q 1134 4600 1788 4600 
Q 2447 4600 2831 4234 
Q 3216 3869 3216 3328 
Q 3216 3053 3103 2787 
Q 2991 2522 2730 2228 
Q 2469 1934 1863 1422 
Q 1356 997 1212 845 
Q 1069 694 975 541 
L 3222 541 
z
" transform="scale(0.015625)"/>
       </defs>
       <use xlink:href="#ArialMT-32"/>
       <use xlink:href="#ArialMT-30" x="55.615234"/>
      </g>
     </g>
    </g>
    <g id="xtick_3">
     <g id="line2d_3">
      <g>
       <use xlink:href="#m6dce3ae928" x="199.995" y="234.68625" style="stroke: #000000; stroke-width: 0.8"/>
      </g>
     </g>
     <g id="text_3">
      <!-- 40 -->
      <g transform="translate(191.0975 253.13875) scale(0.16 -0.16)">
       <defs>
        <path id="ArialMT-34" d="M 2069 0 
L 2069 1097 
L 81 1097 
L 81 1613 
L 2172 4581 
L 2631 4581 
L 2631 1613 
L 3250 1613 
L 3250 1097 
L 2631 1097 
L 2631 0 
L 2069 0 
z
M 2069 1613 
L 2069 3678 
L 634 1613 
L 2069 1613 
z
" transform="scale(0.015625)"/>
       </defs>
       <use xlink:href="#ArialMT-34"/>
       <use xlink:href="#ArialMT-30" x="55.615234"/>
      </g>
     </g>
    </g>
    <g id="xtick_4">
     <g id="line2d_4">
      <g>
       <use xlink:href="#m6dce3ae928" x="274.395" y="234.68625" style="stroke: #000000; stroke-width: 0.8"/>
      </g>
     </g>
     <g id="text_4">
      <!-- 60 -->
      <g transform="translate(265.4975 253.13875) scale(0.16 -0.16)">
       <defs>
        <path id="ArialMT-36" d="M 3184 3459 
L 2625 3416 
Q 2550 3747 2413 3897 
Q 2184 4138 1850 4138 
Q 1581 4138 1378 3988 
Q 1113 3794 959 3422 
Q 806 3050 800 2363 
Q 1003 2672 1297 2822 
Q 1591 2972 1913 2972 
Q 2475 2972 2870 2558 
Q 3266 2144 3266 1488 
Q 3266 1056 3080 686 
Q 2894 316 2569 119 
Q 2244 -78 1831 -78 
Q 1128 -78 684 439 
Q 241 956 241 2144 
Q 241 3472 731 4075 
Q 1159 4600 1884 4600 
Q 2425 4600 2770 4297 
Q 3116 3994 3184 3459 
z
M 888 1484 
Q 888 1194 1011 928 
Q 1134 663 1356 523 
Q 1578 384 1822 384 
Q 2178 384 2434 671 
Q 2691 959 2691 1453 
Q 2691 1928 2437 2201 
Q 2184 2475 1800 2475 
Q 1419 2475 1153 2201 
Q 888 1928 888 1484 
z
" transform="scale(0.015625)"/>
       </defs>
       <use xlink:href="#ArialMT-36"/>
       <use xlink:href="#ArialMT-30" x="55.615234"/>
      </g>
     </g>
    </g>
    <g id="text_5">
     <!-- Measured flux ($\mathrm{\mu}$molC/min) -->
     <g transform="translate(66.075 271.99875) scale(0.16 -0.16)">
      <defs>
       <path id="ArialMT-4d" d="M 475 0 
L 475 4581 
L 1388 4581 
L 2472 1338 
Q 2622 884 2691 659 
Q 2769 909 2934 1394 
L 4031 4581 
L 4847 4581 
L 4847 0 
L 4263 0 
L 4263 3834 
L 2931 0 
L 2384 0 
L 1059 3900 
L 1059 0 
L 475 0 
z
" transform="scale(0.015625)"/>
       <path id="ArialMT-65" d="M 2694 1069 
L 3275 997 
Q 3138 488 2766 206 
Q 2394 -75 1816 -75 
Q 1088 -75 661 373 
Q 234 822 234 1631 
Q 234 2469 665 2931 
Q 1097 3394 1784 3394 
Q 2450 3394 2872 2941 
Q 3294 2488 3294 1666 
Q 3294 1616 3291 1516 
L 816 1516 
Q 847 969 1125 678 
Q 1403 388 1819 388 
Q 2128 388 2347 550 
Q 2566 713 2694 1069 
z
M 847 1978 
L 2700 1978 
Q 2663 2397 2488 2606 
Q 2219 2931 1791 2931 
Q 1403 2931 1139 2672 
Q 875 2413 847 1978 
z
" transform="scale(0.015625)"/>
       <path id="ArialMT-61" d="M 2588 409 
Q 2275 144 1986 34 
Q 1697 -75 1366 -75 
Q 819 -75 525 192 
Q 231 459 231 875 
Q 231 1119 342 1320 
Q 453 1522 633 1644 
Q 813 1766 1038 1828 
Q 1203 1872 1538 1913 
Q 2219 1994 2541 2106 
Q 2544 2222 2544 2253 
Q 2544 2597 2384 2738 
Q 2169 2928 1744 2928 
Q 1347 2928 1158 2789 
Q 969 2650 878 2297 
L 328 2372 
Q 403 2725 575 2942 
Q 747 3159 1072 3276 
Q 1397 3394 1825 3394 
Q 2250 3394 2515 3294 
Q 2781 3194 2906 3042 
Q 3031 2891 3081 2659 
Q 3109 2516 3109 2141 
L 3109 1391 
Q 3109 606 3145 398 
Q 3181 191 3288 0 
L 2700 0 
Q 2613 175 2588 409 
z
M 2541 1666 
Q 2234 1541 1622 1453 
Q 1275 1403 1131 1340 
Q 988 1278 909 1158 
Q 831 1038 831 891 
Q 831 666 1001 516 
Q 1172 366 1500 366 
Q 1825 366 2078 508 
Q 2331 650 2450 897 
Q 2541 1088 2541 1459 
L 2541 1666 
z
" transform="scale(0.015625)"/>
       <path id="ArialMT-73" d="M 197 991 
L 753 1078 
Q 800 744 1014 566 
Q 1228 388 1613 388 
Q 2000 388 2187 545 
Q 2375 703 2375 916 
Q 2375 1106 2209 1216 
Q 2094 1291 1634 1406 
Q 1016 1563 777 1677 
Q 538 1791 414 1992 
Q 291 2194 291 2438 
Q 291 2659 392 2848 
Q 494 3038 669 3163 
Q 800 3259 1026 3326 
Q 1253 3394 1513 3394 
Q 1903 3394 2198 3281 
Q 2494 3169 2634 2976 
Q 2775 2784 2828 2463 
L 2278 2388 
Q 2241 2644 2061 2787 
Q 1881 2931 1553 2931 
Q 1166 2931 1000 2803 
Q 834 2675 834 2503 
Q 834 2394 903 2306 
Q 972 2216 1119 2156 
Q 1203 2125 1616 2013 
Q 2213 1853 2448 1751 
Q 2684 1650 2818 1456 
Q 2953 1263 2953 975 
Q 2953 694 2789 445 
Q 2625 197 2315 61 
Q 2006 -75 1616 -75 
Q 969 -75 630 194 
Q 291 463 197 991 
z
" transform="scale(0.015625)"/>
       <path id="ArialMT-75" d="M 2597 0 
L 2597 488 
Q 2209 -75 1544 -75 
Q 1250 -75 995 37 
Q 741 150 617 320 
Q 494 491 444 738 
Q 409 903 409 1263 
L 409 3319 
L 972 3319 
L 972 1478 
Q 972 1038 1006 884 
Q 1059 663 1231 536 
Q 1403 409 1656 409 
Q 1909 409 2131 539 
Q 2353 669 2445 892 
Q 2538 1116 2538 1541 
L 2538 3319 
L 3100 3319 
L 3100 0 
L 2597 0 
z
" transform="scale(0.015625)"/>
       <path id="ArialMT-72" d="M 416 0 
L 416 3319 
L 922 3319 
L 922 2816 
Q 1116 3169 1280 3281 
Q 1444 3394 1641 3394 
Q 1925 3394 2219 3213 
L 2025 2691 
Q 1819 2813 1613 2813 
Q 1428 2813 1281 2702 
Q 1134 2591 1072 2394 
Q 978 2094 978 1738 
L 978 0 
L 416 0 
z
" transform="scale(0.015625)"/>
       <path id="ArialMT-64" d="M 2575 0 
L 2575 419 
Q 2259 -75 1647 -75 
Q 1250 -75 917 144 
Q 584 363 401 755 
Q 219 1147 219 1656 
Q 219 2153 384 2558 
Q 550 2963 881 3178 
Q 1213 3394 1622 3394 
Q 1922 3394 2156 3267 
Q 2391 3141 2538 2938 
L 2538 4581 
L 3097 4581 
L 3097 0 
L 2575 0 
z
M 797 1656 
Q 797 1019 1065 703 
Q 1334 388 1700 388 
Q 2069 388 2326 689 
Q 2584 991 2584 1609 
Q 2584 2291 2321 2609 
Q 2059 2928 1675 2928 
Q 1300 2928 1048 2622 
Q 797 2316 797 1656 
z
" transform="scale(0.015625)"/>
       <path id="ArialMT-20" transform="scale(0.015625)"/>
       <path id="ArialMT-66" d="M 556 0 
L 556 2881 
L 59 2881 
L 59 3319 
L 556 3319 
L 556 3672 
Q 556 4006 616 4169 
Q 697 4388 901 4523 
Q 1106 4659 1475 4659 
Q 1713 4659 2000 4603 
L 1916 4113 
Q 1741 4144 1584 4144 
Q 1328 4144 1222 4034 
Q 1116 3925 1116 3625 
L 1116 3319 
L 1763 3319 
L 1763 2881 
L 1116 2881 
L 1116 0 
L 556 0 
z
" transform="scale(0.015625)"/>
       <path id="ArialMT-6c" d="M 409 0 
L 409 4581 
L 972 4581 
L 972 0 
L 409 0 
z
" transform="scale(0.015625)"/>
       <path id="ArialMT-78" d="M 47 0 
L 1259 1725 
L 138 3319 
L 841 3319 
L 1350 2541 
Q 1494 2319 1581 2169 
Q 1719 2375 1834 2534 
L 2394 3319 
L 3066 3319 
L 1919 1756 
L 3153 0 
L 2463 0 
L 1781 1031 
L 1600 1309 
L 728 0 
L 47 0 
z
" transform="scale(0.015625)"/>
       <path id="ArialMT-28" d="M 1497 -1347 
Q 1031 -759 709 28 
Q 388 816 388 1659 
Q 388 2403 628 3084 
Q 909 3875 1497 4659 
L 1900 4659 
Q 1522 4009 1400 3731 
Q 1209 3300 1100 2831 
Q 966 2247 966 1656 
Q 966 153 1900 -1347 
L 1497 -1347 
z
" transform="scale(0.015625)"/>
       <path id="DejaVuSans-3bc" d="M 544 -1331 
L 544 3500 
L 1119 3500 
L 1119 1325 
Q 1119 872 1334 640 
Q 1550 409 1972 409 
Q 2434 409 2667 671 
Q 2900 934 2900 1459 
L 2900 3500 
L 3475 3500 
L 3475 806 
Q 3475 619 3529 530 
Q 3584 441 3700 441 
Q 3728 441 3778 458 
Q 3828 475 3916 513 
L 3916 50 
Q 3788 -22 3673 -56 
Q 3559 -91 3450 -91 
Q 3234 -91 3106 31 
Q 2978 153 2931 403 
Q 2775 156 2548 32 
Q 2322 -91 2016 -91 
Q 1697 -91 1473 31 
Q 1250 153 1119 397 
L 1119 -1331 
L 544 -1331 
z
" transform="scale(0.015625)"/>
       <path id="ArialMT-6d" d="M 422 0 
L 422 3319 
L 925 3319 
L 925 2853 
Q 1081 3097 1340 3245 
Q 1600 3394 1931 3394 
Q 2300 3394 2536 3241 
Q 2772 3088 2869 2813 
Q 3263 3394 3894 3394 
Q 4388 3394 4653 3120 
Q 4919 2847 4919 2278 
L 4919 0 
L 4359 0 
L 4359 2091 
Q 4359 2428 4304 2576 
Q 4250 2725 4106 2815 
Q 3963 2906 3769 2906 
Q 3419 2906 3187 2673 
Q 2956 2441 2956 1928 
L 2956 0 
L 2394 0 
L 2394 2156 
Q 2394 2531 2256 2718 
Q 2119 2906 1806 2906 
Q 1569 2906 1367 2781 
Q 1166 2656 1075 2415 
Q 984 2175 984 1722 
L 984 0 
L 422 0 
z
" transform="scale(0.015625)"/>
       <path id="ArialMT-6f" d="M 213 1659 
Q 213 2581 725 3025 
Q 1153 3394 1769 3394 
Q 2453 3394 2887 2945 
Q 3322 2497 3322 1706 
Q 3322 1066 3130 698 
Q 2938 331 2570 128 
Q 2203 -75 1769 -75 
Q 1072 -75 642 372 
Q 213 819 213 1659 
z
M 791 1659 
Q 791 1022 1069 705 
Q 1347 388 1769 388 
Q 2188 388 2466 706 
Q 2744 1025 2744 1678 
Q 2744 2294 2464 2611 
Q 2184 2928 1769 2928 
Q 1347 2928 1069 2612 
Q 791 2297 791 1659 
z
" transform="scale(0.015625)"/>
       <path id="ArialMT-43" d="M 3763 1606 
L 4369 1453 
Q 4178 706 3683 314 
Q 3188 -78 2472 -78 
Q 1731 -78 1267 223 
Q 803 525 561 1097 
Q 319 1669 319 2325 
Q 319 3041 592 3573 
Q 866 4106 1370 4382 
Q 1875 4659 2481 4659 
Q 3169 4659 3637 4309 
Q 4106 3959 4291 3325 
L 3694 3184 
Q 3534 3684 3231 3912 
Q 2928 4141 2469 4141 
Q 1941 4141 1586 3887 
Q 1231 3634 1087 3207 
Q 944 2781 944 2328 
Q 944 1744 1114 1308 
Q 1284 872 1643 656 
Q 2003 441 2422 441 
Q 2931 441 3284 734 
Q 3638 1028 3763 1606 
z
" transform="scale(0.015625)"/>
       <path id="ArialMT-2f" d="M 0 -78 
L 1328 4659 
L 1778 4659 
L 453 -78 
L 0 -78 
z
" transform="scale(0.015625)"/>
       <path id="ArialMT-69" d="M 425 3934 
L 425 4581 
L 988 4581 
L 988 3934 
L 425 3934 
z
M 425 0 
L 425 3319 
L 988 3319 
L 988 0 
L 425 0 
z
" transform="scale(0.015625)"/>
       <path id="ArialMT-6e" d="M 422 0 
L 422 3319 
L 928 3319 
L 928 2847 
Q 1294 3394 1984 3394 
Q 2284 3394 2536 3286 
Q 2788 3178 2913 3003 
Q 3038 2828 3088 2588 
Q 3119 2431 3119 2041 
L 3119 0 
L 2556 0 
L 2556 2019 
Q 2556 2363 2490 2533 
Q 2425 2703 2258 2804 
Q 2091 2906 1866 2906 
Q 1506 2906 1245 2678 
Q 984 2450 984 1813 
L 984 0 
L 422 0 
z
" transform="scale(0.015625)"/>
       <path id="ArialMT-29" d="M 791 -1347 
L 388 -1347 
Q 1322 153 1322 1656 
Q 1322 2244 1188 2822 
Q 1081 3291 891 3722 
Q 769 4003 388 4659 
L 791 4659 
Q 1378 3875 1659 3084 
Q 1900 2403 1900 1659 
Q 1900 816 1576 28 
Q 1253 -759 791 -1347 
z
" transform="scale(0.015625)"/>
      </defs>
      <use xlink:href="#ArialMT-4d" transform="translate(0 0.203125)"/>
      <use xlink:href="#ArialMT-65" transform="translate(83.300781 0.203125)"/>
      <use xlink:href="#ArialMT-61" transform="translate(138.916016 0.203125)"/>
      <use xlink:href="#ArialMT-73" transform="translate(194.53125 0.203125)"/>
      <use xlink:href="#ArialMT-75" transform="translate(244.53125 0.203125)"/>
      <use xlink:href="#ArialMT-72" transform="translate(300.146484 0.203125)"/>
      <use xlink:href="#ArialMT-65" transform="translate(333.447266 0.203125)"/>
      <use xlink:href="#ArialMT-64" transform="translate(389.0625 0.203125)"/>
      <use xlink:href="#ArialMT-20" transform="translate(444.677734 0.203125)"/>
      <use xlink:href="#ArialMT-66" transform="translate(472.460938 0.203125)"/>
      <use xlink:href="#ArialMT-6c" transform="translate(500.244141 0.203125)"/>
      <use xlink:href="#ArialMT-75" transform="translate(522.460938 0.203125)"/>
      <use xlink:href="#ArialMT-78" transform="translate(578.076172 0.203125)"/>
      <use xlink:href="#ArialMT-20" transform="translate(628.076172 0.203125)"/>
      <use xlink:href="#ArialMT-28" transform="translate(655.859375 0.203125)"/>
      <use xlink:href="#DejaVuSans-3bc" transform="translate(689.160156 0.203125)"/>
      <use xlink:href="#ArialMT-6d" transform="translate(752.783203 0.203125)"/>
      <use xlink:href="#ArialMT-6f" transform="translate(836.083984 0.203125)"/>
      <use xlink:href="#ArialMT-6c" transform="translate(891.699219 0.203125)"/>
      <use xlink:href="#ArialMT-43" transform="translate(913.916016 0.203125)"/>
      <use xlink:href="#ArialMT-2f" transform="translate(986.132812 0.203125)"/>
      <use xlink:href="#ArialMT-6d" transform="translate(1013.916016 0.203125)"/>
      <use xlink:href="#ArialMT-69" transform="translate(1097.216797 0.203125)"/>
      <use xlink:href="#ArialMT-6e" transform="translate(1119.433594 0.203125)"/>
      <use xlink:href="#ArialMT-29" transform="translate(1175.048828 0.203125)"/>
     </g>
    </g>
   </g>
   <g id="matplotlib.axis_2">
    <g id="ytick_1">
     <g id="line2d_5">
      <defs>
       <path id="m6834927e77" d="M 0 0 
L -3.5 0 
" style="stroke: #000000; stroke-width: 0.8"/>
      </defs>
      <g>
       <use xlink:href="#m6834927e77" x="51.195" y="234.68625" style="stroke: #000000; stroke-width: 0.8"/>
      </g>
     </g>
     <g id="text_6">
      <!-- 0 -->
      <g transform="translate(35.2975 240.4125) scale(0.16 -0.16)">
       <use xlink:href="#ArialMT-30"/>
      </g>
     </g>
    </g>
    <g id="ytick_2">
     <g id="line2d_6">
      <g>
       <use xlink:href="#m6834927e77" x="51.195" y="197.72625" style="stroke: #000000; stroke-width: 0.8"/>
      </g>
     </g>
     <g id="text_7">
      <!-- 10 -->
      <g transform="translate(26.4 203.4525) scale(0.16 -0.16)">
       <defs>
        <path id="ArialMT-31" d="M 2384 0 
L 1822 0 
L 1822 3584 
Q 1619 3391 1289 3197 
Q 959 3003 697 2906 
L 697 3450 
Q 1169 3672 1522 3987 
Q 1875 4303 2022 4600 
L 2384 4600 
L 2384 0 
z
" transform="scale(0.015625)"/>
       </defs>
       <use xlink:href="#ArialMT-31"/>
       <use xlink:href="#ArialMT-30" x="55.615234"/>
      </g>
     </g>
    </g>
    <g id="ytick_3">
     <g id="line2d_7">
      <g>
       <use xlink:href="#m6834927e77" x="51.195" y="160.76625" style="stroke: #000000; stroke-width: 0.8"/>
      </g>
     </g>
     <g id="text_8">
      <!-- 20 -->
      <g transform="translate(26.4 166.4925) scale(0.16 -0.16)">
       <use xlink:href="#ArialMT-32"/>
       <use xlink:href="#ArialMT-30" x="55.615234"/>
      </g>
     </g>
    </g>
    <g id="ytick_4">
     <g id="line2d_8">
      <g>
       <use xlink:href="#m6834927e77" x="51.195" y="123.80625" style="stroke: #000000; stroke-width: 0.8"/>
      </g>
     </g>
     <g id="text_9">
      <!-- 30 -->
      <g transform="translate(26.4 129.5325) scale(0.16 -0.16)">
       <defs>
        <path id="ArialMT-33" d="M 269 1209 
L 831 1284 
Q 928 806 1161 595 
Q 1394 384 1728 384 
Q 2125 384 2398 659 
Q 2672 934 2672 1341 
Q 2672 1728 2419 1979 
Q 2166 2231 1775 2231 
Q 1616 2231 1378 2169 
L 1441 2663 
Q 1497 2656 1531 2656 
Q 1891 2656 2178 2843 
Q 2466 3031 2466 3422 
Q 2466 3731 2256 3934 
Q 2047 4138 1716 4138 
Q 1388 4138 1169 3931 
Q 950 3725 888 3313 
L 325 3413 
Q 428 3978 793 4289 
Q 1159 4600 1703 4600 
Q 2078 4600 2393 4439 
Q 2709 4278 2876 4000 
Q 3044 3722 3044 3409 
Q 3044 3113 2884 2869 
Q 2725 2625 2413 2481 
Q 2819 2388 3044 2092 
Q 3269 1797 3269 1353 
Q 3269 753 2831 336 
Q 2394 -81 1725 -81 
Q 1122 -81 723 278 
Q 325 638 269 1209 
z
" transform="scale(0.015625)"/>
       </defs>
       <use xlink:href="#ArialMT-33"/>
       <use xlink:href="#ArialMT-30" x="55.615234"/>
      </g>
     </g>
    </g>
    <g id="ytick_5">
     <g id="line2d_9">
      <g>
       <use xlink:href="#m6834927e77" x="51.195" y="86.84625" style="stroke: #000000; stroke-width: 0.8"/>
      </g>
     </g>
     <g id="text_10">
      <!-- 40 -->
      <g transform="translate(26.4 92.5725) scale(0.16 -0.16)">
       <use xlink:href="#ArialMT-34"/>
       <use xlink:href="#ArialMT-30" x="55.615234"/>
      </g>
     </g>
    </g>
    <g id="ytick_6">
     <g id="line2d_10">
      <g>
       <use xlink:href="#m6834927e77" x="51.195" y="49.88625" style="stroke: #000000; stroke-width: 0.8"/>
      </g>
     </g>
     <g id="text_11">
      <!-- 50 -->
      <g transform="translate(26.4 55.6125) scale(0.16 -0.16)">
       <defs>
        <path id="ArialMT-35" d="M 266 1200 
L 856 1250 
Q 922 819 1161 601 
Q 1400 384 1738 384 
Q 2144 384 2425 690 
Q 2706 997 2706 1503 
Q 2706 1984 2436 2262 
Q 2166 2541 1728 2541 
Q 1456 2541 1237 2417 
Q 1019 2294 894 2097 
L 366 2166 
L 809 4519 
L 3088 4519 
L 3088 3981 
L 1259 3981 
L 1013 2750 
Q 1425 3038 1878 3038 
Q 2478 3038 2890 2622 
Q 3303 2206 3303 1553 
Q 3303 931 2941 478 
Q 2500 -78 1738 -78 
Q 1113 -78 717 272 
Q 322 622 266 1200 
z
" transform="scale(0.015625)"/>
       </defs>
       <use xlink:href="#ArialMT-35"/>
       <use xlink:href="#ArialMT-30" x="55.615234"/>
      </g>
     </g>
    </g>
    <g id="ytick_7">
     <g id="line2d_11">
      <g>
       <use xlink:href="#m6834927e77" x="51.195" y="12.92625" style="stroke: #000000; stroke-width: 0.8"/>
      </g>
     </g>
     <g id="text_12">
      <!-- 60 -->
      <g transform="translate(26.4 18.6525) scale(0.16 -0.16)">
       <use xlink:href="#ArialMT-36"/>
       <use xlink:href="#ArialMT-30" x="55.615234"/>
      </g>
     </g>
    </g>
    <g id="text_13">
     <!-- Predicted flux ($\mathrm{\mu}$molC/min) -->
     <g transform="translate(18.88 218.76625) rotate(-90) scale(0.16 -0.16)">
      <defs>
       <path id="ArialMT-50" d="M 494 0 
L 494 4581 
L 2222 4581 
Q 2678 4581 2919 4538 
Q 3256 4481 3484 4323 
Q 3713 4166 3852 3881 
Q 3991 3597 3991 3256 
Q 3991 2672 3619 2267 
Q 3247 1863 2275 1863 
L 1100 1863 
L 1100 0 
L 494 0 
z
M 1100 2403 
L 2284 2403 
Q 2872 2403 3119 2622 
Q 3366 2841 3366 3238 
Q 3366 3525 3220 3729 
Q 3075 3934 2838 4000 
Q 2684 4041 2272 4041 
L 1100 4041 
L 1100 2403 
z
" transform="scale(0.015625)"/>
       <path id="ArialMT-63" d="M 2588 1216 
L 3141 1144 
Q 3050 572 2676 248 
Q 2303 -75 1759 -75 
Q 1078 -75 664 370 
Q 250 816 250 1647 
Q 250 2184 428 2587 
Q 606 2991 970 3192 
Q 1334 3394 1763 3394 
Q 2303 3394 2647 3120 
Q 2991 2847 3088 2344 
L 2541 2259 
Q 2463 2594 2264 2762 
Q 2066 2931 1784 2931 
Q 1359 2931 1093 2626 
Q 828 2322 828 1663 
Q 828 994 1084 691 
Q 1341 388 1753 388 
Q 2084 388 2306 591 
Q 2528 794 2588 1216 
z
" transform="scale(0.015625)"/>
       <path id="ArialMT-74" d="M 1650 503 
L 1731 6 
Q 1494 -44 1306 -44 
Q 1000 -44 831 53 
Q 663 150 594 308 
Q 525 466 525 972 
L 525 2881 
L 113 2881 
L 113 3319 
L 525 3319 
L 525 4141 
L 1084 4478 
L 1084 3319 
L 1650 3319 
L 1650 2881 
L 1084 2881 
L 1084 941 
Q 1084 700 1114 631 
Q 1144 563 1211 522 
Q 1278 481 1403 481 
Q 1497 481 1650 503 
z
" transform="scale(0.015625)"/>
      </defs>
      <use xlink:href="#ArialMT-50" transform="translate(0 0.203125)"/>
      <use xlink:href="#ArialMT-72" transform="translate(66.699219 0.203125)"/>
      <use xlink:href="#ArialMT-65" transform="translate(100 0.203125)"/>
      <use xlink:href="#ArialMT-64" transform="translate(155.615234 0.203125)"/>
      <use xlink:href="#ArialMT-69" transform="translate(211.230469 0.203125)"/>
      <use xlink:href="#ArialMT-63" transform="translate(233.447266 0.203125)"/>
      <use xlink:href="#ArialMT-74" transform="translate(283.447266 0.203125)"/>
      <use xlink:href="#ArialMT-65" transform="translate(311.230469 0.203125)"/>
      <use xlink:href="#ArialMT-64" transform="translate(366.845703 0.203125)"/>
      <use xlink:href="#ArialMT-20" transform="translate(422.460938 0.203125)"/>
      <use xlink:href="#ArialMT-66" transform="translate(450.244141 0.203125)"/>
      <use xlink:href="#ArialMT-6c" transform="translate(478.027344 0.203125)"/>
      <use xlink:href="#ArialMT-75" transform="translate(500.244141 0.203125)"/>
      <use xlink:href="#ArialMT-78" transform="translate(555.859375 0.203125)"/>
      <use xlink:href="#ArialMT-20" transform="translate(605.859375 0.203125)"/>
      <use xlink:href="#ArialMT-28" transform="translate(633.642578 0.203125)"/>
      <use xlink:href="#DejaVuSans-3bc" transform="translate(666.943359 0.203125)"/>
      <use xlink:href="#ArialMT-6d" transform="translate(730.566406 0.203125)"/>
      <use xlink:href="#ArialMT-6f" transform="translate(813.867188 0.203125)"/>
      <use xlink:href="#ArialMT-6c" transform="translate(869.482422 0.203125)"/>
      <use xlink:href="#ArialMT-43" transform="translate(891.699219 0.203125)"/>
      <use xlink:href="#ArialMT-2f" transform="translate(963.916016 0.203125)"/>
      <use xlink:href="#ArialMT-6d" transform="translate(991.699219 0.203125)"/>
      <use xlink:href="#ArialMT-69" transform="translate(1075 0.203125)"/>
      <use xlink:href="#ArialMT-6e" transform="translate(1097.216797 0.203125)"/>
      <use xlink:href="#ArialMT-29" transform="translate(1152.832031 0.203125)"/>
     </g>
    </g>
   </g>
   <g id="line2d_12"/>
   <g id="line2d_13"/>
   <g id="line2d_14"/>
   <g id="line2d_15"/>
   <g id="line2d_16"/>
   <g id="line2d_17"/>
   <g id="line2d_18"/>
   <g id="line2d_19">
    <path d="M 51.195 234.68625 
L 274.395 12.92625 
" clip-path="url(#pfe45a4e0bc)" style="fill: none; stroke-dasharray: 3.7,1.6; stroke-dashoffset: 0; stroke: #000000"/>
   </g>
   <g id="patch_3">
    <path d="M 51.195 234.68625 
L 51.195 12.92625 
" style="fill: none; stroke: #000000; stroke-width: 0.8; stroke-linejoin: miter; stroke-linecap: square"/>
   </g>
   <g id="patch_4">
    <path d="M 51.195 234.68625 
L 274.395 234.68625 
" style="fill: none; stroke: #000000; stroke-width: 0.8; stroke-linejoin: miter; stroke-linecap: square"/>
   </g>
   <g id="text_14">
    <!-- $R^2$ = 0.93 -->
    <g transform="translate(69.795 49.88625) scale(0.14 -0.14)">
     <defs>
      <path id="DejaVuSans-Oblique-52" d="M 1613 4147 
L 1294 2491 
L 2106 2491 
Q 2584 2491 2879 2755 
Q 3175 3019 3175 3444 
Q 3175 3784 2976 3965 
Q 2778 4147 2406 4147 
L 1613 4147 
z
M 2772 2241 
Q 2972 2194 3105 2009 
Q 3238 1825 3413 1275 
L 3809 0 
L 3144 0 
L 2778 1197 
Q 2638 1659 2453 1815 
Q 2269 1972 1888 1972 
L 1191 1972 
L 806 0 
L 172 0 
L 1081 4666 
L 2503 4666 
Q 3150 4666 3495 4373 
Q 3841 4081 3841 3531 
Q 3841 3044 3547 2687 
Q 3253 2331 2772 2241 
z
" transform="scale(0.015625)"/>
      <path id="DejaVuSans-32" d="M 1228 531 
L 3431 531 
L 3431 0 
L 469 0 
L 469 531 
Q 828 903 1448 1529 
Q 2069 2156 2228 2338 
Q 2531 2678 2651 2914 
Q 2772 3150 2772 3378 
Q 2772 3750 2511 3984 
Q 2250 4219 1831 4219 
Q 1534 4219 1204 4116 
Q 875 4013 500 3803 
L 500 4441 
Q 881 4594 1212 4672 
Q 1544 4750 1819 4750 
Q 2544 4750 2975 4387 
Q 3406 4025 3406 3419 
Q 3406 3131 3298 2873 
Q 3191 2616 2906 2266 
Q 2828 2175 2409 1742 
Q 1991 1309 1228 531 
z
" transform="scale(0.015625)"/>
      <path id="ArialMT-3d" d="M 3381 2694 
L 356 2694 
L 356 3219 
L 3381 3219 
L 3381 2694 
z
M 3381 1303 
L 356 1303 
L 356 1828 
L 3381 1828 
L 3381 1303 
z
" transform="scale(0.015625)"/>
      <path id="ArialMT-2e" d="M 581 0 
L 581 641 
L 1222 641 
L 1222 0 
L 581 0 
z
" transform="scale(0.015625)"/>
      <path id="ArialMT-39" d="M 350 1059 
L 891 1109 
Q 959 728 1153 556 
Q 1347 384 1650 384 
Q 1909 384 2104 503 
Q 2300 622 2425 820 
Q 2550 1019 2634 1356 
Q 2719 1694 2719 2044 
Q 2719 2081 2716 2156 
Q 2547 1888 2255 1720 
Q 1963 1553 1622 1553 
Q 1053 1553 659 1965 
Q 266 2378 266 3053 
Q 266 3750 677 4175 
Q 1088 4600 1706 4600 
Q 2153 4600 2523 4359 
Q 2894 4119 3086 3673 
Q 3278 3228 3278 2384 
Q 3278 1506 3087 986 
Q 2897 466 2520 194 
Q 2144 -78 1638 -78 
Q 1100 -78 759 220 
Q 419 519 350 1059 
z
M 2653 3081 
Q 2653 3566 2395 3850 
Q 2138 4134 1775 4134 
Q 1400 4134 1122 3828 
Q 844 3522 844 3034 
Q 844 2597 1108 2323 
Q 1372 2050 1759 2050 
Q 2150 2050 2401 2323 
Q 2653 2597 2653 3081 
z
" transform="scale(0.015625)"/>
     </defs>
     <use xlink:href="#DejaVuSans-Oblique-52" transform="translate(0 0.765625)"/>
     <use xlink:href="#DejaVuSans-32" transform="translate(76.499193 39.046875) scale(0.7)"/>
     <use xlink:href="#ArialMT-20" transform="translate(123.769701 0.765625)"/>
     <use xlink:href="#ArialMT-3d" transform="translate(151.552904 0.765625)"/>
     <use xlink:href="#ArialMT-20" transform="translate(209.951341 0.765625)"/>
     <use xlink:href="#ArialMT-30" transform="translate(237.734544 0.765625)"/>
     <use xlink:href="#ArialMT-2e" transform="translate(293.349779 0.765625)"/>
     <use xlink:href="#ArialMT-39" transform="translate(321.132982 0.765625)"/>
     <use xlink:href="#ArialMT-33" transform="translate(376.748216 0.765625)"/>
    </g>
   </g>
   <g id="legend_1">
    <g id="line2d_20"/>
    <g id="text_15">
     <!-- TRACER_x -->
     <g transform="translate(333.595 38.97375) scale(0.16 -0.16)">
      <defs>
       <path id="ArialMT-54" d="M 1659 0 
L 1659 4041 
L 150 4041 
L 150 4581 
L 3781 4581 
L 3781 4041 
L 2266 4041 
L 2266 0 
L 1659 0 
z
" transform="scale(0.015625)"/>
       <path id="ArialMT-52" d="M 503 0 
L 503 4581 
L 2534 4581 
Q 3147 4581 3465 4457 
Q 3784 4334 3975 4021 
Q 4166 3709 4166 3331 
Q 4166 2844 3850 2509 
Q 3534 2175 2875 2084 
Q 3116 1969 3241 1856 
Q 3506 1613 3744 1247 
L 4541 0 
L 3778 0 
L 3172 953 
Q 2906 1366 2734 1584 
Q 2563 1803 2427 1890 
Q 2291 1978 2150 2013 
Q 2047 2034 1813 2034 
L 1109 2034 
L 1109 0 
L 503 0 
z
M 1109 2559 
L 2413 2559 
Q 2828 2559 3062 2645 
Q 3297 2731 3419 2920 
Q 3541 3109 3541 3331 
Q 3541 3656 3305 3865 
Q 3069 4075 2559 4075 
L 1109 4075 
L 1109 2559 
z
" transform="scale(0.015625)"/>
       <path id="ArialMT-41" d="M -9 0 
L 1750 4581 
L 2403 4581 
L 4278 0 
L 3588 0 
L 3053 1388 
L 1138 1388 
L 634 0 
L -9 0 
z
M 1313 1881 
L 2866 1881 
L 2388 3150 
Q 2169 3728 2063 4100 
Q 1975 3659 1816 3225 
L 1313 1881 
z
" transform="scale(0.015625)"/>
       <path id="ArialMT-45" d="M 506 0 
L 506 4581 
L 3819 4581 
L 3819 4041 
L 1113 4041 
L 1113 2638 
L 3647 2638 
L 3647 2100 
L 1113 2100 
L 1113 541 
L 3925 541 
L 3925 0 
L 506 0 
z
" transform="scale(0.015625)"/>
       <path id="ArialMT-5f" d="M -97 -1272 
L -97 -866 
L 3631 -866 
L 3631 -1272 
L -97 -1272 
z
" transform="scale(0.015625)"/>
      </defs>
      <use xlink:href="#ArialMT-54"/>
      <use xlink:href="#ArialMT-52" x="61.083984"/>
      <use xlink:href="#ArialMT-41" x="133.300781"/>
      <use xlink:href="#ArialMT-43" x="200"/>
      <use xlink:href="#ArialMT-45" x="272.216797"/>
      <use xlink:href="#ArialMT-52" x="338.916016"/>
      <use xlink:href="#ArialMT-5f" x="411.132812"/>
      <use xlink:href="#ArialMT-78" x="466.748047"/>
     </g>
    </g>
    <g id="line2d_21">
     <defs>
      <path id="m949cbeaf36" d="M 0 5 
C 1.326016 5 2.597899 4.473168 3.535534 3.535534 
C 4.473168 2.597899 5 1.326016 5 0 
C 5 -1.326016 4.473168 -2.597899 3.535534 -3.535534 
C 2.597899 -4.473168 1.326016 -5 0 -5 
C -1.326016 -5 -2.597899 -4.473168 -3.535534 -3.535534 
C -4.473168 -2.597899 -5 -1.326016 -5 0 
C -5 1.326016 -4.473168 2.597899 -3.535534 3.535534 
C -2.597899 4.473168 -1.326016 5 0 5 
z
" style="stroke: #ffffff; stroke-width: 0.8"/>
     </defs>
     <g>
      <use xlink:href="#m949cbeaf36" x="304.795" y="56.00625" style="fill: #b22222; stroke: #ffffff; stroke-width: 0.8"/>
     </g>
    </g>
    <g id="text_16">
     <!-- Glucose -->
     <g transform="translate(333.595 61.60625) scale(0.16 -0.16)">
      <defs>
       <path id="ArialMT-47" d="M 2638 1797 
L 2638 2334 
L 4578 2338 
L 4578 638 
Q 4131 281 3656 101 
Q 3181 -78 2681 -78 
Q 2006 -78 1454 211 
Q 903 500 622 1047 
Q 341 1594 341 2269 
Q 341 2938 620 3517 
Q 900 4097 1425 4378 
Q 1950 4659 2634 4659 
Q 3131 4659 3532 4498 
Q 3934 4338 4162 4050 
Q 4391 3763 4509 3300 
L 3963 3150 
Q 3859 3500 3706 3700 
Q 3553 3900 3268 4020 
Q 2984 4141 2638 4141 
Q 2222 4141 1919 4014 
Q 1616 3888 1430 3681 
Q 1244 3475 1141 3228 
Q 966 2803 966 2306 
Q 966 1694 1177 1281 
Q 1388 869 1791 669 
Q 2194 469 2647 469 
Q 3041 469 3416 620 
Q 3791 772 3984 944 
L 3984 1797 
L 2638 1797 
z
" transform="scale(0.015625)"/>
      </defs>
      <use xlink:href="#ArialMT-47"/>
      <use xlink:href="#ArialMT-6c" x="77.783203"/>
      <use xlink:href="#ArialMT-75" x="100"/>
      <use xlink:href="#ArialMT-63" x="155.615234"/>
      <use xlink:href="#ArialMT-6f" x="205.615234"/>
      <use xlink:href="#ArialMT-73" x="261.230469"/>
      <use xlink:href="#ArialMT-65" x="311.230469"/>
     </g>
    </g>
    <g id="line2d_22">
     <defs>
      <path id="mf5ddb3e40e" d="M 0 5 
C 1.326016 5 2.597899 4.473168 3.535534 3.535534 
C 4.473168 2.597899 5 1.326016 5 0 
C 5 -1.326016 4.473168 -2.597899 3.535534 -3.535534 
C 2.597899 -4.473168 1.326016 -5 0 -5 
C -1.326016 -5 -2.597899 -4.473168 -3.535534 -3.535534 
C -4.473168 -2.597899 -5 -1.326016 -5 0 
C -5 1.326016 -4.473168 2.597899 -3.535534 3.535534 
C -2.597899 4.473168 -1.326016 5 0 5 
z
" style="stroke: #ffffff; stroke-width: 0.8"/>
     </defs>
     <g>
      <use xlink:href="#mf5ddb3e40e" x="304.795" y="78.63875" style="fill: #f08080; stroke: #ffffff; stroke-width: 0.8"/>
     </g>
    </g>
    <g id="text_17">
     <!-- Lactate -->
     <g transform="translate(333.595 84.23875) scale(0.16 -0.16)">
      <defs>
       <path id="ArialMT-4c" d="M 469 0 
L 469 4581 
L 1075 4581 
L 1075 541 
L 3331 541 
L 3331 0 
L 469 0 
z
" transform="scale(0.015625)"/>
      </defs>
      <use xlink:href="#ArialMT-4c"/>
      <use xlink:href="#ArialMT-61" x="55.615234"/>
      <use xlink:href="#ArialMT-63" x="111.230469"/>
      <use xlink:href="#ArialMT-74" x="161.230469"/>
      <use xlink:href="#ArialMT-61" x="189.013672"/>
      <use xlink:href="#ArialMT-74" x="244.628906"/>
      <use xlink:href="#ArialMT-65" x="272.412109"/>
     </g>
    </g>
    <g id="line2d_23">
     <defs>
      <path id="m9b219f2567" d="M 0 5 
C 1.326016 5 2.597899 4.473168 3.535534 3.535534 
C 4.473168 2.597899 5 1.326016 5 0 
C 5 -1.326016 4.473168 -2.597899 3.535534 -3.535534 
C 2.597899 -4.473168 1.326016 -5 0 -5 
C -1.326016 -5 -2.597899 -4.473168 -3.535534 -3.535534 
C -4.473168 -2.597899 -5 -1.326016 -5 0 
C -5 1.326016 -4.473168 2.597899 -3.535534 3.535534 
C -2.597899 4.473168 -1.326016 5 0 5 
z
" style="stroke: #ffffff; stroke-width: 0.8"/>
     </defs>
     <g>
      <use xlink:href="#m9b219f2567" x="304.795" y="101.27125" style="fill: #b8860b; stroke: #ffffff; stroke-width: 0.8"/>
     </g>
    </g>
    <g id="text_18">
     <!-- 3HB -->
     <g transform="translate(333.595 106.87125) scale(0.16 -0.16)">
      <defs>
       <path id="ArialMT-48" d="M 513 0 
L 513 4581 
L 1119 4581 
L 1119 2700 
L 3500 2700 
L 3500 4581 
L 4106 4581 
L 4106 0 
L 3500 0 
L 3500 2159 
L 1119 2159 
L 1119 0 
L 513 0 
z
" transform="scale(0.015625)"/>
       <path id="ArialMT-42" d="M 469 0 
L 469 4581 
L 2188 4581 
Q 2713 4581 3030 4442 
Q 3347 4303 3526 4014 
Q 3706 3725 3706 3409 
Q 3706 3116 3547 2856 
Q 3388 2597 3066 2438 
Q 3481 2316 3704 2022 
Q 3928 1728 3928 1328 
Q 3928 1006 3792 729 
Q 3656 453 3456 303 
Q 3256 153 2954 76 
Q 2653 0 2216 0 
L 469 0 
z
M 1075 2656 
L 2066 2656 
Q 2469 2656 2644 2709 
Q 2875 2778 2992 2937 
Q 3109 3097 3109 3338 
Q 3109 3566 3000 3739 
Q 2891 3913 2687 3977 
Q 2484 4041 1991 4041 
L 1075 4041 
L 1075 2656 
z
M 1075 541 
L 2216 541 
Q 2509 541 2628 563 
Q 2838 600 2978 687 
Q 3119 775 3209 942 
Q 3300 1109 3300 1328 
Q 3300 1584 3169 1773 
Q 3038 1963 2805 2039 
Q 2572 2116 2134 2116 
L 1075 2116 
L 1075 541 
z
" transform="scale(0.015625)"/>
      </defs>
      <use xlink:href="#ArialMT-33"/>
      <use xlink:href="#ArialMT-48" x="55.615234"/>
      <use xlink:href="#ArialMT-42" x="127.832031"/>
     </g>
    </g>
    <g id="line2d_24"/>
    <g id="text_19">
     <!-- DAY -->
     <g transform="translate(333.595 129.50375) scale(0.16 -0.16)">
      <defs>
       <path id="ArialMT-44" d="M 494 0 
L 494 4581 
L 2072 4581 
Q 2606 4581 2888 4516 
Q 3281 4425 3559 4188 
Q 3922 3881 4101 3404 
Q 4281 2928 4281 2316 
Q 4281 1794 4159 1391 
Q 4038 988 3847 723 
Q 3656 459 3429 307 
Q 3203 156 2883 78 
Q 2563 0 2147 0 
L 494 0 
z
M 1100 541 
L 2078 541 
Q 2531 541 2789 625 
Q 3047 709 3200 863 
Q 3416 1078 3536 1442 
Q 3656 1806 3656 2325 
Q 3656 3044 3420 3430 
Q 3184 3816 2847 3947 
Q 2603 4041 2063 4041 
L 1100 4041 
L 1100 541 
z
" transform="scale(0.015625)"/>
       <path id="ArialMT-59" d="M 1784 0 
L 1784 1941 
L 19 4581 
L 756 4581 
L 1659 3200 
Q 1909 2813 2125 2425 
Q 2331 2784 2625 3234 
L 3513 4581 
L 4219 4581 
L 2391 1941 
L 2391 0 
L 1784 0 
z
" transform="scale(0.015625)"/>
      </defs>
      <use xlink:href="#ArialMT-44"/>
      <use xlink:href="#ArialMT-41" x="72.216797"/>
      <use xlink:href="#ArialMT-59" x="131.541016"/>
     </g>
    </g>
    <g id="line2d_25">
     <defs>
      <path id="mc254de2465" d="M 0 5 
C 1.326016 5 2.597899 4.473168 3.535534 3.535534 
C 4.473168 2.597899 5 1.326016 5 0 
C 5 -1.326016 4.473168 -2.597899 3.535534 -3.535534 
C 2.597899 -4.473168 1.326016 -5 0 -5 
C -1.326016 -5 -2.597899 -4.473168 -3.535534 -3.535534 
C -4.473168 -2.597899 -5 -1.326016 -5 0 
C -5 1.326016 -4.473168 2.597899 -3.535534 3.535534 
C -2.597899 4.473168 -1.326016 5 0 5 
z
" style="stroke: #ffffff; stroke-width: 0.8"/>
     </defs>
     <g>
      <use xlink:href="#mc254de2465" x="304.795" y="146.53625" style="fill: #333333; stroke: #ffffff; stroke-width: 0.8"/>
     </g>
    </g>
    <g id="text_20">
     <!-- non-perturbative -->
     <g transform="translate(333.595 152.13625) scale(0.16 -0.16)">
      <defs>
       <path id="ArialMT-2d" d="M 203 1375 
L 203 1941 
L 1931 1941 
L 1931 1375 
L 203 1375 
z
" transform="scale(0.015625)"/>
       <path id="ArialMT-70" d="M 422 -1272 
L 422 3319 
L 934 3319 
L 934 2888 
Q 1116 3141 1344 3267 
Q 1572 3394 1897 3394 
Q 2322 3394 2647 3175 
Q 2972 2956 3137 2557 
Q 3303 2159 3303 1684 
Q 3303 1175 3120 767 
Q 2938 359 2589 142 
Q 2241 -75 1856 -75 
Q 1575 -75 1351 44 
Q 1128 163 984 344 
L 984 -1272 
L 422 -1272 
z
M 931 1641 
Q 931 1000 1190 694 
Q 1450 388 1819 388 
Q 2194 388 2461 705 
Q 2728 1022 2728 1688 
Q 2728 2322 2467 2637 
Q 2206 2953 1844 2953 
Q 1484 2953 1207 2617 
Q 931 2281 931 1641 
z
" transform="scale(0.015625)"/>
       <path id="ArialMT-62" d="M 941 0 
L 419 0 
L 419 4581 
L 981 4581 
L 981 2947 
Q 1338 3394 1891 3394 
Q 2197 3394 2470 3270 
Q 2744 3147 2920 2923 
Q 3097 2700 3197 2384 
Q 3297 2069 3297 1709 
Q 3297 856 2875 390 
Q 2453 -75 1863 -75 
Q 1275 -75 941 416 
L 941 0 
z
M 934 1684 
Q 934 1088 1097 822 
Q 1363 388 1816 388 
Q 2184 388 2453 708 
Q 2722 1028 2722 1663 
Q 2722 2313 2464 2622 
Q 2206 2931 1841 2931 
Q 1472 2931 1203 2611 
Q 934 2291 934 1684 
z
" transform="scale(0.015625)"/>
       <path id="ArialMT-76" d="M 1344 0 
L 81 3319 
L 675 3319 
L 1388 1331 
Q 1503 1009 1600 663 
Q 1675 925 1809 1294 
L 2547 3319 
L 3125 3319 
L 1869 0 
L 1344 0 
z
" transform="scale(0.015625)"/>
      </defs>
      <use xlink:href="#ArialMT-6e"/>
      <use xlink:href="#ArialMT-6f" x="55.615234"/>
      <use xlink:href="#ArialMT-6e" x="111.230469"/>
      <use xlink:href="#ArialMT-2d" x="166.845703"/>
      <use xlink:href="#ArialMT-70" x="200.146484"/>
      <use xlink:href="#ArialMT-65" x="255.761719"/>
      <use xlink:href="#ArialMT-72" x="311.376953"/>
      <use xlink:href="#ArialMT-74" x="344.677734"/>
      <use xlink:href="#ArialMT-75" x="372.460938"/>
      <use xlink:href="#ArialMT-72" x="428.076172"/>
      <use xlink:href="#ArialMT-62" x="461.376953"/>
      <use xlink:href="#ArialMT-61" x="516.992188"/>
      <use xlink:href="#ArialMT-74" x="572.607422"/>
      <use xlink:href="#ArialMT-69" x="600.390625"/>
      <use xlink:href="#ArialMT-76" x="622.607422"/>
      <use xlink:href="#ArialMT-65" x="672.607422"/>
     </g>
    </g>
    <g id="line2d_26">
     <defs>
      <path id="m4fbd0f9b30" d="M -2.5 5 
L 0 2.5 
L 2.5 5 
L 5 2.5 
L 2.5 0 
L 5 -2.5 
L 2.5 -5 
L 0 -2.5 
L -2.5 -5 
L -5 -2.5 
L -2.5 0 
L -5 2.5 
z
" style="stroke: #ffffff; stroke-width: 0.8; stroke-linejoin: miter"/>
     </defs>
     <g>
      <use xlink:href="#m4fbd0f9b30" x="304.795" y="169.16875" style="fill: #333333; stroke: #ffffff; stroke-width: 0.8; stroke-linejoin: miter"/>
     </g>
    </g>
    <g id="text_21">
     <!-- perturbative -->
     <g transform="translate(333.595 174.76875) scale(0.16 -0.16)">
      <use xlink:href="#ArialMT-70"/>
      <use xlink:href="#ArialMT-65" x="55.615234"/>
      <use xlink:href="#ArialMT-72" x="111.230469"/>
      <use xlink:href="#ArialMT-74" x="144.53125"/>
      <use xlink:href="#ArialMT-75" x="172.314453"/>
      <use xlink:href="#ArialMT-72" x="227.929688"/>
      <use xlink:href="#ArialMT-62" x="261.230469"/>
      <use xlink:href="#ArialMT-61" x="316.845703"/>
      <use xlink:href="#ArialMT-74" x="372.460938"/>
      <use xlink:href="#ArialMT-69" x="400.244141"/>
      <use xlink:href="#ArialMT-76" x="422.460938"/>
      <use xlink:href="#ArialMT-65" x="472.460938"/>
     </g>
    </g>
   </g>
  </g>
 </g>
 <defs>
  <clipPath id="pfe45a4e0bc">
   <rect x="51.195" y="12.92625" width="223.2" height="221.76"/>
  </clipPath>
 </defs>
</svg>
