<?xml version="1.0" encoding="utf-8" standalone="no"?>
<!DOCTYPE svg PUBLIC "-//W3C//DTD SVG 1.1//EN"
  "http://www.w3.org/Graphics/SVG/1.1/DTD/svg11.dtd">
<svg xmlns:xlink="http://www.w3.org/1999/xlink" width="562.214375pt" height="397.432437pt" viewBox="0 0 562.214375 397.432437" xmlns="http://www.w3.org/2000/svg" version="1.1">
 <metadata>
  <rdf:RDF xmlns:dc="http://purl.org/dc/elements/1.1/" xmlns:cc="http://creativecommons.org/ns#" xmlns:rdf="http://www.w3.org/1999/02/22-rdf-syntax-ns#">
   <cc:Work>
    <dc:type rdf:resource="http://purl.org/dc/dcmitype/StillImage"/>
    <dc:date>2025-10-20T11:03:55.771728</dc:date>
    <dc:format>image/svg+xml</dc:format>
    <dc:creator>
     <cc:Agent>
      <dc:title>Matplotlib v3.9.4, https://matplotlib.org/</dc:title>
     </cc:Agent>
    </dc:creator>
   </cc:Work>
  </rdf:RDF>
 </metadata>
 <defs>
  <style type="text/css">*{stroke-linejoin: round; stroke-linecap: butt}</style>
 </defs>
 <g id="figure_1">
  <g id="patch_1">
   <path d="M 0 397.432437 
L 562.214375 397.432437 
L 562.214375 0 
L 0 0 
z
" style="fill: #ffffff"/>
  </g>
  <g id="axes_1">
   <g id="patch_2">
    <path d="M 52.814375 109.329982 
L 161.988288 109.329982 
L 161.988288 11.494687 
L 52.814375 11.494687 
z
" style="fill: #ffffff"/>
   </g>
   <g id="PolyCollection_1"/>
   <g id="matplotlib.axis_1">
    <g id="xtick_1">
     <g id="line2d_1">
      <defs>
       <path id="md89a053c32" d="M 0 0 
L 0 3.5 
" style="stroke: #000000; stroke-width: 0.8"/>
      </defs>
      <g>
       <use xlink:href="#md89a053c32" x="57.776826" y="109.329982" style="stroke: #000000; stroke-width: 0.8"/>
      </g>
     </g>
    </g>
    <g id="xtick_2">
     <g id="line2d_2">
      <g>
       <use xlink:href="#md89a053c32" x="96.675125" y="109.329982" style="stroke: #000000; stroke-width: 0.8"/>
      </g>
     </g>
    </g>
    <g id="xtick_3">
     <g id="line2d_3">
      <g>
       <use xlink:href="#md89a053c32" x="135.573425" y="109.329982" style="stroke: #000000; stroke-width: 0.8"/>
      </g>
     </g>
    </g>
   </g>
   <g id="matplotlib.axis_2">
    <g id="ytick_1">
     <g id="line2d_4">
      <defs>
       <path id="mccfdbfc142" d="M 0 0 
L -3.5 0 
" style="stroke: #000000; stroke-width: 0.8"/>
      </defs>
      <g>
       <use xlink:href="#mccfdbfc142" x="52.814375" y="109.329982" style="stroke: #000000; stroke-width: 0.8"/>
      </g>
     </g>
     <g id="text_1">
      <!-- 0.0 -->
      <g transform="translate(29.134375 113.624669) scale(0.12 -0.12)">
       <defs>
        <path id="ArialMT-30" d="M 266 2259 
Q 266 3072 433 3567 
Q 600 4063 929 4331 
Q 1259 4600 1759 4600 
Q 2128 4600 2406 4451 
Q 2684 4303 2865 4023 
Q 3047 3744 3150 3342 
Q 3253 2941 3253 2259 
Q 3253 1453 3087 958 
Q 2922 463 2592 192 
Q 2263 -78 1759 -78 
Q 1097 -78 719 397 
Q 266 969 266 2259 
z
M 844 2259 
Q 844 1131 1108 757 
Q 1372 384 1759 384 
Q 2147 384 2411 759 
Q 2675 1134 2675 2259 
Q 2675 3391 2411 3762 
Q 2147 4134 1753 4134 
Q 1366 4134 1134 3806 
Q 844 3388 844 2259 
z
" transform="scale(0.015625)"/>
        <path id="ArialMT-2e" d="M 581 0 
L 581 641 
L 1222 641 
L 1222 0 
L 581 0 
z
" transform="scale(0.015625)"/>
       </defs>
       <use xlink:href="#ArialMT-30"/>
       <use xlink:href="#ArialMT-2e" x="55.615234"/>
       <use xlink:href="#ArialMT-30" x="83.398438"/>
      </g>
     </g>
    </g>
    <g id="ytick_2">
     <g id="line2d_5">
      <g>
       <use xlink:href="#mccfdbfc142" x="52.814375" y="84.871158" style="stroke: #000000; stroke-width: 0.8"/>
      </g>
     </g>
     <g id="text_2">
      <!-- 2.5 -->
      <g transform="translate(29.134375 89.165846) scale(0.12 -0.12)">
       <defs>
        <path id="ArialMT-32" d="M 3222 541 
L 3222 0 
L 194 0 
Q 188 203 259 391 
Q 375 700 629 1000 
Q 884 1300 1366 1694 
Q 2113 2306 2375 2664 
Q 2638 3022 2638 3341 
Q 2638 3675 2398 3904 
Q 2159 4134 1775 4134 
Q 1369 4134 1125 3890 
Q 881 3647 878 3216 
L 300 3275 
Q 359 3922 746 4261 
Q 1134 4600 1788 4600 
Q 2447 4600 2831 4234 
Q 3216 3869 3216 3328 
Q 3216 3053 3103 2787 
Q 2991 2522 2730 2228 
Q 2469 1934 1863 1422 
Q 1356 997 1212 845 
Q 1069 694 975 541 
L 3222 541 
z
" transform="scale(0.015625)"/>
        <path id="ArialMT-35" d="M 266 1200 
L 856 1250 
Q 922 819 1161 601 
Q 1400 384 1738 384 
Q 2144 384 2425 690 
Q 2706 997 2706 1503 
Q 2706 1984 2436 2262 
Q 2166 2541 1728 2541 
Q 1456 2541 1237 2417 
Q 1019 2294 894 2097 
L 366 2166 
L 809 4519 
L 3088 4519 
L 3088 3981 
L 1259 3981 
L 1013 2750 
Q 1425 3038 1878 3038 
Q 2478 3038 2890 2622 
Q 3303 2206 3303 1553 
Q 3303 931 2941 478 
Q 2500 -78 1738 -78 
Q 1113 -78 717 272 
Q 322 622 266 1200 
z
" transform="scale(0.015625)"/>
       </defs>
       <use xlink:href="#ArialMT-32"/>
       <use xlink:href="#ArialMT-2e" x="55.615234"/>
       <use xlink:href="#ArialMT-35" x="83.398438"/>
      </g>
     </g>
    </g>
    <g id="ytick_3">
     <g id="line2d_6">
      <g>
       <use xlink:href="#mccfdbfc142" x="52.814375" y="60.412335" style="stroke: #000000; stroke-width: 0.8"/>
      </g>
     </g>
     <g id="text_3">
      <!-- 5.0 -->
      <g transform="translate(29.134375 64.707022) scale(0.12 -0.12)">
       <use xlink:href="#ArialMT-35"/>
       <use xlink:href="#ArialMT-2e" x="55.615234"/>
       <use xlink:href="#ArialMT-30" x="83.398438"/>
      </g>
     </g>
    </g>
    <g id="ytick_4">
     <g id="line2d_7">
      <g>
       <use xlink:href="#mccfdbfc142" x="52.814375" y="35.953511" style="stroke: #000000; stroke-width: 0.8"/>
      </g>
     </g>
     <g id="text_4">
      <!-- 7.5 -->
      <g transform="translate(29.134375 40.248199) scale(0.12 -0.12)">
       <defs>
        <path id="ArialMT-37" d="M 303 3981 
L 303 4522 
L 3269 4522 
L 3269 4084 
Q 2831 3619 2401 2847 
Q 1972 2075 1738 1259 
Q 1569 684 1522 0 
L 944 0 
Q 953 541 1156 1306 
Q 1359 2072 1739 2783 
Q 2119 3494 2547 3981 
L 303 3981 
z
" transform="scale(0.015625)"/>
       </defs>
       <use xlink:href="#ArialMT-37"/>
       <use xlink:href="#ArialMT-2e" x="55.615234"/>
       <use xlink:href="#ArialMT-35" x="83.398438"/>
      </g>
     </g>
    </g>
    <g id="ytick_5">
     <g id="line2d_8">
      <g>
       <use xlink:href="#mccfdbfc142" x="52.814375" y="11.494687" style="stroke: #000000; stroke-width: 0.8"/>
      </g>
     </g>
     <g id="text_5">
      <!-- 10.0 -->
      <g transform="translate(22.46125 15.789375) scale(0.12 -0.12)">
       <defs>
        <path id="ArialMT-31" d="M 2384 0 
L 1822 0 
L 1822 3584 
Q 1619 3391 1289 3197 
Q 959 3003 697 2906 
L 697 3450 
Q 1169 3672 1522 3987 
Q 1875 4303 2022 4600 
L 2384 4600 
L 2384 0 
z
" transform="scale(0.015625)"/>
       </defs>
       <use xlink:href="#ArialMT-31"/>
       <use xlink:href="#ArialMT-30" x="55.615234"/>
       <use xlink:href="#ArialMT-2e" x="111.230469"/>
       <use xlink:href="#ArialMT-30" x="139.013672"/>
      </g>
     </g>
    </g>
    <g id="text_6">
     <!-- Glucose (mM) -->
     <g transform="translate(15.935625 98.080147) rotate(-90) scale(0.12 -0.12)">
      <defs>
       <path id="ArialMT-47" d="M 2638 1797 
L 2638 2334 
L 4578 2338 
L 4578 638 
Q 4131 281 3656 101 
Q 3181 -78 2681 -78 
Q 2006 -78 1454 211 
Q 903 500 622 1047 
Q 341 1594 341 2269 
Q 341 2938 620 3517 
Q 900 4097 1425 4378 
Q 1950 4659 2634 4659 
Q 3131 4659 3532 4498 
Q 3934 4338 4162 4050 
Q 4391 3763 4509 3300 
L 3963 3150 
Q 3859 3500 3706 3700 
Q 3553 3900 3268 4020 
Q 2984 4141 2638 4141 
Q 2222 4141 1919 4014 
Q 1616 3888 1430 3681 
Q 1244 3475 1141 3228 
Q 966 2803 966 2306 
Q 966 1694 1177 1281 
Q 1388 869 1791 669 
Q 2194 469 2647 469 
Q 3041 469 3416 620 
Q 3791 772 3984 944 
L 3984 1797 
L 2638 1797 
z
" transform="scale(0.015625)"/>
       <path id="ArialMT-6c" d="M 409 0 
L 409 4581 
L 972 4581 
L 972 0 
L 409 0 
z
" transform="scale(0.015625)"/>
       <path id="ArialMT-75" d="M 2597 0 
L 2597 488 
Q 2209 -75 1544 -75 
Q 1250 -75 995 37 
Q 741 150 617 320 
Q 494 491 444 738 
Q 409 903 409 1263 
L 409 3319 
L 972 3319 
L 972 1478 
Q 972 1038 1006 884 
Q 1059 663 1231 536 
Q 1403 409 1656 409 
Q 1909 409 2131 539 
Q 2353 669 2445 892 
Q 2538 1116 2538 1541 
L 2538 3319 
L 3100 3319 
L 3100 0 
L 2597 0 
z
" transform="scale(0.015625)"/>
       <path id="ArialMT-63" d="M 2588 1216 
L 3141 1144 
Q 3050 572 2676 248 
Q 2303 -75 1759 -75 
Q 1078 -75 664 370 
Q 250 816 250 1647 
Q 250 2184 428 2587 
Q 606 2991 970 3192 
Q 1334 3394 1763 3394 
Q 2303 3394 2647 3120 
Q 2991 2847 3088 2344 
L 2541 2259 
Q 2463 2594 2264 2762 
Q 2066 2931 1784 2931 
Q 1359 2931 1093 2626 
Q 828 2322 828 1663 
Q 828 994 1084 691 
Q 1341 388 1753 388 
Q 2084 388 2306 591 
Q 2528 794 2588 1216 
z
" transform="scale(0.015625)"/>
       <path id="ArialMT-6f" d="M 213 1659 
Q 213 2581 725 3025 
Q 1153 3394 1769 3394 
Q 2453 3394 2887 2945 
Q 3322 2497 3322 1706 
Q 3322 1066 3130 698 
Q 2938 331 2570 128 
Q 2203 -75 1769 -75 
Q 1072 -75 642 372 
Q 213 819 213 1659 
z
M 791 1659 
Q 791 1022 1069 705 
Q 1347 388 1769 388 
Q 2188 388 2466 706 
Q 2744 1025 2744 1678 
Q 2744 2294 2464 2611 
Q 2184 2928 1769 2928 
Q 1347 2928 1069 2612 
Q 791 2297 791 1659 
z
" transform="scale(0.015625)"/>
       <path id="ArialMT-73" d="M 197 991 
L 753 1078 
Q 800 744 1014 566 
Q 1228 388 1613 388 
Q 2000 388 2187 545 
Q 2375 703 2375 916 
Q 2375 1106 2209 1216 
Q 2094 1291 1634 1406 
Q 1016 1563 777 1677 
Q 538 1791 414 1992 
Q 291 2194 291 2438 
Q 291 2659 392 2848 
Q 494 3038 669 3163 
Q 800 3259 1026 3326 
Q 1253 3394 1513 3394 
Q 1903 3394 2198 3281 
Q 2494 3169 2634 2976 
Q 2775 2784 2828 2463 
L 2278 2388 
Q 2241 2644 2061 2787 
Q 1881 2931 1553 2931 
Q 1166 2931 1000 2803 
Q 834 2675 834 2503 
Q 834 2394 903 2306 
Q 972 2216 1119 2156 
Q 1203 2125 1616 2013 
Q 2213 1853 2448 1751 
Q 2684 1650 2818 1456 
Q 2953 1263 2953 975 
Q 2953 694 2789 445 
Q 2625 197 2315 61 
Q 2006 -75 1616 -75 
Q 969 -75 630 194 
Q 291 463 197 991 
z
" transform="scale(0.015625)"/>
       <path id="ArialMT-65" d="M 2694 1069 
L 3275 997 
Q 3138 488 2766 206 
Q 2394 -75 1816 -75 
Q 1088 -75 661 373 
Q 234 822 234 1631 
Q 234 2469 665 2931 
Q 1097 3394 1784 3394 
Q 2450 3394 2872 2941 
Q 3294 2488 3294 1666 
Q 3294 1616 3291 1516 
L 816 1516 
Q 847 969 1125 678 
Q 1403 388 1819 388 
Q 2128 388 2347 550 
Q 2566 713 2694 1069 
z
M 847 1978 
L 2700 1978 
Q 2663 2397 2488 2606 
Q 2219 2931 1791 2931 
Q 1403 2931 1139 2672 
Q 875 2413 847 1978 
z
" transform="scale(0.015625)"/>
       <path id="ArialMT-20" transform="scale(0.015625)"/>
       <path id="ArialMT-28" d="M 1497 -1347 
Q 1031 -759 709 28 
Q 388 816 388 1659 
Q 388 2403 628 3084 
Q 909 3875 1497 4659 
L 1900 4659 
Q 1522 4009 1400 3731 
Q 1209 3300 1100 2831 
Q 966 2247 966 1656 
Q 966 153 1900 -1347 
L 1497 -1347 
z
" transform="scale(0.015625)"/>
       <path id="ArialMT-6d" d="M 422 0 
L 422 3319 
L 925 3319 
L 925 2853 
Q 1081 3097 1340 3245 
Q 1600 3394 1931 3394 
Q 2300 3394 2536 3241 
Q 2772 3088 2869 2813 
Q 3263 3394 3894 3394 
Q 4388 3394 4653 3120 
Q 4919 2847 4919 2278 
L 4919 0 
L 4359 0 
L 4359 2091 
Q 4359 2428 4304 2576 
Q 4250 2725 4106 2815 
Q 3963 2906 3769 2906 
Q 3419 2906 3187 2673 
Q 2956 2441 2956 1928 
L 2956 0 
L 2394 0 
L 2394 2156 
Q 2394 2531 2256 2718 
Q 2119 2906 1806 2906 
Q 1569 2906 1367 2781 
Q 1166 2656 1075 2415 
Q 984 2175 984 1722 
L 984 0 
L 422 0 
z
" transform="scale(0.015625)"/>
       <path id="ArialMT-4d" d="M 475 0 
L 475 4581 
L 1388 4581 
L 2472 1338 
Q 2622 884 2691 659 
Q 2769 909 2934 1394 
L 4031 4581 
L 4847 4581 
L 4847 0 
L 4263 0 
L 4263 3834 
L 2931 0 
L 2384 0 
L 1059 3900 
L 1059 0 
L 475 0 
z
" transform="scale(0.015625)"/>
       <path id="ArialMT-29" d="M 791 -1347 
L 388 -1347 
Q 1322 153 1322 1656 
Q 1322 2244 1188 2822 
Q 1081 3291 891 3722 
Q 769 4003 388 4659 
L 791 4659 
Q 1378 3875 1659 3084 
Q 1900 2403 1900 1659 
Q 1900 816 1576 28 
Q 1253 -759 791 -1347 
z
" transform="scale(0.015625)"/>
      </defs>
      <use xlink:href="#ArialMT-47"/>
      <use xlink:href="#ArialMT-6c" x="77.783203"/>
      <use xlink:href="#ArialMT-75" x="100"/>
      <use xlink:href="#ArialMT-63" x="155.615234"/>
      <use xlink:href="#ArialMT-6f" x="205.615234"/>
      <use xlink:href="#ArialMT-73" x="261.230469"/>
      <use xlink:href="#ArialMT-65" x="311.230469"/>
      <use xlink:href="#ArialMT-20" x="366.845703"/>
      <use xlink:href="#ArialMT-28" x="394.628906"/>
      <use xlink:href="#ArialMT-6d" x="427.929688"/>
      <use xlink:href="#ArialMT-4d" x="511.230469"/>
      <use xlink:href="#ArialMT-29" x="594.53125"/>
     </g>
    </g>
   </g>
   <g id="line2d_9">
    <path d="M 57.776826 26.263209 
L 58.779341 26.566635 
L 59.781856 26.871071 
L 60.784371 27.176533 
L 61.786887 27.48304 
L 62.789402 27.790609 
L 63.791917 28.099259 
L 64.794432 28.409008 
L 65.796948 28.719875 
L 66.799463 29.031879 
L 67.801978 29.345039 
L 68.804494 29.659375 
L 69.807009 29.974907 
L 70.809524 30.291656 
L 71.812039 30.609641 
L 72.814555 30.928883 
L 73.81707 31.249403 
L 74.819585 31.571224 
L 75.8221 31.894366 
L 76.824616 32.218852 
L 77.827131 32.544703 
L 78.829646 32.871943 
L 79.832162 33.200595 
L 80.834677 33.530681 
L 81.837192 33.862226 
L 82.839707 34.195253 
L 83.842223 34.529787 
L 84.844738 34.865851 
L 85.847253 35.203472 
L 86.849768 35.542674 
L 87.852284 35.883483 
L 88.854799 36.225925 
L 89.857314 36.570025 
L 90.85983 36.915811 
L 91.862345 37.263308 
L 92.86486 37.612545 
L 93.867375 37.963548 
L 94.869891 38.316345 
L 95.872406 38.670965 
L 96.874921 39.027434 
L 97.877436 39.385782 
L 98.879952 39.746037 
L 99.882467 40.108228 
L 100.884982 40.472384 
L 101.887498 40.838534 
L 102.890013 41.206708 
L 103.892528 41.576935 
L 104.895043 41.949244 
L 105.897559 42.323666 
L 106.900074 42.70023 
L 107.902589 43.078966 
L 108.905104 43.459903 
L 109.90762 43.843071 
L 110.910135 44.228499 
L 111.91265 44.616217 
L 112.915166 45.006252 
L 113.917681 45.398635 
L 114.920196 45.793393 
L 115.922711 46.190554 
L 116.925227 46.590144 
L 117.927742 46.992192 
L 118.930257 47.396722 
L 119.932772 47.803759 
L 120.935288 48.213328 
L 121.937803 48.625452 
L 122.940318 49.040152 
L 123.942833 49.457449 
L 124.945349 49.877362 
L 125.947864 50.299908 
L 126.950379 50.725104 
L 127.952895 51.152962 
L 128.95541 51.583495 
L 129.957925 52.016712 
L 130.96044 52.452619 
L 131.962956 52.891221 
L 132.965471 53.332518 
L 133.967986 53.776509 
L 134.970501 54.223188 
L 135.973017 54.672546 
L 136.975532 55.124569 
L 137.978047 55.579241 
L 138.980563 56.036539 
L 139.983078 56.496436 
L 140.985593 56.958902 
L 141.988108 57.423898 
L 142.990624 57.891382 
L 143.993139 58.361306 
L 144.995654 58.833614 
L 145.998169 59.308245 
L 147.000685 59.785131 
L 148.0032 60.264197 
L 149.005715 60.74536 
L 150.008231 61.228531 
L 151.010746 61.713612 
L 152.013261 62.200497 
L 153.015776 62.689073 
L 154.018292 63.179219 
L 155.020807 63.670805 
L 156.023322 64.163694 
L 157.025837 64.65774 
" clip-path="url(#p1491a2c584)" style="fill: none; stroke: #9370db; stroke-width: 2; stroke-linecap: square"/>
   </g>
   <g id="line2d_10">
    <path d="M 52.814375 50.628805 
L 161.988288 50.628805 
" clip-path="url(#p1491a2c584)" style="fill: none; stroke-dasharray: 3.7,1.6; stroke-dashoffset: 0; stroke: #808080"/>
   </g>
   <g id="patch_3">
    <path d="M 52.814375 109.329982 
L 52.814375 11.494687 
" style="fill: none; stroke: #000000; stroke-width: 0.8; stroke-linejoin: miter; stroke-linecap: square"/>
   </g>
   <g id="patch_4">
    <path d="M 52.814375 109.329982 
L 161.988288 109.329982 
" style="fill: none; stroke: #000000; stroke-width: 0.8; stroke-linejoin: miter; stroke-linecap: square"/>
   </g>
  </g>
  <g id="axes_2">
   <g id="patch_5">
    <path d="M 183.823071 109.329982 
L 292.996984 109.329982 
L 292.996984 11.494687 
L 183.823071 11.494687 
z
" style="fill: #ffffff"/>
   </g>
   <g id="PolyCollection_2"/>
   <g id="matplotlib.axis_3">
    <g id="xtick_4">
     <g id="line2d_11">
      <g>
       <use xlink:href="#md89a053c32" x="188.785521" y="109.329982" style="stroke: #000000; stroke-width: 0.8"/>
      </g>
     </g>
    </g>
    <g id="xtick_5">
     <g id="line2d_12">
      <g>
       <use xlink:href="#md89a053c32" x="238.410027" y="109.329982" style="stroke: #000000; stroke-width: 0.8"/>
      </g>
     </g>
    </g>
    <g id="xtick_6">
     <g id="line2d_13">
      <g>
       <use xlink:href="#md89a053c32" x="288.034533" y="109.329982" style="stroke: #000000; stroke-width: 0.8"/>
      </g>
     </g>
    </g>
   </g>
   <g id="matplotlib.axis_4">
    <g id="ytick_6">
     <g id="line2d_14">
      <g>
       <use xlink:href="#mccfdbfc142" x="183.823071" y="109.329982" style="stroke: #000000; stroke-width: 0.8"/>
      </g>
     </g>
    </g>
    <g id="ytick_7">
     <g id="line2d_15">
      <g>
       <use xlink:href="#mccfdbfc142" x="183.823071" y="84.871158" style="stroke: #000000; stroke-width: 0.8"/>
      </g>
     </g>
    </g>
    <g id="ytick_8">
     <g id="line2d_16">
      <g>
       <use xlink:href="#mccfdbfc142" x="183.823071" y="60.412335" style="stroke: #000000; stroke-width: 0.8"/>
      </g>
     </g>
    </g>
    <g id="ytick_9">
     <g id="line2d_17">
      <g>
       <use xlink:href="#mccfdbfc142" x="183.823071" y="35.953511" style="stroke: #000000; stroke-width: 0.8"/>
      </g>
     </g>
    </g>
    <g id="ytick_10">
     <g id="line2d_18">
      <g>
       <use xlink:href="#mccfdbfc142" x="183.823071" y="11.494687" style="stroke: #000000; stroke-width: 0.8"/>
      </g>
     </g>
    </g>
   </g>
   <g id="line2d_19">
    <path d="M 188.785521 26.263209 
L 189.788037 26.820536 
L 190.790552 27.362233 
L 191.793067 27.889119 
L 192.795582 28.40195 
L 193.798098 28.90143 
L 194.800613 29.388215 
L 195.803128 29.862912 
L 196.805643 30.32609 
L 197.808159 30.778278 
L 198.810674 31.219975 
L 199.813189 31.651643 
L 200.815705 32.073718 
L 201.81822 32.48661 
L 202.820735 32.890702 
L 203.82325 33.286357 
L 204.825766 33.673915 
L 205.828281 34.053698 
L 206.830796 34.426009 
L 207.833311 34.791134 
L 208.835827 35.149345 
L 209.838342 35.500899 
L 210.840857 35.846038 
L 211.843372 36.184993 
L 212.845888 36.517984 
L 213.848403 36.845218 
L 214.850918 37.166894 
L 215.853434 37.483198 
L 216.855949 37.794312 
L 217.858464 38.100404 
L 218.860979 38.401639 
L 219.863495 38.698172 
L 220.86601 38.99015 
L 221.868525 39.277716 
L 222.87104 39.561006 
L 223.873556 39.840148 
L 224.876071 40.115267 
L 225.878586 40.386483 
L 226.881102 40.653908 
L 227.883617 40.917652 
L 228.886132 41.17782 
L 229.888647 41.434513 
L 230.891163 41.687826 
L 231.893678 41.937854 
L 232.896193 42.184685 
L 233.898708 42.428405 
L 234.901224 42.669097 
L 235.903739 42.90684 
L 236.906254 43.14171 
L 237.90877 43.373783 
L 238.911285 43.603128 
L 239.9138 43.829814 
L 240.916315 44.053908 
L 241.918831 44.275473 
L 242.921346 44.494571 
L 243.923861 44.711262 
L 244.926376 44.925603 
L 245.928892 45.13765 
L 246.931407 45.347456 
L 247.933922 45.555074 
L 248.936438 45.760554 
L 249.938953 45.963945 
L 250.941468 46.165294 
L 251.943983 46.364646 
L 252.946499 46.562047 
L 253.949014 46.757538 
L 254.951529 46.951162 
L 255.954044 47.142958 
L 256.95656 47.332967 
L 257.959075 47.521225 
L 258.96159 47.707771 
L 259.964106 47.892639 
L 260.966621 48.075864 
L 261.969136 48.257481 
L 262.971651 48.437522 
L 263.974167 48.616018 
L 264.976682 48.793002 
L 265.979197 48.968503 
L 266.981712 49.14255 
L 267.984228 49.315173 
L 268.986743 49.486398 
L 269.989258 49.656253 
L 270.991773 49.824764 
L 271.994289 49.991957 
L 272.996804 50.157857 
L 273.999319 50.322488 
L 275.001835 50.485874 
L 276.00435 50.648038 
L 277.006865 50.809003 
L 278.00938 50.96879 
L 279.011896 51.127421 
L 280.014411 51.284917 
L 281.016926 51.441298 
L 282.019441 51.596584 
L 283.021957 51.750795 
L 284.024472 51.90395 
L 285.026987 52.056067 
L 286.029503 52.207164 
L 287.032018 52.357259 
L 288.034533 52.506369 
" clip-path="url(#p4ab6dbb1a2)" style="fill: none; stroke: #6495ed; stroke-width: 2; stroke-linecap: square"/>
   </g>
   <g id="line2d_20">
    <path d="M 183.823071 50.628805 
L 292.996984 50.628805 
" clip-path="url(#p4ab6dbb1a2)" style="fill: none; stroke-dasharray: 3.7,1.6; stroke-dashoffset: 0; stroke: #808080"/>
   </g>
   <g id="patch_6">
    <path d="M 183.823071 109.329982 
L 183.823071 11.494687 
" style="fill: none; stroke: #000000; stroke-width: 0.8; stroke-linejoin: miter; stroke-linecap: square"/>
   </g>
   <g id="patch_7">
    <path d="M 183.823071 109.329982 
L 292.996984 109.329982 
" style="fill: none; stroke: #000000; stroke-width: 0.8; stroke-linejoin: miter; stroke-linecap: square"/>
   </g>
  </g>
  <g id="axes_3">
   <g id="patch_8">
    <path d="M 314.831766 109.329982 
L 424.005679 109.329982 
L 424.005679 11.494687 
L 314.831766 11.494687 
z
" style="fill: #ffffff"/>
   </g>
   <g id="PolyCollection_3"/>
   <g id="matplotlib.axis_5">
    <g id="xtick_7">
     <g id="line2d_21">
      <g>
       <use xlink:href="#md89a053c32" x="319.794217" y="109.329982" style="stroke: #000000; stroke-width: 0.8"/>
      </g>
     </g>
    </g>
    <g id="xtick_8">
     <g id="line2d_22">
      <g>
       <use xlink:href="#md89a053c32" x="341.849553" y="109.329982" style="stroke: #000000; stroke-width: 0.8"/>
      </g>
     </g>
    </g>
    <g id="xtick_9">
     <g id="line2d_23">
      <g>
       <use xlink:href="#md89a053c32" x="363.904889" y="109.329982" style="stroke: #000000; stroke-width: 0.8"/>
      </g>
     </g>
    </g>
    <g id="xtick_10">
     <g id="line2d_24">
      <g>
       <use xlink:href="#md89a053c32" x="385.960225" y="109.329982" style="stroke: #000000; stroke-width: 0.8"/>
      </g>
     </g>
    </g>
    <g id="xtick_11">
     <g id="line2d_25">
      <g>
       <use xlink:href="#md89a053c32" x="408.015561" y="109.329982" style="stroke: #000000; stroke-width: 0.8"/>
      </g>
     </g>
    </g>
   </g>
   <g id="matplotlib.axis_6">
    <g id="ytick_11">
     <g id="line2d_26">
      <g>
       <use xlink:href="#mccfdbfc142" x="314.831766" y="109.329982" style="stroke: #000000; stroke-width: 0.8"/>
      </g>
     </g>
    </g>
    <g id="ytick_12">
     <g id="line2d_27">
      <g>
       <use xlink:href="#mccfdbfc142" x="314.831766" y="84.871158" style="stroke: #000000; stroke-width: 0.8"/>
      </g>
     </g>
    </g>
    <g id="ytick_13">
     <g id="line2d_28">
      <g>
       <use xlink:href="#mccfdbfc142" x="314.831766" y="60.412335" style="stroke: #000000; stroke-width: 0.8"/>
      </g>
     </g>
    </g>
    <g id="ytick_14">
     <g id="line2d_29">
      <g>
       <use xlink:href="#mccfdbfc142" x="314.831766" y="35.953511" style="stroke: #000000; stroke-width: 0.8"/>
      </g>
     </g>
    </g>
    <g id="ytick_15">
     <g id="line2d_30">
      <g>
       <use xlink:href="#mccfdbfc142" x="314.831766" y="11.494687" style="stroke: #000000; stroke-width: 0.8"/>
      </g>
     </g>
    </g>
   </g>
   <g id="line2d_31">
    <path d="M 319.794217 26.263209 
L 320.796732 26.421487 
L 321.799247 26.580639 
L 322.801763 26.740679 
L 323.804278 26.901619 
L 324.806793 27.063472 
L 325.809309 27.226251 
L 326.811824 27.389971 
L 327.814339 27.554646 
L 328.816854 27.720289 
L 329.81937 27.886915 
L 330.821885 28.05454 
L 331.8244 28.223179 
L 332.826915 28.392847 
L 333.829431 28.563561 
L 334.831946 28.735336 
L 335.834461 28.908191 
L 336.836977 29.082142 
L 337.839492 29.257207 
L 338.842007 29.433403 
L 339.844522 29.610751 
L 340.847038 29.789268 
L 341.849553 29.968974 
L 342.852068 30.149889 
L 343.854583 30.332034 
L 344.857099 30.515429 
L 345.859614 30.700097 
L 346.862129 30.88606 
L 347.864644 31.07334 
L 348.86716 31.26196 
L 349.869675 31.451945 
L 350.87219 31.643319 
L 351.874706 31.836108 
L 352.877221 32.030338 
L 353.879736 32.226035 
L 354.882251 32.423228 
L 355.884767 32.621943 
L 356.887282 32.822212 
L 357.889797 33.024062 
L 358.892312 33.227526 
L 359.894828 33.432636 
L 360.897343 33.639423 
L 361.899858 33.847922 
L 362.902374 34.058167 
L 363.904889 34.270195 
L 364.907404 34.484042 
L 365.909919 34.699747 
L 366.912435 34.917349 
L 367.91495 35.136888 
L 368.917465 35.358407 
L 369.91998 35.581949 
L 370.922496 35.807559 
L 371.925011 36.035283 
L 372.927526 36.265169 
L 373.930042 36.497268 
L 374.932557 36.731629 
L 375.935072 36.968307 
L 376.937587 37.207357 
L 377.940103 37.448836 
L 378.942618 37.692802 
L 379.945133 37.939318 
L 380.947648 38.188447 
L 381.950164 38.440256 
L 382.952679 38.694813 
L 383.955194 38.95219 
L 384.95771 39.212461 
L 385.960225 39.475704 
L 386.96274 39.741999 
L 387.965255 40.011429 
L 388.967771 40.284084 
L 389.970286 40.560053 
L 390.972801 40.839432 
L 391.975316 41.12232 
L 392.977832 41.408821 
L 393.980347 41.699044 
L 394.982862 41.993102 
L 395.985378 42.291114 
L 396.987893 42.593205 
L 397.990408 42.899504 
L 398.992923 43.21015 
L 399.995439 43.525285 
L 400.997954 43.845062 
L 402.000469 44.169638 
L 403.002984 44.499183 
L 404.0055 44.833871 
L 405.008015 45.17389 
L 406.01053 45.519435 
L 407.013045 45.870714 
L 408.015561 46.227947 
L 409.018076 46.591367 
L 410.020591 46.961221 
L 411.023107 47.33777 
L 412.025622 47.721292 
L 413.028137 48.112085 
L 414.030652 48.510464 
L 415.033168 48.916766 
L 416.035683 49.331351 
L 417.038198 49.754605 
L 418.040713 50.186942 
L 419.043229 50.628805 
" clip-path="url(#p87f0cbadc8)" style="fill: none; stroke: #66b266; stroke-width: 2; stroke-linecap: square"/>
   </g>
   <g id="line2d_32">
    <path d="M 314.831766 50.628805 
L 424.005679 50.628805 
" clip-path="url(#p87f0cbadc8)" style="fill: none; stroke-dasharray: 3.7,1.6; stroke-dashoffset: 0; stroke: #808080"/>
   </g>
   <g id="patch_9">
    <path d="M 314.831766 109.329982 
L 314.831766 11.494687 
" style="fill: none; stroke: #000000; stroke-width: 0.8; stroke-linejoin: miter; stroke-linecap: square"/>
   </g>
   <g id="patch_10">
    <path d="M 314.831766 109.329982 
L 424.005679 109.329982 
" style="fill: none; stroke: #000000; stroke-width: 0.8; stroke-linejoin: miter; stroke-linecap: square"/>
   </g>
  </g>
  <g id="axes_4">
   <g id="patch_11">
    <path d="M 445.840462 109.329982 
L 555.014375 109.329982 
L 555.014375 11.494687 
L 445.840462 11.494687 
z
" style="fill: #ffffff"/>
   </g>
   <g id="PolyCollection_4"/>
   <g id="matplotlib.axis_7">
    <g id="xtick_12">
     <g id="line2d_33">
      <g>
       <use xlink:href="#md89a053c32" x="483.885917" y="109.329982" style="stroke: #000000; stroke-width: 0.8"/>
      </g>
     </g>
    </g>
    <g id="xtick_13">
     <g id="line2d_34">
      <g>
       <use xlink:href="#md89a053c32" x="550.051924" y="109.329982" style="stroke: #000000; stroke-width: 0.8"/>
      </g>
     </g>
    </g>
   </g>
   <g id="matplotlib.axis_8">
    <g id="ytick_16">
     <g id="line2d_35">
      <g>
       <use xlink:href="#mccfdbfc142" x="445.840462" y="109.329982" style="stroke: #000000; stroke-width: 0.8"/>
      </g>
     </g>
    </g>
    <g id="ytick_17">
     <g id="line2d_36">
      <g>
       <use xlink:href="#mccfdbfc142" x="445.840462" y="84.871158" style="stroke: #000000; stroke-width: 0.8"/>
      </g>
     </g>
    </g>
    <g id="ytick_18">
     <g id="line2d_37">
      <g>
       <use xlink:href="#mccfdbfc142" x="445.840462" y="60.412335" style="stroke: #000000; stroke-width: 0.8"/>
      </g>
     </g>
    </g>
    <g id="ytick_19">
     <g id="line2d_38">
      <g>
       <use xlink:href="#mccfdbfc142" x="445.840462" y="35.953511" style="stroke: #000000; stroke-width: 0.8"/>
      </g>
     </g>
    </g>
    <g id="ytick_20">
     <g id="line2d_39">
      <g>
       <use xlink:href="#mccfdbfc142" x="445.840462" y="11.494687" style="stroke: #000000; stroke-width: 0.8"/>
      </g>
     </g>
    </g>
   </g>
   <g id="line2d_40">
    <path d="M 450.802913 26.263209 
L 451.805428 26.805116 
L 452.807943 27.330059 
L 453.810458 27.839057 
L 454.812974 28.333042 
L 455.815489 28.812867 
L 456.818004 29.279318 
L 457.820519 29.733115 
L 458.823035 30.174925 
L 459.82555 30.605363 
L 460.828065 31.024999 
L 461.830581 31.434362 
L 462.833096 31.833943 
L 463.835611 32.224199 
L 464.838126 32.605558 
L 465.840642 32.978419 
L 466.843157 33.343152 
L 467.845672 33.700109 
L 468.848187 34.049615 
L 469.850703 34.391979 
L 470.853218 34.727489 
L 471.855733 35.056418 
L 472.858249 35.379022 
L 473.860764 35.695543 
L 474.863279 36.006208 
L 475.865794 36.311236 
L 476.86831 36.610829 
L 477.870825 36.905181 
L 478.87334 37.194477 
L 479.875855 37.47889 
L 480.878371 37.758585 
L 481.880886 38.033721 
L 482.883401 38.304447 
L 483.885917 38.570906 
L 484.888432 38.833233 
L 485.890947 39.091557 
L 486.893462 39.346003 
L 487.895978 39.596689 
L 488.898493 39.843727 
L 489.901008 40.087225 
L 490.903523 40.327286 
L 491.906039 40.56401 
L 492.908554 40.79749 
L 493.911069 41.027818 
L 494.913584 41.25508 
L 495.9161 41.47936 
L 496.918615 41.700739 
L 497.92113 41.919293 
L 498.923646 42.135096 
L 499.926161 42.348219 
L 500.928676 42.558731 
L 501.931191 42.766698 
L 502.933707 42.972184 
L 503.936222 43.175249 
L 504.938737 43.375952 
L 505.941252 43.574351 
L 506.943768 43.770499 
L 507.946283 43.964451 
L 508.948798 44.156257 
L 509.951314 44.345966 
L 510.953829 44.533626 
L 511.956344 44.719284 
L 512.958859 44.902984 
L 513.961375 45.084768 
L 514.96389 45.264679 
L 515.966405 45.442757 
L 516.96892 45.619042 
L 517.971436 45.79357 
L 518.973951 45.966379 
L 519.976466 46.137504 
L 520.978982 46.30698 
L 521.981497 46.474841 
L 522.984012 46.641118 
L 523.986527 46.805843 
L 524.989043 46.969047 
L 525.991558 47.130759 
L 526.994073 47.291008 
L 527.996588 47.449823 
L 528.999104 47.607231 
L 530.001619 47.763257 
L 531.004134 47.917928 
L 532.00665 48.071268 
L 533.009165 48.223303 
L 534.01168 48.374055 
L 535.014195 48.523548 
L 536.016711 48.671805 
L 537.019226 48.818846 
L 538.021741 48.964693 
L 539.024256 49.109368 
L 540.026772 49.25289 
L 541.029287 49.395279 
L 542.031802 49.536554 
L 543.034318 49.676734 
L 544.036833 49.815837 
L 545.039348 49.95388 
L 546.041863 50.090882 
L 547.044379 50.226859 
L 548.046894 50.361828 
L 549.049409 50.495805 
L 550.051924 50.628805 
" clip-path="url(#pb5e5d62a24)" style="fill: none; stroke: #e8a87c; stroke-width: 2; stroke-linecap: square"/>
   </g>
   <g id="line2d_41">
    <path d="M 445.840462 50.628805 
L 555.014375 50.628805 
" clip-path="url(#pb5e5d62a24)" style="fill: none; stroke-dasharray: 3.7,1.6; stroke-dashoffset: 0; stroke: #808080"/>
   </g>
   <g id="patch_12">
    <path d="M 445.840462 109.329982 
L 445.840462 11.494687 
" style="fill: none; stroke: #000000; stroke-width: 0.8; stroke-linejoin: miter; stroke-linecap: square"/>
   </g>
   <g id="patch_13">
    <path d="M 445.840462 109.329982 
L 555.014375 109.329982 
" style="fill: none; stroke: #000000; stroke-width: 0.8; stroke-linejoin: miter; stroke-linecap: square"/>
   </g>
  </g>
  <g id="axes_5">
   <g id="patch_14">
    <path d="M 52.814375 226.732335 
L 161.988288 226.732335 
L 161.988288 128.89704 
L 52.814375 128.89704 
z
" style="fill: #ffffff"/>
   </g>
   <g id="PolyCollection_5"/>
   <g id="matplotlib.axis_9">
    <g id="xtick_14">
     <g id="line2d_42">
      <g>
       <use xlink:href="#md89a053c32" x="57.776826" y="226.732335" style="stroke: #000000; stroke-width: 0.8"/>
      </g>
     </g>
    </g>
    <g id="xtick_15">
     <g id="line2d_43">
      <g>
       <use xlink:href="#md89a053c32" x="96.675125" y="226.732335" style="stroke: #000000; stroke-width: 0.8"/>
      </g>
     </g>
    </g>
    <g id="xtick_16">
     <g id="line2d_44">
      <g>
       <use xlink:href="#md89a053c32" x="135.573425" y="226.732335" style="stroke: #000000; stroke-width: 0.8"/>
      </g>
     </g>
    </g>
   </g>
   <g id="matplotlib.axis_10">
    <g id="ytick_21">
     <g id="line2d_45">
      <g>
       <use xlink:href="#mccfdbfc142" x="52.814375" y="226.732335" style="stroke: #000000; stroke-width: 0.8"/>
      </g>
     </g>
     <g id="text_7">
      <!-- 0 -->
      <g transform="translate(39.14125 231.027022) scale(0.12 -0.12)">
       <use xlink:href="#ArialMT-30"/>
      </g>
     </g>
    </g>
    <g id="ytick_22">
     <g id="line2d_46">
      <g>
       <use xlink:href="#mccfdbfc142" x="52.814375" y="178.529192" style="stroke: #000000; stroke-width: 0.8"/>
      </g>
     </g>
     <g id="text_8">
      <!-- 10 -->
      <g transform="translate(32.468125 182.823879) scale(0.12 -0.12)">
       <use xlink:href="#ArialMT-31"/>
       <use xlink:href="#ArialMT-30" x="55.615234"/>
      </g>
     </g>
    </g>
    <g id="ytick_23">
     <g id="line2d_47">
      <g>
       <use xlink:href="#mccfdbfc142" x="52.814375" y="130.326049" style="stroke: #000000; stroke-width: 0.8"/>
      </g>
     </g>
     <g id="text_9">
      <!-- 20 -->
      <g transform="translate(32.468125 134.620736) scale(0.12 -0.12)">
       <use xlink:href="#ArialMT-32"/>
       <use xlink:href="#ArialMT-30" x="55.615234"/>
      </g>
     </g>
    </g>
    <g id="text_10">
     <!-- Insulin (μU/mL) -->
     <g transform="translate(25.9425 218.611875) rotate(-90) scale(0.12 -0.12)">
      <defs>
       <path id="ArialMT-49" d="M 597 0 
L 597 4581 
L 1203 4581 
L 1203 0 
L 597 0 
z
" transform="scale(0.015625)"/>
       <path id="ArialMT-6e" d="M 422 0 
L 422 3319 
L 928 3319 
L 928 2847 
Q 1294 3394 1984 3394 
Q 2284 3394 2536 3286 
Q 2788 3178 2913 3003 
Q 3038 2828 3088 2588 
Q 3119 2431 3119 2041 
L 3119 0 
L 2556 0 
L 2556 2019 
Q 2556 2363 2490 2533 
Q 2425 2703 2258 2804 
Q 2091 2906 1866 2906 
Q 1506 2906 1245 2678 
Q 984 2450 984 1813 
L 984 0 
L 422 0 
z
" transform="scale(0.015625)"/>
       <path id="ArialMT-69" d="M 425 3934 
L 425 4581 
L 988 4581 
L 988 3934 
L 425 3934 
z
M 425 0 
L 425 3319 
L 988 3319 
L 988 0 
L 425 0 
z
" transform="scale(0.015625)"/>
       <path id="ArialMT-3bc" d="M 3181 3319 
L 3181 0 
L 2678 0 
L 2678 394 
Q 2516 144 2356 50 
Q 2138 -78 1847 -78 
Q 1588 -78 1388 25 
Q 1238 103 1056 334 
L 1056 -1272 
L 500 -1272 
L 500 3319 
L 1056 3319 
L 1056 1913 
Q 1056 1147 1137 920 
Q 1219 694 1401 562 
Q 1584 431 1822 431 
Q 2072 431 2269 568 
Q 2466 706 2547 923 
Q 2628 1141 2628 1903 
L 2628 3319 
L 3181 3319 
z
" transform="scale(0.015625)"/>
       <path id="ArialMT-55" d="M 3500 4581 
L 4106 4581 
L 4106 1934 
Q 4106 1244 3950 837 
Q 3794 431 3386 176 
Q 2978 -78 2316 -78 
Q 1672 -78 1262 144 
Q 853 366 678 786 
Q 503 1206 503 1934 
L 503 4581 
L 1109 4581 
L 1109 1938 
Q 1109 1341 1220 1058 
Q 1331 775 1601 622 
Q 1872 469 2263 469 
Q 2931 469 3215 772 
Q 3500 1075 3500 1938 
L 3500 4581 
z
" transform="scale(0.015625)"/>
       <path id="ArialMT-2f" d="M 0 -78 
L 1328 4659 
L 1778 4659 
L 453 -78 
L 0 -78 
z
" transform="scale(0.015625)"/>
       <path id="ArialMT-4c" d="M 469 0 
L 469 4581 
L 1075 4581 
L 1075 541 
L 3331 541 
L 3331 0 
L 469 0 
z
" transform="scale(0.015625)"/>
      </defs>
      <use xlink:href="#ArialMT-49"/>
      <use xlink:href="#ArialMT-6e" x="27.783203"/>
      <use xlink:href="#ArialMT-73" x="83.398438"/>
      <use xlink:href="#ArialMT-75" x="133.398438"/>
      <use xlink:href="#ArialMT-6c" x="189.013672"/>
      <use xlink:href="#ArialMT-69" x="211.230469"/>
      <use xlink:href="#ArialMT-6e" x="233.447266"/>
      <use xlink:href="#ArialMT-20" x="289.0625"/>
      <use xlink:href="#ArialMT-28" x="316.845703"/>
      <use xlink:href="#ArialMT-3bc" x="350.146484"/>
      <use xlink:href="#ArialMT-55" x="407.763672"/>
      <use xlink:href="#ArialMT-2f" x="479.980469"/>
      <use xlink:href="#ArialMT-6d" x="507.763672"/>
      <use xlink:href="#ArialMT-4c" x="591.064453"/>
      <use xlink:href="#ArialMT-29" x="646.679688"/>
     </g>
    </g>
   </g>
   <g id="line2d_48">
    <path d="M 57.776826 157.011518 
L 58.779341 156.884271 
L 59.781856 156.755925 
L 60.784371 156.626462 
L 61.786887 156.495859 
L 62.789402 156.364097 
L 63.791917 156.231154 
L 64.794432 156.097008 
L 65.796948 155.961636 
L 66.799463 155.825016 
L 67.801978 155.687123 
L 68.804494 155.547934 
L 69.807009 155.407423 
L 70.809524 155.265565 
L 71.812039 155.122335 
L 72.814555 154.977705 
L 73.81707 154.831648 
L 74.819585 154.684135 
L 75.8221 154.535138 
L 76.824616 154.384628 
L 77.827131 154.232573 
L 78.829646 154.078943 
L 79.832162 153.923706 
L 80.834677 153.766828 
L 81.837192 153.608277 
L 82.839707 153.448017 
L 83.842223 153.286013 
L 84.844738 153.122229 
L 85.847253 152.956627 
L 86.849768 152.789168 
L 87.852284 152.619814 
L 88.854799 152.448524 
L 89.857314 152.275255 
L 90.85983 152.099966 
L 91.862345 151.922612 
L 92.86486 151.743148 
L 93.867375 151.561528 
L 94.869891 151.377704 
L 95.872406 151.191627 
L 96.874921 151.003247 
L 97.877436 150.812511 
L 98.879952 150.619368 
L 99.882467 150.423761 
L 100.884982 150.225636 
L 101.887498 150.024934 
L 102.890013 149.821596 
L 103.892528 149.615561 
L 104.895043 149.406767 
L 105.897559 149.195149 
L 106.900074 148.980641 
L 107.902589 148.763174 
L 108.905104 148.54268 
L 109.90762 148.319087 
L 110.910135 148.09232 
L 111.91265 147.862305 
L 112.915166 147.628963 
L 113.917681 147.392215 
L 114.920196 147.151979 
L 115.922711 146.908171 
L 116.925227 146.660705 
L 117.927742 146.409492 
L 118.930257 146.154442 
L 119.932772 145.895462 
L 120.935288 145.632457 
L 121.937803 145.365329 
L 122.940318 145.093979 
L 123.942833 144.818304 
L 124.945349 144.5382 
L 125.947864 144.253562 
L 126.950379 143.964278 
L 127.952895 143.670239 
L 128.95541 143.371332 
L 129.957925 143.06744 
L 130.96044 142.758445 
L 131.962956 142.44423 
L 132.965471 142.124671 
L 133.967986 141.799646 
L 134.970501 141.46903 
L 135.973017 141.132696 
L 136.975532 140.790516 
L 137.978047 140.442362 
L 138.980563 140.088104 
L 139.983078 139.727611 
L 140.985593 139.360752 
L 141.988108 138.987396 
L 142.990624 138.607413 
L 143.993139 138.220671 
L 144.995654 137.827041 
L 145.998169 137.426394 
L 147.000685 137.018605 
L 148.0032 136.60355 
L 149.005715 136.181105 
L 150.008231 135.751153 
L 151.010746 135.313579 
L 152.013261 134.868272 
L 153.015776 134.415127 
L 154.018292 133.954042 
L 155.020807 133.484925 
L 156.023322 133.007686 
L 157.025837 132.522246 
" clip-path="url(#p8e84045e09)" style="fill: none; stroke: #9370db; stroke-width: 2; stroke-linecap: square"/>
   </g>
   <g id="line2d_49">
    <path d="M 52.814375 202.630763 
L 161.988288 202.630763 
" clip-path="url(#p8e84045e09)" style="fill: none; stroke-dasharray: 3.7,1.6; stroke-dashoffset: 0; stroke: #808080"/>
   </g>
   <g id="patch_15">
    <path d="M 52.814375 226.732335 
L 52.814375 128.89704 
" style="fill: none; stroke: #000000; stroke-width: 0.8; stroke-linejoin: miter; stroke-linecap: square"/>
   </g>
   <g id="patch_16">
    <path d="M 52.814375 226.732335 
L 161.988288 226.732335 
" style="fill: none; stroke: #000000; stroke-width: 0.8; stroke-linejoin: miter; stroke-linecap: square"/>
   </g>
  </g>
  <g id="axes_6">
   <g id="patch_17">
    <path d="M 183.823071 226.732335 
L 292.996984 226.732335 
L 292.996984 128.89704 
L 183.823071 128.89704 
z
" style="fill: #ffffff"/>
   </g>
   <g id="PolyCollection_6"/>
   <g id="matplotlib.axis_11">
    <g id="xtick_17">
     <g id="line2d_50">
      <g>
       <use xlink:href="#md89a053c32" x="188.785521" y="226.732335" style="stroke: #000000; stroke-width: 0.8"/>
      </g>
     </g>
    </g>
    <g id="xtick_18">
     <g id="line2d_51">
      <g>
       <use xlink:href="#md89a053c32" x="238.410027" y="226.732335" style="stroke: #000000; stroke-width: 0.8"/>
      </g>
     </g>
    </g>
    <g id="xtick_19">
     <g id="line2d_52">
      <g>
       <use xlink:href="#md89a053c32" x="288.034533" y="226.732335" style="stroke: #000000; stroke-width: 0.8"/>
      </g>
     </g>
    </g>
   </g>
   <g id="matplotlib.axis_12">
    <g id="ytick_24">
     <g id="line2d_53">
      <g>
       <use xlink:href="#mccfdbfc142" x="183.823071" y="226.732335" style="stroke: #000000; stroke-width: 0.8"/>
      </g>
     </g>
    </g>
    <g id="ytick_25">
     <g id="line2d_54">
      <g>
       <use xlink:href="#mccfdbfc142" x="183.823071" y="178.529192" style="stroke: #000000; stroke-width: 0.8"/>
      </g>
     </g>
    </g>
    <g id="ytick_26">
     <g id="line2d_55">
      <g>
       <use xlink:href="#mccfdbfc142" x="183.823071" y="130.326049" style="stroke: #000000; stroke-width: 0.8"/>
      </g>
     </g>
    </g>
   </g>
   <g id="line2d_56">
    <path d="M 188.785521 157.011518 
L 189.788037 158.340186 
L 190.790552 159.620234 
L 191.793067 160.854402 
L 192.795582 162.045221 
L 193.798098 163.19504 
L 194.800613 164.306036 
L 195.803128 165.380232 
L 196.805643 166.41951 
L 197.808159 167.425626 
L 198.810674 168.400215 
L 199.813189 169.344805 
L 200.815705 170.260827 
L 201.81822 171.149618 
L 202.820735 172.012434 
L 203.82325 172.85045 
L 204.825766 173.664773 
L 205.828281 174.456442 
L 206.830796 175.226436 
L 207.833311 175.975676 
L 208.835827 176.705032 
L 209.838342 177.415324 
L 210.840857 178.107327 
L 211.843372 178.781774 
L 212.845888 179.439358 
L 213.848403 180.080735 
L 214.850918 180.706528 
L 215.853434 181.317327 
L 216.855949 181.913691 
L 217.858464 182.496153 
L 218.860979 183.065218 
L 219.863495 183.621366 
L 220.86601 184.165056 
L 221.868525 184.696723 
L 222.87104 185.216782 
L 223.873556 185.72563 
L 224.876071 186.223643 
L 225.878586 186.711183 
L 226.881102 187.188594 
L 227.883617 187.656205 
L 228.886132 188.11433 
L 229.888647 188.563272 
L 230.891163 189.003317 
L 231.893678 189.434743 
L 232.896193 189.857813 
L 233.898708 190.27278 
L 234.901224 190.679889 
L 235.903739 191.079372 
L 236.906254 191.471454 
L 237.90877 191.856348 
L 238.911285 192.234263 
L 239.9138 192.605395 
L 240.916315 192.969937 
L 241.918831 193.328073 
L 242.921346 193.679977 
L 243.923861 194.025822 
L 244.926376 194.365771 
L 245.928892 194.699981 
L 246.931407 195.028605 
L 247.933922 195.351789 
L 248.936438 195.669676 
L 249.938953 195.982401 
L 250.941468 196.290096 
L 251.943983 196.592889 
L 252.946499 196.890902 
L 253.949014 197.184254 
L 254.951529 197.47306 
L 255.954044 197.75743 
L 256.95656 198.037472 
L 257.959075 198.31329 
L 258.96159 198.584983 
L 259.964106 198.852648 
L 260.966621 199.116381 
L 261.969136 199.376271 
L 262.971651 199.632408 
L 263.974167 199.884875 
L 264.976682 200.133757 
L 265.979197 200.379133 
L 266.981712 200.621082 
L 267.984228 200.859678 
L 268.986743 201.094995 
L 269.989258 201.327103 
L 270.991773 201.556073 
L 271.994289 201.78197 
L 272.996804 202.004861 
L 273.999319 202.224807 
L 275.001835 202.44187 
L 276.00435 202.65611 
L 277.006865 202.867585 
L 278.00938 203.076351 
L 279.011896 203.282462 
L 280.014411 203.485973 
L 281.016926 203.686934 
L 282.019441 203.885397 
L 283.021957 204.081409 
L 284.024472 204.27502 
L 285.026987 204.466275 
L 286.029503 204.655219 
L 287.032018 204.841897 
L 288.034533 205.026352 
" clip-path="url(#p60ecb30293)" style="fill: none; stroke: #6495ed; stroke-width: 2; stroke-linecap: square"/>
   </g>
   <g id="line2d_57">
    <path d="M 183.823071 202.630763 
L 292.996984 202.630763 
" clip-path="url(#p60ecb30293)" style="fill: none; stroke-dasharray: 3.7,1.6; stroke-dashoffset: 0; stroke: #808080"/>
   </g>
   <g id="patch_18">
    <path d="M 183.823071 226.732335 
L 183.823071 128.89704 
" style="fill: none; stroke: #000000; stroke-width: 0.8; stroke-linejoin: miter; stroke-linecap: square"/>
   </g>
   <g id="patch_19">
    <path d="M 183.823071 226.732335 
L 292.996984 226.732335 
" style="fill: none; stroke: #000000; stroke-width: 0.8; stroke-linejoin: miter; stroke-linecap: square"/>
   </g>
  </g>
  <g id="axes_7">
   <g id="patch_20">
    <path d="M 314.831766 226.732335 
L 424.005679 226.732335 
L 424.005679 128.89704 
L 314.831766 128.89704 
z
" style="fill: #ffffff"/>
   </g>
   <g id="PolyCollection_7"/>
   <g id="matplotlib.axis_13">
    <g id="xtick_20">
     <g id="line2d_58">
      <g>
       <use xlink:href="#md89a053c32" x="319.794217" y="226.732335" style="stroke: #000000; stroke-width: 0.8"/>
      </g>
     </g>
    </g>
    <g id="xtick_21">
     <g id="line2d_59">
      <g>
       <use xlink:href="#md89a053c32" x="341.849553" y="226.732335" style="stroke: #000000; stroke-width: 0.8"/>
      </g>
     </g>
    </g>
    <g id="xtick_22">
     <g id="line2d_60">
      <g>
       <use xlink:href="#md89a053c32" x="363.904889" y="226.732335" style="stroke: #000000; stroke-width: 0.8"/>
      </g>
     </g>
    </g>
    <g id="xtick_23">
     <g id="line2d_61">
      <g>
       <use xlink:href="#md89a053c32" x="385.960225" y="226.732335" style="stroke: #000000; stroke-width: 0.8"/>
      </g>
     </g>
    </g>
    <g id="xtick_24">
     <g id="line2d_62">
      <g>
       <use xlink:href="#md89a053c32" x="408.015561" y="226.732335" style="stroke: #000000; stroke-width: 0.8"/>
      </g>
     </g>
    </g>
   </g>
   <g id="matplotlib.axis_14">
    <g id="ytick_27">
     <g id="line2d_63">
      <g>
       <use xlink:href="#mccfdbfc142" x="314.831766" y="226.732335" style="stroke: #000000; stroke-width: 0.8"/>
      </g>
     </g>
    </g>
    <g id="ytick_28">
     <g id="line2d_64">
      <g>
       <use xlink:href="#mccfdbfc142" x="314.831766" y="178.529192" style="stroke: #000000; stroke-width: 0.8"/>
      </g>
     </g>
    </g>
    <g id="ytick_29">
     <g id="line2d_65">
      <g>
       <use xlink:href="#mccfdbfc142" x="314.831766" y="130.326049" style="stroke: #000000; stroke-width: 0.8"/>
      </g>
     </g>
    </g>
   </g>
   <g id="line2d_66">
    <path d="M 319.794217 157.011518 
L 320.796732 157.390048 
L 321.799247 157.769715 
L 322.801763 158.15053 
L 323.804278 158.532503 
L 324.806793 158.915644 
L 325.809309 159.299965 
L 326.811824 159.685476 
L 327.814339 160.072189 
L 328.816854 160.460114 
L 329.81937 160.849263 
L 330.821885 161.239649 
L 331.8244 161.631282 
L 332.826915 162.024175 
L 333.829431 162.41834 
L 334.831946 162.813789 
L 335.834461 163.210536 
L 336.836977 163.608592 
L 337.839492 164.007971 
L 338.842007 164.408687 
L 339.844522 164.810752 
L 340.847038 165.214182 
L 341.849553 165.618988 
L 342.852068 166.025186 
L 343.854583 166.432791 
L 344.857099 166.841816 
L 345.859614 167.252278 
L 346.862129 167.66419 
L 347.864644 168.077569 
L 348.86716 168.492431 
L 349.869675 168.908791 
L 350.87219 169.326666 
L 351.874706 169.746073 
L 352.877221 170.167028 
L 353.879736 170.589549 
L 354.882251 171.013653 
L 355.884767 171.439359 
L 356.887282 171.866685 
L 357.889797 172.295648 
L 358.892312 172.72627 
L 359.894828 173.158567 
L 360.897343 173.592561 
L 361.899858 174.028272 
L 362.902374 174.46572 
L 363.904889 174.904926 
L 364.907404 175.345911 
L 365.909919 175.788697 
L 366.912435 176.233307 
L 367.91495 176.679762 
L 368.917465 177.128087 
L 369.91998 177.578304 
L 370.922496 178.030439 
L 371.925011 178.484515 
L 372.927526 178.940557 
L 373.930042 179.398592 
L 374.932557 179.858646 
L 375.935072 180.320745 
L 376.937587 180.784917 
L 377.940103 181.251189 
L 378.942618 181.719592 
L 379.945133 182.190152 
L 380.947648 182.662902 
L 381.950164 183.13787 
L 382.952679 183.615089 
L 383.955194 184.094591 
L 384.95771 184.576407 
L 385.960225 185.060573 
L 386.96274 185.547121 
L 387.965255 186.036087 
L 388.967771 186.527508 
L 389.970286 187.021418 
L 390.972801 187.517858 
L 391.975316 188.016864 
L 392.977832 188.518477 
L 393.980347 189.022736 
L 394.982862 189.529683 
L 395.985378 190.039362 
L 396.987893 190.551814 
L 397.990408 191.067085 
L 398.992923 191.585221 
L 399.995439 192.106268 
L 400.997954 192.630273 
L 402.000469 193.157288 
L 403.002984 193.68736 
L 404.0055 194.220544 
L 405.008015 194.75689 
L 406.01053 195.296454 
L 407.013045 195.839291 
L 408.015561 196.385458 
L 409.018076 196.935013 
L 410.020591 197.488017 
L 411.023107 198.044529 
L 412.025622 198.604614 
L 413.028137 199.168333 
L 414.030652 199.735755 
L 415.033168 200.306944 
L 416.035683 200.881969 
L 417.038198 201.4609 
L 418.040713 202.043807 
L 419.043229 202.630763 
" clip-path="url(#pc4292bdee1)" style="fill: none; stroke: #66b266; stroke-width: 2; stroke-linecap: square"/>
   </g>
   <g id="line2d_67">
    <path d="M 314.831766 202.630763 
L 424.005679 202.630763 
" clip-path="url(#pc4292bdee1)" style="fill: none; stroke-dasharray: 3.7,1.6; stroke-dashoffset: 0; stroke: #808080"/>
   </g>
   <g id="patch_21">
    <path d="M 314.831766 226.732335 
L 314.831766 128.89704 
" style="fill: none; stroke: #000000; stroke-width: 0.8; stroke-linejoin: miter; stroke-linecap: square"/>
   </g>
   <g id="patch_22">
    <path d="M 314.831766 226.732335 
L 424.005679 226.732335 
" style="fill: none; stroke: #000000; stroke-width: 0.8; stroke-linejoin: miter; stroke-linecap: square"/>
   </g>
  </g>
  <g id="axes_8">
   <g id="patch_23">
    <path d="M 445.840462 226.732335 
L 555.014375 226.732335 
L 555.014375 128.89704 
L 445.840462 128.89704 
z
" style="fill: #ffffff"/>
   </g>
   <g id="PolyCollection_8"/>
   <g id="matplotlib.axis_15">
    <g id="xtick_25">
     <g id="line2d_68">
      <g>
       <use xlink:href="#md89a053c32" x="483.885917" y="226.732335" style="stroke: #000000; stroke-width: 0.8"/>
      </g>
     </g>
    </g>
    <g id="xtick_26">
     <g id="line2d_69">
      <g>
       <use xlink:href="#md89a053c32" x="550.051924" y="226.732335" style="stroke: #000000; stroke-width: 0.8"/>
      </g>
     </g>
    </g>
   </g>
   <g id="matplotlib.axis_16">
    <g id="ytick_30">
     <g id="line2d_70">
      <g>
       <use xlink:href="#mccfdbfc142" x="445.840462" y="226.732335" style="stroke: #000000; stroke-width: 0.8"/>
      </g>
     </g>
    </g>
    <g id="ytick_31">
     <g id="line2d_71">
      <g>
       <use xlink:href="#mccfdbfc142" x="445.840462" y="178.529192" style="stroke: #000000; stroke-width: 0.8"/>
      </g>
     </g>
    </g>
    <g id="ytick_32">
     <g id="line2d_72">
      <g>
       <use xlink:href="#mccfdbfc142" x="445.840462" y="130.326049" style="stroke: #000000; stroke-width: 0.8"/>
      </g>
     </g>
    </g>
   </g>
   <g id="line2d_73">
    <path d="M 450.802913 157.011518 
L 451.805428 158.303584 
L 452.807943 159.544521 
L 453.810458 160.737603 
L 454.812974 161.885816 
L 455.815489 162.99189 
L 456.818004 164.058326 
L 457.820519 165.087423 
L 458.823035 166.081293 
L 459.82555 167.041888 
L 460.828065 167.971008 
L 461.830581 168.87032 
L 462.833096 169.74137 
L 463.835611 170.585592 
L 464.838126 171.404322 
L 465.840642 172.198802 
L 466.843157 172.970192 
L 467.845672 173.719575 
L 468.848187 174.447964 
L 469.850703 175.156308 
L 470.853218 175.845497 
L 471.855733 176.516366 
L 472.858249 177.169699 
L 473.860764 177.806235 
L 474.863279 178.42667 
L 475.865794 179.031659 
L 476.86831 179.621821 
L 477.870825 180.197741 
L 478.87334 180.759972 
L 479.875855 181.309037 
L 480.878371 181.845431 
L 481.880886 182.369624 
L 482.883401 182.882062 
L 483.885917 183.383169 
L 484.888432 183.873345 
L 485.890947 184.352974 
L 486.893462 184.82242 
L 487.895978 185.282028 
L 488.898493 185.73213 
L 489.901008 186.173041 
L 490.903523 186.60506 
L 491.906039 187.028474 
L 492.908554 187.443559 
L 493.911069 187.850575 
L 494.913584 188.249774 
L 495.9161 188.641396 
L 496.918615 189.025669 
L 497.92113 189.402814 
L 498.923646 189.773042 
L 499.926161 190.136556 
L 500.928676 190.493549 
L 501.931191 190.844208 
L 502.933707 191.188712 
L 503.936222 191.527232 
L 504.938737 191.859934 
L 505.941252 192.186978 
L 506.943768 192.508515 
L 507.946283 192.824694 
L 508.948798 193.135657 
L 509.951314 193.441539 
L 510.953829 193.742472 
L 511.956344 194.038584 
L 512.958859 194.329997 
L 513.961375 194.616829 
L 514.96389 194.899194 
L 515.966405 195.177202 
L 516.96892 195.45096 
L 517.971436 195.72057 
L 518.973951 195.986131 
L 519.976466 196.247741 
L 520.978982 196.50549 
L 521.981497 196.759471 
L 522.984012 197.009768 
L 523.986527 197.256467 
L 524.989043 197.499649 
L 525.991558 197.739393 
L 526.994073 197.975776 
L 527.996588 198.208871 
L 528.999104 198.438751 
L 530.001619 198.665485 
L 531.004134 198.889141 
L 532.00665 199.109784 
L 533.009165 199.327479 
L 534.01168 199.542287 
L 535.014195 199.754267 
L 536.016711 199.963479 
L 537.019226 200.169979 
L 538.021741 200.373822 
L 539.024256 200.575061 
L 540.026772 200.773749 
L 541.029287 200.969936 
L 542.031802 201.163671 
L 543.034318 201.355001 
L 544.036833 201.543975 
L 545.039348 201.730636 
L 546.041863 201.915029 
L 547.044379 202.097197 
L 548.046894 202.277182 
L 549.049409 202.455024 
L 550.051924 202.630763 
" clip-path="url(#p05c0a023e1)" style="fill: none; stroke: #e8a87c; stroke-width: 2; stroke-linecap: square"/>
   </g>
   <g id="line2d_74">
    <path d="M 445.840462 202.630763 
L 555.014375 202.630763 
" clip-path="url(#p05c0a023e1)" style="fill: none; stroke-dasharray: 3.7,1.6; stroke-dashoffset: 0; stroke: #808080"/>
   </g>
   <g id="patch_24">
    <path d="M 445.840462 226.732335 
L 445.840462 128.89704 
" style="fill: none; stroke: #000000; stroke-width: 0.8; stroke-linejoin: miter; stroke-linecap: square"/>
   </g>
   <g id="patch_25">
    <path d="M 445.840462 226.732335 
L 555.014375 226.732335 
" style="fill: none; stroke: #000000; stroke-width: 0.8; stroke-linejoin: miter; stroke-linecap: square"/>
   </g>
  </g>
  <g id="axes_9">
   <g id="patch_26">
    <path d="M 52.814375 344.134687 
L 161.988288 344.134687 
L 161.988288 246.299393 
L 52.814375 246.299393 
z
" style="fill: #ffffff"/>
   </g>
   <g id="PolyCollection_9"/>
   <g id="matplotlib.axis_17">
    <g id="xtick_27">
     <g id="line2d_75">
      <g>
       <use xlink:href="#md89a053c32" x="57.776826" y="344.134687" style="stroke: #000000; stroke-width: 0.8"/>
      </g>
     </g>
     <g id="text_11">
      <!-- 0.0 -->
      <g transform="translate(49.436826 359.724063) scale(0.12 -0.12)">
       <use xlink:href="#ArialMT-30"/>
       <use xlink:href="#ArialMT-2e" x="55.615234"/>
       <use xlink:href="#ArialMT-30" x="83.398438"/>
      </g>
     </g>
    </g>
    <g id="xtick_28">
     <g id="line2d_76">
      <g>
       <use xlink:href="#md89a053c32" x="96.675125" y="344.134687" style="stroke: #000000; stroke-width: 0.8"/>
      </g>
     </g>
     <g id="text_12">
      <!-- 0.2 -->
      <g transform="translate(88.335125 359.724063) scale(0.12 -0.12)">
       <use xlink:href="#ArialMT-30"/>
       <use xlink:href="#ArialMT-2e" x="55.615234"/>
       <use xlink:href="#ArialMT-32" x="83.398438"/>
      </g>
     </g>
    </g>
    <g id="xtick_29">
     <g id="line2d_77">
      <g>
       <use xlink:href="#md89a053c32" x="135.573425" y="344.134687" style="stroke: #000000; stroke-width: 0.8"/>
      </g>
     </g>
     <g id="text_13">
      <!-- 0.4 -->
      <g transform="translate(127.233425 359.724063) scale(0.12 -0.12)">
       <defs>
        <path id="ArialMT-34" d="M 2069 0 
L 2069 1097 
L 81 1097 
L 81 1613 
L 2172 4581 
L 2631 4581 
L 2631 1613 
L 3250 1613 
L 3250 1097 
L 2631 1097 
L 2631 0 
L 2069 0 
z
M 2069 1613 
L 2069 3678 
L 634 1613 
L 2069 1613 
z
" transform="scale(0.015625)"/>
       </defs>
       <use xlink:href="#ArialMT-30"/>
       <use xlink:href="#ArialMT-2e" x="55.615234"/>
       <use xlink:href="#ArialMT-34" x="83.398438"/>
      </g>
     </g>
    </g>
    <g id="text_14">
     <!-- Insulin -->
     <g transform="translate(90.058519 374.698438) scale(0.12 -0.12)">
      <use xlink:href="#ArialMT-49"/>
      <use xlink:href="#ArialMT-6e" x="27.783203"/>
      <use xlink:href="#ArialMT-73" x="83.398438"/>
      <use xlink:href="#ArialMT-75" x="133.398438"/>
      <use xlink:href="#ArialMT-6c" x="189.013672"/>
      <use xlink:href="#ArialMT-69" x="211.230469"/>
      <use xlink:href="#ArialMT-6e" x="233.447266"/>
     </g>
     <!-- (U/kg/day) -->
     <g transform="translate(79.729144 387.566188) scale(0.12 -0.12)">
      <defs>
       <path id="ArialMT-6b" d="M 425 0 
L 425 4581 
L 988 4581 
L 988 1969 
L 2319 3319 
L 3047 3319 
L 1778 2088 
L 3175 0 
L 2481 0 
L 1384 1697 
L 988 1316 
L 988 0 
L 425 0 
z
" transform="scale(0.015625)"/>
       <path id="ArialMT-67" d="M 319 -275 
L 866 -356 
Q 900 -609 1056 -725 
Q 1266 -881 1628 -881 
Q 2019 -881 2231 -725 
Q 2444 -569 2519 -288 
Q 2563 -116 2559 434 
Q 2191 0 1641 0 
Q 956 0 581 494 
Q 206 988 206 1678 
Q 206 2153 378 2554 
Q 550 2956 876 3175 
Q 1203 3394 1644 3394 
Q 2231 3394 2613 2919 
L 2613 3319 
L 3131 3319 
L 3131 450 
Q 3131 -325 2973 -648 
Q 2816 -972 2473 -1159 
Q 2131 -1347 1631 -1347 
Q 1038 -1347 672 -1080 
Q 306 -813 319 -275 
z
M 784 1719 
Q 784 1066 1043 766 
Q 1303 466 1694 466 
Q 2081 466 2343 764 
Q 2606 1063 2606 1700 
Q 2606 2309 2336 2618 
Q 2066 2928 1684 2928 
Q 1309 2928 1046 2623 
Q 784 2319 784 1719 
z
" transform="scale(0.015625)"/>
       <path id="ArialMT-64" d="M 2575 0 
L 2575 419 
Q 2259 -75 1647 -75 
Q 1250 -75 917 144 
Q 584 363 401 755 
Q 219 1147 219 1656 
Q 219 2153 384 2558 
Q 550 2963 881 3178 
Q 1213 3394 1622 3394 
Q 1922 3394 2156 3267 
Q 2391 3141 2538 2938 
L 2538 4581 
L 3097 4581 
L 3097 0 
L 2575 0 
z
M 797 1656 
Q 797 1019 1065 703 
Q 1334 388 1700 388 
Q 2069 388 2326 689 
Q 2584 991 2584 1609 
Q 2584 2291 2321 2609 
Q 2059 2928 1675 2928 
Q 1300 2928 1048 2622 
Q 797 2316 797 1656 
z
" transform="scale(0.015625)"/>
       <path id="ArialMT-61" d="M 2588 409 
Q 2275 144 1986 34 
Q 1697 -75 1366 -75 
Q 819 -75 525 192 
Q 231 459 231 875 
Q 231 1119 342 1320 
Q 453 1522 633 1644 
Q 813 1766 1038 1828 
Q 1203 1872 1538 1913 
Q 2219 1994 2541 2106 
Q 2544 2222 2544 2253 
Q 2544 2597 2384 2738 
Q 2169 2928 1744 2928 
Q 1347 2928 1158 2789 
Q 969 2650 878 2297 
L 328 2372 
Q 403 2725 575 2942 
Q 747 3159 1072 3276 
Q 1397 3394 1825 3394 
Q 2250 3394 2515 3294 
Q 2781 3194 2906 3042 
Q 3031 2891 3081 2659 
Q 3109 2516 3109 2141 
L 3109 1391 
Q 3109 606 3145 398 
Q 3181 191 3288 0 
L 2700 0 
Q 2613 175 2588 409 
z
M 2541 1666 
Q 2234 1541 1622 1453 
Q 1275 1403 1131 1340 
Q 988 1278 909 1158 
Q 831 1038 831 891 
Q 831 666 1001 516 
Q 1172 366 1500 366 
Q 1825 366 2078 508 
Q 2331 650 2450 897 
Q 2541 1088 2541 1459 
L 2541 1666 
z
" transform="scale(0.015625)"/>
       <path id="ArialMT-79" d="M 397 -1278 
L 334 -750 
Q 519 -800 656 -800 
Q 844 -800 956 -737 
Q 1069 -675 1141 -563 
Q 1194 -478 1313 -144 
Q 1328 -97 1363 -6 
L 103 3319 
L 709 3319 
L 1400 1397 
Q 1534 1031 1641 628 
Q 1738 1016 1872 1384 
L 2581 3319 
L 3144 3319 
L 1881 -56 
Q 1678 -603 1566 -809 
Q 1416 -1088 1222 -1217 
Q 1028 -1347 759 -1347 
Q 597 -1347 397 -1278 
z
" transform="scale(0.015625)"/>
      </defs>
      <use xlink:href="#ArialMT-28"/>
      <use xlink:href="#ArialMT-55" x="33.300781"/>
      <use xlink:href="#ArialMT-2f" x="105.517578"/>
      <use xlink:href="#ArialMT-6b" x="133.300781"/>
      <use xlink:href="#ArialMT-67" x="183.300781"/>
      <use xlink:href="#ArialMT-2f" x="238.916016"/>
      <use xlink:href="#ArialMT-64" x="266.699219"/>
      <use xlink:href="#ArialMT-61" x="322.314453"/>
      <use xlink:href="#ArialMT-79" x="377.929688"/>
      <use xlink:href="#ArialMT-29" x="427.929688"/>
     </g>
    </g>
   </g>
   <g id="matplotlib.axis_18">
    <g id="ytick_33">
     <g id="line2d_78">
      <g>
       <use xlink:href="#mccfdbfc142" x="52.814375" y="344.134687" style="stroke: #000000; stroke-width: 0.8"/>
      </g>
     </g>
     <g id="text_15">
      <!-- 0 -->
      <g transform="translate(39.14125 348.429375) scale(0.12 -0.12)">
       <use xlink:href="#ArialMT-30"/>
      </g>
     </g>
    </g>
    <g id="ytick_34">
     <g id="line2d_79">
      <g>
       <use xlink:href="#mccfdbfc142" x="52.814375" y="309.642024" style="stroke: #000000; stroke-width: 0.8"/>
      </g>
     </g>
     <g id="text_16">
      <!-- 2 -->
      <g transform="translate(39.14125 313.936711) scale(0.12 -0.12)">
       <use xlink:href="#ArialMT-32"/>
      </g>
     </g>
    </g>
    <g id="ytick_35">
     <g id="line2d_80">
      <g>
       <use xlink:href="#mccfdbfc142" x="52.814375" y="275.14936" style="stroke: #000000; stroke-width: 0.8"/>
      </g>
     </g>
     <g id="text_17">
      <!-- 4 -->
      <g transform="translate(39.14125 279.444048) scale(0.12 -0.12)">
       <use xlink:href="#ArialMT-34"/>
      </g>
     </g>
    </g>
    <g id="text_18">
     <!-- HOMA-IR -->
     <g transform="translate(32.75625 321.214853) rotate(-90) scale(0.12 -0.12)">
      <defs>
       <path id="ArialMT-48" d="M 513 0 
L 513 4581 
L 1119 4581 
L 1119 2700 
L 3500 2700 
L 3500 4581 
L 4106 4581 
L 4106 0 
L 3500 0 
L 3500 2159 
L 1119 2159 
L 1119 0 
L 513 0 
z
" transform="scale(0.015625)"/>
       <path id="ArialMT-4f" d="M 309 2231 
Q 309 3372 921 4017 
Q 1534 4663 2503 4663 
Q 3138 4663 3647 4359 
Q 4156 4056 4423 3514 
Q 4691 2972 4691 2284 
Q 4691 1588 4409 1038 
Q 4128 488 3612 205 
Q 3097 -78 2500 -78 
Q 1853 -78 1343 234 
Q 834 547 571 1087 
Q 309 1628 309 2231 
z
M 934 2222 
Q 934 1394 1379 917 
Q 1825 441 2497 441 
Q 3181 441 3623 922 
Q 4066 1403 4066 2288 
Q 4066 2847 3877 3264 
Q 3688 3681 3323 3911 
Q 2959 4141 2506 4141 
Q 1863 4141 1398 3698 
Q 934 3256 934 2222 
z
" transform="scale(0.015625)"/>
       <path id="ArialMT-41" d="M -9 0 
L 1750 4581 
L 2403 4581 
L 4278 0 
L 3588 0 
L 3053 1388 
L 1138 1388 
L 634 0 
L -9 0 
z
M 1313 1881 
L 2866 1881 
L 2388 3150 
Q 2169 3728 2063 4100 
Q 1975 3659 1816 3225 
L 1313 1881 
z
" transform="scale(0.015625)"/>
       <path id="ArialMT-2d" d="M 203 1375 
L 203 1941 
L 1931 1941 
L 1931 1375 
L 203 1375 
z
" transform="scale(0.015625)"/>
       <path id="ArialMT-52" d="M 503 0 
L 503 4581 
L 2534 4581 
Q 3147 4581 3465 4457 
Q 3784 4334 3975 4021 
Q 4166 3709 4166 3331 
Q 4166 2844 3850 2509 
Q 3534 2175 2875 2084 
Q 3116 1969 3241 1856 
Q 3506 1613 3744 1247 
L 4541 0 
L 3778 0 
L 3172 953 
Q 2906 1366 2734 1584 
Q 2563 1803 2427 1890 
Q 2291 1978 2150 2013 
Q 2047 2034 1813 2034 
L 1109 2034 
L 1109 0 
L 503 0 
z
M 1109 2559 
L 2413 2559 
Q 2828 2559 3062 2645 
Q 3297 2731 3419 2920 
Q 3541 3109 3541 3331 
Q 3541 3656 3305 3865 
Q 3069 4075 2559 4075 
L 1109 4075 
L 1109 2559 
z
" transform="scale(0.015625)"/>
      </defs>
      <use xlink:href="#ArialMT-48"/>
      <use xlink:href="#ArialMT-4f" x="72.216797"/>
      <use xlink:href="#ArialMT-4d" x="150"/>
      <use xlink:href="#ArialMT-41" x="233.300781"/>
      <use xlink:href="#ArialMT-2d" x="300"/>
      <use xlink:href="#ArialMT-49" x="333.300781"/>
      <use xlink:href="#ArialMT-52" x="361.083984"/>
     </g>
    </g>
   </g>
   <g id="line2d_81">
    <path d="M 57.776826 250.003593 
L 58.779341 250.176264 
L 59.781856 250.349866 
L 60.784371 250.524415 
L 61.786887 250.699927 
L 62.789402 250.876419 
L 63.791917 251.053907 
L 64.794432 251.232408 
L 65.796948 251.411941 
L 66.799463 251.592522 
L 67.801978 251.77417 
L 68.804494 251.956903 
L 69.807009 252.14074 
L 70.809524 252.325702 
L 71.812039 252.511806 
L 72.814555 252.699073 
L 73.81707 252.887525 
L 74.819585 253.077181 
L 75.8221 253.268063 
L 76.824616 253.460192 
L 77.827131 253.653592 
L 78.829646 253.848284 
L 79.832162 254.044292 
L 80.834677 254.241639 
L 81.837192 254.44035 
L 82.839707 254.640448 
L 83.842223 254.84196 
L 84.844738 255.044911 
L 85.847253 255.249326 
L 86.849768 255.455233 
L 87.852284 255.662659 
L 88.854799 255.871631 
L 89.857314 256.082178 
L 90.85983 256.29433 
L 91.862345 256.508114 
L 92.86486 256.723563 
L 93.867375 256.940705 
L 94.869891 257.159574 
L 95.872406 257.3802 
L 96.874921 257.602616 
L 97.877436 257.826856 
L 98.879952 258.052953 
L 99.882467 258.280943 
L 100.884982 258.51086 
L 101.887498 258.74274 
L 102.890013 258.976619 
L 103.892528 259.212536 
L 104.895043 259.450528 
L 105.897559 259.690633 
L 106.900074 259.93289 
L 107.902589 260.177341 
L 108.905104 260.424024 
L 109.90762 260.672982 
L 110.910135 260.924256 
L 111.91265 261.177889 
L 112.915166 261.433924 
L 113.917681 261.692404 
L 114.920196 261.953374 
L 115.922711 262.216878 
L 116.925227 262.482962 
L 117.927742 262.751672 
L 118.930257 263.023053 
L 119.932772 263.297152 
L 120.935288 263.574017 
L 121.937803 263.853693 
L 122.940318 264.136229 
L 123.942833 264.421673 
L 124.945349 264.71007 
L 125.947864 265.00147 
L 126.950379 265.295919 
L 127.952895 265.593465 
L 128.95541 265.894154 
L 129.957925 266.198032 
L 130.96044 266.505145 
L 131.962956 266.815538 
L 132.965471 267.129255 
L 133.967986 267.446338 
L 134.970501 267.766829 
L 135.973017 268.090768 
L 136.975532 268.418193 
L 137.978047 268.74914 
L 138.980563 269.083644 
L 139.983078 269.421736 
L 140.985593 269.763444 
L 141.988108 270.108796 
L 142.990624 270.457814 
L 143.993139 270.810516 
L 144.995654 271.166918 
L 145.998169 271.527031 
L 147.000685 271.890861 
L 148.0032 272.258411 
L 149.005715 272.629676 
L 150.008231 273.004647 
L 151.010746 273.38331 
L 152.013261 273.765644 
L 153.015776 274.151621 
L 154.018292 274.541206 
L 155.020807 274.934358 
L 156.023322 275.33103 
L 157.025837 275.731164 
" clip-path="url(#p376081328c)" style="fill: none; stroke: #9370db; stroke-width: 2; stroke-linecap: square"/>
   </g>
   <g id="line2d_82">
    <path d="M 52.814375 321.139578 
L 161.988288 321.139578 
" clip-path="url(#p376081328c)" style="fill: none; stroke-dasharray: 3.7,1.6; stroke-dashoffset: 0; stroke: #808080"/>
   </g>
   <g id="patch_27">
    <path d="M 52.814375 344.134687 
L 52.814375 246.299393 
" style="fill: none; stroke: #000000; stroke-width: 0.8; stroke-linejoin: miter; stroke-linecap: square"/>
   </g>
   <g id="patch_28">
    <path d="M 52.814375 344.134687 
L 161.988288 344.134687 
" style="fill: none; stroke: #000000; stroke-width: 0.8; stroke-linejoin: miter; stroke-linecap: square"/>
   </g>
  </g>
  <g id="axes_10">
   <g id="patch_29">
    <path d="M 183.823071 344.134687 
L 292.996984 344.134687 
L 292.996984 246.299393 
L 183.823071 246.299393 
z
" style="fill: #ffffff"/>
   </g>
   <g id="PolyCollection_10"/>
   <g id="matplotlib.axis_19">
    <g id="xtick_30">
     <g id="line2d_83">
      <g>
       <use xlink:href="#md89a053c32" x="188.785521" y="344.134687" style="stroke: #000000; stroke-width: 0.8"/>
      </g>
     </g>
     <g id="text_19">
      <!-- 1 -->
      <g transform="translate(185.448959 359.724063) scale(0.12 -0.12)">
       <use xlink:href="#ArialMT-31"/>
      </g>
     </g>
    </g>
    <g id="xtick_31">
     <g id="line2d_84">
      <g>
       <use xlink:href="#md89a053c32" x="238.410027" y="344.134687" style="stroke: #000000; stroke-width: 0.8"/>
      </g>
     </g>
     <g id="text_20">
      <!-- 2 -->
      <g transform="translate(235.073465 359.724063) scale(0.12 -0.12)">
       <use xlink:href="#ArialMT-32"/>
      </g>
     </g>
    </g>
    <g id="xtick_32">
     <g id="line2d_85">
      <g>
       <use xlink:href="#md89a053c32" x="288.034533" y="344.134687" style="stroke: #000000; stroke-width: 0.8"/>
      </g>
     </g>
     <g id="text_21">
      <!-- 3 -->
      <g transform="translate(284.697971 359.724063) scale(0.12 -0.12)">
       <defs>
        <path id="ArialMT-33" d="M 269 1209 
L 831 1284 
Q 928 806 1161 595 
Q 1394 384 1728 384 
Q 2125 384 2398 659 
Q 2672 934 2672 1341 
Q 2672 1728 2419 1979 
Q 2166 2231 1775 2231 
Q 1616 2231 1378 2169 
L 1441 2663 
Q 1497 2656 1531 2656 
Q 1891 2656 2178 2843 
Q 2466 3031 2466 3422 
Q 2466 3731 2256 3934 
Q 2047 4138 1716 4138 
Q 1388 4138 1169 3931 
Q 950 3725 888 3313 
L 325 3413 
Q 428 3978 793 4289 
Q 1159 4600 1703 4600 
Q 2078 4600 2393 4439 
Q 2709 4278 2876 4000 
Q 3044 3722 3044 3409 
Q 3044 3113 2884 2869 
Q 2725 2625 2413 2481 
Q 2819 2388 3044 2092 
Q 3269 1797 3269 1353 
Q 3269 753 2831 336 
Q 2394 -81 1725 -81 
Q 1122 -81 723 278 
Q 325 638 269 1209 
z
" transform="scale(0.015625)"/>
       </defs>
       <use xlink:href="#ArialMT-33"/>
      </g>
     </g>
    </g>
    <g id="text_22">
     <!-- Energy demand -->
     <g transform="translate(196.05284 374.698438) scale(0.12 -0.12)">
      <defs>
       <path id="ArialMT-45" d="M 506 0 
L 506 4581 
L 3819 4581 
L 3819 4041 
L 1113 4041 
L 1113 2638 
L 3647 2638 
L 3647 2100 
L 1113 2100 
L 1113 541 
L 3925 541 
L 3925 0 
L 506 0 
z
" transform="scale(0.015625)"/>
       <path id="ArialMT-72" d="M 416 0 
L 416 3319 
L 922 3319 
L 922 2816 
Q 1116 3169 1280 3281 
Q 1444 3394 1641 3394 
Q 1925 3394 2219 3213 
L 2025 2691 
Q 1819 2813 1613 2813 
Q 1428 2813 1281 2702 
Q 1134 2591 1072 2394 
Q 978 2094 978 1738 
L 978 0 
L 416 0 
z
" transform="scale(0.015625)"/>
      </defs>
      <use xlink:href="#ArialMT-45"/>
      <use xlink:href="#ArialMT-6e" x="66.699219"/>
      <use xlink:href="#ArialMT-65" x="122.314453"/>
      <use xlink:href="#ArialMT-72" x="177.929688"/>
      <use xlink:href="#ArialMT-67" x="211.230469"/>
      <use xlink:href="#ArialMT-79" x="266.845703"/>
      <use xlink:href="#ArialMT-20" x="316.845703"/>
      <use xlink:href="#ArialMT-64" x="344.628906"/>
      <use xlink:href="#ArialMT-65" x="400.244141"/>
      <use xlink:href="#ArialMT-6d" x="455.859375"/>
      <use xlink:href="#ArialMT-61" x="539.160156"/>
      <use xlink:href="#ArialMT-6e" x="594.775391"/>
      <use xlink:href="#ArialMT-64" x="650.390625"/>
     </g>
     <!-- (relative) -->
     <g transform="translate(215.073777 387.706813) scale(0.12 -0.12)">
      <defs>
       <path id="ArialMT-74" d="M 1650 503 
L 1731 6 
Q 1494 -44 1306 -44 
Q 1000 -44 831 53 
Q 663 150 594 308 
Q 525 466 525 972 
L 525 2881 
L 113 2881 
L 113 3319 
L 525 3319 
L 525 4141 
L 1084 4478 
L 1084 3319 
L 1650 3319 
L 1650 2881 
L 1084 2881 
L 1084 941 
Q 1084 700 1114 631 
Q 1144 563 1211 522 
Q 1278 481 1403 481 
Q 1497 481 1650 503 
z
" transform="scale(0.015625)"/>
       <path id="ArialMT-76" d="M 1344 0 
L 81 3319 
L 675 3319 
L 1388 1331 
Q 1503 1009 1600 663 
Q 1675 925 1809 1294 
L 2547 3319 
L 3125 3319 
L 1869 0 
L 1344 0 
z
" transform="scale(0.015625)"/>
      </defs>
      <use xlink:href="#ArialMT-28"/>
      <use xlink:href="#ArialMT-72" x="33.300781"/>
      <use xlink:href="#ArialMT-65" x="66.601562"/>
      <use xlink:href="#ArialMT-6c" x="122.216797"/>
      <use xlink:href="#ArialMT-61" x="144.433594"/>
      <use xlink:href="#ArialMT-74" x="200.048828"/>
      <use xlink:href="#ArialMT-69" x="227.832031"/>
      <use xlink:href="#ArialMT-76" x="250.048828"/>
      <use xlink:href="#ArialMT-65" x="300.048828"/>
      <use xlink:href="#ArialMT-29" x="355.664062"/>
     </g>
    </g>
   </g>
   <g id="matplotlib.axis_20">
    <g id="ytick_36">
     <g id="line2d_86">
      <g>
       <use xlink:href="#mccfdbfc142" x="183.823071" y="344.134687" style="stroke: #000000; stroke-width: 0.8"/>
      </g>
     </g>
    </g>
    <g id="ytick_37">
     <g id="line2d_87">
      <g>
       <use xlink:href="#mccfdbfc142" x="183.823071" y="309.642024" style="stroke: #000000; stroke-width: 0.8"/>
      </g>
     </g>
    </g>
    <g id="ytick_38">
     <g id="line2d_88">
      <g>
       <use xlink:href="#mccfdbfc142" x="183.823071" y="275.14936" style="stroke: #000000; stroke-width: 0.8"/>
      </g>
     </g>
    </g>
   </g>
   <g id="line2d_89">
    <path d="M 188.785521 250.003593 
L 189.788037 252.416973 
L 190.790552 254.724472 
L 191.793067 256.93285 
L 192.795582 259.048305 
L 193.798098 261.076534 
L 194.800613 263.022776 
L 195.803128 264.89186 
L 196.805643 266.688247 
L 197.808159 268.416059 
L 198.810674 270.079115 
L 199.813189 271.680954 
L 200.815705 273.224866 
L 201.81822 274.713908 
L 202.820735 276.150925 
L 203.82325 277.538572 
L 204.825766 278.879326 
L 205.828281 280.1755 
L 206.830796 281.42926 
L 207.833311 282.642633 
L 208.835827 283.817518 
L 209.838342 284.955701 
L 210.840857 286.058855 
L 211.843372 287.128556 
L 212.845888 288.166286 
L 213.848403 289.173441 
L 214.850918 290.151339 
L 215.853434 291.101219 
L 216.855949 292.024256 
L 217.858464 292.921559 
L 218.860979 293.794174 
L 219.863495 294.643096 
L 220.86601 295.469263 
L 221.868525 296.273567 
L 222.87104 297.056853 
L 223.873556 297.819924 
L 224.876071 298.563541 
L 225.878586 299.28843 
L 226.881102 299.995278 
L 227.883617 300.684742 
L 228.886132 301.357447 
L 229.888647 302.013986 
L 230.891163 302.654927 
L 231.893678 303.280811 
L 232.896193 303.892155 
L 233.898708 304.489451 
L 234.901224 305.07317 
L 235.903739 305.643763 
L 236.906254 306.20166 
L 237.90877 306.747273 
L 238.911285 307.280997 
L 239.9138 307.80321 
L 240.916315 308.314273 
L 241.918831 308.814533 
L 242.921346 309.304324 
L 243.923861 309.783964 
L 244.926376 310.253759 
L 245.928892 310.714005 
L 246.931407 311.164984 
L 247.933922 311.606967 
L 248.936438 312.040216 
L 249.938953 312.464981 
L 250.941468 312.881506 
L 251.943983 313.290021 
L 252.946499 313.690751 
L 253.949014 314.083911 
L 254.951529 314.46971 
L 255.954044 314.848348 
L 256.95656 315.220018 
L 257.959075 315.584906 
L 258.96159 315.943191 
L 259.964106 316.295047 
L 260.966621 316.640642 
L 261.969136 316.980137 
L 262.971651 317.313689 
L 263.974167 317.641447 
L 264.976682 317.963558 
L 265.979197 318.280163 
L 266.981712 318.591398 
L 267.984228 318.897395 
L 268.986743 319.198281 
L 269.989258 319.494181 
L 270.991773 319.785213 
L 271.994289 320.071493 
L 272.996804 320.353134 
L 273.999319 320.630244 
L 275.001835 320.902928 
L 276.00435 321.171288 
L 277.006865 321.435424 
L 278.00938 321.69543 
L 279.011896 321.951401 
L 280.014411 322.203427 
L 281.016926 322.451594 
L 282.019441 322.695989 
L 283.021957 322.936693 
L 284.024472 323.173787 
L 285.026987 323.407349 
L 286.029503 323.637454 
L 287.032018 323.864176 
L 288.034533 324.087586 
" clip-path="url(#p898a9fff03)" style="fill: none; stroke: #6495ed; stroke-width: 2; stroke-linecap: square"/>
   </g>
   <g id="line2d_90">
    <path d="M 183.823071 321.139578 
L 292.996984 321.139578 
" clip-path="url(#p898a9fff03)" style="fill: none; stroke-dasharray: 3.7,1.6; stroke-dashoffset: 0; stroke: #808080"/>
   </g>
   <g id="patch_30">
    <path d="M 183.823071 344.134687 
L 183.823071 246.299393 
" style="fill: none; stroke: #000000; stroke-width: 0.8; stroke-linejoin: miter; stroke-linecap: square"/>
   </g>
   <g id="patch_31">
    <path d="M 183.823071 344.134687 
L 292.996984 344.134687 
" style="fill: none; stroke: #000000; stroke-width: 0.8; stroke-linejoin: miter; stroke-linecap: square"/>
   </g>
  </g>
  <g id="axes_11">
   <g id="patch_32">
    <path d="M 314.831766 344.134687 
L 424.005679 344.134687 
L 424.005679 246.299393 
L 314.831766 246.299393 
z
" style="fill: #ffffff"/>
   </g>
   <g id="PolyCollection_11"/>
   <g id="matplotlib.axis_21">
    <g id="xtick_33">
     <g id="line2d_91">
      <g>
       <use xlink:href="#md89a053c32" x="319.794217" y="344.134687" style="stroke: #000000; stroke-width: 0.8"/>
      </g>
     </g>
     <g id="text_23">
      <!-- 0 -->
      <g transform="translate(316.457654 359.724063) scale(0.12 -0.12)">
       <use xlink:href="#ArialMT-30"/>
      </g>
     </g>
    </g>
    <g id="xtick_34">
     <g id="line2d_92">
      <g>
       <use xlink:href="#md89a053c32" x="341.849553" y="344.134687" style="stroke: #000000; stroke-width: 0.8"/>
      </g>
     </g>
     <g id="text_24">
      <!-- 6 -->
      <g transform="translate(338.51299 359.724063) scale(0.12 -0.12)">
       <defs>
        <path id="ArialMT-36" d="M 3184 3459 
L 2625 3416 
Q 2550 3747 2413 3897 
Q 2184 4138 1850 4138 
Q 1581 4138 1378 3988 
Q 1113 3794 959 3422 
Q 806 3050 800 2363 
Q 1003 2672 1297 2822 
Q 1591 2972 1913 2972 
Q 2475 2972 2870 2558 
Q 3266 2144 3266 1488 
Q 3266 1056 3080 686 
Q 2894 316 2569 119 
Q 2244 -78 1831 -78 
Q 1128 -78 684 439 
Q 241 956 241 2144 
Q 241 3472 731 4075 
Q 1159 4600 1884 4600 
Q 2425 4600 2770 4297 
Q 3116 3994 3184 3459 
z
M 888 1484 
Q 888 1194 1011 928 
Q 1134 663 1356 523 
Q 1578 384 1822 384 
Q 2178 384 2434 671 
Q 2691 959 2691 1453 
Q 2691 1928 2437 2201 
Q 2184 2475 1800 2475 
Q 1419 2475 1153 2201 
Q 888 1928 888 1484 
z
" transform="scale(0.015625)"/>
       </defs>
       <use xlink:href="#ArialMT-36"/>
      </g>
     </g>
    </g>
    <g id="xtick_35">
     <g id="line2d_93">
      <g>
       <use xlink:href="#md89a053c32" x="363.904889" y="344.134687" style="stroke: #000000; stroke-width: 0.8"/>
      </g>
     </g>
     <g id="text_25">
      <!-- 12 -->
      <g transform="translate(357.231764 359.724063) scale(0.12 -0.12)">
       <use xlink:href="#ArialMT-31"/>
       <use xlink:href="#ArialMT-32" x="55.615234"/>
      </g>
     </g>
    </g>
    <g id="xtick_36">
     <g id="line2d_94">
      <g>
       <use xlink:href="#md89a053c32" x="385.960225" y="344.134687" style="stroke: #000000; stroke-width: 0.8"/>
      </g>
     </g>
     <g id="text_26">
      <!-- 18 -->
      <g transform="translate(379.2871 359.724063) scale(0.12 -0.12)">
       <defs>
        <path id="ArialMT-38" d="M 1131 2484 
Q 781 2613 612 2850 
Q 444 3088 444 3419 
Q 444 3919 803 4259 
Q 1163 4600 1759 4600 
Q 2359 4600 2725 4251 
Q 3091 3903 3091 3403 
Q 3091 3084 2923 2848 
Q 2756 2613 2416 2484 
Q 2838 2347 3058 2040 
Q 3278 1734 3278 1309 
Q 3278 722 2862 322 
Q 2447 -78 1769 -78 
Q 1091 -78 675 323 
Q 259 725 259 1325 
Q 259 1772 486 2073 
Q 713 2375 1131 2484 
z
M 1019 3438 
Q 1019 3113 1228 2906 
Q 1438 2700 1772 2700 
Q 2097 2700 2305 2904 
Q 2513 3109 2513 3406 
Q 2513 3716 2298 3927 
Q 2084 4138 1766 4138 
Q 1444 4138 1231 3931 
Q 1019 3725 1019 3438 
z
M 838 1322 
Q 838 1081 952 856 
Q 1066 631 1291 507 
Q 1516 384 1775 384 
Q 2178 384 2440 643 
Q 2703 903 2703 1303 
Q 2703 1709 2433 1975 
Q 2163 2241 1756 2241 
Q 1359 2241 1098 1978 
Q 838 1716 838 1322 
z
" transform="scale(0.015625)"/>
       </defs>
       <use xlink:href="#ArialMT-31"/>
       <use xlink:href="#ArialMT-38" x="55.615234"/>
      </g>
     </g>
    </g>
    <g id="xtick_37">
     <g id="line2d_95">
      <g>
       <use xlink:href="#md89a053c32" x="408.015561" y="344.134687" style="stroke: #000000; stroke-width: 0.8"/>
      </g>
     </g>
     <g id="text_27">
      <!-- 24 -->
      <g transform="translate(401.342436 359.724063) scale(0.12 -0.12)">
       <use xlink:href="#ArialMT-32"/>
       <use xlink:href="#ArialMT-34" x="55.615234"/>
      </g>
     </g>
    </g>
    <g id="text_28">
     <!-- Weight loss -->
     <g transform="translate(338.514035 374.698438) scale(0.12 -0.12)">
      <defs>
       <path id="ArialMT-57" d="M 1294 0 
L 78 4581 
L 700 4581 
L 1397 1578 
Q 1509 1106 1591 641 
Q 1766 1375 1797 1488 
L 2669 4581 
L 3400 4581 
L 4056 2263 
Q 4303 1400 4413 641 
Q 4500 1075 4641 1638 
L 5359 4581 
L 5969 4581 
L 4713 0 
L 4128 0 
L 3163 3491 
Q 3041 3928 3019 4028 
Q 2947 3713 2884 3491 
L 1913 0 
L 1294 0 
z
" transform="scale(0.015625)"/>
       <path id="ArialMT-68" d="M 422 0 
L 422 4581 
L 984 4581 
L 984 2938 
Q 1378 3394 1978 3394 
Q 2347 3394 2619 3248 
Q 2891 3103 3008 2847 
Q 3125 2591 3125 2103 
L 3125 0 
L 2563 0 
L 2563 2103 
Q 2563 2525 2380 2717 
Q 2197 2909 1863 2909 
Q 1613 2909 1392 2779 
Q 1172 2650 1078 2428 
Q 984 2206 984 1816 
L 984 0 
L 422 0 
z
" transform="scale(0.015625)"/>
      </defs>
      <use xlink:href="#ArialMT-57"/>
      <use xlink:href="#ArialMT-65" x="92.634766"/>
      <use xlink:href="#ArialMT-69" x="148.25"/>
      <use xlink:href="#ArialMT-67" x="170.466797"/>
      <use xlink:href="#ArialMT-68" x="226.082031"/>
      <use xlink:href="#ArialMT-74" x="281.697266"/>
      <use xlink:href="#ArialMT-20" x="309.480469"/>
      <use xlink:href="#ArialMT-6c" x="337.263672"/>
      <use xlink:href="#ArialMT-6f" x="359.480469"/>
      <use xlink:href="#ArialMT-73" x="415.095703"/>
      <use xlink:href="#ArialMT-73" x="465.095703"/>
     </g>
     <!-- (kg fat) -->
     <g transform="translate(350.749348 387.706813) scale(0.12 -0.12)">
      <defs>
       <path id="ArialMT-66" d="M 556 0 
L 556 2881 
L 59 2881 
L 59 3319 
L 556 3319 
L 556 3672 
Q 556 4006 616 4169 
Q 697 4388 901 4523 
Q 1106 4659 1475 4659 
Q 1713 4659 2000 4603 
L 1916 4113 
Q 1741 4144 1584 4144 
Q 1328 4144 1222 4034 
Q 1116 3925 1116 3625 
L 1116 3319 
L 1763 3319 
L 1763 2881 
L 1116 2881 
L 1116 0 
L 556 0 
z
" transform="scale(0.015625)"/>
      </defs>
      <use xlink:href="#ArialMT-28"/>
      <use xlink:href="#ArialMT-6b" x="33.300781"/>
      <use xlink:href="#ArialMT-67" x="83.300781"/>
      <use xlink:href="#ArialMT-20" x="138.916016"/>
      <use xlink:href="#ArialMT-66" x="166.699219"/>
      <use xlink:href="#ArialMT-61" x="194.482422"/>
      <use xlink:href="#ArialMT-74" x="250.097656"/>
      <use xlink:href="#ArialMT-29" x="277.880859"/>
     </g>
    </g>
   </g>
   <g id="matplotlib.axis_22">
    <g id="ytick_39">
     <g id="line2d_96">
      <g>
       <use xlink:href="#mccfdbfc142" x="314.831766" y="344.134687" style="stroke: #000000; stroke-width: 0.8"/>
      </g>
     </g>
    </g>
    <g id="ytick_40">
     <g id="line2d_97">
      <g>
       <use xlink:href="#mccfdbfc142" x="314.831766" y="309.642024" style="stroke: #000000; stroke-width: 0.8"/>
      </g>
     </g>
    </g>
    <g id="ytick_41">
     <g id="line2d_98">
      <g>
       <use xlink:href="#mccfdbfc142" x="314.831766" y="275.14936" style="stroke: #000000; stroke-width: 0.8"/>
      </g>
     </g>
    </g>
   </g>
   <g id="line2d_99">
    <path d="M 319.794217 250.003593 
L 320.796732 250.693038 
L 321.799247 251.383046 
L 322.801763 252.073618 
L 323.804278 252.764759 
L 324.806793 253.456471 
L 325.809309 254.148756 
L 326.811824 254.841617 
L 327.814339 255.535058 
L 328.816854 256.229081 
L 329.81937 256.923689 
L 330.821885 257.618884 
L 331.8244 258.314669 
L 332.826915 259.011048 
L 333.829431 259.708023 
L 334.831946 260.405596 
L 335.834461 261.10377 
L 336.836977 261.802548 
L 337.839492 262.501933 
L 338.842007 263.201927 
L 339.844522 263.902533 
L 340.847038 264.603754 
L 341.849553 265.305591 
L 342.852068 266.008048 
L 343.854583 266.711126 
L 344.857099 267.414829 
L 345.859614 268.119159 
L 346.862129 268.824118 
L 347.864644 269.529708 
L 348.86716 270.235931 
L 349.869675 270.94279 
L 350.87219 271.650287 
L 351.874706 272.358424 
L 352.877221 273.067203 
L 353.879736 273.776625 
L 354.882251 274.486693 
L 355.884767 275.197407 
L 356.887282 275.908771 
L 357.889797 276.620784 
L 358.892312 277.333449 
L 359.894828 278.046767 
L 360.897343 278.760739 
L 361.899858 279.475366 
L 362.902374 280.190648 
L 363.904889 280.906588 
L 364.907404 281.623184 
L 365.909919 282.340437 
L 366.912435 283.058348 
L 367.91495 283.776916 
L 368.917465 284.496142 
L 369.91998 285.216025 
L 370.922496 285.936563 
L 371.925011 286.657757 
L 372.927526 287.379604 
L 373.930042 288.102104 
L 374.932557 288.825255 
L 375.935072 289.549053 
L 376.937587 290.273498 
L 377.940103 290.998585 
L 378.942618 291.724313 
L 379.945133 292.450676 
L 380.947648 293.17767 
L 381.950164 293.905292 
L 382.952679 294.633536 
L 383.955194 295.362396 
L 384.95771 296.091866 
L 385.960225 296.821939 
L 386.96274 297.552607 
L 387.965255 298.283862 
L 388.967771 299.015696 
L 389.970286 299.748097 
L 390.972801 300.481055 
L 391.975316 301.214559 
L 392.977832 301.948596 
L 393.980347 302.683152 
L 394.982862 303.418211 
L 395.985378 304.153759 
L 396.987893 304.889777 
L 397.990408 305.626246 
L 398.992923 306.363145 
L 399.995439 307.100454 
L 400.997954 307.838147 
L 402.000469 308.576198 
L 403.002984 309.314581 
L 404.0055 310.053264 
L 405.008015 310.792215 
L 406.01053 311.531399 
L 407.013045 312.270778 
L 408.015561 313.010311 
L 409.018076 313.749953 
L 410.020591 314.489656 
L 411.023107 315.229369 
L 412.025622 315.969034 
L 413.028137 316.708593 
L 414.030652 317.447978 
L 415.033168 318.187118 
L 416.035683 318.925936 
L 417.038198 319.664347 
L 418.040713 320.402261 
L 419.043229 321.139578 
" clip-path="url(#p84e8170732)" style="fill: none; stroke: #66b266; stroke-width: 2; stroke-linecap: square"/>
   </g>
   <g id="line2d_100">
    <path d="M 314.831766 321.139578 
L 424.005679 321.139578 
" clip-path="url(#p84e8170732)" style="fill: none; stroke-dasharray: 3.7,1.6; stroke-dashoffset: 0; stroke: #808080"/>
   </g>
   <g id="patch_33">
    <path d="M 314.831766 344.134687 
L 314.831766 246.299393 
" style="fill: none; stroke: #000000; stroke-width: 0.8; stroke-linejoin: miter; stroke-linecap: square"/>
   </g>
   <g id="patch_34">
    <path d="M 314.831766 344.134687 
L 424.005679 344.134687 
" style="fill: none; stroke: #000000; stroke-width: 0.8; stroke-linejoin: miter; stroke-linecap: square"/>
   </g>
  </g>
  <g id="axes_12">
   <g id="patch_35">
    <path d="M 445.840462 344.134687 
L 555.014375 344.134687 
L 555.014375 246.299393 
L 445.840462 246.299393 
z
" style="fill: #ffffff"/>
   </g>
   <g id="PolyCollection_12"/>
   <g id="matplotlib.axis_23">
    <g id="xtick_38">
     <g id="line2d_101">
      <g>
       <use xlink:href="#md89a053c32" x="483.885917" y="344.134687" style="stroke: #000000; stroke-width: 0.8"/>
      </g>
     </g>
     <g id="text_29">
      <!-- 2 -->
      <g transform="translate(480.549354 359.724063) scale(0.12 -0.12)">
       <use xlink:href="#ArialMT-32"/>
      </g>
     </g>
    </g>
    <g id="xtick_39">
     <g id="line2d_102">
      <g>
       <use xlink:href="#md89a053c32" x="550.051924" y="344.134687" style="stroke: #000000; stroke-width: 0.8"/>
      </g>
     </g>
     <g id="text_30">
      <!-- 4 -->
      <g transform="translate(546.715362 359.724063) scale(0.12 -0.12)">
       <use xlink:href="#ArialMT-34"/>
      </g>
     </g>
    </g>
    <g id="text_31">
     <!-- Reesterification -->
     <g transform="translate(459.077106 374.698438) scale(0.12 -0.12)">
      <use xlink:href="#ArialMT-52"/>
      <use xlink:href="#ArialMT-65" x="72.216797"/>
      <use xlink:href="#ArialMT-65" x="127.832031"/>
      <use xlink:href="#ArialMT-73" x="183.447266"/>
      <use xlink:href="#ArialMT-74" x="233.447266"/>
      <use xlink:href="#ArialMT-65" x="261.230469"/>
      <use xlink:href="#ArialMT-72" x="316.845703"/>
      <use xlink:href="#ArialMT-69" x="350.146484"/>
      <use xlink:href="#ArialMT-66" x="372.363281"/>
      <use xlink:href="#ArialMT-69" x="400.146484"/>
      <use xlink:href="#ArialMT-63" x="422.363281"/>
      <use xlink:href="#ArialMT-61" x="472.363281"/>
      <use xlink:href="#ArialMT-74" x="527.978516"/>
      <use xlink:href="#ArialMT-69" x="555.761719"/>
      <use xlink:href="#ArialMT-6f" x="577.978516"/>
      <use xlink:href="#ArialMT-6e" x="633.59375"/>
     </g>
     <!-- (relative) -->
     <g transform="translate(477.091168 387.566188) scale(0.12 -0.12)">
      <use xlink:href="#ArialMT-28"/>
      <use xlink:href="#ArialMT-72" x="33.300781"/>
      <use xlink:href="#ArialMT-65" x="66.601562"/>
      <use xlink:href="#ArialMT-6c" x="122.216797"/>
      <use xlink:href="#ArialMT-61" x="144.433594"/>
      <use xlink:href="#ArialMT-74" x="200.048828"/>
      <use xlink:href="#ArialMT-69" x="227.832031"/>
      <use xlink:href="#ArialMT-76" x="250.048828"/>
      <use xlink:href="#ArialMT-65" x="300.048828"/>
      <use xlink:href="#ArialMT-29" x="355.664062"/>
     </g>
    </g>
   </g>
   <g id="matplotlib.axis_24">
    <g id="ytick_42">
     <g id="line2d_103">
      <g>
       <use xlink:href="#mccfdbfc142" x="445.840462" y="344.134687" style="stroke: #000000; stroke-width: 0.8"/>
      </g>
     </g>
    </g>
    <g id="ytick_43">
     <g id="line2d_104">
      <g>
       <use xlink:href="#mccfdbfc142" x="445.840462" y="309.642024" style="stroke: #000000; stroke-width: 0.8"/>
      </g>
     </g>
    </g>
    <g id="ytick_44">
     <g id="line2d_105">
      <g>
       <use xlink:href="#mccfdbfc142" x="445.840462" y="275.14936" style="stroke: #000000; stroke-width: 0.8"/>
      </g>
     </g>
    </g>
   </g>
   <g id="line2d_106">
    <path d="M 450.802913 250.003593 
L 451.805428 252.350737 
L 452.807943 254.588467 
L 453.810458 256.724546 
L 454.812974 258.766004 
L 455.815489 260.719218 
L 456.818004 262.589992 
L 457.820519 264.383618 
L 458.823035 266.104934 
L 459.82555 267.758372 
L 460.828065 269.348 
L 461.830581 270.877558 
L 462.833096 272.350494 
L 463.835611 273.769991 
L 464.838126 275.138989 
L 465.840642 276.460216 
L 466.843157 277.736197 
L 467.845672 278.969283 
L 468.848187 280.161658 
L 469.850703 281.315358 
L 470.853218 282.432281 
L 471.855733 283.514201 
L 472.858249 284.562778 
L 473.860764 285.579566 
L 474.863279 286.56602 
L 475.865794 287.523507 
L 476.86831 288.453312 
L 477.870825 289.356641 
L 478.87334 290.234633 
L 479.875855 291.088358 
L 480.878371 291.918826 
L 481.880886 292.726993 
L 482.883401 293.513758 
L 483.885917 294.279976 
L 484.888432 295.026452 
L 485.890947 295.753952 
L 486.893462 296.463199 
L 487.895978 297.154881 
L 488.898493 297.829651 
L 489.901008 298.488128 
L 490.903523 299.130903 
L 491.906039 299.758537 
L 492.908554 300.371563 
L 493.911069 300.970489 
L 494.913584 301.555802 
L 495.9161 302.127963 
L 496.918615 302.687414 
L 497.92113 303.234577 
L 498.923646 303.769853 
L 499.926161 304.293629 
L 500.928676 304.806272 
L 501.931191 305.308135 
L 502.933707 305.799555 
L 503.936222 306.280856 
L 504.938737 306.752347 
L 505.941252 307.214326 
L 506.943768 307.667078 
L 507.946283 308.110876 
L 508.948798 308.545982 
L 509.951314 308.97265 
L 510.953829 309.391121 
L 511.956344 309.80163 
L 512.958859 310.204399 
L 513.961375 310.599646 
L 514.96389 310.987577 
L 515.966405 311.368392 
L 516.96892 311.742285 
L 517.971436 312.109441 
L 518.973951 312.470039 
L 519.976466 312.824252 
L 520.978982 313.172246 
L 521.981497 313.514182 
L 522.984012 313.850215 
L 523.986527 314.180495 
L 524.989043 314.505166 
L 525.991558 314.824369 
L 526.994073 315.138238 
L 527.996588 315.446905 
L 528.999104 315.750495 
L 530.001619 316.049131 
L 531.004134 316.342932 
L 532.00665 316.632012 
L 533.009165 316.916481 
L 534.01168 317.196448 
L 535.014195 317.472015 
L 536.016711 317.743285 
L 537.019226 318.010355 
L 538.021741 318.27332 
L 539.024256 318.532271 
L 540.026772 318.787298 
L 541.029287 319.038488 
L 542.031802 319.285923 
L 543.034318 319.529687 
L 544.036833 319.769857 
L 545.039348 320.006511 
L 546.041863 320.239724 
L 547.044379 320.469567 
L 548.046894 320.696112 
L 549.049409 320.919427 
L 550.051924 321.139578 
" clip-path="url(#p4ac8ed273a)" style="fill: none; stroke: #e8a87c; stroke-width: 2; stroke-linecap: square"/>
   </g>
   <g id="line2d_107">
    <path d="M 445.840462 321.139578 
L 555.014375 321.139578 
" clip-path="url(#p4ac8ed273a)" style="fill: none; stroke-dasharray: 3.7,1.6; stroke-dashoffset: 0; stroke: #808080"/>
   </g>
   <g id="patch_36">
    <path d="M 445.840462 344.134687 
L 445.840462 246.299393 
" style="fill: none; stroke: #000000; stroke-width: 0.8; stroke-linejoin: miter; stroke-linecap: square"/>
   </g>
   <g id="patch_37">
    <path d="M 445.840462 344.134687 
L 555.014375 344.134687 
" style="fill: none; stroke: #000000; stroke-width: 0.8; stroke-linejoin: miter; stroke-linecap: square"/>
   </g>
  </g>
 </g>
 <defs>
  <clipPath id="p1491a2c584">
   <rect x="52.814375" y="11.494687" width="109.173913" height="97.835294"/>
  </clipPath>
  <clipPath id="p4ab6dbb1a2">
   <rect x="183.823071" y="11.494687" width="109.173913" height="97.835294"/>
  </clipPath>
  <clipPath id="p87f0cbadc8">
   <rect x="314.831766" y="11.494687" width="109.173913" height="97.835294"/>
  </clipPath>
  <clipPath id="pb5e5d62a24">
   <rect x="445.840462" y="11.494687" width="109.173913" height="97.835294"/>
  </clipPath>
  <clipPath id="p8e84045e09">
   <rect x="52.814375" y="128.89704" width="109.173913" height="97.835294"/>
  </clipPath>
  <clipPath id="p60ecb30293">
   <rect x="183.823071" y="128.89704" width="109.173913" height="97.835294"/>
  </clipPath>
  <clipPath id="pc4292bdee1">
   <rect x="314.831766" y="128.89704" width="109.173913" height="97.835294"/>
  </clipPath>
  <clipPath id="p05c0a023e1">
   <rect x="445.840462" y="128.89704" width="109.173913" height="97.835294"/>
  </clipPath>
  <clipPath id="p376081328c">
   <rect x="52.814375" y="246.299393" width="109.173913" height="97.835294"/>
  </clipPath>
  <clipPath id="p898a9fff03">
   <rect x="183.823071" y="246.299393" width="109.173913" height="97.835294"/>
  </clipPath>
  <clipPath id="p84e8170732">
   <rect x="314.831766" y="246.299393" width="109.173913" height="97.835294"/>
  </clipPath>
  <clipPath id="p4ac8ed273a">
   <rect x="445.840462" y="246.299393" width="109.173913" height="97.835294"/>
  </clipPath>
 </defs>
</svg>
