<?xml version="1.0" encoding="utf-8" standalone="no"?>
<!DOCTYPE svg PUBLIC "-//W3C//DTD SVG 1.1//EN"
  "http://www.w3.org/Graphics/SVG/1.1/DTD/svg11.dtd">
<svg xmlns:xlink="http://www.w3.org/1999/xlink" width="547.816562pt" height="448.437125pt" viewBox="0 0 547.816562 448.437125" xmlns="http://www.w3.org/2000/svg" version="1.1">
 <metadata>
  <rdf:RDF xmlns:dc="http://purl.org/dc/elements/1.1/" xmlns:cc="http://creativecommons.org/ns#" xmlns:rdf="http://www.w3.org/1999/02/22-rdf-syntax-ns#">
   <cc:Work>
    <dc:type rdf:resource="http://purl.org/dc/dcmitype/StillImage"/>
    <dc:date>2025-10-20T11:03:55.297592</dc:date>
    <dc:format>image/svg+xml</dc:format>
    <dc:creator>
     <cc:Agent>
      <dc:title>Matplotlib v3.9.4, https://matplotlib.org/</dc:title>
     </cc:Agent>
    </dc:creator>
   </cc:Work>
  </rdf:RDF>
 </metadata>
 <defs>
  <style type="text/css">*{stroke-linejoin: round; stroke-linecap: butt}</style>
 </defs>
 <g id="figure_1">
  <g id="patch_1">
   <path d="M 0 448.437125 
L 547.816562 448.437125 
L 547.816562 0 
L 0 0 
z
" style="fill: #ffffff"/>
  </g>
  <g id="axes_1">
   <g id="patch_2">
    <path d="M 90.88 395.28 
L 222.174118 395.28 
L 222.174118 7.2 
L 90.88 7.2 
z
" style="fill: #ffffff"/>
   </g>
   <g id="patch_3">
    <path d="M 156.527059 9.356 
L 149.153936 9.356 
L 149.153936 26.604 
L 156.527059 26.604 
z
" clip-path="url(#p82242f140a)" style="fill: #808080"/>
   </g>
   <g id="patch_4">
    <path d="M 156.527059 30.916 
L 162.701856 30.916 
L 162.701856 48.164 
L 156.527059 48.164 
z
" clip-path="url(#p82242f140a)" style="fill: #808080"/>
   </g>
   <g id="patch_5">
    <path d="M 156.527059 52.476 
L 151.73924 52.476 
L 151.73924 69.724 
L 156.527059 69.724 
z
" clip-path="url(#p82242f140a)" style="fill: #808080"/>
   </g>
   <g id="patch_6">
    <path d="M 156.527059 74.036 
L 161.115642 74.036 
L 161.115642 91.284 
L 156.527059 91.284 
z
" clip-path="url(#p82242f140a)" style="fill: #808080"/>
   </g>
   <g id="patch_7">
    <path d="M 156.527059 95.596 
L 160.979318 95.596 
L 160.979318 112.844 
L 156.527059 112.844 
z
" clip-path="url(#p82242f140a)" style="fill: #808080"/>
   </g>
   <g id="patch_8">
    <path d="M 156.527059 117.156 
L 160.916968 117.156 
L 160.916968 134.404 
L 156.527059 134.404 
z
" clip-path="url(#p82242f140a)" style="fill: #808080"/>
   </g>
   <g id="patch_9">
    <path d="M 156.527059 138.716 
L 154.15488 138.716 
L 154.15488 155.964 
L 156.527059 155.964 
z
" clip-path="url(#p82242f140a)" style="fill: #808080"/>
   </g>
   <g id="patch_10">
    <path d="M 156.527059 160.276 
L 157.663035 160.276 
L 157.663035 177.524 
L 156.527059 177.524 
z
" clip-path="url(#p82242f140a)" style="fill: #808080"/>
   </g>
   <g id="patch_11">
    <path d="M 156.527059 181.836 
L 155.391083 181.836 
L 155.391083 199.084 
L 156.527059 199.084 
z
" clip-path="url(#p82242f140a)" style="fill: #808080"/>
   </g>
   <g id="patch_12">
    <path d="M 156.527059 203.396 
L 157.526025 203.396 
L 157.526025 220.644 
L 156.527059 220.644 
z
" clip-path="url(#p82242f140a)" style="fill: #808080"/>
   </g>
   <g id="patch_13">
    <path d="M 156.527059 224.956 
L 155.645304 224.956 
L 155.645304 242.204 
L 156.527059 242.204 
z
" clip-path="url(#p82242f140a)" style="fill: #808080"/>
   </g>
   <g id="patch_14">
    <path d="M 156.527059 246.516 
L 157.096972 246.516 
L 157.096972 263.764 
L 156.527059 263.764 
z
" clip-path="url(#p82242f140a)" style="fill: #808080"/>
   </g>
   <g id="patch_15">
    <path d="M 156.527059 268.076 
L 156.924969 268.076 
L 156.924969 285.324 
L 156.527059 285.324 
z
" clip-path="url(#p82242f140a)" style="fill: #808080"/>
   </g>
   <g id="patch_16">
    <path d="M 156.527059 289.636 
L 156.899238 289.636 
L 156.899238 306.884 
L 156.527059 306.884 
z
" clip-path="url(#p82242f140a)" style="fill: #808080"/>
   </g>
   <g id="patch_17">
    <path d="M 156.527059 311.196 
L 156.527059 311.196 
L 156.527059 328.444 
L 156.527059 328.444 
z
" clip-path="url(#p82242f140a)" style="fill: #808080"/>
   </g>
   <g id="patch_18">
    <path d="M 156.527059 332.756 
L 149.997418 332.756 
L 149.997418 350.004 
L 156.527059 350.004 
z
" clip-path="url(#p82242f140a)" style="fill: #808080"/>
   </g>
   <g id="patch_19">
    <path d="M 156.527059 354.316 
L 175.155478 354.316 
L 175.155478 371.564 
L 156.527059 371.564 
z
" clip-path="url(#p82242f140a)" style="fill: #808080"/>
   </g>
   <g id="patch_20">
    <path d="M 156.527059 375.876 
L 165.575332 375.876 
L 165.575332 393.124 
L 156.527059 393.124 
z
" clip-path="url(#p82242f140a)" style="fill: #808080"/>
   </g>
   <g id="matplotlib.axis_1">
    <g id="xtick_1">
     <g id="line2d_1">
      <defs>
       <path id="m46b19e38cf" d="M 0 0 
L 0 3.5 
" style="stroke: #000000; stroke-width: 0.8"/>
      </defs>
      <g>
       <use xlink:href="#m46b19e38cf" x="112.762353" y="395.28" style="stroke: #000000; stroke-width: 0.8"/>
      </g>
     </g>
     <g id="text_1">
      <!-- −2 -->
      <g transform="translate(105.921415 410.869375) scale(0.12 -0.12)">
       <defs>
        <path id="ArialMT-2212" d="M 3381 1997 
L 356 1997 
L 356 2522 
L 3381 2522 
L 3381 1997 
z
" transform="scale(0.015625)"/>
        <path id="ArialMT-32" d="M 3222 541 
L 3222 0 
L 194 0 
Q 188 203 259 391 
Q 375 700 629 1000 
Q 884 1300 1366 1694 
Q 2113 2306 2375 2664 
Q 2638 3022 2638 3341 
Q 2638 3675 2398 3904 
Q 2159 4134 1775 4134 
Q 1369 4134 1125 3890 
Q 881 3647 878 3216 
L 300 3275 
Q 359 3922 746 4261 
Q 1134 4600 1788 4600 
Q 2447 4600 2831 4234 
Q 3216 3869 3216 3328 
Q 3216 3053 3103 2787 
Q 2991 2522 2730 2228 
Q 2469 1934 1863 1422 
Q 1356 997 1212 845 
Q 1069 694 975 541 
L 3222 541 
z
" transform="scale(0.015625)"/>
       </defs>
       <use xlink:href="#ArialMT-2212"/>
       <use xlink:href="#ArialMT-32" x="58.398438"/>
      </g>
     </g>
    </g>
    <g id="xtick_2">
     <g id="line2d_2">
      <g>
       <use xlink:href="#m46b19e38cf" x="156.527059" y="395.28" style="stroke: #000000; stroke-width: 0.8"/>
      </g>
     </g>
     <g id="text_2">
      <!-- 0 -->
      <g transform="translate(153.190496 410.869375) scale(0.12 -0.12)">
       <defs>
        <path id="ArialMT-30" d="M 266 2259 
Q 266 3072 433 3567 
Q 600 4063 929 4331 
Q 1259 4600 1759 4600 
Q 2128 4600 2406 4451 
Q 2684 4303 2865 4023 
Q 3047 3744 3150 3342 
Q 3253 2941 3253 2259 
Q 3253 1453 3087 958 
Q 2922 463 2592 192 
Q 2263 -78 1759 -78 
Q 1097 -78 719 397 
Q 266 969 266 2259 
z
M 844 2259 
Q 844 1131 1108 757 
Q 1372 384 1759 384 
Q 2147 384 2411 759 
Q 2675 1134 2675 2259 
Q 2675 3391 2411 3762 
Q 2147 4134 1753 4134 
Q 1366 4134 1134 3806 
Q 844 3388 844 2259 
z
" transform="scale(0.015625)"/>
       </defs>
       <use xlink:href="#ArialMT-30"/>
      </g>
     </g>
    </g>
    <g id="xtick_3">
     <g id="line2d_3">
      <g>
       <use xlink:href="#m46b19e38cf" x="200.291765" y="395.28" style="stroke: #000000; stroke-width: 0.8"/>
      </g>
     </g>
     <g id="text_3">
      <!-- 2 -->
      <g transform="translate(196.955202 410.869375) scale(0.12 -0.12)">
       <use xlink:href="#ArialMT-32"/>
      </g>
     </g>
    </g>
    <g id="text_4">
     <!-- Glucose -->
     <g transform="translate(134.517371 425.84375) scale(0.12 -0.12)">
      <defs>
       <path id="ArialMT-47" d="M 2638 1797 
L 2638 2334 
L 4578 2338 
L 4578 638 
Q 4131 281 3656 101 
Q 3181 -78 2681 -78 
Q 2006 -78 1454 211 
Q 903 500 622 1047 
Q 341 1594 341 2269 
Q 341 2938 620 3517 
Q 900 4097 1425 4378 
Q 1950 4659 2634 4659 
Q 3131 4659 3532 4498 
Q 3934 4338 4162 4050 
Q 4391 3763 4509 3300 
L 3963 3150 
Q 3859 3500 3706 3700 
Q 3553 3900 3268 4020 
Q 2984 4141 2638 4141 
Q 2222 4141 1919 4014 
Q 1616 3888 1430 3681 
Q 1244 3475 1141 3228 
Q 966 2803 966 2306 
Q 966 1694 1177 1281 
Q 1388 869 1791 669 
Q 2194 469 2647 469 
Q 3041 469 3416 620 
Q 3791 772 3984 944 
L 3984 1797 
L 2638 1797 
z
" transform="scale(0.015625)"/>
       <path id="ArialMT-6c" d="M 409 0 
L 409 4581 
L 972 4581 
L 972 0 
L 409 0 
z
" transform="scale(0.015625)"/>
       <path id="ArialMT-75" d="M 2597 0 
L 2597 488 
Q 2209 -75 1544 -75 
Q 1250 -75 995 37 
Q 741 150 617 320 
Q 494 491 444 738 
Q 409 903 409 1263 
L 409 3319 
L 972 3319 
L 972 1478 
Q 972 1038 1006 884 
Q 1059 663 1231 536 
Q 1403 409 1656 409 
Q 1909 409 2131 539 
Q 2353 669 2445 892 
Q 2538 1116 2538 1541 
L 2538 3319 
L 3100 3319 
L 3100 0 
L 2597 0 
z
" transform="scale(0.015625)"/>
       <path id="ArialMT-63" d="M 2588 1216 
L 3141 1144 
Q 3050 572 2676 248 
Q 2303 -75 1759 -75 
Q 1078 -75 664 370 
Q 250 816 250 1647 
Q 250 2184 428 2587 
Q 606 2991 970 3192 
Q 1334 3394 1763 3394 
Q 2303 3394 2647 3120 
Q 2991 2847 3088 2344 
L 2541 2259 
Q 2463 2594 2264 2762 
Q 2066 2931 1784 2931 
Q 1359 2931 1093 2626 
Q 828 2322 828 1663 
Q 828 994 1084 691 
Q 1341 388 1753 388 
Q 2084 388 2306 591 
Q 2528 794 2588 1216 
z
" transform="scale(0.015625)"/>
       <path id="ArialMT-6f" d="M 213 1659 
Q 213 2581 725 3025 
Q 1153 3394 1769 3394 
Q 2453 3394 2887 2945 
Q 3322 2497 3322 1706 
Q 3322 1066 3130 698 
Q 2938 331 2570 128 
Q 2203 -75 1769 -75 
Q 1072 -75 642 372 
Q 213 819 213 1659 
z
M 791 1659 
Q 791 1022 1069 705 
Q 1347 388 1769 388 
Q 2188 388 2466 706 
Q 2744 1025 2744 1678 
Q 2744 2294 2464 2611 
Q 2184 2928 1769 2928 
Q 1347 2928 1069 2612 
Q 791 2297 791 1659 
z
" transform="scale(0.015625)"/>
       <path id="ArialMT-73" d="M 197 991 
L 753 1078 
Q 800 744 1014 566 
Q 1228 388 1613 388 
Q 2000 388 2187 545 
Q 2375 703 2375 916 
Q 2375 1106 2209 1216 
Q 2094 1291 1634 1406 
Q 1016 1563 777 1677 
Q 538 1791 414 1992 
Q 291 2194 291 2438 
Q 291 2659 392 2848 
Q 494 3038 669 3163 
Q 800 3259 1026 3326 
Q 1253 3394 1513 3394 
Q 1903 3394 2198 3281 
Q 2494 3169 2634 2976 
Q 2775 2784 2828 2463 
L 2278 2388 
Q 2241 2644 2061 2787 
Q 1881 2931 1553 2931 
Q 1166 2931 1000 2803 
Q 834 2675 834 2503 
Q 834 2394 903 2306 
Q 972 2216 1119 2156 
Q 1203 2125 1616 2013 
Q 2213 1853 2448 1751 
Q 2684 1650 2818 1456 
Q 2953 1263 2953 975 
Q 2953 694 2789 445 
Q 2625 197 2315 61 
Q 2006 -75 1616 -75 
Q 969 -75 630 194 
Q 291 463 197 991 
z
" transform="scale(0.015625)"/>
       <path id="ArialMT-65" d="M 2694 1069 
L 3275 997 
Q 3138 488 2766 206 
Q 2394 -75 1816 -75 
Q 1088 -75 661 373 
Q 234 822 234 1631 
Q 234 2469 665 2931 
Q 1097 3394 1784 3394 
Q 2450 3394 2872 2941 
Q 3294 2488 3294 1666 
Q 3294 1616 3291 1516 
L 816 1516 
Q 847 969 1125 678 
Q 1403 388 1819 388 
Q 2128 388 2347 550 
Q 2566 713 2694 1069 
z
M 847 1978 
L 2700 1978 
Q 2663 2397 2488 2606 
Q 2219 2931 1791 2931 
Q 1403 2931 1139 2672 
Q 875 2413 847 1978 
z
" transform="scale(0.015625)"/>
      </defs>
      <use xlink:href="#ArialMT-47"/>
      <use xlink:href="#ArialMT-6c" x="77.783203"/>
      <use xlink:href="#ArialMT-75" x="100"/>
      <use xlink:href="#ArialMT-63" x="155.615234"/>
      <use xlink:href="#ArialMT-6f" x="205.615234"/>
      <use xlink:href="#ArialMT-73" x="261.230469"/>
      <use xlink:href="#ArialMT-65" x="311.230469"/>
     </g>
     <!-- (fold response) -->
     <g transform="translate(116.510809 438.7115) scale(0.12 -0.12)">
      <defs>
       <path id="ArialMT-28" d="M 1497 -1347 
Q 1031 -759 709 28 
Q 388 816 388 1659 
Q 388 2403 628 3084 
Q 909 3875 1497 4659 
L 1900 4659 
Q 1522 4009 1400 3731 
Q 1209 3300 1100 2831 
Q 966 2247 966 1656 
Q 966 153 1900 -1347 
L 1497 -1347 
z
" transform="scale(0.015625)"/>
       <path id="ArialMT-66" d="M 556 0 
L 556 2881 
L 59 2881 
L 59 3319 
L 556 3319 
L 556 3672 
Q 556 4006 616 4169 
Q 697 4388 901 4523 
Q 1106 4659 1475 4659 
Q 1713 4659 2000 4603 
L 1916 4113 
Q 1741 4144 1584 4144 
Q 1328 4144 1222 4034 
Q 1116 3925 1116 3625 
L 1116 3319 
L 1763 3319 
L 1763 2881 
L 1116 2881 
L 1116 0 
L 556 0 
z
" transform="scale(0.015625)"/>
       <path id="ArialMT-64" d="M 2575 0 
L 2575 419 
Q 2259 -75 1647 -75 
Q 1250 -75 917 144 
Q 584 363 401 755 
Q 219 1147 219 1656 
Q 219 2153 384 2558 
Q 550 2963 881 3178 
Q 1213 3394 1622 3394 
Q 1922 3394 2156 3267 
Q 2391 3141 2538 2938 
L 2538 4581 
L 3097 4581 
L 3097 0 
L 2575 0 
z
M 797 1656 
Q 797 1019 1065 703 
Q 1334 388 1700 388 
Q 2069 388 2326 689 
Q 2584 991 2584 1609 
Q 2584 2291 2321 2609 
Q 2059 2928 1675 2928 
Q 1300 2928 1048 2622 
Q 797 2316 797 1656 
z
" transform="scale(0.015625)"/>
       <path id="ArialMT-20" transform="scale(0.015625)"/>
       <path id="ArialMT-72" d="M 416 0 
L 416 3319 
L 922 3319 
L 922 2816 
Q 1116 3169 1280 3281 
Q 1444 3394 1641 3394 
Q 1925 3394 2219 3213 
L 2025 2691 
Q 1819 2813 1613 2813 
Q 1428 2813 1281 2702 
Q 1134 2591 1072 2394 
Q 978 2094 978 1738 
L 978 0 
L 416 0 
z
" transform="scale(0.015625)"/>
       <path id="ArialMT-70" d="M 422 -1272 
L 422 3319 
L 934 3319 
L 934 2888 
Q 1116 3141 1344 3267 
Q 1572 3394 1897 3394 
Q 2322 3394 2647 3175 
Q 2972 2956 3137 2557 
Q 3303 2159 3303 1684 
Q 3303 1175 3120 767 
Q 2938 359 2589 142 
Q 2241 -75 1856 -75 
Q 1575 -75 1351 44 
Q 1128 163 984 344 
L 984 -1272 
L 422 -1272 
z
M 931 1641 
Q 931 1000 1190 694 
Q 1450 388 1819 388 
Q 2194 388 2461 705 
Q 2728 1022 2728 1688 
Q 2728 2322 2467 2637 
Q 2206 2953 1844 2953 
Q 1484 2953 1207 2617 
Q 931 2281 931 1641 
z
" transform="scale(0.015625)"/>
       <path id="ArialMT-6e" d="M 422 0 
L 422 3319 
L 928 3319 
L 928 2847 
Q 1294 3394 1984 3394 
Q 2284 3394 2536 3286 
Q 2788 3178 2913 3003 
Q 3038 2828 3088 2588 
Q 3119 2431 3119 2041 
L 3119 0 
L 2556 0 
L 2556 2019 
Q 2556 2363 2490 2533 
Q 2425 2703 2258 2804 
Q 2091 2906 1866 2906 
Q 1506 2906 1245 2678 
Q 984 2450 984 1813 
L 984 0 
L 422 0 
z
" transform="scale(0.015625)"/>
       <path id="ArialMT-29" d="M 791 -1347 
L 388 -1347 
Q 1322 153 1322 1656 
Q 1322 2244 1188 2822 
Q 1081 3291 891 3722 
Q 769 4003 388 4659 
L 791 4659 
Q 1378 3875 1659 3084 
Q 1900 2403 1900 1659 
Q 1900 816 1576 28 
Q 1253 -759 791 -1347 
z
" transform="scale(0.015625)"/>
      </defs>
      <use xlink:href="#ArialMT-28"/>
      <use xlink:href="#ArialMT-66" x="33.300781"/>
      <use xlink:href="#ArialMT-6f" x="61.083984"/>
      <use xlink:href="#ArialMT-6c" x="116.699219"/>
      <use xlink:href="#ArialMT-64" x="138.916016"/>
      <use xlink:href="#ArialMT-20" x="194.53125"/>
      <use xlink:href="#ArialMT-72" x="222.314453"/>
      <use xlink:href="#ArialMT-65" x="255.615234"/>
      <use xlink:href="#ArialMT-73" x="311.230469"/>
      <use xlink:href="#ArialMT-70" x="361.230469"/>
      <use xlink:href="#ArialMT-6f" x="416.845703"/>
      <use xlink:href="#ArialMT-6e" x="472.460938"/>
      <use xlink:href="#ArialMT-73" x="528.076172"/>
      <use xlink:href="#ArialMT-65" x="578.076172"/>
      <use xlink:href="#ArialMT-29" x="633.691406"/>
     </g>
    </g>
   </g>
   <g id="matplotlib.axis_2">
    <g id="ytick_1">
     <g id="line2d_4">
      <defs>
       <path id="m6a198a833b" d="M 0 0 
L -3.5 0 
" style="stroke: #000000; stroke-width: 0.8"/>
      </defs>
      <g>
       <use xlink:href="#m6a198a833b" x="90.88" y="17.98" style="stroke: #000000; stroke-width: 0.8"/>
      </g>
     </g>
     <g id="text_5">
      <!-- $v_E$ -->
      <g transform="translate(71.04 22.274688) scale(0.12 -0.12)">
       <defs>
        <path id="DejaVuSans-Oblique-76" d="M 459 3500 
L 1069 3500 
L 1581 525 
L 3256 3500 
L 3866 3500 
L 1875 0 
L 1100 0 
L 459 3500 
z
" transform="scale(0.015625)"/>
        <path id="DejaVuSans-Oblique-45" d="M 1081 4666 
L 4031 4666 
L 3928 4134 
L 1606 4134 
L 1338 2753 
L 3566 2753 
L 3463 2222 
L 1234 2222 
L 909 531 
L 3284 531 
L 3181 0 
L 172 0 
L 1081 4666 
z
" transform="scale(0.015625)"/>
       </defs>
       <use xlink:href="#DejaVuSans-Oblique-76" transform="translate(0 0.3125)"/>
       <use xlink:href="#DejaVuSans-Oblique-45" transform="translate(59.179688 -16.09375) scale(0.7)"/>
      </g>
     </g>
    </g>
    <g id="ytick_2">
     <g id="line2d_5">
      <g>
       <use xlink:href="#m6a198a833b" x="90.88" y="39.54" style="stroke: #000000; stroke-width: 0.8"/>
      </g>
     </g>
     <g id="text_6">
      <!-- $k_{lipolysis}$ -->
      <g transform="translate(42.96 44.1) scale(0.12 -0.12)">
       <defs>
        <path id="DejaVuSans-Oblique-6b" d="M 1172 4863 
L 1747 4863 
L 1197 2028 
L 3169 3500 
L 3916 3500 
L 1716 1825 
L 3322 0 
L 2625 0 
L 1131 1709 
L 800 0 
L 225 0 
L 1172 4863 
z
" transform="scale(0.015625)"/>
        <path id="DejaVuSans-Oblique-6c" d="M 1172 4863 
L 1747 4863 
L 800 0 
L 225 0 
L 1172 4863 
z
" transform="scale(0.015625)"/>
        <path id="DejaVuSans-Oblique-69" d="M 1172 4863 
L 1747 4863 
L 1606 4134 
L 1031 4134 
L 1172 4863 
z
M 909 3500 
L 1484 3500 
L 800 0 
L 225 0 
L 909 3500 
z
" transform="scale(0.015625)"/>
        <path id="DejaVuSans-Oblique-70" d="M 3175 2156 
Q 3175 2616 2975 2859 
Q 2775 3103 2400 3103 
Q 2144 3103 1911 2972 
Q 1678 2841 1497 2591 
Q 1319 2344 1212 1994 
Q 1106 1644 1106 1300 
Q 1106 863 1306 627 
Q 1506 391 1875 391 
Q 2147 391 2380 519 
Q 2613 647 2778 891 
Q 2956 1147 3065 1494 
Q 3175 1841 3175 2156 
z
M 1394 2969 
Q 1625 3272 1939 3428 
Q 2253 3584 2638 3584 
Q 3175 3584 3472 3232 
Q 3769 2881 3769 2247 
Q 3769 1728 3584 1258 
Q 3400 788 3053 416 
Q 2822 169 2531 39 
Q 2241 -91 1919 -91 
Q 1547 -91 1294 64 
Q 1041 219 916 525 
L 556 -1331 
L -19 -1331 
L 922 3500 
L 1497 3500 
L 1394 2969 
z
" transform="scale(0.015625)"/>
        <path id="DejaVuSans-Oblique-6f" d="M 1625 -91 
Q 1009 -91 651 289 
Q 294 669 294 1325 
Q 294 1706 417 2101 
Q 541 2497 738 2766 
Q 1047 3184 1428 3384 
Q 1809 3584 2291 3584 
Q 2888 3584 3255 3212 
Q 3622 2841 3622 2241 
Q 3622 1825 3500 1412 
Q 3378 1000 3181 728 
Q 2875 309 2494 109 
Q 2113 -91 1625 -91 
z
M 891 1344 
Q 891 869 1089 633 
Q 1288 397 1691 397 
Q 2269 397 2648 901 
Q 3028 1406 3028 2181 
Q 3028 2634 2825 2865 
Q 2622 3097 2228 3097 
Q 1903 3097 1650 2945 
Q 1397 2794 1197 2484 
Q 1050 2253 970 1956 
Q 891 1659 891 1344 
z
" transform="scale(0.015625)"/>
        <path id="DejaVuSans-Oblique-79" d="M 1588 -325 
Q 1188 -997 936 -1164 
Q 684 -1331 294 -1331 
L -159 -1331 
L -63 -850 
L 269 -850 
Q 509 -850 678 -719 
Q 847 -588 1056 -206 
L 1234 128 
L 459 3500 
L 1069 3500 
L 1650 819 
L 3256 3500 
L 3859 3500 
L 1588 -325 
z
" transform="scale(0.015625)"/>
        <path id="DejaVuSans-Oblique-73" d="M 3200 3397 
L 3091 2853 
Q 2863 2978 2609 3040 
Q 2356 3103 2088 3103 
Q 1634 3103 1373 2948 
Q 1113 2794 1113 2528 
Q 1113 2219 1719 2053 
Q 1766 2041 1788 2034 
L 1972 1978 
Q 2547 1819 2739 1644 
Q 2931 1469 2931 1166 
Q 2931 609 2489 259 
Q 2047 -91 1331 -91 
Q 1053 -91 747 -37 
Q 441 16 72 128 
L 184 722 
Q 500 559 806 475 
Q 1113 391 1394 391 
Q 1816 391 2080 572 
Q 2344 753 2344 1031 
Q 2344 1331 1650 1516 
L 1591 1531 
L 1394 1581 
Q 956 1697 753 1886 
Q 550 2075 550 2369 
Q 550 2928 970 3256 
Q 1391 3584 2113 3584 
Q 2397 3584 2667 3537 
Q 2938 3491 3200 3397 
z
" transform="scale(0.015625)"/>
       </defs>
       <use xlink:href="#DejaVuSans-Oblique-6b" transform="translate(0 0.015625)"/>
       <use xlink:href="#DejaVuSans-Oblique-6c" transform="translate(57.910156 -16.390625) scale(0.7)"/>
       <use xlink:href="#DejaVuSans-Oblique-69" transform="translate(77.358398 -16.390625) scale(0.7)"/>
       <use xlink:href="#DejaVuSans-Oblique-70" transform="translate(96.806641 -16.390625) scale(0.7)"/>
       <use xlink:href="#DejaVuSans-Oblique-6f" transform="translate(141.240234 -16.390625) scale(0.7)"/>
       <use xlink:href="#DejaVuSans-Oblique-6c" transform="translate(184.067383 -16.390625) scale(0.7)"/>
       <use xlink:href="#DejaVuSans-Oblique-79" transform="translate(203.515625 -16.390625) scale(0.7)"/>
       <use xlink:href="#DejaVuSans-Oblique-73" transform="translate(244.941406 -16.390625) scale(0.7)"/>
       <use xlink:href="#DejaVuSans-Oblique-69" transform="translate(281.411133 -16.390625) scale(0.7)"/>
       <use xlink:href="#DejaVuSans-Oblique-73" transform="translate(300.859375 -16.390625) scale(0.7)"/>
      </g>
     </g>
    </g>
    <g id="ytick_3">
     <g id="line2d_6">
      <g>
       <use xlink:href="#m6a198a833b" x="90.88" y="61.1" style="stroke: #000000; stroke-width: 0.8"/>
      </g>
     </g>
     <g id="text_7">
      <!-- $k_{reesterification}$ -->
      <g transform="translate(12.96 65.5475) scale(0.12 -0.12)">
       <defs>
        <path id="DejaVuSans-Oblique-72" d="M 2853 2969 
Q 2766 3016 2653 3041 
Q 2541 3066 2413 3066 
Q 1953 3066 1609 2717 
Q 1266 2369 1153 1784 
L 800 0 
L 225 0 
L 909 3500 
L 1484 3500 
L 1375 2956 
Q 1603 3259 1920 3421 
Q 2238 3584 2597 3584 
Q 2691 3584 2781 3573 
Q 2872 3563 2963 3538 
L 2853 2969 
z
" transform="scale(0.015625)"/>
        <path id="DejaVuSans-Oblique-65" d="M 3078 2063 
Q 3088 2113 3092 2166 
Q 3097 2219 3097 2272 
Q 3097 2653 2873 2875 
Q 2650 3097 2266 3097 
Q 1838 3097 1509 2826 
Q 1181 2556 1013 2059 
L 3078 2063 
z
M 3578 1613 
L 903 1613 
Q 884 1494 878 1425 
Q 872 1356 872 1306 
Q 872 872 1139 634 
Q 1406 397 1894 397 
Q 2269 397 2603 481 
Q 2938 566 3225 728 
L 3116 159 
Q 2806 34 2476 -28 
Q 2147 -91 1806 -91 
Q 1078 -91 686 257 
Q 294 606 294 1247 
Q 294 1794 489 2264 
Q 684 2734 1063 3103 
Q 1306 3334 1642 3459 
Q 1978 3584 2356 3584 
Q 2950 3584 3301 3228 
Q 3653 2872 3653 2272 
Q 3653 2128 3634 1964 
Q 3616 1800 3578 1613 
z
" transform="scale(0.015625)"/>
        <path id="DejaVuSans-Oblique-74" d="M 2706 3500 
L 2619 3053 
L 1472 3053 
L 1100 1153 
Q 1081 1047 1072 975 
Q 1063 903 1063 863 
Q 1063 663 1183 572 
Q 1303 481 1569 481 
L 2150 481 
L 2053 0 
L 1503 0 
Q 991 0 739 200 
Q 488 400 488 806 
Q 488 878 497 964 
Q 506 1050 525 1153 
L 897 3053 
L 409 3053 
L 500 3500 
L 978 3500 
L 1172 4494 
L 1747 4494 
L 1556 3500 
L 2706 3500 
z
" transform="scale(0.015625)"/>
        <path id="DejaVuSans-Oblique-66" d="M 3059 4863 
L 2969 4384 
L 2419 4384 
Q 2106 4384 1964 4261 
Q 1822 4138 1753 3809 
L 1691 3500 
L 2638 3500 
L 2553 3053 
L 1606 3053 
L 1013 0 
L 434 0 
L 1031 3053 
L 481 3053 
L 563 3500 
L 1113 3500 
L 1159 3744 
Q 1278 4363 1576 4613 
Q 1875 4863 2516 4863 
L 3059 4863 
z
" transform="scale(0.015625)"/>
        <path id="DejaVuSans-Oblique-63" d="M 3431 3366 
L 3316 2797 
Q 3109 2947 2876 3022 
Q 2644 3097 2394 3097 
Q 2119 3097 1870 3000 
Q 1622 2903 1453 2725 
Q 1184 2453 1037 2087 
Q 891 1722 891 1331 
Q 891 859 1127 628 
Q 1363 397 1844 397 
Q 2081 397 2348 469 
Q 2616 541 2906 684 
L 2797 116 
Q 2547 13 2283 -39 
Q 2019 -91 1741 -91 
Q 1044 -91 669 257 
Q 294 606 294 1253 
Q 294 1797 489 2255 
Q 684 2713 1069 3078 
Q 1331 3328 1684 3456 
Q 2038 3584 2456 3584 
Q 2700 3584 2940 3529 
Q 3181 3475 3431 3366 
z
" transform="scale(0.015625)"/>
        <path id="DejaVuSans-Oblique-61" d="M 3438 1997 
L 3047 0 
L 2472 0 
L 2578 531 
Q 2325 219 2001 64 
Q 1678 -91 1281 -91 
Q 834 -91 548 182 
Q 263 456 263 884 
Q 263 1497 752 1853 
Q 1241 2209 2100 2209 
L 2900 2209 
L 2931 2363 
Q 2938 2388 2941 2417 
Q 2944 2447 2944 2509 
Q 2944 2788 2717 2942 
Q 2491 3097 2081 3097 
Q 1800 3097 1504 3025 
Q 1209 2953 897 2809 
L 997 3341 
Q 1322 3463 1633 3523 
Q 1944 3584 2234 3584 
Q 2853 3584 3176 3315 
Q 3500 3047 3500 2534 
Q 3500 2431 3484 2292 
Q 3469 2153 3438 1997 
z
M 2816 1759 
L 2241 1759 
Q 1534 1759 1195 1570 
Q 856 1381 856 984 
Q 856 709 1029 553 
Q 1203 397 1509 397 
Q 1978 397 2328 733 
Q 2678 1069 2791 1631 
L 2816 1759 
z
" transform="scale(0.015625)"/>
        <path id="DejaVuSans-Oblique-6e" d="M 3566 2113 
L 3156 0 
L 2578 0 
L 2988 2091 
Q 3016 2238 3031 2350 
Q 3047 2463 3047 2528 
Q 3047 2791 2881 2937 
Q 2716 3084 2419 3084 
Q 1956 3084 1622 2776 
Q 1288 2469 1184 1941 
L 800 0 
L 225 0 
L 903 3500 
L 1478 3500 
L 1363 2950 
Q 1603 3253 1940 3418 
Q 2278 3584 2650 3584 
Q 3113 3584 3367 3334 
Q 3622 3084 3622 2631 
Q 3622 2519 3608 2391 
Q 3594 2263 3566 2113 
z
" transform="scale(0.015625)"/>
       </defs>
       <use xlink:href="#DejaVuSans-Oblique-6b" transform="translate(0 0.015625)"/>
       <use xlink:href="#DejaVuSans-Oblique-72" transform="translate(57.910156 -16.390625) scale(0.7)"/>
       <use xlink:href="#DejaVuSans-Oblique-65" transform="translate(86.689453 -16.390625) scale(0.7)"/>
       <use xlink:href="#DejaVuSans-Oblique-65" transform="translate(129.755859 -16.390625) scale(0.7)"/>
       <use xlink:href="#DejaVuSans-Oblique-73" transform="translate(172.822266 -16.390625) scale(0.7)"/>
       <use xlink:href="#DejaVuSans-Oblique-74" transform="translate(209.291992 -16.390625) scale(0.7)"/>
       <use xlink:href="#DejaVuSans-Oblique-65" transform="translate(236.738281 -16.390625) scale(0.7)"/>
       <use xlink:href="#DejaVuSans-Oblique-72" transform="translate(279.804688 -16.390625) scale(0.7)"/>
       <use xlink:href="#DejaVuSans-Oblique-69" transform="translate(308.583984 -16.390625) scale(0.7)"/>
       <use xlink:href="#DejaVuSans-Oblique-66" transform="translate(328.032227 -16.390625) scale(0.7)"/>
       <use xlink:href="#DejaVuSans-Oblique-69" transform="translate(352.675781 -16.390625) scale(0.7)"/>
       <use xlink:href="#DejaVuSans-Oblique-63" transform="translate(372.124023 -16.390625) scale(0.7)"/>
       <use xlink:href="#DejaVuSans-Oblique-61" transform="translate(410.610352 -16.390625) scale(0.7)"/>
       <use xlink:href="#DejaVuSans-Oblique-74" transform="translate(453.505859 -16.390625) scale(0.7)"/>
       <use xlink:href="#DejaVuSans-Oblique-69" transform="translate(480.952148 -16.390625) scale(0.7)"/>
       <use xlink:href="#DejaVuSans-Oblique-6f" transform="translate(500.400391 -16.390625) scale(0.7)"/>
       <use xlink:href="#DejaVuSans-Oblique-6e" transform="translate(543.227539 -16.390625) scale(0.7)"/>
      </g>
     </g>
    </g>
    <g id="ytick_4">
     <g id="line2d_7">
      <g>
       <use xlink:href="#m6a198a833b" x="90.88" y="82.66" style="stroke: #000000; stroke-width: 0.8"/>
      </g>
     </g>
     <g id="text_8">
      <!-- $K_{i,lipolysis}$ -->
      <g transform="translate(35.4 87.04) scale(0.12 -0.12)">
       <defs>
        <path id="DejaVuSans-Oblique-4b" d="M 1081 4666 
L 1716 4666 
L 1331 2700 
L 3781 4666 
L 4622 4666 
L 1850 2438 
L 3878 0 
L 3109 0 
L 1247 2272 
L 806 0 
L 172 0 
L 1081 4666 
z
" transform="scale(0.015625)"/>
        <path id="DejaVuSans-2c" d="M 750 794 
L 1409 794 
L 1409 256 
L 897 -744 
L 494 -744 
L 750 256 
L 750 794 
z
" transform="scale(0.015625)"/>
       </defs>
       <use xlink:href="#DejaVuSans-Oblique-4b" transform="translate(0 0.09375)"/>
       <use xlink:href="#DejaVuSans-Oblique-69" transform="translate(65.576172 -16.3125) scale(0.7)"/>
       <use xlink:href="#DejaVuSans-2c" transform="translate(85.024414 -16.3125) scale(0.7)"/>
       <use xlink:href="#DejaVuSans-Oblique-6c" transform="translate(120.913086 -16.3125) scale(0.7)"/>
       <use xlink:href="#DejaVuSans-Oblique-69" transform="translate(140.361328 -16.3125) scale(0.7)"/>
       <use xlink:href="#DejaVuSans-Oblique-70" transform="translate(159.80957 -16.3125) scale(0.7)"/>
       <use xlink:href="#DejaVuSans-Oblique-6f" transform="translate(204.243164 -16.3125) scale(0.7)"/>
       <use xlink:href="#DejaVuSans-Oblique-6c" transform="translate(247.070312 -16.3125) scale(0.7)"/>
       <use xlink:href="#DejaVuSans-Oblique-79" transform="translate(266.518555 -16.3125) scale(0.7)"/>
       <use xlink:href="#DejaVuSans-Oblique-73" transform="translate(307.944336 -16.3125) scale(0.7)"/>
       <use xlink:href="#DejaVuSans-Oblique-69" transform="translate(344.414062 -16.3125) scale(0.7)"/>
       <use xlink:href="#DejaVuSans-Oblique-73" transform="translate(363.862305 -16.3125) scale(0.7)"/>
      </g>
     </g>
    </g>
    <g id="ytick_5">
     <g id="line2d_8">
      <g>
       <use xlink:href="#m6a198a833b" x="90.88" y="104.22" style="stroke: #000000; stroke-width: 0.8"/>
      </g>
     </g>
     <g id="text_9">
      <!-- $V_{glycogenolysis}$ -->
      <g transform="translate(13.56 108.6) scale(0.12 -0.12)">
       <defs>
        <path id="DejaVuSans-Oblique-56" d="M 1319 0 
L 500 4666 
L 1119 4666 
L 1797 653 
L 4063 4666 
L 4750 4666 
L 2053 0 
L 1319 0 
z
" transform="scale(0.015625)"/>
        <path id="DejaVuSans-Oblique-67" d="M 3816 3500 
L 3219 434 
Q 3047 -456 2561 -893 
Q 2075 -1331 1253 -1331 
Q 950 -1331 690 -1286 
Q 431 -1241 206 -1147 
L 313 -588 
Q 525 -725 762 -790 
Q 1000 -856 1269 -856 
Q 1816 -856 2167 -557 
Q 2519 -259 2631 300 
L 2681 563 
Q 2441 288 2122 144 
Q 1803 0 1434 0 
Q 903 0 598 351 
Q 294 703 294 1319 
Q 294 1803 478 2267 
Q 663 2731 997 3091 
Q 1219 3328 1514 3456 
Q 1809 3584 2131 3584 
Q 2484 3584 2746 3420 
Q 3009 3256 3138 2956 
L 3238 3500 
L 3816 3500 
z
M 2950 2216 
Q 2950 2641 2750 2872 
Q 2550 3103 2181 3103 
Q 1953 3103 1747 3012 
Q 1541 2922 1394 2759 
Q 1156 2491 1023 2127 
Q 891 1763 891 1375 
Q 891 944 1092 712 
Q 1294 481 1672 481 
Q 2219 481 2584 976 
Q 2950 1472 2950 2216 
z
" transform="scale(0.015625)"/>
       </defs>
       <use xlink:href="#DejaVuSans-Oblique-56" transform="translate(0 0.09375)"/>
       <use xlink:href="#DejaVuSans-Oblique-67" transform="translate(68.408203 -16.3125) scale(0.7)"/>
       <use xlink:href="#DejaVuSans-Oblique-6c" transform="translate(112.841797 -16.3125) scale(0.7)"/>
       <use xlink:href="#DejaVuSans-Oblique-79" transform="translate(132.290039 -16.3125) scale(0.7)"/>
       <use xlink:href="#DejaVuSans-Oblique-63" transform="translate(173.71582 -16.3125) scale(0.7)"/>
       <use xlink:href="#DejaVuSans-Oblique-6f" transform="translate(212.202148 -16.3125) scale(0.7)"/>
       <use xlink:href="#DejaVuSans-Oblique-67" transform="translate(255.029297 -16.3125) scale(0.7)"/>
       <use xlink:href="#DejaVuSans-Oblique-65" transform="translate(299.462891 -16.3125) scale(0.7)"/>
       <use xlink:href="#DejaVuSans-Oblique-6e" transform="translate(342.529297 -16.3125) scale(0.7)"/>
       <use xlink:href="#DejaVuSans-Oblique-6f" transform="translate(386.894531 -16.3125) scale(0.7)"/>
       <use xlink:href="#DejaVuSans-Oblique-6c" transform="translate(429.72168 -16.3125) scale(0.7)"/>
       <use xlink:href="#DejaVuSans-Oblique-79" transform="translate(449.169922 -16.3125) scale(0.7)"/>
       <use xlink:href="#DejaVuSans-Oblique-73" transform="translate(490.595703 -16.3125) scale(0.7)"/>
       <use xlink:href="#DejaVuSans-Oblique-69" transform="translate(527.06543 -16.3125) scale(0.7)"/>
       <use xlink:href="#DejaVuSans-Oblique-73" transform="translate(546.513672 -16.3125) scale(0.7)"/>
      </g>
     </g>
    </g>
    <g id="ytick_6">
     <g id="line2d_9">
      <g>
       <use xlink:href="#m6a198a833b" x="90.88" y="125.78" style="stroke: #000000; stroke-width: 0.8"/>
      </g>
     </g>
     <g id="text_10">
      <!-- $k_{fatty acids}$ -->
      <g transform="translate(35.04 130.34) scale(0.12 -0.12)">
       <defs>
        <path id="DejaVuSans-Oblique-64" d="M 2675 525 
Q 2444 222 2128 65 
Q 1813 -91 1428 -91 
Q 903 -91 598 267 
Q 294 625 294 1247 
Q 294 1766 478 2236 
Q 663 2706 1013 3078 
Q 1244 3325 1534 3454 
Q 1825 3584 2144 3584 
Q 2481 3584 2739 3421 
Q 2997 3259 3138 2956 
L 3513 4863 
L 4091 4863 
L 3144 0 
L 2566 0 
L 2675 525 
z
M 891 1350 
Q 891 897 1095 644 
Q 1300 391 1663 391 
Q 1931 391 2161 520 
Q 2391 650 2566 903 
Q 2750 1166 2856 1509 
Q 2963 1853 2963 2188 
Q 2963 2622 2758 2865 
Q 2553 3109 2194 3109 
Q 1922 3109 1687 2981 
Q 1453 2853 1288 2613 
Q 1106 2353 998 2009 
Q 891 1666 891 1350 
z
" transform="scale(0.015625)"/>
       </defs>
       <use xlink:href="#DejaVuSans-Oblique-6b" transform="translate(0 0.015625)"/>
       <use xlink:href="#DejaVuSans-Oblique-66" transform="translate(57.910156 -16.390625) scale(0.7)"/>
       <use xlink:href="#DejaVuSans-Oblique-61" transform="translate(82.553711 -16.390625) scale(0.7)"/>
       <use xlink:href="#DejaVuSans-Oblique-74" transform="translate(125.449219 -16.390625) scale(0.7)"/>
       <use xlink:href="#DejaVuSans-Oblique-74" transform="translate(152.895508 -16.390625) scale(0.7)"/>
       <use xlink:href="#DejaVuSans-Oblique-79" transform="translate(180.341797 -16.390625) scale(0.7)"/>
       <use xlink:href="#DejaVuSans-Oblique-61" transform="translate(221.767578 -16.390625) scale(0.7)"/>
       <use xlink:href="#DejaVuSans-Oblique-63" transform="translate(264.663086 -16.390625) scale(0.7)"/>
       <use xlink:href="#DejaVuSans-Oblique-69" transform="translate(303.149414 -16.390625) scale(0.7)"/>
       <use xlink:href="#DejaVuSans-Oblique-64" transform="translate(322.597656 -16.390625) scale(0.7)"/>
       <use xlink:href="#DejaVuSans-Oblique-73" transform="translate(367.03125 -16.390625) scale(0.7)"/>
      </g>
     </g>
    </g>
    <g id="ytick_7">
     <g id="line2d_10">
      <g>
       <use xlink:href="#m6a198a833b" x="90.88" y="147.34" style="stroke: #000000; stroke-width: 0.8"/>
      </g>
     </g>
     <g id="text_11">
      <!-- $k_{glcyolysis}$ -->
      <g transform="translate(35.76 151.9) scale(0.12 -0.12)">
       <use xlink:href="#DejaVuSans-Oblique-6b" transform="translate(0 0.015625)"/>
       <use xlink:href="#DejaVuSans-Oblique-67" transform="translate(57.910156 -16.390625) scale(0.7)"/>
       <use xlink:href="#DejaVuSans-Oblique-6c" transform="translate(102.34375 -16.390625) scale(0.7)"/>
       <use xlink:href="#DejaVuSans-Oblique-63" transform="translate(121.791992 -16.390625) scale(0.7)"/>
       <use xlink:href="#DejaVuSans-Oblique-79" transform="translate(160.27832 -16.390625) scale(0.7)"/>
       <use xlink:href="#DejaVuSans-Oblique-6f" transform="translate(201.704102 -16.390625) scale(0.7)"/>
       <use xlink:href="#DejaVuSans-Oblique-6c" transform="translate(244.53125 -16.390625) scale(0.7)"/>
       <use xlink:href="#DejaVuSans-Oblique-79" transform="translate(263.979492 -16.390625) scale(0.7)"/>
       <use xlink:href="#DejaVuSans-Oblique-73" transform="translate(305.405273 -16.390625) scale(0.7)"/>
       <use xlink:href="#DejaVuSans-Oblique-69" transform="translate(341.875 -16.390625) scale(0.7)"/>
       <use xlink:href="#DejaVuSans-Oblique-73" transform="translate(361.323242 -16.390625) scale(0.7)"/>
      </g>
     </g>
    </g>
    <g id="ytick_8">
     <g id="line2d_11">
      <g>
       <use xlink:href="#m6a198a833b" x="90.88" y="168.9" style="stroke: #000000; stroke-width: 0.8"/>
      </g>
     </g>
     <g id="text_12">
      <!-- $k_{GNG,lactate}$ -->
      <g transform="translate(23.88 173.46) scale(0.12 -0.12)">
       <defs>
        <path id="DejaVuSans-Oblique-47" d="M 3494 697 
L 3738 1919 
L 2700 1919 
L 2797 2438 
L 4453 2438 
L 4050 384 
Q 3634 156 3143 32 
Q 2653 -91 2156 -91 
Q 1278 -91 783 396 
Q 288 884 288 1753 
Q 288 2475 589 3126 
Q 891 3778 1422 4213 
Q 1756 4484 2153 4617 
Q 2550 4750 3034 4750 
Q 3472 4750 3873 4639 
Q 4275 4528 4641 4306 
L 4513 3634 
Q 4231 3928 3853 4083 
Q 3475 4238 3047 4238 
Q 2550 4238 2172 4048 
Q 1794 3859 1497 3463 
Q 1244 3125 1098 2667 
Q 953 2209 953 1734 
Q 953 1081 1287 751 
Q 1622 422 2284 422 
Q 2616 422 2925 492 
Q 3234 563 3494 697 
z
" transform="scale(0.015625)"/>
        <path id="DejaVuSans-Oblique-4e" d="M 1081 4666 
L 1931 4666 
L 3219 666 
L 4000 4666 
L 4616 4666 
L 3706 0 
L 2853 0 
L 1569 4025 
L 788 0 
L 172 0 
L 1081 4666 
z
" transform="scale(0.015625)"/>
       </defs>
       <use xlink:href="#DejaVuSans-Oblique-6b" transform="translate(0 0.015625)"/>
       <use xlink:href="#DejaVuSans-Oblique-47" transform="translate(57.910156 -16.390625) scale(0.7)"/>
       <use xlink:href="#DejaVuSans-Oblique-4e" transform="translate(112.15332 -16.390625) scale(0.7)"/>
       <use xlink:href="#DejaVuSans-Oblique-47" transform="translate(164.516602 -16.390625) scale(0.7)"/>
       <use xlink:href="#DejaVuSans-2c" transform="translate(218.759766 -16.390625) scale(0.7)"/>
       <use xlink:href="#DejaVuSans-Oblique-6c" transform="translate(254.648438 -16.390625) scale(0.7)"/>
       <use xlink:href="#DejaVuSans-Oblique-61" transform="translate(274.09668 -16.390625) scale(0.7)"/>
       <use xlink:href="#DejaVuSans-Oblique-63" transform="translate(316.992188 -16.390625) scale(0.7)"/>
       <use xlink:href="#DejaVuSans-Oblique-74" transform="translate(355.478516 -16.390625) scale(0.7)"/>
       <use xlink:href="#DejaVuSans-Oblique-61" transform="translate(382.924805 -16.390625) scale(0.7)"/>
       <use xlink:href="#DejaVuSans-Oblique-74" transform="translate(425.820312 -16.390625) scale(0.7)"/>
       <use xlink:href="#DejaVuSans-Oblique-65" transform="translate(453.266602 -16.390625) scale(0.7)"/>
      </g>
     </g>
    </g>
    <g id="ytick_9">
     <g id="line2d_12">
      <g>
       <use xlink:href="#m6a198a833b" x="90.88" y="190.46" style="stroke: #000000; stroke-width: 0.8"/>
      </g>
     </g>
     <g id="text_13">
      <!-- $k_{lactate}$ -->
      <g transform="translate(47.52 194.9075) scale(0.12 -0.12)">
       <use xlink:href="#DejaVuSans-Oblique-6b" transform="translate(0 0.015625)"/>
       <use xlink:href="#DejaVuSans-Oblique-6c" transform="translate(57.910156 -16.390625) scale(0.7)"/>
       <use xlink:href="#DejaVuSans-Oblique-61" transform="translate(77.358398 -16.390625) scale(0.7)"/>
       <use xlink:href="#DejaVuSans-Oblique-63" transform="translate(120.253906 -16.390625) scale(0.7)"/>
       <use xlink:href="#DejaVuSans-Oblique-74" transform="translate(158.740234 -16.390625) scale(0.7)"/>
       <use xlink:href="#DejaVuSans-Oblique-61" transform="translate(186.186523 -16.390625) scale(0.7)"/>
       <use xlink:href="#DejaVuSans-Oblique-74" transform="translate(229.082031 -16.390625) scale(0.7)"/>
       <use xlink:href="#DejaVuSans-Oblique-65" transform="translate(256.52832 -16.390625) scale(0.7)"/>
      </g>
     </g>
    </g>
    <g id="ytick_10">
     <g id="line2d_13">
      <g>
       <use xlink:href="#m6a198a833b" x="90.88" y="212.02" style="stroke: #000000; stroke-width: 0.8"/>
      </g>
     </g>
     <g id="text_14">
      <!-- $K_{i,glycogenolysis}$ -->
      <g transform="translate(7.2 216.4) scale(0.12 -0.12)">
       <use xlink:href="#DejaVuSans-Oblique-4b" transform="translate(0 0.09375)"/>
       <use xlink:href="#DejaVuSans-Oblique-69" transform="translate(65.576172 -16.3125) scale(0.7)"/>
       <use xlink:href="#DejaVuSans-2c" transform="translate(85.024414 -16.3125) scale(0.7)"/>
       <use xlink:href="#DejaVuSans-Oblique-67" transform="translate(120.913086 -16.3125) scale(0.7)"/>
       <use xlink:href="#DejaVuSans-Oblique-6c" transform="translate(165.34668 -16.3125) scale(0.7)"/>
       <use xlink:href="#DejaVuSans-Oblique-79" transform="translate(184.794922 -16.3125) scale(0.7)"/>
       <use xlink:href="#DejaVuSans-Oblique-63" transform="translate(226.220703 -16.3125) scale(0.7)"/>
       <use xlink:href="#DejaVuSans-Oblique-6f" transform="translate(264.707031 -16.3125) scale(0.7)"/>
       <use xlink:href="#DejaVuSans-Oblique-67" transform="translate(307.53418 -16.3125) scale(0.7)"/>
       <use xlink:href="#DejaVuSans-Oblique-65" transform="translate(351.967773 -16.3125) scale(0.7)"/>
       <use xlink:href="#DejaVuSans-Oblique-6e" transform="translate(395.03418 -16.3125) scale(0.7)"/>
       <use xlink:href="#DejaVuSans-Oblique-6f" transform="translate(439.399414 -16.3125) scale(0.7)"/>
       <use xlink:href="#DejaVuSans-Oblique-6c" transform="translate(482.226562 -16.3125) scale(0.7)"/>
       <use xlink:href="#DejaVuSans-Oblique-79" transform="translate(501.674805 -16.3125) scale(0.7)"/>
       <use xlink:href="#DejaVuSans-Oblique-73" transform="translate(543.100586 -16.3125) scale(0.7)"/>
       <use xlink:href="#DejaVuSans-Oblique-69" transform="translate(579.570312 -16.3125) scale(0.7)"/>
       <use xlink:href="#DejaVuSans-Oblique-73" transform="translate(599.018555 -16.3125) scale(0.7)"/>
      </g>
     </g>
    </g>
    <g id="ytick_11">
     <g id="line2d_14">
      <g>
       <use xlink:href="#m6a198a833b" x="90.88" y="233.58" style="stroke: #000000; stroke-width: 0.8"/>
      </g>
     </g>
     <g id="text_15">
      <!-- $k_{glucose}$ -->
      <g transform="translate(44.28 238.14) scale(0.12 -0.12)">
       <defs>
        <path id="DejaVuSans-Oblique-75" d="M 428 1388 
L 838 3500 
L 1416 3500 
L 1006 1409 
Q 975 1256 961 1147 
Q 947 1038 947 966 
Q 947 700 1109 554 
Q 1272 409 1569 409 
Q 2031 409 2368 721 
Q 2706 1034 2809 1563 
L 3194 3500 
L 3769 3500 
L 3091 0 
L 2516 0 
L 2631 550 
Q 2388 244 2052 76 
Q 1716 -91 1338 -91 
Q 878 -91 622 161 
Q 366 413 366 863 
Q 366 956 381 1097 
Q 397 1238 428 1388 
z
" transform="scale(0.015625)"/>
       </defs>
       <use xlink:href="#DejaVuSans-Oblique-6b" transform="translate(0 0.015625)"/>
       <use xlink:href="#DejaVuSans-Oblique-67" transform="translate(57.910156 -16.390625) scale(0.7)"/>
       <use xlink:href="#DejaVuSans-Oblique-6c" transform="translate(102.34375 -16.390625) scale(0.7)"/>
       <use xlink:href="#DejaVuSans-Oblique-75" transform="translate(121.791992 -16.390625) scale(0.7)"/>
       <use xlink:href="#DejaVuSans-Oblique-63" transform="translate(166.157227 -16.390625) scale(0.7)"/>
       <use xlink:href="#DejaVuSans-Oblique-6f" transform="translate(204.643555 -16.390625) scale(0.7)"/>
       <use xlink:href="#DejaVuSans-Oblique-73" transform="translate(247.470703 -16.390625) scale(0.7)"/>
       <use xlink:href="#DejaVuSans-Oblique-65" transform="translate(283.94043 -16.390625) scale(0.7)"/>
      </g>
     </g>
    </g>
    <g id="ytick_12">
     <g id="line2d_15">
      <g>
       <use xlink:href="#m6a198a833b" x="90.88" y="255.14" style="stroke: #000000; stroke-width: 0.8"/>
      </g>
     </g>
     <g id="text_16">
      <!-- $K_{a,glycolysis}$ -->
      <g transform="translate(25.44 259.52) scale(0.12 -0.12)">
       <use xlink:href="#DejaVuSans-Oblique-4b" transform="translate(0 0.09375)"/>
       <use xlink:href="#DejaVuSans-Oblique-61" transform="translate(65.576172 -16.3125) scale(0.7)"/>
       <use xlink:href="#DejaVuSans-2c" transform="translate(108.47168 -16.3125) scale(0.7)"/>
       <use xlink:href="#DejaVuSans-Oblique-67" transform="translate(144.360352 -16.3125) scale(0.7)"/>
       <use xlink:href="#DejaVuSans-Oblique-6c" transform="translate(188.793945 -16.3125) scale(0.7)"/>
       <use xlink:href="#DejaVuSans-Oblique-79" transform="translate(208.242188 -16.3125) scale(0.7)"/>
       <use xlink:href="#DejaVuSans-Oblique-63" transform="translate(249.667969 -16.3125) scale(0.7)"/>
       <use xlink:href="#DejaVuSans-Oblique-6f" transform="translate(288.154297 -16.3125) scale(0.7)"/>
       <use xlink:href="#DejaVuSans-Oblique-6c" transform="translate(330.981445 -16.3125) scale(0.7)"/>
       <use xlink:href="#DejaVuSans-Oblique-79" transform="translate(350.429688 -16.3125) scale(0.7)"/>
       <use xlink:href="#DejaVuSans-Oblique-73" transform="translate(391.855469 -16.3125) scale(0.7)"/>
       <use xlink:href="#DejaVuSans-Oblique-69" transform="translate(428.325195 -16.3125) scale(0.7)"/>
       <use xlink:href="#DejaVuSans-Oblique-73" transform="translate(447.773438 -16.3125) scale(0.7)"/>
      </g>
     </g>
    </g>
    <g id="ytick_13">
     <g id="line2d_16">
      <g>
       <use xlink:href="#m6a198a833b" x="90.88" y="276.7" style="stroke: #000000; stroke-width: 0.8"/>
      </g>
     </g>
     <g id="text_17">
      <!-- $k_{ketogenesis}$ -->
      <g transform="translate(26.04 281.26) scale(0.12 -0.12)">
       <use xlink:href="#DejaVuSans-Oblique-6b" transform="translate(0 0.015625)"/>
       <use xlink:href="#DejaVuSans-Oblique-6b" transform="translate(57.910156 -16.390625) scale(0.7)"/>
       <use xlink:href="#DejaVuSans-Oblique-65" transform="translate(98.447266 -16.390625) scale(0.7)"/>
       <use xlink:href="#DejaVuSans-Oblique-74" transform="translate(141.513672 -16.390625) scale(0.7)"/>
       <use xlink:href="#DejaVuSans-Oblique-6f" transform="translate(168.959961 -16.390625) scale(0.7)"/>
       <use xlink:href="#DejaVuSans-Oblique-67" transform="translate(211.787109 -16.390625) scale(0.7)"/>
       <use xlink:href="#DejaVuSans-Oblique-65" transform="translate(256.220703 -16.390625) scale(0.7)"/>
       <use xlink:href="#DejaVuSans-Oblique-6e" transform="translate(299.287109 -16.390625) scale(0.7)"/>
       <use xlink:href="#DejaVuSans-Oblique-65" transform="translate(343.652344 -16.390625) scale(0.7)"/>
       <use xlink:href="#DejaVuSans-Oblique-73" transform="translate(386.71875 -16.390625) scale(0.7)"/>
       <use xlink:href="#DejaVuSans-Oblique-69" transform="translate(423.188477 -16.390625) scale(0.7)"/>
       <use xlink:href="#DejaVuSans-Oblique-73" transform="translate(442.636719 -16.390625) scale(0.7)"/>
      </g>
     </g>
    </g>
    <g id="ytick_14">
     <g id="line2d_17">
      <g>
       <use xlink:href="#m6a198a833b" x="90.88" y="298.26" style="stroke: #000000; stroke-width: 0.8"/>
      </g>
     </g>
     <g id="text_18">
      <!-- $K_{i,ketogenesis}$ -->
      <g transform="translate(18.48 302.64) scale(0.12 -0.12)">
       <use xlink:href="#DejaVuSans-Oblique-4b" transform="translate(0 0.09375)"/>
       <use xlink:href="#DejaVuSans-Oblique-69" transform="translate(65.576172 -16.3125) scale(0.7)"/>
       <use xlink:href="#DejaVuSans-2c" transform="translate(85.024414 -16.3125) scale(0.7)"/>
       <use xlink:href="#DejaVuSans-Oblique-6b" transform="translate(120.913086 -16.3125) scale(0.7)"/>
       <use xlink:href="#DejaVuSans-Oblique-65" transform="translate(161.450195 -16.3125) scale(0.7)"/>
       <use xlink:href="#DejaVuSans-Oblique-74" transform="translate(204.516602 -16.3125) scale(0.7)"/>
       <use xlink:href="#DejaVuSans-Oblique-6f" transform="translate(231.962891 -16.3125) scale(0.7)"/>
       <use xlink:href="#DejaVuSans-Oblique-67" transform="translate(274.790039 -16.3125) scale(0.7)"/>
       <use xlink:href="#DejaVuSans-Oblique-65" transform="translate(319.223633 -16.3125) scale(0.7)"/>
       <use xlink:href="#DejaVuSans-Oblique-6e" transform="translate(362.290039 -16.3125) scale(0.7)"/>
       <use xlink:href="#DejaVuSans-Oblique-65" transform="translate(406.655273 -16.3125) scale(0.7)"/>
       <use xlink:href="#DejaVuSans-Oblique-73" transform="translate(449.72168 -16.3125) scale(0.7)"/>
       <use xlink:href="#DejaVuSans-Oblique-69" transform="translate(486.191406 -16.3125) scale(0.7)"/>
       <use xlink:href="#DejaVuSans-Oblique-73" transform="translate(505.639648 -16.3125) scale(0.7)"/>
      </g>
     </g>
    </g>
    <g id="ytick_15">
     <g id="line2d_18">
      <g>
       <use xlink:href="#m6a198a833b" x="90.88" y="319.82" style="stroke: #000000; stroke-width: 0.8"/>
      </g>
     </g>
     <g id="text_19">
      <!-- $k_{3HB}$ -->
      <g transform="translate(59.4 324.2675) scale(0.12 -0.12)">
       <defs>
        <path id="DejaVuSans-33" d="M 2597 2516 
Q 3050 2419 3304 2112 
Q 3559 1806 3559 1356 
Q 3559 666 3084 287 
Q 2609 -91 1734 -91 
Q 1441 -91 1130 -33 
Q 819 25 488 141 
L 488 750 
Q 750 597 1062 519 
Q 1375 441 1716 441 
Q 2309 441 2620 675 
Q 2931 909 2931 1356 
Q 2931 1769 2642 2001 
Q 2353 2234 1838 2234 
L 1294 2234 
L 1294 2753 
L 1863 2753 
Q 2328 2753 2575 2939 
Q 2822 3125 2822 3475 
Q 2822 3834 2567 4026 
Q 2313 4219 1838 4219 
Q 1578 4219 1281 4162 
Q 984 4106 628 3988 
L 628 4550 
Q 988 4650 1302 4700 
Q 1616 4750 1894 4750 
Q 2613 4750 3031 4423 
Q 3450 4097 3450 3541 
Q 3450 3153 3228 2886 
Q 3006 2619 2597 2516 
z
" transform="scale(0.015625)"/>
        <path id="DejaVuSans-Oblique-48" d="M 1081 4666 
L 1716 4666 
L 1344 2753 
L 3634 2753 
L 4006 4666 
L 4641 4666 
L 3731 0 
L 3097 0 
L 3531 2222 
L 1241 2222 
L 806 0 
L 172 0 
L 1081 4666 
z
" transform="scale(0.015625)"/>
        <path id="DejaVuSans-Oblique-42" d="M 1081 4666 
L 2694 4666 
Q 3350 4666 3675 4422 
Q 4000 4178 4000 3688 
Q 4000 3238 3720 2911 
Q 3441 2584 2988 2516 
Q 3375 2428 3569 2181 
Q 3763 1934 3763 1522 
Q 3763 819 3242 409 
Q 2722 0 1819 0 
L 172 0 
L 1081 4666 
z
M 1234 2228 
L 903 519 
L 1919 519 
Q 2491 519 2800 781 
Q 3109 1044 3109 1522 
Q 3109 1891 2904 2059 
Q 2700 2228 2247 2228 
L 1234 2228 
z
M 1606 4147 
L 1331 2741 
L 2272 2741 
Q 2775 2741 3058 2959 
Q 3341 3178 3341 3566 
Q 3341 3869 3150 4008 
Q 2959 4147 2541 4147 
L 1606 4147 
z
" transform="scale(0.015625)"/>
       </defs>
       <use xlink:href="#DejaVuSans-Oblique-6b" transform="translate(0 0.015625)"/>
       <use xlink:href="#DejaVuSans-33" transform="translate(57.910156 -16.390625) scale(0.7)"/>
       <use xlink:href="#DejaVuSans-Oblique-48" transform="translate(99.908789 -16.390625) scale(0.7)"/>
       <use xlink:href="#DejaVuSans-Oblique-42" transform="translate(152.545508 -16.390625) scale(0.7)"/>
      </g>
     </g>
    </g>
    <g id="ytick_16">
     <g id="line2d_19">
      <g>
       <use xlink:href="#m6a198a833b" x="90.88" y="341.38" style="stroke: #000000; stroke-width: 0.8"/>
      </g>
     </g>
     <g id="text_20">
      <!-- $I_{max}$ -->
      <g transform="translate(61.68 345.674688) scale(0.12 -0.12)">
       <defs>
        <path id="DejaVuSans-Oblique-49" d="M 1081 4666 
L 1716 4666 
L 806 0 
L 172 0 
L 1081 4666 
z
" transform="scale(0.015625)"/>
        <path id="DejaVuSans-Oblique-6d" d="M 5747 2113 
L 5338 0 
L 4763 0 
L 5166 2094 
Q 5191 2228 5203 2325 
Q 5216 2422 5216 2491 
Q 5216 2772 5059 2928 
Q 4903 3084 4622 3084 
Q 4203 3084 3875 2770 
Q 3547 2456 3450 1953 
L 3066 0 
L 2491 0 
L 2900 2094 
Q 2925 2209 2937 2307 
Q 2950 2406 2950 2484 
Q 2950 2769 2794 2926 
Q 2638 3084 2363 3084 
Q 1938 3084 1609 2770 
Q 1281 2456 1184 1953 
L 800 0 
L 225 0 
L 909 3500 
L 1484 3500 
L 1375 2956 
Q 1609 3263 1923 3423 
Q 2238 3584 2597 3584 
Q 2978 3584 3223 3384 
Q 3469 3184 3519 2828 
Q 3781 3197 4126 3390 
Q 4472 3584 4856 3584 
Q 5306 3584 5551 3325 
Q 5797 3066 5797 2591 
Q 5797 2488 5784 2364 
Q 5772 2241 5747 2113 
z
" transform="scale(0.015625)"/>
        <path id="DejaVuSans-Oblique-78" d="M 3841 3500 
L 2234 1784 
L 3219 0 
L 2559 0 
L 1819 1388 
L 531 0 
L -166 0 
L 1556 1844 
L 641 3500 
L 1300 3500 
L 1972 2234 
L 3144 3500 
L 3841 3500 
z
" transform="scale(0.015625)"/>
       </defs>
       <use xlink:href="#DejaVuSans-Oblique-49" transform="translate(0 0.09375)"/>
       <use xlink:href="#DejaVuSans-Oblique-6d" transform="translate(29.492188 -16.3125) scale(0.7)"/>
       <use xlink:href="#DejaVuSans-Oblique-61" transform="translate(97.680664 -16.3125) scale(0.7)"/>
       <use xlink:href="#DejaVuSans-Oblique-78" transform="translate(140.576172 -16.3125) scale(0.7)"/>
      </g>
     </g>
    </g>
    <g id="ytick_17">
     <g id="line2d_20">
      <g>
       <use xlink:href="#m6a198a833b" x="90.88" y="362.94" style="stroke: #000000; stroke-width: 0.8"/>
      </g>
     </g>
     <g id="text_21">
      <!-- $C$ -->
      <g transform="translate(75.48 367.234688) scale(0.12 -0.12)">
       <defs>
        <path id="DejaVuSans-Oblique-43" d="M 4447 4306 
L 4319 3641 
Q 4019 3944 3683 4091 
Q 3347 4238 2956 4238 
Q 2422 4238 2017 3981 
Q 1613 3725 1319 3200 
Q 1131 2863 1032 2486 
Q 934 2109 934 1728 
Q 934 1091 1264 756 
Q 1594 422 2222 422 
Q 2656 422 3056 561 
Q 3456 700 3834 978 
L 3688 231 
Q 3316 72 2936 -9 
Q 2556 -91 2175 -91 
Q 1278 -91 773 396 
Q 269 884 269 1753 
Q 269 2309 461 2846 
Q 653 3384 1013 3828 
Q 1394 4300 1883 4525 
Q 2372 4750 3022 4750 
Q 3422 4750 3780 4639 
Q 4138 4528 4447 4306 
z
" transform="scale(0.015625)"/>
       </defs>
       <use xlink:href="#DejaVuSans-Oblique-43" transform="translate(0 0.78125)"/>
      </g>
     </g>
    </g>
    <g id="ytick_18">
     <g id="line2d_21">
      <g>
       <use xlink:href="#m6a198a833b" x="90.88" y="384.5" style="stroke: #000000; stroke-width: 0.8"/>
      </g>
     </g>
     <g id="text_22">
      <!-- $h$ -->
      <g transform="translate(76.2 388.794688) scale(0.12 -0.12)">
       <defs>
        <path id="DejaVuSans-Oblique-68" d="M 3566 2113 
L 3156 0 
L 2578 0 
L 2988 2091 
Q 3016 2238 3031 2350 
Q 3047 2463 3047 2528 
Q 3047 2791 2881 2937 
Q 2716 3084 2419 3084 
Q 1956 3084 1617 2771 
Q 1278 2459 1178 1941 
L 800 0 
L 225 0 
L 1172 4863 
L 1747 4863 
L 1375 2950 
Q 1594 3244 1934 3414 
Q 2275 3584 2650 3584 
Q 3113 3584 3367 3334 
Q 3622 3084 3622 2631 
Q 3622 2519 3608 2391 
Q 3594 2263 3566 2113 
z
" transform="scale(0.015625)"/>
       </defs>
       <use xlink:href="#DejaVuSans-Oblique-68" transform="translate(0 0.015625)"/>
      </g>
     </g>
    </g>
   </g>
   <g id="line2d_22">
    <path clip-path="url(#p82242f140a)" style="fill: none; stroke: #424242; stroke-width: 2.25; stroke-linecap: square"/>
   </g>
   <g id="line2d_23">
    <path clip-path="url(#p82242f140a)" style="fill: none; stroke: #424242; stroke-width: 2.25; stroke-linecap: square"/>
   </g>
   <g id="line2d_24">
    <path clip-path="url(#p82242f140a)" style="fill: none; stroke: #424242; stroke-width: 2.25; stroke-linecap: square"/>
   </g>
   <g id="line2d_25">
    <path clip-path="url(#p82242f140a)" style="fill: none; stroke: #424242; stroke-width: 2.25; stroke-linecap: square"/>
   </g>
   <g id="line2d_26">
    <path clip-path="url(#p82242f140a)" style="fill: none; stroke: #424242; stroke-width: 2.25; stroke-linecap: square"/>
   </g>
   <g id="line2d_27">
    <path clip-path="url(#p82242f140a)" style="fill: none; stroke: #424242; stroke-width: 2.25; stroke-linecap: square"/>
   </g>
   <g id="line2d_28">
    <path clip-path="url(#p82242f140a)" style="fill: none; stroke: #424242; stroke-width: 2.25; stroke-linecap: square"/>
   </g>
   <g id="line2d_29">
    <path clip-path="url(#p82242f140a)" style="fill: none; stroke: #424242; stroke-width: 2.25; stroke-linecap: square"/>
   </g>
   <g id="line2d_30">
    <path clip-path="url(#p82242f140a)" style="fill: none; stroke: #424242; stroke-width: 2.25; stroke-linecap: square"/>
   </g>
   <g id="line2d_31">
    <path clip-path="url(#p82242f140a)" style="fill: none; stroke: #424242; stroke-width: 2.25; stroke-linecap: square"/>
   </g>
   <g id="line2d_32">
    <path clip-path="url(#p82242f140a)" style="fill: none; stroke: #424242; stroke-width: 2.25; stroke-linecap: square"/>
   </g>
   <g id="line2d_33">
    <path clip-path="url(#p82242f140a)" style="fill: none; stroke: #424242; stroke-width: 2.25; stroke-linecap: square"/>
   </g>
   <g id="line2d_34">
    <path clip-path="url(#p82242f140a)" style="fill: none; stroke: #424242; stroke-width: 2.25; stroke-linecap: square"/>
   </g>
   <g id="line2d_35">
    <path clip-path="url(#p82242f140a)" style="fill: none; stroke: #424242; stroke-width: 2.25; stroke-linecap: square"/>
   </g>
   <g id="line2d_36">
    <path clip-path="url(#p82242f140a)" style="fill: none; stroke: #424242; stroke-width: 2.25; stroke-linecap: square"/>
   </g>
   <g id="line2d_37">
    <path clip-path="url(#p82242f140a)" style="fill: none; stroke: #424242; stroke-width: 2.25; stroke-linecap: square"/>
   </g>
   <g id="line2d_38">
    <path clip-path="url(#p82242f140a)" style="fill: none; stroke: #424242; stroke-width: 2.25; stroke-linecap: square"/>
   </g>
   <g id="line2d_39">
    <path clip-path="url(#p82242f140a)" style="fill: none; stroke: #424242; stroke-width: 2.25; stroke-linecap: square"/>
   </g>
   <g id="patch_21">
    <path d="M 90.88 395.28 
L 90.88 7.2 
" style="fill: none; stroke: #000000; stroke-width: 0.8; stroke-linejoin: miter; stroke-linecap: square"/>
   </g>
   <g id="patch_22">
    <path d="M 90.88 395.28 
L 222.174118 395.28 
" style="fill: none; stroke: #000000; stroke-width: 0.8; stroke-linejoin: miter; stroke-linecap: square"/>
   </g>
  </g>
  <g id="axes_2">
   <g id="patch_23">
    <path d="M 248.432941 395.28 
L 379.727059 395.28 
L 379.727059 7.2 
L 248.432941 7.2 
z
" style="fill: #ffffff"/>
   </g>
   <g id="patch_24">
    <path d="M 314.08 9.356 
L 293.04521 9.356 
L 293.04521 26.604 
L 314.08 26.604 
z
" clip-path="url(#p4cc818613a)" style="fill: #808080"/>
   </g>
   <g id="patch_25">
    <path d="M 314.08 30.916 
L 331.696084 30.916 
L 331.696084 48.164 
L 314.08 48.164 
z
" clip-path="url(#p4cc818613a)" style="fill: #808080"/>
   </g>
   <g id="patch_26">
    <path d="M 314.08 52.476 
L 300.420825 52.476 
L 300.420825 69.724 
L 314.08 69.724 
z
" clip-path="url(#p4cc818613a)" style="fill: #808080"/>
   </g>
   <g id="patch_27">
    <path d="M 314.08 74.036 
L 327.170775 74.036 
L 327.170775 91.284 
L 314.08 91.284 
z
" clip-path="url(#p4cc818613a)" style="fill: #808080"/>
   </g>
   <g id="patch_28">
    <path d="M 314.08 95.596 
L 326.781855 95.596 
L 326.781855 112.844 
L 314.08 112.844 
z
" clip-path="url(#p4cc818613a)" style="fill: #808080"/>
   </g>
   <g id="patch_29">
    <path d="M 314.08 117.156 
L 326.603977 117.156 
L 326.603977 134.404 
L 314.08 134.404 
z
" clip-path="url(#p4cc818613a)" style="fill: #808080"/>
   </g>
   <g id="patch_30">
    <path d="M 314.08 138.716 
L 307.312408 138.716 
L 307.312408 155.964 
L 314.08 155.964 
z
" clip-path="url(#p4cc818613a)" style="fill: #808080"/>
   </g>
   <g id="patch_31">
    <path d="M 314.08 160.276 
L 317.320827 160.276 
L 317.320827 177.524 
L 314.08 177.524 
z
" clip-path="url(#p4cc818613a)" style="fill: #808080"/>
   </g>
   <g id="patch_32">
    <path d="M 314.08 181.836 
L 310.839173 181.836 
L 310.839173 199.084 
L 314.08 199.084 
z
" clip-path="url(#p4cc818613a)" style="fill: #808080"/>
   </g>
   <g id="patch_33">
    <path d="M 314.08 203.396 
L 316.92995 203.396 
L 316.92995 220.644 
L 314.08 220.644 
z
" clip-path="url(#p4cc818613a)" style="fill: #808080"/>
   </g>
   <g id="patch_34">
    <path d="M 314.08 224.956 
L 311.564442 224.956 
L 311.564442 242.204 
L 314.08 242.204 
z
" clip-path="url(#p4cc818613a)" style="fill: #808080"/>
   </g>
   <g id="patch_35">
    <path d="M 314.08 246.516 
L 315.705905 246.516 
L 315.705905 263.764 
L 314.08 263.764 
z
" clip-path="url(#p4cc818613a)" style="fill: #808080"/>
   </g>
   <g id="patch_36">
    <path d="M 314.08 268.076 
L 315.215198 268.076 
L 315.215198 285.324 
L 314.08 285.324 
z
" clip-path="url(#p4cc818613a)" style="fill: #808080"/>
   </g>
   <g id="patch_37">
    <path d="M 314.08 289.636 
L 315.141789 289.636 
L 315.141789 306.884 
L 314.08 306.884 
z
" clip-path="url(#p4cc818613a)" style="fill: #808080"/>
   </g>
   <g id="patch_38">
    <path d="M 314.08 311.196 
L 314.08 311.196 
L 314.08 328.444 
L 314.08 328.444 
z
" clip-path="url(#p4cc818613a)" style="fill: #808080"/>
   </g>
   <g id="patch_39">
    <path d="M 314.08 332.756 
L 317.333933 332.756 
L 317.333933 350.004 
L 314.08 350.004 
z
" clip-path="url(#p4cc818613a)" style="fill: #808080"/>
   </g>
   <g id="patch_40">
    <path d="M 314.08 354.316 
L 304.796851 354.316 
L 304.796851 371.564 
L 314.08 371.564 
z
" clip-path="url(#p4cc818613a)" style="fill: #808080"/>
   </g>
   <g id="patch_41">
    <path d="M 314.08 375.876 
L 309.570951 375.876 
L 309.570951 393.124 
L 314.08 393.124 
z
" clip-path="url(#p4cc818613a)" style="fill: #808080"/>
   </g>
   <g id="matplotlib.axis_3">
    <g id="xtick_4">
     <g id="line2d_40">
      <g>
       <use xlink:href="#m46b19e38cf" x="270.315294" y="395.28" style="stroke: #000000; stroke-width: 0.8"/>
      </g>
     </g>
     <g id="text_23">
      <!-- −2 -->
      <g transform="translate(263.474357 410.869375) scale(0.12 -0.12)">
       <use xlink:href="#ArialMT-2212"/>
       <use xlink:href="#ArialMT-32" x="58.398438"/>
      </g>
     </g>
    </g>
    <g id="xtick_5">
     <g id="line2d_41">
      <g>
       <use xlink:href="#m46b19e38cf" x="314.08" y="395.28" style="stroke: #000000; stroke-width: 0.8"/>
      </g>
     </g>
     <g id="text_24">
      <!-- 0 -->
      <g transform="translate(310.743438 410.869375) scale(0.12 -0.12)">
       <use xlink:href="#ArialMT-30"/>
      </g>
     </g>
    </g>
    <g id="xtick_6">
     <g id="line2d_42">
      <g>
       <use xlink:href="#m46b19e38cf" x="357.844706" y="395.28" style="stroke: #000000; stroke-width: 0.8"/>
      </g>
     </g>
     <g id="text_25">
      <!-- 2 -->
      <g transform="translate(354.508143 410.869375) scale(0.12 -0.12)">
       <use xlink:href="#ArialMT-32"/>
      </g>
     </g>
    </g>
    <g id="text_26">
     <!-- Insulin -->
     <g transform="translate(296.737188 425.84375) scale(0.12 -0.12)">
      <defs>
       <path id="ArialMT-49" d="M 597 0 
L 597 4581 
L 1203 4581 
L 1203 0 
L 597 0 
z
" transform="scale(0.015625)"/>
       <path id="ArialMT-69" d="M 425 3934 
L 425 4581 
L 988 4581 
L 988 3934 
L 425 3934 
z
M 425 0 
L 425 3319 
L 988 3319 
L 988 0 
L 425 0 
z
" transform="scale(0.015625)"/>
      </defs>
      <use xlink:href="#ArialMT-49"/>
      <use xlink:href="#ArialMT-6e" x="27.783203"/>
      <use xlink:href="#ArialMT-73" x="83.398438"/>
      <use xlink:href="#ArialMT-75" x="133.398438"/>
      <use xlink:href="#ArialMT-6c" x="189.013672"/>
      <use xlink:href="#ArialMT-69" x="211.230469"/>
      <use xlink:href="#ArialMT-6e" x="233.447266"/>
     </g>
     <!-- (fold response) -->
     <g transform="translate(274.06375 438.7115) scale(0.12 -0.12)">
      <use xlink:href="#ArialMT-28"/>
      <use xlink:href="#ArialMT-66" x="33.300781"/>
      <use xlink:href="#ArialMT-6f" x="61.083984"/>
      <use xlink:href="#ArialMT-6c" x="116.699219"/>
      <use xlink:href="#ArialMT-64" x="138.916016"/>
      <use xlink:href="#ArialMT-20" x="194.53125"/>
      <use xlink:href="#ArialMT-72" x="222.314453"/>
      <use xlink:href="#ArialMT-65" x="255.615234"/>
      <use xlink:href="#ArialMT-73" x="311.230469"/>
      <use xlink:href="#ArialMT-70" x="361.230469"/>
      <use xlink:href="#ArialMT-6f" x="416.845703"/>
      <use xlink:href="#ArialMT-6e" x="472.460938"/>
      <use xlink:href="#ArialMT-73" x="528.076172"/>
      <use xlink:href="#ArialMT-65" x="578.076172"/>
      <use xlink:href="#ArialMT-29" x="633.691406"/>
     </g>
    </g>
   </g>
   <g id="matplotlib.axis_4">
    <g id="ytick_19">
     <g id="line2d_43">
      <g>
       <use xlink:href="#m6a198a833b" x="248.432941" y="17.98" style="stroke: #000000; stroke-width: 0.8"/>
      </g>
     </g>
    </g>
    <g id="ytick_20">
     <g id="line2d_44">
      <g>
       <use xlink:href="#m6a198a833b" x="248.432941" y="39.54" style="stroke: #000000; stroke-width: 0.8"/>
      </g>
     </g>
    </g>
    <g id="ytick_21">
     <g id="line2d_45">
      <g>
       <use xlink:href="#m6a198a833b" x="248.432941" y="61.1" style="stroke: #000000; stroke-width: 0.8"/>
      </g>
     </g>
    </g>
    <g id="ytick_22">
     <g id="line2d_46">
      <g>
       <use xlink:href="#m6a198a833b" x="248.432941" y="82.66" style="stroke: #000000; stroke-width: 0.8"/>
      </g>
     </g>
    </g>
    <g id="ytick_23">
     <g id="line2d_47">
      <g>
       <use xlink:href="#m6a198a833b" x="248.432941" y="104.22" style="stroke: #000000; stroke-width: 0.8"/>
      </g>
     </g>
    </g>
    <g id="ytick_24">
     <g id="line2d_48">
      <g>
       <use xlink:href="#m6a198a833b" x="248.432941" y="125.78" style="stroke: #000000; stroke-width: 0.8"/>
      </g>
     </g>
    </g>
    <g id="ytick_25">
     <g id="line2d_49">
      <g>
       <use xlink:href="#m6a198a833b" x="248.432941" y="147.34" style="stroke: #000000; stroke-width: 0.8"/>
      </g>
     </g>
    </g>
    <g id="ytick_26">
     <g id="line2d_50">
      <g>
       <use xlink:href="#m6a198a833b" x="248.432941" y="168.9" style="stroke: #000000; stroke-width: 0.8"/>
      </g>
     </g>
    </g>
    <g id="ytick_27">
     <g id="line2d_51">
      <g>
       <use xlink:href="#m6a198a833b" x="248.432941" y="190.46" style="stroke: #000000; stroke-width: 0.8"/>
      </g>
     </g>
    </g>
    <g id="ytick_28">
     <g id="line2d_52">
      <g>
       <use xlink:href="#m6a198a833b" x="248.432941" y="212.02" style="stroke: #000000; stroke-width: 0.8"/>
      </g>
     </g>
    </g>
    <g id="ytick_29">
     <g id="line2d_53">
      <g>
       <use xlink:href="#m6a198a833b" x="248.432941" y="233.58" style="stroke: #000000; stroke-width: 0.8"/>
      </g>
     </g>
    </g>
    <g id="ytick_30">
     <g id="line2d_54">
      <g>
       <use xlink:href="#m6a198a833b" x="248.432941" y="255.14" style="stroke: #000000; stroke-width: 0.8"/>
      </g>
     </g>
    </g>
    <g id="ytick_31">
     <g id="line2d_55">
      <g>
       <use xlink:href="#m6a198a833b" x="248.432941" y="276.7" style="stroke: #000000; stroke-width: 0.8"/>
      </g>
     </g>
    </g>
    <g id="ytick_32">
     <g id="line2d_56">
      <g>
       <use xlink:href="#m6a198a833b" x="248.432941" y="298.26" style="stroke: #000000; stroke-width: 0.8"/>
      </g>
     </g>
    </g>
    <g id="ytick_33">
     <g id="line2d_57">
      <g>
       <use xlink:href="#m6a198a833b" x="248.432941" y="319.82" style="stroke: #000000; stroke-width: 0.8"/>
      </g>
     </g>
    </g>
    <g id="ytick_34">
     <g id="line2d_58">
      <g>
       <use xlink:href="#m6a198a833b" x="248.432941" y="341.38" style="stroke: #000000; stroke-width: 0.8"/>
      </g>
     </g>
    </g>
    <g id="ytick_35">
     <g id="line2d_59">
      <g>
       <use xlink:href="#m6a198a833b" x="248.432941" y="362.94" style="stroke: #000000; stroke-width: 0.8"/>
      </g>
     </g>
    </g>
    <g id="ytick_36">
     <g id="line2d_60">
      <g>
       <use xlink:href="#m6a198a833b" x="248.432941" y="384.5" style="stroke: #000000; stroke-width: 0.8"/>
      </g>
     </g>
    </g>
   </g>
   <g id="line2d_61">
    <path clip-path="url(#p4cc818613a)" style="fill: none; stroke: #424242; stroke-width: 2.25; stroke-linecap: square"/>
   </g>
   <g id="line2d_62">
    <path clip-path="url(#p4cc818613a)" style="fill: none; stroke: #424242; stroke-width: 2.25; stroke-linecap: square"/>
   </g>
   <g id="line2d_63">
    <path clip-path="url(#p4cc818613a)" style="fill: none; stroke: #424242; stroke-width: 2.25; stroke-linecap: square"/>
   </g>
   <g id="line2d_64">
    <path clip-path="url(#p4cc818613a)" style="fill: none; stroke: #424242; stroke-width: 2.25; stroke-linecap: square"/>
   </g>
   <g id="line2d_65">
    <path clip-path="url(#p4cc818613a)" style="fill: none; stroke: #424242; stroke-width: 2.25; stroke-linecap: square"/>
   </g>
   <g id="line2d_66">
    <path clip-path="url(#p4cc818613a)" style="fill: none; stroke: #424242; stroke-width: 2.25; stroke-linecap: square"/>
   </g>
   <g id="line2d_67">
    <path clip-path="url(#p4cc818613a)" style="fill: none; stroke: #424242; stroke-width: 2.25; stroke-linecap: square"/>
   </g>
   <g id="line2d_68">
    <path clip-path="url(#p4cc818613a)" style="fill: none; stroke: #424242; stroke-width: 2.25; stroke-linecap: square"/>
   </g>
   <g id="line2d_69">
    <path clip-path="url(#p4cc818613a)" style="fill: none; stroke: #424242; stroke-width: 2.25; stroke-linecap: square"/>
   </g>
   <g id="line2d_70">
    <path clip-path="url(#p4cc818613a)" style="fill: none; stroke: #424242; stroke-width: 2.25; stroke-linecap: square"/>
   </g>
   <g id="line2d_71">
    <path clip-path="url(#p4cc818613a)" style="fill: none; stroke: #424242; stroke-width: 2.25; stroke-linecap: square"/>
   </g>
   <g id="line2d_72">
    <path clip-path="url(#p4cc818613a)" style="fill: none; stroke: #424242; stroke-width: 2.25; stroke-linecap: square"/>
   </g>
   <g id="line2d_73">
    <path clip-path="url(#p4cc818613a)" style="fill: none; stroke: #424242; stroke-width: 2.25; stroke-linecap: square"/>
   </g>
   <g id="line2d_74">
    <path clip-path="url(#p4cc818613a)" style="fill: none; stroke: #424242; stroke-width: 2.25; stroke-linecap: square"/>
   </g>
   <g id="line2d_75">
    <path clip-path="url(#p4cc818613a)" style="fill: none; stroke: #424242; stroke-width: 2.25; stroke-linecap: square"/>
   </g>
   <g id="line2d_76">
    <path clip-path="url(#p4cc818613a)" style="fill: none; stroke: #424242; stroke-width: 2.25; stroke-linecap: square"/>
   </g>
   <g id="line2d_77">
    <path clip-path="url(#p4cc818613a)" style="fill: none; stroke: #424242; stroke-width: 2.25; stroke-linecap: square"/>
   </g>
   <g id="line2d_78">
    <path clip-path="url(#p4cc818613a)" style="fill: none; stroke: #424242; stroke-width: 2.25; stroke-linecap: square"/>
   </g>
   <g id="patch_42">
    <path d="M 248.432941 395.28 
L 248.432941 7.2 
" style="fill: none; stroke: #000000; stroke-width: 0.8; stroke-linejoin: miter; stroke-linecap: square"/>
   </g>
   <g id="patch_43">
    <path d="M 248.432941 395.28 
L 379.727059 395.28 
" style="fill: none; stroke: #000000; stroke-width: 0.8; stroke-linejoin: miter; stroke-linecap: square"/>
   </g>
  </g>
  <g id="axes_3">
   <g id="patch_44">
    <path d="M 405.985882 395.28 
L 537.28 395.28 
L 537.28 7.2 
L 405.985882 7.2 
z
" style="fill: #ffffff"/>
   </g>
   <g id="patch_45">
    <path d="M 471.632941 9.356 
L 429.021072 9.356 
L 429.021072 26.604 
L 471.632941 26.604 
z
" clip-path="url(#p7965f62176)" style="fill: #808080"/>
   </g>
   <g id="patch_46">
    <path d="M 471.632941 30.916 
L 507.319263 30.916 
L 507.319263 48.164 
L 471.632941 48.164 
z
" clip-path="url(#p7965f62176)" style="fill: #808080"/>
   </g>
   <g id="patch_47">
    <path d="M 471.632941 52.476 
L 443.96245 52.476 
L 443.96245 69.724 
L 471.632941 69.724 
z
" clip-path="url(#p7965f62176)" style="fill: #808080"/>
   </g>
   <g id="patch_48">
    <path d="M 471.632941 74.036 
L 498.151979 74.036 
L 498.151979 91.284 
L 471.632941 91.284 
z
" clip-path="url(#p7965f62176)" style="fill: #808080"/>
   </g>
   <g id="patch_49">
    <path d="M 471.632941 95.596 
L 497.364112 95.596 
L 497.364112 112.844 
L 471.632941 112.844 
z
" clip-path="url(#p7965f62176)" style="fill: #808080"/>
   </g>
   <g id="patch_50">
    <path d="M 471.632941 117.156 
L 497.003771 117.156 
L 497.003771 134.404 
L 471.632941 134.404 
z
" clip-path="url(#p7965f62176)" style="fill: #808080"/>
   </g>
   <g id="patch_51">
    <path d="M 471.632941 138.716 
L 457.923285 138.716 
L 457.923285 155.964 
L 471.632941 155.964 
z
" clip-path="url(#p7965f62176)" style="fill: #808080"/>
   </g>
   <g id="patch_52">
    <path d="M 471.632941 160.276 
L 478.198146 160.276 
L 478.198146 177.524 
L 471.632941 177.524 
z
" clip-path="url(#p7965f62176)" style="fill: #808080"/>
   </g>
   <g id="patch_53">
    <path d="M 471.632941 181.836 
L 465.067738 181.836 
L 465.067738 199.084 
L 471.632941 199.084 
z
" clip-path="url(#p7965f62176)" style="fill: #808080"/>
   </g>
   <g id="patch_54">
    <path d="M 471.632941 203.396 
L 477.406315 203.396 
L 477.406315 220.644 
L 471.632941 220.644 
z
" clip-path="url(#p7965f62176)" style="fill: #808080"/>
   </g>
   <g id="patch_55">
    <path d="M 471.632941 224.956 
L 466.536972 224.956 
L 466.536972 242.204 
L 471.632941 242.204 
z
" clip-path="url(#p7965f62176)" style="fill: #808080"/>
   </g>
   <g id="patch_56">
    <path d="M 471.632941 246.516 
L 474.926669 246.516 
L 474.926669 263.764 
L 471.632941 263.764 
z
" clip-path="url(#p7965f62176)" style="fill: #808080"/>
   </g>
   <g id="patch_57">
    <path d="M 471.632941 268.076 
L 473.932604 268.076 
L 473.932604 285.324 
L 471.632941 285.324 
z
" clip-path="url(#p7965f62176)" style="fill: #808080"/>
   </g>
   <g id="patch_58">
    <path d="M 471.632941 289.636 
L 473.783893 289.636 
L 473.783893 306.884 
L 471.632941 306.884 
z
" clip-path="url(#p7965f62176)" style="fill: #808080"/>
   </g>
   <g id="patch_59">
    <path d="M 471.632941 311.196 
L 471.632941 311.196 
L 471.632941 328.444 
L 471.632941 328.444 
z
" clip-path="url(#p7965f62176)" style="fill: #808080"/>
   </g>
   <g id="patch_60">
    <path d="M 471.632941 332.756 
L 466.719379 332.756 
L 466.719379 350.004 
L 471.632941 350.004 
z
" clip-path="url(#p7965f62176)" style="fill: #808080"/>
   </g>
   <g id="patch_61">
    <path d="M 471.632941 354.316 
L 485.650847 354.316 
L 485.650847 371.564 
L 471.632941 371.564 
z
" clip-path="url(#p7965f62176)" style="fill: #808080"/>
   </g>
   <g id="patch_62">
    <path d="M 471.632941 375.876 
L 478.441777 375.876 
L 478.441777 393.124 
L 471.632941 393.124 
z
" clip-path="url(#p7965f62176)" style="fill: #808080"/>
   </g>
   <g id="matplotlib.axis_5">
    <g id="xtick_7">
     <g id="line2d_79">
      <g>
       <use xlink:href="#m46b19e38cf" x="405.985882" y="395.28" style="stroke: #000000; stroke-width: 0.8"/>
      </g>
     </g>
     <g id="text_27">
      <!-- −2 -->
      <g transform="translate(399.144945 410.869375) scale(0.12 -0.12)">
       <use xlink:href="#ArialMT-2212"/>
       <use xlink:href="#ArialMT-32" x="58.398438"/>
      </g>
     </g>
    </g>
    <g id="xtick_8">
     <g id="line2d_80">
      <g>
       <use xlink:href="#m46b19e38cf" x="471.632941" y="395.28" style="stroke: #000000; stroke-width: 0.8"/>
      </g>
     </g>
     <g id="text_28">
      <!-- 0 -->
      <g transform="translate(468.296379 410.869375) scale(0.12 -0.12)">
       <use xlink:href="#ArialMT-30"/>
      </g>
     </g>
    </g>
    <g id="xtick_9">
     <g id="line2d_81">
      <g>
       <use xlink:href="#m46b19e38cf" x="537.28" y="395.28" style="stroke: #000000; stroke-width: 0.8"/>
      </g>
     </g>
     <g id="text_29">
      <!-- 2 -->
      <g transform="translate(533.943437 410.869375) scale(0.12 -0.12)">
       <use xlink:href="#ArialMT-32"/>
      </g>
     </g>
    </g>
    <g id="text_30">
     <!-- HOMA-IR -->
     <g transform="translate(445.635129 425.84375) scale(0.12 -0.12)">
      <defs>
       <path id="ArialMT-48" d="M 513 0 
L 513 4581 
L 1119 4581 
L 1119 2700 
L 3500 2700 
L 3500 4581 
L 4106 4581 
L 4106 0 
L 3500 0 
L 3500 2159 
L 1119 2159 
L 1119 0 
L 513 0 
z
" transform="scale(0.015625)"/>
       <path id="ArialMT-4f" d="M 309 2231 
Q 309 3372 921 4017 
Q 1534 4663 2503 4663 
Q 3138 4663 3647 4359 
Q 4156 4056 4423 3514 
Q 4691 2972 4691 2284 
Q 4691 1588 4409 1038 
Q 4128 488 3612 205 
Q 3097 -78 2500 -78 
Q 1853 -78 1343 234 
Q 834 547 571 1087 
Q 309 1628 309 2231 
z
M 934 2222 
Q 934 1394 1379 917 
Q 1825 441 2497 441 
Q 3181 441 3623 922 
Q 4066 1403 4066 2288 
Q 4066 2847 3877 3264 
Q 3688 3681 3323 3911 
Q 2959 4141 2506 4141 
Q 1863 4141 1398 3698 
Q 934 3256 934 2222 
z
" transform="scale(0.015625)"/>
       <path id="ArialMT-4d" d="M 475 0 
L 475 4581 
L 1388 4581 
L 2472 1338 
Q 2622 884 2691 659 
Q 2769 909 2934 1394 
L 4031 4581 
L 4847 4581 
L 4847 0 
L 4263 0 
L 4263 3834 
L 2931 0 
L 2384 0 
L 1059 3900 
L 1059 0 
L 475 0 
z
" transform="scale(0.015625)"/>
       <path id="ArialMT-41" d="M -9 0 
L 1750 4581 
L 2403 4581 
L 4278 0 
L 3588 0 
L 3053 1388 
L 1138 1388 
L 634 0 
L -9 0 
z
M 1313 1881 
L 2866 1881 
L 2388 3150 
Q 2169 3728 2063 4100 
Q 1975 3659 1816 3225 
L 1313 1881 
z
" transform="scale(0.015625)"/>
       <path id="ArialMT-2d" d="M 203 1375 
L 203 1941 
L 1931 1941 
L 1931 1375 
L 203 1375 
z
" transform="scale(0.015625)"/>
       <path id="ArialMT-52" d="M 503 0 
L 503 4581 
L 2534 4581 
Q 3147 4581 3465 4457 
Q 3784 4334 3975 4021 
Q 4166 3709 4166 3331 
Q 4166 2844 3850 2509 
Q 3534 2175 2875 2084 
Q 3116 1969 3241 1856 
Q 3506 1613 3744 1247 
L 4541 0 
L 3778 0 
L 3172 953 
Q 2906 1366 2734 1584 
Q 2563 1803 2427 1890 
Q 2291 1978 2150 2013 
Q 2047 2034 1813 2034 
L 1109 2034 
L 1109 0 
L 503 0 
z
M 1109 2559 
L 2413 2559 
Q 2828 2559 3062 2645 
Q 3297 2731 3419 2920 
Q 3541 3109 3541 3331 
Q 3541 3656 3305 3865 
Q 3069 4075 2559 4075 
L 1109 4075 
L 1109 2559 
z
" transform="scale(0.015625)"/>
      </defs>
      <use xlink:href="#ArialMT-48"/>
      <use xlink:href="#ArialMT-4f" x="72.216797"/>
      <use xlink:href="#ArialMT-4d" x="150"/>
      <use xlink:href="#ArialMT-41" x="233.300781"/>
      <use xlink:href="#ArialMT-2d" x="300"/>
      <use xlink:href="#ArialMT-49" x="333.300781"/>
      <use xlink:href="#ArialMT-52" x="361.083984"/>
     </g>
     <!-- (fold response) -->
     <g transform="translate(431.616691 438.7115) scale(0.12 -0.12)">
      <use xlink:href="#ArialMT-28"/>
      <use xlink:href="#ArialMT-66" x="33.300781"/>
      <use xlink:href="#ArialMT-6f" x="61.083984"/>
      <use xlink:href="#ArialMT-6c" x="116.699219"/>
      <use xlink:href="#ArialMT-64" x="138.916016"/>
      <use xlink:href="#ArialMT-20" x="194.53125"/>
      <use xlink:href="#ArialMT-72" x="222.314453"/>
      <use xlink:href="#ArialMT-65" x="255.615234"/>
      <use xlink:href="#ArialMT-73" x="311.230469"/>
      <use xlink:href="#ArialMT-70" x="361.230469"/>
      <use xlink:href="#ArialMT-6f" x="416.845703"/>
      <use xlink:href="#ArialMT-6e" x="472.460938"/>
      <use xlink:href="#ArialMT-73" x="528.076172"/>
      <use xlink:href="#ArialMT-65" x="578.076172"/>
      <use xlink:href="#ArialMT-29" x="633.691406"/>
     </g>
    </g>
   </g>
   <g id="matplotlib.axis_6">
    <g id="ytick_37">
     <g id="line2d_82">
      <g>
       <use xlink:href="#m6a198a833b" x="405.985882" y="17.98" style="stroke: #000000; stroke-width: 0.8"/>
      </g>
     </g>
    </g>
    <g id="ytick_38">
     <g id="line2d_83">
      <g>
       <use xlink:href="#m6a198a833b" x="405.985882" y="39.54" style="stroke: #000000; stroke-width: 0.8"/>
      </g>
     </g>
    </g>
    <g id="ytick_39">
     <g id="line2d_84">
      <g>
       <use xlink:href="#m6a198a833b" x="405.985882" y="61.1" style="stroke: #000000; stroke-width: 0.8"/>
      </g>
     </g>
    </g>
    <g id="ytick_40">
     <g id="line2d_85">
      <g>
       <use xlink:href="#m6a198a833b" x="405.985882" y="82.66" style="stroke: #000000; stroke-width: 0.8"/>
      </g>
     </g>
    </g>
    <g id="ytick_41">
     <g id="line2d_86">
      <g>
       <use xlink:href="#m6a198a833b" x="405.985882" y="104.22" style="stroke: #000000; stroke-width: 0.8"/>
      </g>
     </g>
    </g>
    <g id="ytick_42">
     <g id="line2d_87">
      <g>
       <use xlink:href="#m6a198a833b" x="405.985882" y="125.78" style="stroke: #000000; stroke-width: 0.8"/>
      </g>
     </g>
    </g>
    <g id="ytick_43">
     <g id="line2d_88">
      <g>
       <use xlink:href="#m6a198a833b" x="405.985882" y="147.34" style="stroke: #000000; stroke-width: 0.8"/>
      </g>
     </g>
    </g>
    <g id="ytick_44">
     <g id="line2d_89">
      <g>
       <use xlink:href="#m6a198a833b" x="405.985882" y="168.9" style="stroke: #000000; stroke-width: 0.8"/>
      </g>
     </g>
    </g>
    <g id="ytick_45">
     <g id="line2d_90">
      <g>
       <use xlink:href="#m6a198a833b" x="405.985882" y="190.46" style="stroke: #000000; stroke-width: 0.8"/>
      </g>
     </g>
    </g>
    <g id="ytick_46">
     <g id="line2d_91">
      <g>
       <use xlink:href="#m6a198a833b" x="405.985882" y="212.02" style="stroke: #000000; stroke-width: 0.8"/>
      </g>
     </g>
    </g>
    <g id="ytick_47">
     <g id="line2d_92">
      <g>
       <use xlink:href="#m6a198a833b" x="405.985882" y="233.58" style="stroke: #000000; stroke-width: 0.8"/>
      </g>
     </g>
    </g>
    <g id="ytick_48">
     <g id="line2d_93">
      <g>
       <use xlink:href="#m6a198a833b" x="405.985882" y="255.14" style="stroke: #000000; stroke-width: 0.8"/>
      </g>
     </g>
    </g>
    <g id="ytick_49">
     <g id="line2d_94">
      <g>
       <use xlink:href="#m6a198a833b" x="405.985882" y="276.7" style="stroke: #000000; stroke-width: 0.8"/>
      </g>
     </g>
    </g>
    <g id="ytick_50">
     <g id="line2d_95">
      <g>
       <use xlink:href="#m6a198a833b" x="405.985882" y="298.26" style="stroke: #000000; stroke-width: 0.8"/>
      </g>
     </g>
    </g>
    <g id="ytick_51">
     <g id="line2d_96">
      <g>
       <use xlink:href="#m6a198a833b" x="405.985882" y="319.82" style="stroke: #000000; stroke-width: 0.8"/>
      </g>
     </g>
    </g>
    <g id="ytick_52">
     <g id="line2d_97">
      <g>
       <use xlink:href="#m6a198a833b" x="405.985882" y="341.38" style="stroke: #000000; stroke-width: 0.8"/>
      </g>
     </g>
    </g>
    <g id="ytick_53">
     <g id="line2d_98">
      <g>
       <use xlink:href="#m6a198a833b" x="405.985882" y="362.94" style="stroke: #000000; stroke-width: 0.8"/>
      </g>
     </g>
    </g>
    <g id="ytick_54">
     <g id="line2d_99">
      <g>
       <use xlink:href="#m6a198a833b" x="405.985882" y="384.5" style="stroke: #000000; stroke-width: 0.8"/>
      </g>
     </g>
    </g>
   </g>
   <g id="line2d_100">
    <path clip-path="url(#p7965f62176)" style="fill: none; stroke: #424242; stroke-width: 2.25; stroke-linecap: square"/>
   </g>
   <g id="line2d_101">
    <path clip-path="url(#p7965f62176)" style="fill: none; stroke: #424242; stroke-width: 2.25; stroke-linecap: square"/>
   </g>
   <g id="line2d_102">
    <path clip-path="url(#p7965f62176)" style="fill: none; stroke: #424242; stroke-width: 2.25; stroke-linecap: square"/>
   </g>
   <g id="line2d_103">
    <path clip-path="url(#p7965f62176)" style="fill: none; stroke: #424242; stroke-width: 2.25; stroke-linecap: square"/>
   </g>
   <g id="line2d_104">
    <path clip-path="url(#p7965f62176)" style="fill: none; stroke: #424242; stroke-width: 2.25; stroke-linecap: square"/>
   </g>
   <g id="line2d_105">
    <path clip-path="url(#p7965f62176)" style="fill: none; stroke: #424242; stroke-width: 2.25; stroke-linecap: square"/>
   </g>
   <g id="line2d_106">
    <path clip-path="url(#p7965f62176)" style="fill: none; stroke: #424242; stroke-width: 2.25; stroke-linecap: square"/>
   </g>
   <g id="line2d_107">
    <path clip-path="url(#p7965f62176)" style="fill: none; stroke: #424242; stroke-width: 2.25; stroke-linecap: square"/>
   </g>
   <g id="line2d_108">
    <path clip-path="url(#p7965f62176)" style="fill: none; stroke: #424242; stroke-width: 2.25; stroke-linecap: square"/>
   </g>
   <g id="line2d_109">
    <path clip-path="url(#p7965f62176)" style="fill: none; stroke: #424242; stroke-width: 2.25; stroke-linecap: square"/>
   </g>
   <g id="line2d_110">
    <path clip-path="url(#p7965f62176)" style="fill: none; stroke: #424242; stroke-width: 2.25; stroke-linecap: square"/>
   </g>
   <g id="line2d_111">
    <path clip-path="url(#p7965f62176)" style="fill: none; stroke: #424242; stroke-width: 2.25; stroke-linecap: square"/>
   </g>
   <g id="line2d_112">
    <path clip-path="url(#p7965f62176)" style="fill: none; stroke: #424242; stroke-width: 2.25; stroke-linecap: square"/>
   </g>
   <g id="line2d_113">
    <path clip-path="url(#p7965f62176)" style="fill: none; stroke: #424242; stroke-width: 2.25; stroke-linecap: square"/>
   </g>
   <g id="line2d_114">
    <path clip-path="url(#p7965f62176)" style="fill: none; stroke: #424242; stroke-width: 2.25; stroke-linecap: square"/>
   </g>
   <g id="line2d_115">
    <path clip-path="url(#p7965f62176)" style="fill: none; stroke: #424242; stroke-width: 2.25; stroke-linecap: square"/>
   </g>
   <g id="line2d_116">
    <path clip-path="url(#p7965f62176)" style="fill: none; stroke: #424242; stroke-width: 2.25; stroke-linecap: square"/>
   </g>
   <g id="line2d_117">
    <path clip-path="url(#p7965f62176)" style="fill: none; stroke: #424242; stroke-width: 2.25; stroke-linecap: square"/>
   </g>
   <g id="patch_63">
    <path d="M 405.985882 395.28 
L 405.985882 7.2 
" style="fill: none; stroke: #000000; stroke-width: 0.8; stroke-linejoin: miter; stroke-linecap: square"/>
   </g>
   <g id="patch_64">
    <path d="M 405.985882 395.28 
L 537.28 395.28 
" style="fill: none; stroke: #000000; stroke-width: 0.8; stroke-linejoin: miter; stroke-linecap: square"/>
   </g>
  </g>
 </g>
 <defs>
  <clipPath id="p82242f140a">
   <rect x="90.88" y="7.2" width="131.294118" height="388.08"/>
  </clipPath>
  <clipPath id="p4cc818613a">
   <rect x="248.432941" y="7.2" width="131.294118" height="388.08"/>
  </clipPath>
  <clipPath id="p7965f62176">
   <rect x="405.985882" y="7.2" width="131.294118" height="388.08"/>
  </clipPath>
 </defs>
</svg>
