<?xml version="1.0" encoding="utf-8" standalone="no"?>
<!DOCTYPE svg PUBLIC "-//W3C//DTD SVG 1.1//EN"
  "http://www.w3.org/Graphics/SVG/1.1/DTD/svg11.dtd">
<svg xmlns:xlink="http://www.w3.org/1999/xlink" width="560.413875pt" height="344.152031pt" viewBox="0 0 560.413875 344.152031" xmlns="http://www.w3.org/2000/svg" version="1.1">
 <metadata>
  <rdf:RDF xmlns:dc="http://purl.org/dc/elements/1.1/" xmlns:cc="http://creativecommons.org/ns#" xmlns:rdf="http://www.w3.org/1999/02/22-rdf-syntax-ns#">
   <cc:Work>
    <dc:type rdf:resource="http://purl.org/dc/dcmitype/StillImage"/>
    <dc:date>2025-10-20T11:08:16.796318</dc:date>
    <dc:format>image/svg+xml</dc:format>
    <dc:creator>
     <cc:Agent>
      <dc:title>Matplotlib v3.9.4, https://matplotlib.org/</dc:title>
     </cc:Agent>
    </dc:creator>
   </cc:Work>
  </rdf:RDF>
 </metadata>
 <defs>
  <style type="text/css">*{stroke-linejoin: round; stroke-linecap: butt}</style>
 </defs>
 <g id="figure_1">
  <g id="patch_1">
   <path d="M 0 344.152031 
L 560.413875 344.152031 
L 560.413875 0 
L 0 0 
z
" style="fill: #ffffff"/>
  </g>
  <g id="axes_1">
   <g id="patch_2">
    <path d="M 69.699875 142.070469 
L 179.293875 142.070469 
L 179.293875 12.210469 
L 69.699875 12.210469 
z
" style="fill: #ffffff"/>
   </g>
   <g id="PolyCollection_1"/>
   <g id="matplotlib.axis_1">
    <g id="xtick_1">
     <g id="line2d_1">
      <defs>
       <path id="m1564b6dba7" d="M 0 0 
L 0 3.5 
" style="stroke: #000000; stroke-width: 0.8"/>
      </defs>
      <g>
       <use xlink:href="#m1564b6dba7" x="74.68142" y="142.070469" style="stroke: #000000; stroke-width: 0.8"/>
      </g>
     </g>
    </g>
    <g id="xtick_2">
     <g id="line2d_2">
      <g>
       <use xlink:href="#m1564b6dba7" x="130.031926" y="142.070469" style="stroke: #000000; stroke-width: 0.8"/>
      </g>
     </g>
    </g>
   </g>
   <g id="matplotlib.axis_2">
    <g id="ytick_1">
     <g id="line2d_3">
      <defs>
       <path id="m281bf3a0d5" d="M 0 0 
L -3.5 0 
" style="stroke: #000000; stroke-width: 0.8"/>
      </defs>
      <g>
       <use xlink:href="#m281bf3a0d5" x="69.699875" y="142.070469" style="stroke: #000000; stroke-width: 0.8"/>
      </g>
     </g>
     <g id="text_1">
      <!-- 0 -->
      <g transform="translate(54.914563 147.080937) scale(0.14 -0.14)">
       <defs>
        <path id="ArialMT-30" d="M 266 2259 
Q 266 3072 433 3567 
Q 600 4063 929 4331 
Q 1259 4600 1759 4600 
Q 2128 4600 2406 4451 
Q 2684 4303 2865 4023 
Q 3047 3744 3150 3342 
Q 3253 2941 3253 2259 
Q 3253 1453 3087 958 
Q 2922 463 2592 192 
Q 2263 -78 1759 -78 
Q 1097 -78 719 397 
Q 266 969 266 2259 
z
M 844 2259 
Q 844 1131 1108 757 
Q 1372 384 1759 384 
Q 2147 384 2411 759 
Q 2675 1134 2675 2259 
Q 2675 3391 2411 3762 
Q 2147 4134 1753 4134 
Q 1366 4134 1134 3806 
Q 844 3388 844 2259 
z
" transform="scale(0.015625)"/>
       </defs>
       <use xlink:href="#ArialMT-30"/>
      </g>
     </g>
    </g>
    <g id="ytick_2">
     <g id="line2d_4">
      <g>
       <use xlink:href="#m281bf3a0d5" x="69.699875" y="83.043196" style="stroke: #000000; stroke-width: 0.8"/>
      </g>
     </g>
     <g id="text_2">
      <!-- 50 -->
      <g transform="translate(47.12925 88.053665) scale(0.14 -0.14)">
       <defs>
        <path id="ArialMT-35" d="M 266 1200 
L 856 1250 
Q 922 819 1161 601 
Q 1400 384 1738 384 
Q 2144 384 2425 690 
Q 2706 997 2706 1503 
Q 2706 1984 2436 2262 
Q 2166 2541 1728 2541 
Q 1456 2541 1237 2417 
Q 1019 2294 894 2097 
L 366 2166 
L 809 4519 
L 3088 4519 
L 3088 3981 
L 1259 3981 
L 1013 2750 
Q 1425 3038 1878 3038 
Q 2478 3038 2890 2622 
Q 3303 2206 3303 1553 
Q 3303 931 2941 478 
Q 2500 -78 1738 -78 
Q 1113 -78 717 272 
Q 322 622 266 1200 
z
" transform="scale(0.015625)"/>
       </defs>
       <use xlink:href="#ArialMT-35"/>
       <use xlink:href="#ArialMT-30" x="55.615234"/>
      </g>
     </g>
    </g>
    <g id="ytick_3">
     <g id="line2d_5">
      <g>
       <use xlink:href="#m281bf3a0d5" x="69.699875" y="24.015923" style="stroke: #000000; stroke-width: 0.8"/>
      </g>
     </g>
     <g id="text_3">
      <!-- 100 -->
      <g transform="translate(39.343938 29.026392) scale(0.14 -0.14)">
       <defs>
        <path id="ArialMT-31" d="M 2384 0 
L 1822 0 
L 1822 3584 
Q 1619 3391 1289 3197 
Q 959 3003 697 2906 
L 697 3450 
Q 1169 3672 1522 3987 
Q 1875 4303 2022 4600 
L 2384 4600 
L 2384 0 
z
" transform="scale(0.015625)"/>
       </defs>
       <use xlink:href="#ArialMT-31"/>
       <use xlink:href="#ArialMT-30" x="55.615234"/>
       <use xlink:href="#ArialMT-30" x="111.230469"/>
      </g>
     </g>
    </g>
    <g id="text_4">
     <!-- Lipolysis -->
     <g transform="translate(17.220938 103.984375) rotate(-90) scale(0.14 -0.14)">
      <defs>
       <path id="ArialMT-4c" d="M 469 0 
L 469 4581 
L 1075 4581 
L 1075 541 
L 3331 541 
L 3331 0 
L 469 0 
z
" transform="scale(0.015625)"/>
       <path id="ArialMT-69" d="M 425 3934 
L 425 4581 
L 988 4581 
L 988 3934 
L 425 3934 
z
M 425 0 
L 425 3319 
L 988 3319 
L 988 0 
L 425 0 
z
" transform="scale(0.015625)"/>
       <path id="ArialMT-70" d="M 422 -1272 
L 422 3319 
L 934 3319 
L 934 2888 
Q 1116 3141 1344 3267 
Q 1572 3394 1897 3394 
Q 2322 3394 2647 3175 
Q 2972 2956 3137 2557 
Q 3303 2159 3303 1684 
Q 3303 1175 3120 767 
Q 2938 359 2589 142 
Q 2241 -75 1856 -75 
Q 1575 -75 1351 44 
Q 1128 163 984 344 
L 984 -1272 
L 422 -1272 
z
M 931 1641 
Q 931 1000 1190 694 
Q 1450 388 1819 388 
Q 2194 388 2461 705 
Q 2728 1022 2728 1688 
Q 2728 2322 2467 2637 
Q 2206 2953 1844 2953 
Q 1484 2953 1207 2617 
Q 931 2281 931 1641 
z
" transform="scale(0.015625)"/>
       <path id="ArialMT-6f" d="M 213 1659 
Q 213 2581 725 3025 
Q 1153 3394 1769 3394 
Q 2453 3394 2887 2945 
Q 3322 2497 3322 1706 
Q 3322 1066 3130 698 
Q 2938 331 2570 128 
Q 2203 -75 1769 -75 
Q 1072 -75 642 372 
Q 213 819 213 1659 
z
M 791 1659 
Q 791 1022 1069 705 
Q 1347 388 1769 388 
Q 2188 388 2466 706 
Q 2744 1025 2744 1678 
Q 2744 2294 2464 2611 
Q 2184 2928 1769 2928 
Q 1347 2928 1069 2612 
Q 791 2297 791 1659 
z
" transform="scale(0.015625)"/>
       <path id="ArialMT-6c" d="M 409 0 
L 409 4581 
L 972 4581 
L 972 0 
L 409 0 
z
" transform="scale(0.015625)"/>
       <path id="ArialMT-79" d="M 397 -1278 
L 334 -750 
Q 519 -800 656 -800 
Q 844 -800 956 -737 
Q 1069 -675 1141 -563 
Q 1194 -478 1313 -144 
Q 1328 -97 1363 -6 
L 103 3319 
L 709 3319 
L 1400 1397 
Q 1534 1031 1641 628 
Q 1738 1016 1872 1384 
L 2581 3319 
L 3144 3319 
L 1881 -56 
Q 1678 -603 1566 -809 
Q 1416 -1088 1222 -1217 
Q 1028 -1347 759 -1347 
Q 597 -1347 397 -1278 
z
" transform="scale(0.015625)"/>
       <path id="ArialMT-73" d="M 197 991 
L 753 1078 
Q 800 744 1014 566 
Q 1228 388 1613 388 
Q 2000 388 2187 545 
Q 2375 703 2375 916 
Q 2375 1106 2209 1216 
Q 2094 1291 1634 1406 
Q 1016 1563 777 1677 
Q 538 1791 414 1992 
Q 291 2194 291 2438 
Q 291 2659 392 2848 
Q 494 3038 669 3163 
Q 800 3259 1026 3326 
Q 1253 3394 1513 3394 
Q 1903 3394 2198 3281 
Q 2494 3169 2634 2976 
Q 2775 2784 2828 2463 
L 2278 2388 
Q 2241 2644 2061 2787 
Q 1881 2931 1553 2931 
Q 1166 2931 1000 2803 
Q 834 2675 834 2503 
Q 834 2394 903 2306 
Q 972 2216 1119 2156 
Q 1203 2125 1616 2013 
Q 2213 1853 2448 1751 
Q 2684 1650 2818 1456 
Q 2953 1263 2953 975 
Q 2953 694 2789 445 
Q 2625 197 2315 61 
Q 2006 -75 1616 -75 
Q 969 -75 630 194 
Q 291 463 197 991 
z
" transform="scale(0.015625)"/>
      </defs>
      <use xlink:href="#ArialMT-4c"/>
      <use xlink:href="#ArialMT-69" x="55.615234"/>
      <use xlink:href="#ArialMT-70" x="77.832031"/>
      <use xlink:href="#ArialMT-6f" x="133.447266"/>
      <use xlink:href="#ArialMT-6c" x="189.0625"/>
      <use xlink:href="#ArialMT-79" x="211.279297"/>
      <use xlink:href="#ArialMT-73" x="261.279297"/>
      <use xlink:href="#ArialMT-69" x="311.279297"/>
      <use xlink:href="#ArialMT-73" x="333.496094"/>
     </g>
     <!-- (nmol/min/gBW) -->
     <g transform="translate(32.397375 127.310781) rotate(-90) scale(0.14 -0.14)">
      <defs>
       <path id="ArialMT-28" d="M 1497 -1347 
Q 1031 -759 709 28 
Q 388 816 388 1659 
Q 388 2403 628 3084 
Q 909 3875 1497 4659 
L 1900 4659 
Q 1522 4009 1400 3731 
Q 1209 3300 1100 2831 
Q 966 2247 966 1656 
Q 966 153 1900 -1347 
L 1497 -1347 
z
" transform="scale(0.015625)"/>
       <path id="ArialMT-6e" d="M 422 0 
L 422 3319 
L 928 3319 
L 928 2847 
Q 1294 3394 1984 3394 
Q 2284 3394 2536 3286 
Q 2788 3178 2913 3003 
Q 3038 2828 3088 2588 
Q 3119 2431 3119 2041 
L 3119 0 
L 2556 0 
L 2556 2019 
Q 2556 2363 2490 2533 
Q 2425 2703 2258 2804 
Q 2091 2906 1866 2906 
Q 1506 2906 1245 2678 
Q 984 2450 984 1813 
L 984 0 
L 422 0 
z
" transform="scale(0.015625)"/>
       <path id="ArialMT-6d" d="M 422 0 
L 422 3319 
L 925 3319 
L 925 2853 
Q 1081 3097 1340 3245 
Q 1600 3394 1931 3394 
Q 2300 3394 2536 3241 
Q 2772 3088 2869 2813 
Q 3263 3394 3894 3394 
Q 4388 3394 4653 3120 
Q 4919 2847 4919 2278 
L 4919 0 
L 4359 0 
L 4359 2091 
Q 4359 2428 4304 2576 
Q 4250 2725 4106 2815 
Q 3963 2906 3769 2906 
Q 3419 2906 3187 2673 
Q 2956 2441 2956 1928 
L 2956 0 
L 2394 0 
L 2394 2156 
Q 2394 2531 2256 2718 
Q 2119 2906 1806 2906 
Q 1569 2906 1367 2781 
Q 1166 2656 1075 2415 
Q 984 2175 984 1722 
L 984 0 
L 422 0 
z
" transform="scale(0.015625)"/>
       <path id="ArialMT-2f" d="M 0 -78 
L 1328 4659 
L 1778 4659 
L 453 -78 
L 0 -78 
z
" transform="scale(0.015625)"/>
       <path id="ArialMT-67" d="M 319 -275 
L 866 -356 
Q 900 -609 1056 -725 
Q 1266 -881 1628 -881 
Q 2019 -881 2231 -725 
Q 2444 -569 2519 -288 
Q 2563 -116 2559 434 
Q 2191 0 1641 0 
Q 956 0 581 494 
Q 206 988 206 1678 
Q 206 2153 378 2554 
Q 550 2956 876 3175 
Q 1203 3394 1644 3394 
Q 2231 3394 2613 2919 
L 2613 3319 
L 3131 3319 
L 3131 450 
Q 3131 -325 2973 -648 
Q 2816 -972 2473 -1159 
Q 2131 -1347 1631 -1347 
Q 1038 -1347 672 -1080 
Q 306 -813 319 -275 
z
M 784 1719 
Q 784 1066 1043 766 
Q 1303 466 1694 466 
Q 2081 466 2343 764 
Q 2606 1063 2606 1700 
Q 2606 2309 2336 2618 
Q 2066 2928 1684 2928 
Q 1309 2928 1046 2623 
Q 784 2319 784 1719 
z
" transform="scale(0.015625)"/>
       <path id="ArialMT-42" d="M 469 0 
L 469 4581 
L 2188 4581 
Q 2713 4581 3030 4442 
Q 3347 4303 3526 4014 
Q 3706 3725 3706 3409 
Q 3706 3116 3547 2856 
Q 3388 2597 3066 2438 
Q 3481 2316 3704 2022 
Q 3928 1728 3928 1328 
Q 3928 1006 3792 729 
Q 3656 453 3456 303 
Q 3256 153 2954 76 
Q 2653 0 2216 0 
L 469 0 
z
M 1075 2656 
L 2066 2656 
Q 2469 2656 2644 2709 
Q 2875 2778 2992 2937 
Q 3109 3097 3109 3338 
Q 3109 3566 3000 3739 
Q 2891 3913 2687 3977 
Q 2484 4041 1991 4041 
L 1075 4041 
L 1075 2656 
z
M 1075 541 
L 2216 541 
Q 2509 541 2628 563 
Q 2838 600 2978 687 
Q 3119 775 3209 942 
Q 3300 1109 3300 1328 
Q 3300 1584 3169 1773 
Q 3038 1963 2805 2039 
Q 2572 2116 2134 2116 
L 1075 2116 
L 1075 541 
z
" transform="scale(0.015625)"/>
       <path id="ArialMT-57" d="M 1294 0 
L 78 4581 
L 700 4581 
L 1397 1578 
Q 1509 1106 1591 641 
Q 1766 1375 1797 1488 
L 2669 4581 
L 3400 4581 
L 4056 2263 
Q 4303 1400 4413 641 
Q 4500 1075 4641 1638 
L 5359 4581 
L 5969 4581 
L 4713 0 
L 4128 0 
L 3163 3491 
Q 3041 3928 3019 4028 
Q 2947 3713 2884 3491 
L 1913 0 
L 1294 0 
z
" transform="scale(0.015625)"/>
       <path id="ArialMT-29" d="M 791 -1347 
L 388 -1347 
Q 1322 153 1322 1656 
Q 1322 2244 1188 2822 
Q 1081 3291 891 3722 
Q 769 4003 388 4659 
L 791 4659 
Q 1378 3875 1659 3084 
Q 1900 2403 1900 1659 
Q 1900 816 1576 28 
Q 1253 -759 791 -1347 
z
" transform="scale(0.015625)"/>
      </defs>
      <use xlink:href="#ArialMT-28"/>
      <use xlink:href="#ArialMT-6e" x="33.300781"/>
      <use xlink:href="#ArialMT-6d" x="88.916016"/>
      <use xlink:href="#ArialMT-6f" x="172.216797"/>
      <use xlink:href="#ArialMT-6c" x="227.832031"/>
      <use xlink:href="#ArialMT-2f" x="250.048828"/>
      <use xlink:href="#ArialMT-6d" x="277.832031"/>
      <use xlink:href="#ArialMT-69" x="361.132812"/>
      <use xlink:href="#ArialMT-6e" x="383.349609"/>
      <use xlink:href="#ArialMT-2f" x="438.964844"/>
      <use xlink:href="#ArialMT-67" x="466.748047"/>
      <use xlink:href="#ArialMT-42" x="522.363281"/>
      <use xlink:href="#ArialMT-57" x="589.0625"/>
      <use xlink:href="#ArialMT-29" x="683.447266"/>
     </g>
    </g>
   </g>
   <g id="line2d_6">
    <path d="M 74.68142 86.978348 
L 80.216471 86.978348 
L 80.222006 31.886226 
L 81.172413 31.913118 
L 82.122821 32.084946 
L 83.073228 32.491055 
L 84.023635 33.169228 
L 84.974043 34.125088 
L 85.92445 35.345258 
L 86.874857 36.804981 
L 88.775672 40.312819 
L 90.676486 44.362136 
L 96.37893 57.074337 
L 98.279745 60.849695 
L 100.180559 64.211227 
L 102.081374 67.120883 
L 103.982189 69.572962 
L 105.883003 71.583561 
L 107.783818 73.182014 
L 109.684633 74.404548 
L 111.585447 75.290001 
L 113.486262 75.877193 
L 115.387076 76.203505 
L 117.287891 76.304254 
L 119.188706 76.212533 
L 122.039928 75.781247 
L 124.89115 75.082486 
L 128.692779 73.885049 
L 139.147259 70.349871 
L 142.948888 69.357811 
L 146.750518 68.640722 
L 150.552147 68.215018 
L 154.353776 68.06081 
L 158.155405 68.131087 
L 162.907442 68.439005 
L 174.31233 69.485877 
L 174.31233 69.485877 
" clip-path="url(#p1b638604cf)" style="fill: none; stroke: #000000; stroke-width: 1.5; stroke-linecap: square"/>
   </g>
   <g id="line2d_7">
    <path d="M 69.699875 86.978348 
L 179.293875 86.978348 
" clip-path="url(#p1b638604cf)" style="fill: none; stroke-dasharray: 3.7,1.6; stroke-dashoffset: 0; stroke: #888888"/>
   </g>
   <g id="patch_3">
    <path d="M 69.699875 142.070469 
L 69.699875 12.210469 
" style="fill: none; stroke: #000000; stroke-width: 0.8; stroke-linejoin: miter; stroke-linecap: square"/>
   </g>
   <g id="patch_4">
    <path d="M 69.699875 142.070469 
L 179.293875 142.070469 
" style="fill: none; stroke: #000000; stroke-width: 0.8; stroke-linejoin: miter; stroke-linecap: square"/>
   </g>
  </g>
  <g id="axes_2">
   <g id="patch_5">
    <path d="M 256.659875 142.070469 
L 366.253875 142.070469 
L 366.253875 12.210469 
L 256.659875 12.210469 
z
" style="fill: #ffffff"/>
   </g>
   <g id="PolyCollection_2"/>
   <g id="matplotlib.axis_3">
    <g id="xtick_3">
     <g id="line2d_8">
      <g>
       <use xlink:href="#m1564b6dba7" x="261.64142" y="142.070469" style="stroke: #000000; stroke-width: 0.8"/>
      </g>
     </g>
    </g>
    <g id="xtick_4">
     <g id="line2d_9">
      <g>
       <use xlink:href="#m1564b6dba7" x="316.991926" y="142.070469" style="stroke: #000000; stroke-width: 0.8"/>
      </g>
     </g>
    </g>
   </g>
   <g id="matplotlib.axis_4">
    <g id="ytick_4">
     <g id="line2d_10">
      <g>
       <use xlink:href="#m281bf3a0d5" x="256.659875" y="142.070469" style="stroke: #000000; stroke-width: 0.8"/>
      </g>
     </g>
     <g id="text_5">
      <!-- 0.0 -->
      <g transform="translate(230.199875 147.080937) scale(0.14 -0.14)">
       <defs>
        <path id="ArialMT-2e" d="M 581 0 
L 581 641 
L 1222 641 
L 1222 0 
L 581 0 
z
" transform="scale(0.015625)"/>
       </defs>
       <use xlink:href="#ArialMT-30"/>
       <use xlink:href="#ArialMT-2e" x="55.615234"/>
       <use xlink:href="#ArialMT-30" x="83.398438"/>
      </g>
     </g>
    </g>
    <g id="ytick_5">
     <g id="line2d_11">
      <g>
       <use xlink:href="#m281bf3a0d5" x="256.659875" y="109.605469" style="stroke: #000000; stroke-width: 0.8"/>
      </g>
     </g>
     <g id="text_6">
      <!-- 0.5 -->
      <g transform="translate(230.199875 114.615937) scale(0.14 -0.14)">
       <use xlink:href="#ArialMT-30"/>
       <use xlink:href="#ArialMT-2e" x="55.615234"/>
       <use xlink:href="#ArialMT-35" x="83.398438"/>
      </g>
     </g>
    </g>
    <g id="ytick_6">
     <g id="line2d_12">
      <g>
       <use xlink:href="#m281bf3a0d5" x="256.659875" y="77.140469" style="stroke: #000000; stroke-width: 0.8"/>
      </g>
     </g>
     <g id="text_7">
      <!-- 1.0 -->
      <g transform="translate(230.199875 82.150937) scale(0.14 -0.14)">
       <use xlink:href="#ArialMT-31"/>
       <use xlink:href="#ArialMT-2e" x="55.615234"/>
       <use xlink:href="#ArialMT-30" x="83.398438"/>
      </g>
     </g>
    </g>
    <g id="ytick_7">
     <g id="line2d_13">
      <g>
       <use xlink:href="#m281bf3a0d5" x="256.659875" y="44.675469" style="stroke: #000000; stroke-width: 0.8"/>
      </g>
     </g>
     <g id="text_8">
      <!-- 1.5 -->
      <g transform="translate(230.199875 49.685937) scale(0.14 -0.14)">
       <use xlink:href="#ArialMT-31"/>
       <use xlink:href="#ArialMT-2e" x="55.615234"/>
       <use xlink:href="#ArialMT-35" x="83.398438"/>
      </g>
     </g>
    </g>
    <g id="ytick_8">
     <g id="line2d_14">
      <g>
       <use xlink:href="#m281bf3a0d5" x="256.659875" y="12.210469" style="stroke: #000000; stroke-width: 0.8"/>
      </g>
     </g>
     <g id="text_9">
      <!-- 2.0 -->
      <g transform="translate(230.199875 17.220937) scale(0.14 -0.14)">
       <defs>
        <path id="ArialMT-32" d="M 3222 541 
L 3222 0 
L 194 0 
Q 188 203 259 391 
Q 375 700 629 1000 
Q 884 1300 1366 1694 
Q 2113 2306 2375 2664 
Q 2638 3022 2638 3341 
Q 2638 3675 2398 3904 
Q 2159 4134 1775 4134 
Q 1369 4134 1125 3890 
Q 881 3647 878 3216 
L 300 3275 
Q 359 3922 746 4261 
Q 1134 4600 1788 4600 
Q 2447 4600 2831 4234 
Q 3216 3869 3216 3328 
Q 3216 3053 3103 2787 
Q 2991 2522 2730 2228 
Q 2469 1934 1863 1422 
Q 1356 997 1212 845 
Q 1069 694 975 541 
L 3222 541 
z
" transform="scale(0.015625)"/>
       </defs>
       <use xlink:href="#ArialMT-32"/>
       <use xlink:href="#ArialMT-2e" x="55.615234"/>
       <use xlink:href="#ArialMT-30" x="83.398438"/>
      </g>
     </g>
    </g>
    <g id="text_10">
     <!-- Fatty acids (mM) -->
     <g transform="translate(223.253312 129.251094) rotate(-90) scale(0.14 -0.14)">
      <defs>
       <path id="ArialMT-46" d="M 525 0 
L 525 4581 
L 3616 4581 
L 3616 4041 
L 1131 4041 
L 1131 2622 
L 3281 2622 
L 3281 2081 
L 1131 2081 
L 1131 0 
L 525 0 
z
" transform="scale(0.015625)"/>
       <path id="ArialMT-61" d="M 2588 409 
Q 2275 144 1986 34 
Q 1697 -75 1366 -75 
Q 819 -75 525 192 
Q 231 459 231 875 
Q 231 1119 342 1320 
Q 453 1522 633 1644 
Q 813 1766 1038 1828 
Q 1203 1872 1538 1913 
Q 2219 1994 2541 2106 
Q 2544 2222 2544 2253 
Q 2544 2597 2384 2738 
Q 2169 2928 1744 2928 
Q 1347 2928 1158 2789 
Q 969 2650 878 2297 
L 328 2372 
Q 403 2725 575 2942 
Q 747 3159 1072 3276 
Q 1397 3394 1825 3394 
Q 2250 3394 2515 3294 
Q 2781 3194 2906 3042 
Q 3031 2891 3081 2659 
Q 3109 2516 3109 2141 
L 3109 1391 
Q 3109 606 3145 398 
Q 3181 191 3288 0 
L 2700 0 
Q 2613 175 2588 409 
z
M 2541 1666 
Q 2234 1541 1622 1453 
Q 1275 1403 1131 1340 
Q 988 1278 909 1158 
Q 831 1038 831 891 
Q 831 666 1001 516 
Q 1172 366 1500 366 
Q 1825 366 2078 508 
Q 2331 650 2450 897 
Q 2541 1088 2541 1459 
L 2541 1666 
z
" transform="scale(0.015625)"/>
       <path id="ArialMT-74" d="M 1650 503 
L 1731 6 
Q 1494 -44 1306 -44 
Q 1000 -44 831 53 
Q 663 150 594 308 
Q 525 466 525 972 
L 525 2881 
L 113 2881 
L 113 3319 
L 525 3319 
L 525 4141 
L 1084 4478 
L 1084 3319 
L 1650 3319 
L 1650 2881 
L 1084 2881 
L 1084 941 
Q 1084 700 1114 631 
Q 1144 563 1211 522 
Q 1278 481 1403 481 
Q 1497 481 1650 503 
z
" transform="scale(0.015625)"/>
       <path id="ArialMT-20" transform="scale(0.015625)"/>
       <path id="ArialMT-63" d="M 2588 1216 
L 3141 1144 
Q 3050 572 2676 248 
Q 2303 -75 1759 -75 
Q 1078 -75 664 370 
Q 250 816 250 1647 
Q 250 2184 428 2587 
Q 606 2991 970 3192 
Q 1334 3394 1763 3394 
Q 2303 3394 2647 3120 
Q 2991 2847 3088 2344 
L 2541 2259 
Q 2463 2594 2264 2762 
Q 2066 2931 1784 2931 
Q 1359 2931 1093 2626 
Q 828 2322 828 1663 
Q 828 994 1084 691 
Q 1341 388 1753 388 
Q 2084 388 2306 591 
Q 2528 794 2588 1216 
z
" transform="scale(0.015625)"/>
       <path id="ArialMT-64" d="M 2575 0 
L 2575 419 
Q 2259 -75 1647 -75 
Q 1250 -75 917 144 
Q 584 363 401 755 
Q 219 1147 219 1656 
Q 219 2153 384 2558 
Q 550 2963 881 3178 
Q 1213 3394 1622 3394 
Q 1922 3394 2156 3267 
Q 2391 3141 2538 2938 
L 2538 4581 
L 3097 4581 
L 3097 0 
L 2575 0 
z
M 797 1656 
Q 797 1019 1065 703 
Q 1334 388 1700 388 
Q 2069 388 2326 689 
Q 2584 991 2584 1609 
Q 2584 2291 2321 2609 
Q 2059 2928 1675 2928 
Q 1300 2928 1048 2622 
Q 797 2316 797 1656 
z
" transform="scale(0.015625)"/>
       <path id="ArialMT-4d" d="M 475 0 
L 475 4581 
L 1388 4581 
L 2472 1338 
Q 2622 884 2691 659 
Q 2769 909 2934 1394 
L 4031 4581 
L 4847 4581 
L 4847 0 
L 4263 0 
L 4263 3834 
L 2931 0 
L 2384 0 
L 1059 3900 
L 1059 0 
L 475 0 
z
" transform="scale(0.015625)"/>
      </defs>
      <use xlink:href="#ArialMT-46"/>
      <use xlink:href="#ArialMT-61" x="61.083984"/>
      <use xlink:href="#ArialMT-74" x="116.699219"/>
      <use xlink:href="#ArialMT-74" x="144.482422"/>
      <use xlink:href="#ArialMT-79" x="172.265625"/>
      <use xlink:href="#ArialMT-20" x="222.265625"/>
      <use xlink:href="#ArialMT-61" x="250.048828"/>
      <use xlink:href="#ArialMT-63" x="305.664062"/>
      <use xlink:href="#ArialMT-69" x="355.664062"/>
      <use xlink:href="#ArialMT-64" x="377.880859"/>
      <use xlink:href="#ArialMT-73" x="433.496094"/>
      <use xlink:href="#ArialMT-20" x="483.496094"/>
      <use xlink:href="#ArialMT-28" x="511.279297"/>
      <use xlink:href="#ArialMT-6d" x="544.580078"/>
      <use xlink:href="#ArialMT-4d" x="627.880859"/>
      <use xlink:href="#ArialMT-29" x="711.181641"/>
     </g>
    </g>
   </g>
   <g id="line2d_15">
    <path d="M 261.64142 109.605469 
L 267.182006 109.605469 
L 268.132413 90.537239 
L 269.082821 80.154262 
L 270.033228 74.425058 
L 270.983635 71.316522 
L 271.934043 69.750754 
L 272.88445 69.14116 
L 273.834857 69.159923 
L 274.785264 69.616798 
L 275.735672 70.394951 
L 276.686079 71.41686 
L 278.586894 73.978687 
L 281.438116 78.541557 
L 285.239745 84.796435 
L 287.140559 87.649744 
L 289.041374 90.200222 
L 290.942189 92.40881 
L 292.843003 94.267192 
L 294.743818 95.788072 
L 296.644633 96.996413 
L 298.545447 97.922796 
L 300.446262 98.599078 
L 302.347076 99.055999 
L 304.247891 99.322136 
L 307.099113 99.420245 
L 309.950335 99.226636 
L 312.801557 98.811609 
L 316.603186 98.022997 
L 331.809703 94.51227 
L 335.611332 93.973394 
L 339.412961 93.645563 
L 343.214591 93.516946 
L 347.966627 93.585326 
L 354.619478 93.948013 
L 361.27233 94.403903 
L 361.27233 94.403903 
" clip-path="url(#pfebfdbe579)" style="fill: none; stroke: #000000; stroke-width: 1.5; stroke-linecap: square"/>
   </g>
   <g id="line2d_16">
    <path d="M 256.659875 109.605469 
L 366.253875 109.605469 
" clip-path="url(#pfebfdbe579)" style="fill: none; stroke-dasharray: 3.7,1.6; stroke-dashoffset: 0; stroke: #888888"/>
   </g>
   <g id="patch_6">
    <path d="M 256.659875 142.070469 
L 256.659875 12.210469 
" style="fill: none; stroke: #000000; stroke-width: 0.8; stroke-linejoin: miter; stroke-linecap: square"/>
   </g>
   <g id="patch_7">
    <path d="M 256.659875 142.070469 
L 366.253875 142.070469 
" style="fill: none; stroke: #000000; stroke-width: 0.8; stroke-linejoin: miter; stroke-linecap: square"/>
   </g>
  </g>
  <g id="axes_3">
   <g id="patch_8">
    <path d="M 443.619875 142.070469 
L 553.213875 142.070469 
L 553.213875 12.210469 
L 443.619875 12.210469 
z
" style="fill: #ffffff"/>
   </g>
   <g id="PolyCollection_3"/>
   <g id="matplotlib.axis_5">
    <g id="xtick_5">
     <g id="line2d_17">
      <g>
       <use xlink:href="#m1564b6dba7" x="448.60142" y="142.070469" style="stroke: #000000; stroke-width: 0.8"/>
      </g>
     </g>
    </g>
    <g id="xtick_6">
     <g id="line2d_18">
      <g>
       <use xlink:href="#m1564b6dba7" x="503.951926" y="142.070469" style="stroke: #000000; stroke-width: 0.8"/>
      </g>
     </g>
    </g>
   </g>
   <g id="matplotlib.axis_6">
    <g id="ytick_9">
     <g id="line2d_19">
      <g>
       <use xlink:href="#m281bf3a0d5" x="443.619875" y="142.070469" style="stroke: #000000; stroke-width: 0.8"/>
      </g>
     </g>
     <g id="text_11">
      <!-- 0 -->
      <g transform="translate(428.834562 147.080937) scale(0.14 -0.14)">
       <use xlink:href="#ArialMT-30"/>
      </g>
     </g>
    </g>
    <g id="ytick_10">
     <g id="line2d_20">
      <g>
       <use xlink:href="#m281bf3a0d5" x="443.619875" y="87.962135" style="stroke: #000000; stroke-width: 0.8"/>
      </g>
     </g>
     <g id="text_12">
      <!-- 50 -->
      <g transform="translate(421.04925 92.972604) scale(0.14 -0.14)">
       <use xlink:href="#ArialMT-35"/>
       <use xlink:href="#ArialMT-30" x="55.615234"/>
      </g>
     </g>
    </g>
    <g id="ytick_11">
     <g id="line2d_21">
      <g>
       <use xlink:href="#m281bf3a0d5" x="443.619875" y="33.853802" style="stroke: #000000; stroke-width: 0.8"/>
      </g>
     </g>
     <g id="text_13">
      <!-- 100 -->
      <g transform="translate(413.263937 38.864271) scale(0.14 -0.14)">
       <use xlink:href="#ArialMT-31"/>
       <use xlink:href="#ArialMT-30" x="55.615234"/>
       <use xlink:href="#ArialMT-30" x="111.230469"/>
      </g>
     </g>
    </g>
    <g id="text_14">
     <!-- Fatty-acid oxidation  -->
     <g transform="translate(391.140937 139.777344) rotate(-90) scale(0.14 -0.14)">
      <defs>
       <path id="ArialMT-2d" d="M 203 1375 
L 203 1941 
L 1931 1941 
L 1931 1375 
L 203 1375 
z
" transform="scale(0.015625)"/>
       <path id="ArialMT-78" d="M 47 0 
L 1259 1725 
L 138 3319 
L 841 3319 
L 1350 2541 
Q 1494 2319 1581 2169 
Q 1719 2375 1834 2534 
L 2394 3319 
L 3066 3319 
L 1919 1756 
L 3153 0 
L 2463 0 
L 1781 1031 
L 1600 1309 
L 728 0 
L 47 0 
z
" transform="scale(0.015625)"/>
      </defs>
      <use xlink:href="#ArialMT-46"/>
      <use xlink:href="#ArialMT-61" x="61.083984"/>
      <use xlink:href="#ArialMT-74" x="116.699219"/>
      <use xlink:href="#ArialMT-74" x="144.482422"/>
      <use xlink:href="#ArialMT-79" x="172.265625"/>
      <use xlink:href="#ArialMT-2d" x="222.265625"/>
      <use xlink:href="#ArialMT-61" x="255.566406"/>
      <use xlink:href="#ArialMT-63" x="311.181641"/>
      <use xlink:href="#ArialMT-69" x="361.181641"/>
      <use xlink:href="#ArialMT-64" x="383.398438"/>
      <use xlink:href="#ArialMT-20" x="439.013672"/>
      <use xlink:href="#ArialMT-6f" x="466.796875"/>
      <use xlink:href="#ArialMT-78" x="522.412109"/>
      <use xlink:href="#ArialMT-69" x="572.412109"/>
      <use xlink:href="#ArialMT-64" x="594.628906"/>
      <use xlink:href="#ArialMT-61" x="650.244141"/>
      <use xlink:href="#ArialMT-74" x="705.859375"/>
      <use xlink:href="#ArialMT-69" x="733.642578"/>
      <use xlink:href="#ArialMT-6f" x="755.859375"/>
      <use xlink:href="#ArialMT-6e" x="811.474609"/>
      <use xlink:href="#ArialMT-20" x="867.089844"/>
     </g>
     <!-- (nmol/min/gBW) -->
     <g transform="translate(406.317375 127.310781) rotate(-90) scale(0.14 -0.14)">
      <use xlink:href="#ArialMT-28"/>
      <use xlink:href="#ArialMT-6e" x="33.300781"/>
      <use xlink:href="#ArialMT-6d" x="88.916016"/>
      <use xlink:href="#ArialMT-6f" x="172.216797"/>
      <use xlink:href="#ArialMT-6c" x="227.832031"/>
      <use xlink:href="#ArialMT-2f" x="250.048828"/>
      <use xlink:href="#ArialMT-6d" x="277.832031"/>
      <use xlink:href="#ArialMT-69" x="361.132812"/>
      <use xlink:href="#ArialMT-6e" x="383.349609"/>
      <use xlink:href="#ArialMT-2f" x="438.964844"/>
      <use xlink:href="#ArialMT-67" x="466.748047"/>
      <use xlink:href="#ArialMT-42" x="522.363281"/>
      <use xlink:href="#ArialMT-57" x="589.0625"/>
      <use xlink:href="#ArialMT-29" x="683.447266"/>
     </g>
    </g>
   </g>
   <g id="line2d_22">
    <path d="M 448.60142 99.144524 
L 454.142006 99.144524 
L 455.092413 92.720882 
L 456.042821 91.403854 
L 456.993228 91.438384 
L 457.943635 91.913628 
L 460.794857 93.664224 
L 462.695672 94.56034 
L 464.596486 95.19931 
L 467.447708 95.816968 
L 482.654225 98.130908 
L 486.455854 98.417143 
L 490.257484 98.412998 
L 494.059113 98.171402 
L 499.761557 97.556051 
L 509.26563 96.501068 
L 514.968074 96.094321 
L 520.670518 95.898699 
L 527.323369 95.885043 
L 538.728256 96.135253 
L 548.23233 96.360089 
L 548.23233 96.360089 
" clip-path="url(#p98737ff3a9)" style="fill: none; stroke: #000000; stroke-width: 1.5; stroke-linecap: square"/>
   </g>
   <g id="line2d_23">
    <path d="M 443.619875 99.144524 
L 553.213875 99.144524 
" clip-path="url(#p98737ff3a9)" style="fill: none; stroke-dasharray: 3.7,1.6; stroke-dashoffset: 0; stroke: #888888"/>
   </g>
   <g id="patch_9">
    <path d="M 443.619875 142.070469 
L 443.619875 12.210469 
" style="fill: none; stroke: #000000; stroke-width: 0.8; stroke-linejoin: miter; stroke-linecap: square"/>
   </g>
   <g id="patch_10">
    <path d="M 443.619875 142.070469 
L 553.213875 142.070469 
" style="fill: none; stroke: #000000; stroke-width: 0.8; stroke-linejoin: miter; stroke-linecap: square"/>
   </g>
  </g>
  <g id="axes_4">
   <g id="patch_11">
    <path d="M 69.699875 300.010469 
L 179.293875 300.010469 
L 179.293875 170.150469 
L 69.699875 170.150469 
z
" style="fill: #ffffff"/>
   </g>
   <g id="PolyCollection_4"/>
   <g id="matplotlib.axis_7">
    <g id="xtick_7">
     <g id="line2d_24">
      <g>
       <use xlink:href="#m1564b6dba7" x="74.68142" y="300.010469" style="stroke: #000000; stroke-width: 0.8"/>
      </g>
     </g>
     <g id="text_15">
      <!-- 0 -->
      <g transform="translate(70.788764 317.031406) scale(0.14 -0.14)">
       <use xlink:href="#ArialMT-30"/>
      </g>
     </g>
    </g>
    <g id="xtick_8">
     <g id="line2d_25">
      <g>
       <use xlink:href="#m1564b6dba7" x="130.031926" y="300.010469" style="stroke: #000000; stroke-width: 0.8"/>
      </g>
     </g>
     <g id="text_16">
      <!-- 100 -->
      <g transform="translate(118.353957 317.031406) scale(0.14 -0.14)">
       <use xlink:href="#ArialMT-31"/>
       <use xlink:href="#ArialMT-30" x="55.615234"/>
       <use xlink:href="#ArialMT-30" x="111.230469"/>
      </g>
     </g>
    </g>
    <g id="text_17">
     <!-- Time (min) -->
     <g transform="translate(91.320156 334.005469) scale(0.14 -0.14)">
      <defs>
       <path id="ArialMT-54" d="M 1659 0 
L 1659 4041 
L 150 4041 
L 150 4581 
L 3781 4581 
L 3781 4041 
L 2266 4041 
L 2266 0 
L 1659 0 
z
" transform="scale(0.015625)"/>
       <path id="ArialMT-65" d="M 2694 1069 
L 3275 997 
Q 3138 488 2766 206 
Q 2394 -75 1816 -75 
Q 1088 -75 661 373 
Q 234 822 234 1631 
Q 234 2469 665 2931 
Q 1097 3394 1784 3394 
Q 2450 3394 2872 2941 
Q 3294 2488 3294 1666 
Q 3294 1616 3291 1516 
L 816 1516 
Q 847 969 1125 678 
Q 1403 388 1819 388 
Q 2128 388 2347 550 
Q 2566 713 2694 1069 
z
M 847 1978 
L 2700 1978 
Q 2663 2397 2488 2606 
Q 2219 2931 1791 2931 
Q 1403 2931 1139 2672 
Q 875 2413 847 1978 
z
" transform="scale(0.015625)"/>
      </defs>
      <use xlink:href="#ArialMT-54"/>
      <use xlink:href="#ArialMT-69" x="57.333984"/>
      <use xlink:href="#ArialMT-6d" x="79.550781"/>
      <use xlink:href="#ArialMT-65" x="162.851562"/>
      <use xlink:href="#ArialMT-20" x="218.466797"/>
      <use xlink:href="#ArialMT-28" x="246.25"/>
      <use xlink:href="#ArialMT-6d" x="279.550781"/>
      <use xlink:href="#ArialMT-69" x="362.851562"/>
      <use xlink:href="#ArialMT-6e" x="385.068359"/>
      <use xlink:href="#ArialMT-29" x="440.683594"/>
     </g>
    </g>
   </g>
   <g id="matplotlib.axis_8">
    <g id="ytick_12">
     <g id="line2d_26">
      <g>
       <use xlink:href="#m281bf3a0d5" x="69.699875" y="300.010469" style="stroke: #000000; stroke-width: 0.8"/>
      </g>
     </g>
     <g id="text_18">
      <!-- 0.0 -->
      <g transform="translate(43.239875 305.020937) scale(0.14 -0.14)">
       <use xlink:href="#ArialMT-30"/>
       <use xlink:href="#ArialMT-2e" x="55.615234"/>
       <use xlink:href="#ArialMT-30" x="83.398438"/>
      </g>
     </g>
    </g>
    <g id="ytick_13">
     <g id="line2d_27">
      <g>
       <use xlink:href="#m281bf3a0d5" x="69.699875" y="256.723802" style="stroke: #000000; stroke-width: 0.8"/>
      </g>
     </g>
     <g id="text_19">
      <!-- 0.5 -->
      <g transform="translate(43.239875 261.734271) scale(0.14 -0.14)">
       <use xlink:href="#ArialMT-30"/>
       <use xlink:href="#ArialMT-2e" x="55.615234"/>
       <use xlink:href="#ArialMT-35" x="83.398438"/>
      </g>
     </g>
    </g>
    <g id="ytick_14">
     <g id="line2d_28">
      <g>
       <use xlink:href="#m281bf3a0d5" x="69.699875" y="213.437135" style="stroke: #000000; stroke-width: 0.8"/>
      </g>
     </g>
     <g id="text_20">
      <!-- 1.0 -->
      <g transform="translate(43.239875 218.447604) scale(0.14 -0.14)">
       <use xlink:href="#ArialMT-31"/>
       <use xlink:href="#ArialMT-2e" x="55.615234"/>
       <use xlink:href="#ArialMT-30" x="83.398438"/>
      </g>
     </g>
    </g>
    <g id="ytick_15">
     <g id="line2d_29">
      <g>
       <use xlink:href="#m281bf3a0d5" x="69.699875" y="170.150469" style="stroke: #000000; stroke-width: 0.8"/>
      </g>
     </g>
     <g id="text_21">
      <!-- 1.5 -->
      <g transform="translate(43.239875 175.160937) scale(0.14 -0.14)">
       <use xlink:href="#ArialMT-31"/>
       <use xlink:href="#ArialMT-2e" x="55.615234"/>
       <use xlink:href="#ArialMT-35" x="83.398438"/>
      </g>
     </g>
    </g>
    <g id="text_22">
     <!-- Insulin (ng/mL) -->
     <g transform="translate(36.293312 281.373437) rotate(-90) scale(0.14 -0.14)">
      <defs>
       <path id="ArialMT-49" d="M 597 0 
L 597 4581 
L 1203 4581 
L 1203 0 
L 597 0 
z
" transform="scale(0.015625)"/>
       <path id="ArialMT-75" d="M 2597 0 
L 2597 488 
Q 2209 -75 1544 -75 
Q 1250 -75 995 37 
Q 741 150 617 320 
Q 494 491 444 738 
Q 409 903 409 1263 
L 409 3319 
L 972 3319 
L 972 1478 
Q 972 1038 1006 884 
Q 1059 663 1231 536 
Q 1403 409 1656 409 
Q 1909 409 2131 539 
Q 2353 669 2445 892 
Q 2538 1116 2538 1541 
L 2538 3319 
L 3100 3319 
L 3100 0 
L 2597 0 
z
" transform="scale(0.015625)"/>
      </defs>
      <use xlink:href="#ArialMT-49"/>
      <use xlink:href="#ArialMT-6e" x="27.783203"/>
      <use xlink:href="#ArialMT-73" x="83.398438"/>
      <use xlink:href="#ArialMT-75" x="133.398438"/>
      <use xlink:href="#ArialMT-6c" x="189.013672"/>
      <use xlink:href="#ArialMT-69" x="211.230469"/>
      <use xlink:href="#ArialMT-6e" x="233.447266"/>
      <use xlink:href="#ArialMT-20" x="289.0625"/>
      <use xlink:href="#ArialMT-28" x="316.845703"/>
      <use xlink:href="#ArialMT-6e" x="350.146484"/>
      <use xlink:href="#ArialMT-67" x="405.761719"/>
      <use xlink:href="#ArialMT-2f" x="461.376953"/>
      <use xlink:href="#ArialMT-6d" x="489.160156"/>
      <use xlink:href="#ArialMT-4c" x="572.460938"/>
      <use xlink:href="#ArialMT-29" x="628.076172"/>
     </g>
    </g>
   </g>
   <g id="line2d_30">
    <path d="M 74.68142 265.381135 
L 80.222006 265.381135 
L 81.172413 264.494309 
L 82.122821 262.179946 
L 83.073228 259.013048 
L 84.974043 251.456609 
L 91.626894 223.315324 
L 93.527708 216.480033 
L 95.428523 210.728383 
L 96.37893 208.322176 
L 97.329338 206.251386 
L 98.279745 204.524919 
L 99.230152 203.145257 
L 100.180559 202.108627 
L 101.130967 201.40542 
L 102.081374 201.020835 
L 103.031781 200.935682 
L 103.982189 201.127298 
L 104.932596 201.570497 
L 105.883003 202.238494 
L 106.833411 203.103758 
L 108.734225 205.316508 
L 110.63504 207.998313 
L 113.486262 212.495867 
L 118.238298 220.078823 
L 121.08952 224.154265 
L 122.990335 226.555166 
L 124.89115 228.669606 
L 126.791964 230.484488 
L 128.692779 231.997476 
L 130.593593 233.214551 
L 132.494408 234.14801 
L 134.395223 234.814863 
L 136.296037 235.235586 
L 138.196852 235.433145 
L 140.097666 235.432245 
L 141.998481 235.258719 
L 144.849703 234.732662 
L 147.700925 233.967155 
L 152.452961 232.392475 
L 159.105813 230.140973 
L 162.907442 229.075404 
L 166.709071 228.269006 
L 170.5107 227.74727 
L 174.31233 227.497668 
L 174.31233 227.497668 
" clip-path="url(#p85b68c3e41)" style="fill: none; stroke: #000000; stroke-width: 1.5; stroke-linecap: square"/>
   </g>
   <g id="line2d_31">
    <path d="M 69.699875 265.381135 
L 179.293875 265.381135 
" clip-path="url(#p85b68c3e41)" style="fill: none; stroke-dasharray: 3.7,1.6; stroke-dashoffset: 0; stroke: #888888"/>
   </g>
   <g id="patch_12">
    <path d="M 69.699875 300.010469 
L 69.699875 170.150469 
" style="fill: none; stroke: #000000; stroke-width: 0.8; stroke-linejoin: miter; stroke-linecap: square"/>
   </g>
   <g id="patch_13">
    <path d="M 69.699875 300.010469 
L 179.293875 300.010469 
" style="fill: none; stroke: #000000; stroke-width: 0.8; stroke-linejoin: miter; stroke-linecap: square"/>
   </g>
  </g>
  <g id="axes_5">
   <g id="patch_14">
    <path d="M 256.659875 300.010469 
L 366.253875 300.010469 
L 366.253875 170.150469 
L 256.659875 170.150469 
z
" style="fill: #ffffff"/>
   </g>
   <g id="PolyCollection_5"/>
   <g id="matplotlib.axis_9">
    <g id="xtick_9">
     <g id="line2d_32">
      <g>
       <use xlink:href="#m1564b6dba7" x="261.64142" y="300.010469" style="stroke: #000000; stroke-width: 0.8"/>
      </g>
     </g>
     <g id="text_23">
      <!-- 0 -->
      <g transform="translate(257.748764 317.031406) scale(0.14 -0.14)">
       <use xlink:href="#ArialMT-30"/>
      </g>
     </g>
    </g>
    <g id="xtick_10">
     <g id="line2d_33">
      <g>
       <use xlink:href="#m1564b6dba7" x="316.991926" y="300.010469" style="stroke: #000000; stroke-width: 0.8"/>
      </g>
     </g>
     <g id="text_24">
      <!-- 100 -->
      <g transform="translate(305.313957 317.031406) scale(0.14 -0.14)">
       <use xlink:href="#ArialMT-31"/>
       <use xlink:href="#ArialMT-30" x="55.615234"/>
       <use xlink:href="#ArialMT-30" x="111.230469"/>
      </g>
     </g>
    </g>
    <g id="text_25">
     <!-- Time (min) -->
     <g transform="translate(278.280156 334.005469) scale(0.14 -0.14)">
      <use xlink:href="#ArialMT-54"/>
      <use xlink:href="#ArialMT-69" x="57.333984"/>
      <use xlink:href="#ArialMT-6d" x="79.550781"/>
      <use xlink:href="#ArialMT-65" x="162.851562"/>
      <use xlink:href="#ArialMT-20" x="218.466797"/>
      <use xlink:href="#ArialMT-28" x="246.25"/>
      <use xlink:href="#ArialMT-6d" x="279.550781"/>
      <use xlink:href="#ArialMT-69" x="362.851562"/>
      <use xlink:href="#ArialMT-6e" x="385.068359"/>
      <use xlink:href="#ArialMT-29" x="440.683594"/>
     </g>
    </g>
   </g>
   <g id="matplotlib.axis_10">
    <g id="ytick_16">
     <g id="line2d_34">
      <g>
       <use xlink:href="#m281bf3a0d5" x="256.659875" y="300.010469" style="stroke: #000000; stroke-width: 0.8"/>
      </g>
     </g>
     <g id="text_26">
      <!-- 0 -->
      <g transform="translate(241.874562 305.020937) scale(0.14 -0.14)">
       <use xlink:href="#ArialMT-30"/>
      </g>
     </g>
    </g>
    <g id="ytick_17">
     <g id="line2d_35">
      <g>
       <use xlink:href="#m281bf3a0d5" x="256.659875" y="267.545469" style="stroke: #000000; stroke-width: 0.8"/>
      </g>
     </g>
     <g id="text_27">
      <!-- 50 -->
      <g transform="translate(234.08925 272.555937) scale(0.14 -0.14)">
       <use xlink:href="#ArialMT-35"/>
       <use xlink:href="#ArialMT-30" x="55.615234"/>
      </g>
     </g>
    </g>
    <g id="ytick_18">
     <g id="line2d_36">
      <g>
       <use xlink:href="#m281bf3a0d5" x="256.659875" y="235.080469" style="stroke: #000000; stroke-width: 0.8"/>
      </g>
     </g>
     <g id="text_28">
      <!-- 100 -->
      <g transform="translate(226.303937 240.090937) scale(0.14 -0.14)">
       <use xlink:href="#ArialMT-31"/>
       <use xlink:href="#ArialMT-30" x="55.615234"/>
       <use xlink:href="#ArialMT-30" x="111.230469"/>
      </g>
     </g>
    </g>
    <g id="ytick_19">
     <g id="line2d_37">
      <g>
       <use xlink:href="#m281bf3a0d5" x="256.659875" y="202.615469" style="stroke: #000000; stroke-width: 0.8"/>
      </g>
     </g>
     <g id="text_29">
      <!-- 150 -->
      <g transform="translate(226.303937 207.625937) scale(0.14 -0.14)">
       <use xlink:href="#ArialMT-31"/>
       <use xlink:href="#ArialMT-35" x="55.615234"/>
       <use xlink:href="#ArialMT-30" x="111.230469"/>
      </g>
     </g>
    </g>
    <g id="ytick_20">
     <g id="line2d_38">
      <g>
       <use xlink:href="#m281bf3a0d5" x="256.659875" y="170.150469" style="stroke: #000000; stroke-width: 0.8"/>
      </g>
     </g>
     <g id="text_30">
      <!-- 200 -->
      <g transform="translate(226.303937 175.160937) scale(0.14 -0.14)">
       <use xlink:href="#ArialMT-32"/>
       <use xlink:href="#ArialMT-30" x="55.615234"/>
       <use xlink:href="#ArialMT-30" x="111.230469"/>
      </g>
     </g>
    </g>
    <g id="text_31">
     <!-- Glucose (mg/dL) -->
     <g transform="translate(219.357375 286.818125) rotate(-90) scale(0.14 -0.14)">
      <defs>
       <path id="ArialMT-47" d="M 2638 1797 
L 2638 2334 
L 4578 2338 
L 4578 638 
Q 4131 281 3656 101 
Q 3181 -78 2681 -78 
Q 2006 -78 1454 211 
Q 903 500 622 1047 
Q 341 1594 341 2269 
Q 341 2938 620 3517 
Q 900 4097 1425 4378 
Q 1950 4659 2634 4659 
Q 3131 4659 3532 4498 
Q 3934 4338 4162 4050 
Q 4391 3763 4509 3300 
L 3963 3150 
Q 3859 3500 3706 3700 
Q 3553 3900 3268 4020 
Q 2984 4141 2638 4141 
Q 2222 4141 1919 4014 
Q 1616 3888 1430 3681 
Q 1244 3475 1141 3228 
Q 966 2803 966 2306 
Q 966 1694 1177 1281 
Q 1388 869 1791 669 
Q 2194 469 2647 469 
Q 3041 469 3416 620 
Q 3791 772 3984 944 
L 3984 1797 
L 2638 1797 
z
" transform="scale(0.015625)"/>
      </defs>
      <use xlink:href="#ArialMT-47"/>
      <use xlink:href="#ArialMT-6c" x="77.783203"/>
      <use xlink:href="#ArialMT-75" x="100"/>
      <use xlink:href="#ArialMT-63" x="155.615234"/>
      <use xlink:href="#ArialMT-6f" x="205.615234"/>
      <use xlink:href="#ArialMT-73" x="261.230469"/>
      <use xlink:href="#ArialMT-65" x="311.230469"/>
      <use xlink:href="#ArialMT-20" x="366.845703"/>
      <use xlink:href="#ArialMT-28" x="394.628906"/>
      <use xlink:href="#ArialMT-6d" x="427.929688"/>
      <use xlink:href="#ArialMT-67" x="511.230469"/>
      <use xlink:href="#ArialMT-2f" x="566.845703"/>
      <use xlink:href="#ArialMT-64" x="594.628906"/>
      <use xlink:href="#ArialMT-4c" x="650.244141"/>
      <use xlink:href="#ArialMT-29" x="705.859375"/>
     </g>
    </g>
   </g>
   <g id="line2d_39">
    <path d="M 261.64142 235.080469 
L 267.182006 235.080469 
L 268.132413 233.444025 
L 272.88445 223.795304 
L 274.785264 220.354029 
L 276.686079 217.280712 
L 278.586894 214.626401 
L 280.487708 212.430633 
L 282.388523 210.717981 
L 284.289338 209.494299 
L 286.190152 208.744358 
L 288.090967 208.432349 
L 289.991781 208.505726 
L 291.892596 208.90139 
L 293.793411 209.552353 
L 296.644633 210.865822 
L 300.446262 212.948838 
L 306.148706 216.087422 
L 308.999928 217.451344 
L 311.85115 218.601612 
L 314.702371 219.511474 
L 317.553593 220.173864 
L 320.404815 220.597469 
L 323.256037 220.802994 
L 326.107259 220.819679 
L 329.908888 220.608374 
L 334.660925 220.092741 
L 349.867442 218.213322 
L 355.569886 217.840929 
L 361.27233 217.704936 
L 361.27233 217.704936 
" clip-path="url(#p3f59e6d4b7)" style="fill: none; stroke: #000000; stroke-width: 1.5; stroke-linecap: square"/>
   </g>
   <g id="line2d_40">
    <path d="M 256.659875 235.080469 
L 366.253875 235.080469 
" clip-path="url(#p3f59e6d4b7)" style="fill: none; stroke-dasharray: 3.7,1.6; stroke-dashoffset: 0; stroke: #888888"/>
   </g>
   <g id="patch_15">
    <path d="M 256.659875 300.010469 
L 256.659875 170.150469 
" style="fill: none; stroke: #000000; stroke-width: 0.8; stroke-linejoin: miter; stroke-linecap: square"/>
   </g>
   <g id="patch_16">
    <path d="M 256.659875 300.010469 
L 366.253875 300.010469 
" style="fill: none; stroke: #000000; stroke-width: 0.8; stroke-linejoin: miter; stroke-linecap: square"/>
   </g>
  </g>
  <g id="axes_6">
   <g id="patch_17">
    <path d="M 443.619875 300.010469 
L 553.213875 300.010469 
L 553.213875 170.150469 
L 443.619875 170.150469 
z
" style="fill: #ffffff"/>
   </g>
   <g id="PolyCollection_6"/>
   <g id="matplotlib.axis_11">
    <g id="xtick_11">
     <g id="line2d_41">
      <g>
       <use xlink:href="#m1564b6dba7" x="448.60142" y="300.010469" style="stroke: #000000; stroke-width: 0.8"/>
      </g>
     </g>
     <g id="text_32">
      <!-- 0 -->
      <g transform="translate(444.708764 317.031406) scale(0.14 -0.14)">
       <use xlink:href="#ArialMT-30"/>
      </g>
     </g>
    </g>
    <g id="xtick_12">
     <g id="line2d_42">
      <g>
       <use xlink:href="#m1564b6dba7" x="503.951926" y="300.010469" style="stroke: #000000; stroke-width: 0.8"/>
      </g>
     </g>
     <g id="text_33">
      <!-- 100 -->
      <g transform="translate(492.273957 317.031406) scale(0.14 -0.14)">
       <use xlink:href="#ArialMT-31"/>
       <use xlink:href="#ArialMT-30" x="55.615234"/>
       <use xlink:href="#ArialMT-30" x="111.230469"/>
      </g>
     </g>
    </g>
    <g id="text_34">
     <!-- Time (min) -->
     <g transform="translate(465.240156 334.005469) scale(0.14 -0.14)">
      <use xlink:href="#ArialMT-54"/>
      <use xlink:href="#ArialMT-69" x="57.333984"/>
      <use xlink:href="#ArialMT-6d" x="79.550781"/>
      <use xlink:href="#ArialMT-65" x="162.851562"/>
      <use xlink:href="#ArialMT-20" x="218.466797"/>
      <use xlink:href="#ArialMT-28" x="246.25"/>
      <use xlink:href="#ArialMT-6d" x="279.550781"/>
      <use xlink:href="#ArialMT-69" x="362.851562"/>
      <use xlink:href="#ArialMT-6e" x="385.068359"/>
      <use xlink:href="#ArialMT-29" x="440.683594"/>
     </g>
    </g>
   </g>
   <g id="matplotlib.axis_12">
    <g id="ytick_21">
     <g id="line2d_43">
      <g>
       <use xlink:href="#m281bf3a0d5" x="443.619875" y="300.010469" style="stroke: #000000; stroke-width: 0.8"/>
      </g>
     </g>
     <g id="text_35">
      <!-- 0 -->
      <g transform="translate(428.834562 305.020937) scale(0.14 -0.14)">
       <use xlink:href="#ArialMT-30"/>
      </g>
     </g>
    </g>
    <g id="ytick_22">
     <g id="line2d_44">
      <g>
       <use xlink:href="#m281bf3a0d5" x="443.619875" y="245.902135" style="stroke: #000000; stroke-width: 0.8"/>
      </g>
     </g>
     <g id="text_36">
      <!-- 50 -->
      <g transform="translate(421.04925 250.912604) scale(0.14 -0.14)">
       <use xlink:href="#ArialMT-35"/>
       <use xlink:href="#ArialMT-30" x="55.615234"/>
      </g>
     </g>
    </g>
    <g id="ytick_23">
     <g id="line2d_45">
      <g>
       <use xlink:href="#m281bf3a0d5" x="443.619875" y="191.793802" style="stroke: #000000; stroke-width: 0.8"/>
      </g>
     </g>
     <g id="text_37">
      <!-- 100 -->
      <g transform="translate(413.263937 196.804271) scale(0.14 -0.14)">
       <use xlink:href="#ArialMT-31"/>
       <use xlink:href="#ArialMT-30" x="55.615234"/>
       <use xlink:href="#ArialMT-30" x="111.230469"/>
      </g>
     </g>
    </g>
    <g id="text_38">
     <!-- Glucose disposal -->
     <g transform="translate(391.305 288.384375) rotate(-90) scale(0.14 -0.14)">
      <use xlink:href="#ArialMT-47"/>
      <use xlink:href="#ArialMT-6c" x="77.783203"/>
      <use xlink:href="#ArialMT-75" x="100"/>
      <use xlink:href="#ArialMT-63" x="155.615234"/>
      <use xlink:href="#ArialMT-6f" x="205.615234"/>
      <use xlink:href="#ArialMT-73" x="261.230469"/>
      <use xlink:href="#ArialMT-65" x="311.230469"/>
      <use xlink:href="#ArialMT-20" x="366.845703"/>
      <use xlink:href="#ArialMT-64" x="394.628906"/>
      <use xlink:href="#ArialMT-69" x="450.244141"/>
      <use xlink:href="#ArialMT-73" x="472.460938"/>
      <use xlink:href="#ArialMT-70" x="522.460938"/>
      <use xlink:href="#ArialMT-6f" x="578.076172"/>
      <use xlink:href="#ArialMT-73" x="633.691406"/>
      <use xlink:href="#ArialMT-61" x="683.691406"/>
      <use xlink:href="#ArialMT-6c" x="739.306641"/>
     </g>
     <!-- (nmol/min/gBW) -->
     <g transform="translate(406.317375 285.250781) rotate(-90) scale(0.14 -0.14)">
      <use xlink:href="#ArialMT-28"/>
      <use xlink:href="#ArialMT-6e" x="33.300781"/>
      <use xlink:href="#ArialMT-6d" x="88.916016"/>
      <use xlink:href="#ArialMT-6f" x="172.216797"/>
      <use xlink:href="#ArialMT-6c" x="227.832031"/>
      <use xlink:href="#ArialMT-2f" x="250.048828"/>
      <use xlink:href="#ArialMT-6d" x="277.832031"/>
      <use xlink:href="#ArialMT-69" x="361.132812"/>
      <use xlink:href="#ArialMT-6e" x="383.349609"/>
      <use xlink:href="#ArialMT-2f" x="438.964844"/>
      <use xlink:href="#ArialMT-67" x="466.748047"/>
      <use xlink:href="#ArialMT-42" x="522.363281"/>
      <use xlink:href="#ArialMT-57" x="589.0625"/>
      <use xlink:href="#ArialMT-29" x="683.447266"/>
     </g>
    </g>
   </g>
   <g id="line2d_46">
    <path d="M 448.60142 205.794333 
L 454.142006 205.794333 
L 455.092413 230.05031 
L 456.042821 238.455035 
L 456.993228 242.023031 
L 457.943635 243.484287 
L 458.894043 243.820007 
L 459.84445 243.456934 
L 460.794857 242.603861 
L 461.745264 241.372448 
L 462.695672 239.827951 
L 464.596486 235.959761 
L 466.497301 231.251047 
L 469.348523 223.135502 
L 474.100559 209.229801 
L 476.001374 204.389268 
L 477.902189 200.275847 
L 479.803003 196.976808 
L 480.753411 195.637164 
L 481.703818 194.498386 
L 482.654225 193.55256 
L 483.604633 192.789795 
L 484.55504 192.198868 
L 485.505447 191.767757 
L 486.455854 191.484052 
L 487.406262 191.335269 
L 489.307076 191.393457 
L 491.207891 191.848006 
L 493.108706 192.61216 
L 495.00952 193.607852 
L 497.860742 195.386634 
L 508.315223 202.295531 
L 511.166445 203.803478 
L 514.017666 205.039434 
L 516.868888 205.984954 
L 519.72011 206.63999 
L 522.571332 207.019646 
L 525.422554 207.15115 
L 528.273776 207.070868 
L 532.075405 206.70829 
L 536.827442 205.996085 
L 548.23233 204.170582 
L 548.23233 204.170582 
" clip-path="url(#p9927543e2e)" style="fill: none; stroke: #000000; stroke-width: 1.5; stroke-linecap: square"/>
   </g>
   <g id="line2d_47">
    <path d="M 443.619875 205.794333 
L 553.213875 205.794333 
" clip-path="url(#p9927543e2e)" style="fill: none; stroke-dasharray: 3.7,1.6; stroke-dashoffset: 0; stroke: #888888"/>
   </g>
   <g id="patch_18">
    <path d="M 443.619875 300.010469 
L 443.619875 170.150469 
" style="fill: none; stroke: #000000; stroke-width: 0.8; stroke-linejoin: miter; stroke-linecap: square"/>
   </g>
   <g id="patch_19">
    <path d="M 443.619875 300.010469 
L 553.213875 300.010469 
" style="fill: none; stroke: #000000; stroke-width: 0.8; stroke-linejoin: miter; stroke-linecap: square"/>
   </g>
  </g>
 </g>
 <defs>
  <clipPath id="p1b638604cf">
   <rect x="69.699875" y="12.210469" width="109.594" height="129.86"/>
  </clipPath>
  <clipPath id="pfebfdbe579">
   <rect x="256.659875" y="12.210469" width="109.594" height="129.86"/>
  </clipPath>
  <clipPath id="p98737ff3a9">
   <rect x="443.619875" y="12.210469" width="109.594" height="129.86"/>
  </clipPath>
  <clipPath id="p85b68c3e41">
   <rect x="69.699875" y="170.150469" width="109.594" height="129.86"/>
  </clipPath>
  <clipPath id="p3f59e6d4b7">
   <rect x="256.659875" y="170.150469" width="109.594" height="129.86"/>
  </clipPath>
  <clipPath id="p9927543e2e">
   <rect x="443.619875" y="170.150469" width="109.594" height="129.86"/>
  </clipPath>
 </defs>
</svg>
